<?xml version="1.0"?>
<svg xmlns="http://www.w3.org/2000/svg" xmlns:xlink="http://www.w3.org/1999/xlink" width="60" height="60" viewBox="0 0 256 256" overflow="visible" enable-background="new 0 0 256 256">
  <defs>
    <linearGradient xlink:href="#2" id="9" gradientUnits="userSpaceOnUse" x1="111.9" x2="142.63"/>
    <linearGradient xlink:href="#4" id="A" gradientUnits="userSpaceOnUse" x1="112.91" x2="143.64"/>
    <linearGradient y2="828.21" x2="761.52" y1="50.17" x1="316.08" gradientTransform="matrix(.29222 0 0 .1663-12.74 79.18)" gradientUnits="userSpaceOnUse" id="F">
      <stop stop-color="#ff0"/>
      <stop offset=".1" stop-color="#2d8e61" stop-opacity=".906"/>
      <stop offset=".229" stop-color="#3f1ec2" stop-opacity=".816"/>
      <stop offset=".511" stop-color="#7f1486" stop-opacity=".636"/>
      <stop offset="1" stop-color="#fff" stop-opacity="0"/>
    </linearGradient>
    <linearGradient xlink:href="#2" id="B" gradientUnits="userSpaceOnUse" gradientTransform="matrix(1 0 0 1.0396 44.45.41)" x1="82.33" y1="220.33" x2="141.16" y2="177.9"/>
    <linearGradient xlink:href="#2" id="D" gradientUnits="userSpaceOnUse" x1="110.09" x2="119.66"/>
    <linearGradient y2="213.15" x2="113.31" y1="206.02" x1="86.81" gradientUnits="userSpaceOnUse" id="E">
      <stop stop-color="#525252"/>
      <stop offset="1" stop-color="#e8e8e8"/>
    </linearGradient>
    <linearGradient xlink:href="#2" id="C" gradientUnits="userSpaceOnUse" gradientTransform="matrix(1 0 0 1.0396 44.952 1.168)" x1="82.33" y1="220.33" x2="141.16" y2="177.9"/>
    <linearGradient xlink:href="#4" id="8" gradientUnits="userSpaceOnUse" x1="116.91" x2="147.64"/>
    <linearGradient id="0" gradientUnits="userSpaceOnUse" x1="87.76" y1="62.5" x2="175.87" y2="199.66">
      <stop stop-color="#222"/>
      <stop offset="1" stop-color="#3f43ef"/>
    </linearGradient>
    <linearGradient xlink:href="#2" id="1" gradientUnits="userSpaceOnUse" x1="138.09" x2="147.66"/>
    <linearGradient xlink:href="#2" id="7" gradientUnits="userSpaceOnUse" x1="115.9" x2="146.63"/>
    <linearGradient id="2">
      <stop stop-color="#0e0e0e"/>
      <stop offset="1" stop-color="#8b8b8b"/>
    </linearGradient>
    <linearGradient xlink:href="#4" id="3" gradientUnits="userSpaceOnUse" gradientTransform="matrix(1.11905-.0724.07321 1.10665-30.03-9.505)" x1="127.28" y1="188.95" x2="138.13" y2="179.86"/>
    <linearGradient xlink:href="#4" id="6" gradientUnits="userSpaceOnUse" x1="114.91" x2="145.64"/>
    <linearGradient id="4">
      <stop stop-color="#0e0e0e"/>
      <stop offset=".765" stop-color="#c7c7c7"/>
      <stop offset="1" stop-color="#151515"/>
    </linearGradient>
    <linearGradient xlink:href="#2" id="5" gradientUnits="userSpaceOnUse" x1="113.9" x2="144.63"/>
  </defs>
  <path d="m43.575 24c-8.67 0-15.723 7.05-15.723 15.723v192.97c0 8.67 7.05 15.724 15.723 15.724h192.97c8.67 0 15.724-7.05 15.724-15.724v-192.97c0-8.67-7.05-15.723-15.724-15.723h-192.97" opacity=".2"/>
  <path d="m242.27 225.69c0 7.03-5.697 12.724-12.724 12.724h-192.97c-7.03 0-12.723-5.697-12.723-12.724v-192.97c0-7.03 5.696-12.723 12.723-12.723h192.97c7.03 0 12.724 5.696 12.724 12.723v192.97" fill="#5a008c"/>
  <path d="m36.575 25.301c-4.092 0-7.422 3.33-7.422 7.422v192.97c0 4.093 3.33 7.422 7.422 7.422h192.97c4.093 0 7.422-3.329 7.422-7.422v-192.97c0-4.092-3.329-7.422-7.422-7.422h-192.97" fill="url(#0)"/>
  <g transform="matrix(1.012 0 0 1.012-69.927-128.15)">
    <path d="m138.09 151.13v8.344 16.344 20h.125c.179 1.683.948 3.547 2.188 5.094 2.203 2.749 5.088 3.43 6.469 1.531.496-.682.724-1.595.719-2.625h.063v-20-16.344-12.344h-9.563z" fill="url(#1)" fill-rule="evenodd" stroke="#0a0a0a" stroke-linejoin="round" stroke-linecap="round" color="#000" stroke-width=".651"/>
    <path transform="matrix(.17961.22414-.1711.23529 158.82 124.83)" d="m129.55 195.58c0 3.487-4.296 6.313-9.596 6.313-5.3 0-9.596-2.827-9.596-6.313 0-3.487 4.296-6.313 9.596-6.313 5.3 0 9.596 2.827 9.596 6.313" opacity=".579" fill="#b6b6b6" fill-rule="evenodd" color="#000" id="G"/>
    <g fill-rule="evenodd">
      <path d="m103.04 193.31c-1.097-4.833-1.355-8.169.406-12.258 2.01-4.672 5.618-8.273 9.717-10.931 4.193-2.718 6.997-5.327 12.03-4.643 5.271.717 5.273 1.285 8.777 4.86 3.168 3.232 6.975 9.286 9.542 12.13 5.03 4.794 10.06 9.588 15.09 14.382-3.062-.266-15.823 3.13-19.583 5.316-7.355 8.265-9.383 9.613-12.251 17.312-8.497-8.974-23.308-23.25-23.724-26.16z" fill="#232323" stroke="#000" stroke-linejoin="round" stroke-linecap="round" stroke-width="2"/>
      <path d="m122.1 166.59l30.97 30.554c-6.294 1.466-10.725 2.813-14.06 5.367l-27.921-30.718c1.671-.786 4.327-3.328 5.412-3.999 1.09-.675 2.028-.576 3.336-1.058 1.032-.381.912-.059 2.261-.146" opacity=".8" fill="url(#3)"/>
    </g>
    <g fill="none">
      <path d="m114.4 206.44c.017-9.3 4.563-14.237 7.188-16.43 5.782-4.829 15.451-9.08 22.544-6.574" opacity=".579" stroke="url(#5)"/>
      <path d="m115.41 206.95c.017-9.3 4.563-14.237 7.188-16.43 5.782-4.829 15.451-9.08 22.544-6.574" stroke="url(#6)"/>
      <path d="m116.4 208.44c.017-9.3 4.563-14.237 7.188-16.43 5.782-4.829 15.451-9.08 22.544-6.574" opacity=".579" stroke="url(#7)"/>
      <path d="m117.41 208.95c.017-9.3 4.563-14.237 7.188-16.43 5.782-4.829 15.451-9.08 22.544-6.574" stroke="url(#8)"/>
      <path d="m112.4 204.44c.017-9.3 4.563-14.237 7.188-16.43 5.782-4.829 15.451-9.08 22.544-6.574" opacity=".579" stroke="url(#9)"/>
      <path d="m113.41 204.95c.017-9.3 4.563-14.237 7.188-16.43 5.782-4.829 15.451-9.08 22.544-6.574" stroke="url(#A)"/>
      <path d="m103.04 193.31c-1.097-4.833-1.355-8.169.406-12.258 2.01-4.672 5.618-8.273 9.717-10.931 4.193-2.718 6.997-5.327 12.03-4.643 5.271.717 5.273 1.285 8.777 4.86 3.168 3.232 6.975 9.286 9.542 12.13 5.03 4.794 10.06 9.588 15.09 14.382-3.062-.266-15.823 3.13-19.583 5.316-7.355 8.265-9.383 9.613-12.251 17.312-8.497-8.974-23.308-23.25-23.724-26.16z" stroke="#000" stroke-linejoin="round" stroke-linecap="round" stroke-width="2"/>
    </g>
    <g fill-rule="evenodd">
      <g stroke-linejoin="round" stroke-linecap="round" stroke-width="2">
        <path d="m128.04 197.17l46.72-8.664-13.637 41.744-44.19 11.289 11.11-44.37z" fill="url(#B)" stroke="#d4d4d4"/>
        <path d="m128.54 197.93l46.72-8.664-13.637 41.744-44.19 11.289 11.11-44.37z" fill="url(#C)" stroke="#000"/>
      </g>
      <g color="#000">
        <path transform="matrix(.72099-1.14379 1.0729.22128-147.76 287.48)" d="m116.42 204.55c0 6.486-6.162 11.743-13.763 11.743-7.601 0-13.763-5.258-13.763-11.743 0-6.485 6.162-11.743 13.763-11.743 7.601 0 13.763 5.258 13.763 11.743" fill="#ababab"/>
        <path d="m110.09 151.13v8.344 16.344 20h.125c.179 1.683.948 3.547 2.188 5.094 2.203 2.749 5.088 3.43 6.469 1.531.496-.682.724-1.595.719-2.625h.063v-20-16.344-12.344h-9.563z" fill="url(#D)" stroke="#0a0a0a" stroke-linejoin="round" stroke-linecap="round" stroke-width=".651"/>
      </g>
    </g>
    <use transform="translate(-32)" xlink:href="#G"/>
    <path d="m115.43 208.91c-2.827 6.02-10.838 8.946-17.894 6.534-4.879-1.667-8.218-5.56-8.607-10.03" transform="matrix(.72099-1.14379 1.0729.22128-147.76 287.48)" opacity=".867" fill="#ababab" fill-rule="evenodd" stroke="url(#E)" stroke-linejoin="round" stroke-linecap="round" color="#000" stroke-width="1.486"/>
  </g>
  <path d="m90.85 222.63c26.13 7.11 36.506 9.399 58.31 10.522 16.185.833 25.614-4.974 41.681-5.685 16.597-.735 30.05-2.57 33.02-16.452 3.823-17.884 18.343-42.53 6.967-70.67 6.128-10.438 36.24 27.307-146.32-62.61-2.471-1.217-15.301 5.697-15.724 13.99-2.219 18.27-7.578 72.34-2.244 105.34-1.247 18.08 17.456 25.561 24.314 25.561" fill="url(#F)" fill-rule="evenodd"/>
  <g fill="#fff">
    <path transform="matrix(1.24322 0 0-1.26827 178.47 45.14)" d="m.002-.001h12.727" fill="#fff" stroke="#fff" stroke-width=".398" stroke-miterlimit="10"/>
  </g>
  <g transform="matrix(7.50014 0 0 8.20285 429.26-913.08)" fill="#ffe601" stroke-width="1.25">
    <path d="m-40.789 127.88l.088 1.863h-.223c-.043-.328-.102-.563-.176-.703-.121-.227-.283-.393-.486-.498-.199-.109-.463-.164-.791-.164h-1.119v6.07c0 .488.053.793.158.914.148.164.377.246.686.246h.275v.217h-3.369v-.217h.281c.336 0 .574-.102.715-.305.086-.125.129-.41.129-.855v-6.07h-.955c-.371 0-.635.027-.791.082-.203.074-.377.217-.521.428-.145.211-.23.496-.258.855h-.223l.094-1.863h6.486"/>
    <path d="m-39.479 131.85v3.141h1.746c.453 0 .756-.068.908-.205.203-.18.316-.496.34-.949h.217v2.766h-.217c-.055-.387-.109-.635-.164-.744-.07-.137-.186-.244-.346-.322-.16-.078-.406-.117-.738-.117h-1.746v2.619c0 .352.016.566.047.645.031.074.086.135.164.182.078.043.227.065.445.065h1.348c.449 0 .775-.031.979-.094.203-.063.398-.186.586-.369.242-.242.49-.607.744-1.096h.234l-.686 1.992h-6.123v-.217h.281c.188 0 .365-.045.533-.135.125-.063.209-.156.252-.281.047-.125.07-.381.07-.768v-5.162c0-.504-.051-.814-.152-.932-.141-.156-.375-.234-.703-.234h-.281v-.217h6.123l.088 1.74h-.229c-.082-.418-.174-.705-.275-.861-.098-.156-.244-.275-.439-.357-.156-.059-.432-.088-.826-.088h-2.18"/>
    <path d="m-29.575 131.42l1.705 2.543c.473.703.822 1.148 1.049 1.336.23.184.521.285.873.305v.217h-3.41v-.217c.227-.004.395-.027.504-.07.082-.035.148-.088.199-.158.055-.074.082-.148.082-.223 0-.09-.018-.18-.053-.27-.027-.066-.135-.238-.322-.516l-1.348-2.039-1.664 2.133c-.176.227-.281.379-.316.457-.035.074-.053.152-.053.234 0 .125.053.229.158.311.105.082.307.129.604.141v.217h-2.818v-.217c.199-.019.371-.061.516-.123.242-.102.473-.238.691-.41.219-.172.469-.436.75-.791l1.875-2.367-1.564-2.291c-.426-.621-.787-1.027-1.084-1.219-.297-.195-.639-.299-1.025-.311v-.217h3.674v.217c-.313.012-.527.063-.645.152-.113.09-.17.189-.17.299 0 .145.094.355.281.633l1.219 1.822 1.412-1.787c.164-.211.264-.355.299-.434.039-.078.059-.158.059-.24 0-.082-.023-.154-.07-.217-.059-.082-.133-.139-.223-.17-.09-.035-.275-.055-.557-.059v-.217h2.818v.217c-.223.012-.404.047-.545.105-.211.09-.404.211-.58.363-.176.152-.424.434-.744.844l-1.576 2.02"/>
  </g>
</svg>
