/* XPM */
static char *texstudio[] = {
/* columns rows colors chars-per-pixel */
"32 32 256 2",
"   c #0E0E0E",
".  c #121212",
"X  c #1D1D1D",
"o  c #201725",
"O  c #2B1D32",
"+  c #2D1D3C",
"@  c #232323",
"#  c #24242C",
"$  c #2A2A2B",
"%  c #252534",
"&  c #26263B",
"*  c #2A2B3B",
"=  c #353536",
"-  c #39393D",
";  c #2D1F44",
":  c #272742",
">  c #272845",
",  c #2E214A",
"<  c #272848",
"1  c #28294D",
"2  c #2B2D45",
"3  c #35364D",
"4  c #292A53",
"5  c #2B2C5C",
"6  c #2F2252",
"7  c #31245D",
"8  c #302356",
"9  c #2A305B",
"0  c #353654",
"q  c #33345E",
"w  c #3E1D7A",
"e  c #2B2D64",
"r  c #2C2E6B",
"t  c #322365",
"y  c #2D2F73",
"u  c #2E3074",
"i  c #2F307C",
"p  c #33347C",
"a  c #343B7B",
"s  c #3C3D77",
"d  c #433C47",
"f  c #470C67",
"g  c #470C6A",
"h  c #480070",
"j  c #480D73",
"k  c #4A0E7B",
"l  c #53057D",
"z  c #4A107F",
"x  c #2F5857",
"c  c #316247",
"v  c #2E4E69",
"b  c #3F4060",
"n  c #316F6E",
"m  c #2F7B65",
"M  c #306F71",
"N  c #33637B",
"B  c #444444",
"V  c #4A4A4A",
"C  c #434349",
"Z  c #535353",
"A  c #444467",
"S  c #4F5077",
"D  c #784578",
"F  c #666665",
"G  c #6F6F6E",
"H  c #7F7F7E",
"J  c #9D6D5F",
"K  c #9E7559",
"L  c #89586D",
"P  c #814673",
"I  c #805770",
"U  c #83537C",
"Y  c #A07462",
"T  c #A17A69",
"R  c #7F8634",
"E  c #75AF3F",
"W  c #368B59",
"Q  c #4F914E",
"!  c #58A152",
"~  c #79B445",
"^  c #BFA13A",
"/  c #C49B3A",
"(  c #CBAC37",
")  c #D1AF33",
"_  c #96C333",
"`  c #B7D725",
"'  c #F5DC0C",
"]  c #EBCE13",
"[  c #EDD214",
"{  c #EDD41B",
"}  c #D5E816",
"|  c #FEE403",
" . c #FFFF00",
".. c #ECEE1C",
"X. c #E3C825",
"o. c #E9E92E",
"O. c #A8834E",
"+. c #B78C4B",
"@. c #B39344",
"#. c #B38E51",
"$. c #BAA55C",
"%. c #A58A6C",
"&. c #A98967",
"*. c #A58B76",
"=. c #A89774",
"-. c #B09C73",
";. c #9FB66F",
":. c #B6A768",
">. c #A0A074",
",. c #C7A440",
"<. c #C9B64B",
"1. c #C9B449",
"2. c #C5B356",
"3. c #D3C040",
"4. c #C4C671",
"5. c #3F1E82",
"6. c #322E89",
"7. c #2F3181",
"8. c #303285",
"9. c #31338B",
"0. c #373A8B",
"q. c #3A2B9B",
"w. c #323493",
"e. c #33369C",
"r. c #373E99",
"t. c #3D24AD",
"y. c #3B26A7",
"u. c #3437A4",
"i. c #3933A2",
"p. c #3538AC",
"a. c #3837AC",
"s. c #3C21B1",
"d. c #3739B3",
"f. c #373ABA",
"g. c #383BBD",
"h. c #3C3CB3",
"j. c #5A008B",
"k. c #52098E",
"l. c #510588",
"z. c #4B1084",
"x. c #401F87",
"c. c #4C128C",
"v. c #530994",
"b. c #4D1292",
"n. c #521F98",
"m. c #611F8D",
"M. c #40208D",
"N. c #54248D",
"B. c #422294",
"V. c #4A2294",
"C. c #43239E",
"Z. c #4F269E",
"A. c #572096",
"S. c #5D2093",
"D. c #53229E",
"F. c #5B2199",
"G. c #583297",
"H. c #63248F",
"J. c #753983",
"K. c #622294",
"L. c #652995",
"P. c #622498",
"I. c #662B9B",
"U. c #682E9F",
"Y. c #67339C",
"T. c #673A9F",
"R. c #4523A5",
"E. c #4B23A3",
"W. c #4422AA",
"Q. c #4728A6",
"!. c #5221A1",
"~. c #562AA4",
"^. c #573BA1",
"/. c #4B2CB5",
"(. c #4923B6",
"). c #4A34B1",
"_. c #672DA3",
"`. c #683CA4",
"'. c #6836A8",
"]. c #6A3BB1",
"[. c #35498F",
"{. c #335485",
"}. c #354A90",
"|. c #45478B",
" X c #404295",
".X c #4E5094",
"XX c #784F9F",
"oX c #7A4696",
"OX c #4F40AA",
"+X c #5C5DA9",
"@X c #4140BD",
"#X c #6A44A6",
"$X c #6848AE",
"%X c #744CA2",
"&X c #6B51AE",
"*X c #6949B4",
"=X c #6A4ABE",
"-X c #6748B7",
";X c #6850BE",
":X c #6552BE",
">X c #7A64A3",
",X c #7864AC",
"<X c #7874AD",
"1X c #7B63B3",
"2X c #3A3DC2",
"3X c #3A3ECC",
"4X c #3B3FD4",
"5X c #4A2BCA",
"6X c #4A2AC0",
"7X c #5232C2",
"8X c #5433CA",
"9X c #3F43EF",
"0X c #4746C6",
"qX c #5D58CC",
"wX c #4748DF",
"eX c #4043D9",
"rX c #5C59D3",
"tX c #5E58D6",
"yX c #6A4EC2",
"uX c #6C4BC4",
"iX c #6455C5",
"pX c #6852C4",
"aX c #6A52CC",
"sX c #6257CC",
"dX c #6955D3",
"fX c #6358D5",
"gX c #6359DC",
"hX c #6957D6",
"jX c #6E6ACF",
"kX c #746ACB",
"lX c #7463C5",
"zX c #6261D3",
"xX c #6662DB",
"cX c #4145EF",
"vX c #4549EF",
"bX c #4A4DEF",
"nX c #4F51EF",
"mX c #5C58E3",
"MX c #5555ED",
"NX c #5C59EB",
"BX c #675CE1",
"VX c #615BE9",
"CX c #845E85",
"ZX c #855C97",
"AX c #957583",
"SX c #92718C",
"DX c #836898",
"FX c #927C97",
"GX c #8375B8",
"HX c #888888",
"JX c #998589",
"KX c #9C9286",
"LX c #949494",
"PX c #A19381",
"IX c #8C82A5",
"UX c None",
/* pixels */
"UXUXUXUXUXUXUXUXUXUXUXUXUXUXUXUXUXUXUXUXUXUXUXUXUXUXUXUXUXUXUXUX",
"UXUXUXUXUXUXUXUXUXUXUXUXUXUXUXUXUXUXUXUXUXUXUXUXUXUXUXUXUXUXUXUX",
"UXUXUXUXUXj.j.j.j.j.j.j.j.j.j.j.j.j.j.j.j.j.j.j.j.j.j.j.UXUXUXUX",
"UXUXUXl + @ d O X B O O O O O O O O O + + ; , , 6 8 7 7 t k UXUX",
"UXUXUXg @ $ B X X Z X @ @ @ @ @ @ # # % & & : 1 1 4 5 5 e w UXUX",
"UXUXUXf @ @ F .   Z @ @ @ @ @ @ # % & & : < A A q 5 e r y w UXUX",
"UXUXUXf . @ Z HXX = X @ X @ # # % & 3 3 0 A q S e e r y y x.UXUX",
"UXUXUXg . $ V Z LX@ X @ - 3 % % & : 1 1 4 5 e e r y y i p x.UXUX",
"UXUXUXf   $ V - V Z V V Z C & : > < 4 4 5 5 r r y y p 7.6.x.UXUX",
"UXUXUXf X X = $ = F >.*.Z * : < 1 4 5 e e s u u 8.i 8.0.w.q.UXUX",
"UXUXUXf @ X @ X G o. .} R 2 1 4 5 5 e e s a p |..X0. X+Xe.B.UXUX",
"UXUXUXf @ o = $ 4.} ` _ E Q x 5 5 e r r y i 7.7.9.9.e.e.e.C.UXUX",
"UXUXUXf @ # $ $ ;.~ ! W m M N {.a u u i p 8.9.9.w.e.u.u.a.R.UXUX",
"UXUXUXg % % X   c m n N {.}.r.i.t.s.q.6.8.9.w.w.e.u.u.p.d.R.UXUX",
"UXUXUXg % * # * v {.[.r.i.t.s.s.W.W.W.W.C.q.e.e.u.p.p.d.f.Q.UXUX",
"UXUXUXj : > 1 1 9.u.t.t.t.W.W.R.W.E.E.n.!.D.D.i.a.d.f.g.2X(.UXUX",
"UXUXUXj < 1 4 5 q.W.Q.E.Z.D.D.D.!.F.!.n.F.F.L.L.L.~.).).3X/.UXUX",
"UXUXUXj 4 4 5 e C.^ @.@.' O.( K n.n.F.P.K.J./ | +._.oXX.%.).UXUX",
"UXUXUXk 5 5 e r n.D n.D ] n.n.L K.K.K.K.K.I._.) ,.].ZX&.uX6XUXUX",
"UXUXUXk e e r u V.A.N.D ] S.S.S.K.K.P._._.'.].%X' SX$.uXaX8XUXUX",
"UXUXUXz r y u i N.S.S.D ] m.J.J J Y T T %X*X-XuX*.' GXhXhX8XUXUX",
"UXUXUXz.u u i 7.N.N.H.P [ L.Y.#.( %X%XAXAX=XuXuXFX{ -.BXBX8XUXUX",
"UXUXUXz.p 7.8.9.N.H.H.U [ `.`.&.( *X=XyXGXaXdXlX-.GX' kXVX5XUXUX",
"UXUXUXz.8.9.9.0.G.Y.#XU [ $X*X%.1.uXpXJXaXhXgX:.BXBX:.3.MX5XUXUX",
"UXUXUXc.9.w.w.e.G.#X&X&.| DXpX*.X.=.$.2.BXkX2.-.VXNXIX| -.).UXUX",
"UXUXUXc.w.e.u.u.OX$X&X>X>X,XsX*.<.fXgXIXVXxXjXjXMXnXzXfXrX7XUXUX",
"UXUXUXb.e.u.a.p.h.:X:XiXiXsXfX=.<.mXNXNXxXMXnXnXnXbXvXcX9X5XUXUX",
"UXUXUXb.u.a.d.d.g.g.0XqXqXtXtXKX<.MXMXMXKXbXbXvXcXcXcX9X9X5XUXUX",
"UXUXUXv.p.d.f.g.2X3X3X4XeXwXzX:.<.KXKX$.<XcX9XcX9X9X9XcX9X6XUXUX",
"UXUXUXUXl.k.k.v.k.v.v.v.v.v.v.v.v.v.v.v.v.v.v.v.v.v.v.v.v.h UXUX",
"UXUXUXUXUXUXUXUXUXUXUXUXUXUXUXUXUXUXUXUXUXUXUXUXUXUXUXUXUXUXUXUX",
"UXUXUXUXUXUXUXUXUXUXUXUXUXUXUXUXUXUXUXUXUXUXUXUXUXUXUXUXUXUXUXUX"
};
