<?xml version="1.0" encoding="UTF-8" standalone="no"?>
<svg
   xmlns:dc="http://purl.org/dc/elements/1.1/"
   xmlns:cc="http://creativecommons.org/ns#"
   xmlns:rdf="http://www.w3.org/1999/02/22-rdf-syntax-ns#"
   xmlns:svg="http://www.w3.org/2000/svg"
   xmlns="http://www.w3.org/2000/svg"
   xmlns:xlink="http://www.w3.org/1999/xlink"
   xml:space="preserve"
   id="Layer_1"
   viewBox="0 0 256 256"
   height="256"
   width="256"
   version="1.1"><metadata
     id="metadata294"><rdf:RDF><cc:Work
         rdf:about=""><dc:format>image/svg+xml</dc:format><dc:type
           rdf:resource="http://purl.org/dc/dcmitype/StillImage" /><dc:title></dc:title></cc:Work></rdf:RDF></metadata><defs
     id="defs292"><defs
       id="defs5"><rect
         id="SVGID_1_"
         y="0"
         x="0"
         height="768"
         width="1024" /></defs><clipPath
       id="SVGID_2_"><use
         xlink:href="#SVGID_1_"
         height="768"
         width="1024"
         y="0"
         x="0"
         style="overflow:visible"
         id="use9" /></clipPath><defs
       id="defs88"><rect
         id="SVGID_8_"
         y="0"
         x="0"
         height="768"
         width="1024" /></defs><clipPath
       id="SVGID_9_"><use
         xlink:href="#SVGID_8_"
         height="768"
         width="1024"
         y="0"
         x="0"
         style="overflow:visible"
         id="use92" /></clipPath></defs><g
     id="g3196"
     transform="matrix(3.6219665,0,0,3.6219665,-653.27268,-943.75046)"><g
       style="fill:#5555ff"
       id="g4221"><g
         style="fill:#5555ff"
         id="g4216"><path
           style="fill:#5555ff"
           id="path118"
           clip-path="url(#SVGID_9_)"
           d="m 196.381,323 c 1.192,0.105 2.57,3.489 3.229,4.377 1.668,2.249 3.689,3.378 6.471,3.623 2.282,0.201 4.508,-1.284 5.925,-2.915 0.841,-0.967 2.464,-4.969 3.777,-5.085 4.46,-0.394 4.498,-7.396 0,-7 -2.431,0.215 -4.308,1.055 -5.924,2.915 -0.842,0.967 -2.465,4.969 -3.778,5.085 -1,0.088 -2.692,-3.654 -3.228,-4.377 -1.669,-2.249 -3.69,-3.378 -6.472,-3.623 -4.499,-0.396 -4.46,6.606 0,7" /><path
           style="fill:#5555ff"
           id="path120"
           clip-path="url(#SVGID_9_)"
           d="m 215.783,323 c 1.19,0.105 2.569,3.491 3.227,4.377 1.668,2.249 3.689,3.378 6.471,3.623 2.281,0.201 4.507,-1.285 5.924,-2.915 0.84,-0.967 2.463,-4.969 3.776,-5.085 4.46,-0.394 4.498,-7.396 0,-7 -2.431,0.215 -4.308,1.055 -5.924,2.915 -0.841,0.966 -2.465,4.97 -3.776,5.085 -1,0.088 -2.692,-3.654 -3.228,-4.377 -1.668,-2.249 -3.689,-3.378 -6.47,-3.623 -4.499,-0.397 -4.46,6.606 0,7" /><path
           style="fill:#5555ff"
           id="path122"
           clip-path="url(#SVGID_9_)"
           d="m 191.522,329.559 c 0.939,-1.587 1.771,-3.234 2.77,-4.785 0.409,-0.635 0.757,-1.009 1.343,-1.542 -0.333,0.303 0.579,-0.28 0.106,-0.087 0.732,-0.299 -0.195,-0.109 0.64,-0.145 4.496,-0.19 4.515,-7.19 0,-7 -5.943,0.251 -8.261,5.565 -10.903,10.026 -2.306,3.892 3.747,7.412 6.044,3.533" /></g><path
         style="fill:#5555ff"
         id="path124"
         clip-path="url(#SVGID_9_)"
         d="m 235.181,323 c 0.426,0.018 0.664,0.143 0.71,0.18 0.646,0.511 0.835,0.82 1.236,1.441 0.981,1.52 1.636,3.243 2.351,4.896 0.759,1.752 3.293,2.131 4.789,1.255 1.791,-1.049 2.014,-3.038 1.255,-4.789 -2.039,-4.71 -4.503,-9.745 -10.341,-9.983 -4.516,-0.185 -4.498,6.816 0,7" /></g><g
       style="fill:#000000"
       id="g126"
       clip-path="url(#SVGID_2_)"
       transform="translate(-0.50000001,0)"><path
         style="fill:#000000"
         id="path128"
         d="m 187.835,269.075 c 0,-0.896 -0.512,-1.408 -1.408,-1.408 l -2.752,0 0,-7.104 8.191,0 c 3.072,0 4.352,1.344 4.352,4.352 l 0,32.574 c 0,0.896 0.512,1.408 1.408,1.408 l 9.919,0 c 0.896,0 1.408,-0.512 1.408,-1.408 l 0,-2.752 7.615,0 0,6.912 c 0,3.072 -1.28,4.352 -4.352,4.352 l -20.031,0 c -3.072,0 -4.352,-1.28 -4.352,-4.352 l 0,-32.574 z" /><path
         style="fill:#000000"
         id="path130"
         d="m 224.60601,267.667 -6.976,0 c -0.896,0 -1.408,0.512 -1.408,1.408 l 0,2.752 -7.359,0 0,-7.167 c 0,-3.008 1.024,-4.096 4.096,-4.096 l 31.678,0 c 3.072,0 4.096,1.088 4.096,4.096 l 0,7.167 -7.359,0 0,-2.752 c 0,-0.896 -0.512,-1.408 -1.408,-1.408 l -6.975,0 0,38.333 -8.384,0 0,-38.333 z" /></g></g></svg>