<?xml version="1.0" encoding="UTF-8" standalone="no"?>
<!-- Created with Inkscape (http://www.inkscape.org/) -->

<svg
   xmlns:dc="http://purl.org/dc/elements/1.1/"
   xmlns:cc="http://creativecommons.org/ns#"
   xmlns:rdf="http://www.w3.org/1999/02/22-rdf-syntax-ns#"
   xmlns:svg="http://www.w3.org/2000/svg"
   xmlns="http://www.w3.org/2000/svg"
   xmlns:sodipodi="http://sodipodi.sourceforge.net/DTD/sodipodi-0.dtd"
   xmlns:inkscape="http://www.inkscape.org/namespaces/inkscape"
   width="64px"
   height="64px"
   id="svg2993"
   version="1.1"
   inkscape:version="0.48.3.1 r9886"
   sodipodi:docname="mathmode.svg">
  <defs
     id="defs2995" />
  <sodipodi:namedview
     id="base"
     pagecolor="#ffffff"
     bordercolor="#666666"
     borderopacity="1.0"
     inkscape:pageopacity="0.0"
     inkscape:pageshadow="2"
     inkscape:zoom="10.5625"
     inkscape:cx="32"
     inkscape:cy="32"
     inkscape:current-layer="layer1"
     showgrid="true"
     inkscape:document-units="px"
     inkscape:grid-bbox="true"
     inkscape:window-width="1019"
     inkscape:window-height="882"
     inkscape:window-x="434"
     inkscape:window-y="106"
     inkscape:window-maximized="0" />
  <metadata
     id="metadata2998">
    <rdf:RDF>
      <cc:Work
         rdf:about="">
        <dc:format>image/svg+xml</dc:format>
        <dc:type
           rdf:resource="http://purl.org/dc/dcmitype/StillImage" />
        <dc:title />
      </cc:Work>
    </rdf:RDF>
  </metadata>
  <g
     id="layer1"
     inkscape:label="Layer 1"
     inkscape:groupmode="layer">
    <g
       style="font-size:53.14353943000000413px;font-style:normal;font-variant:normal;font-weight:bold;font-stretch:normal;line-height:125%;letter-spacing:0px;word-spacing:0px;fill:#338000;fill-opacity:1;stroke:none;font-family:Courier New;-inkscape-font-specification:Courier New Bold"
       id="text3800"
       transform="matrix(0.88368436,0,0,0.88368436,3.7445729,3.6037216)">
      <path
         d="m 28.153755,36.943285 c -2.9e-5,1.470451 -0.24222,2.811148 -0.726571,4.022094 -0.48441,1.193658 -1.23693,2.231617 -2.257563,3.113879 -1.003387,0.864969 -2.292186,1.556941 -3.8664,2.075919 -1.57426,0.501681 -3.451236,0.79577 -5.630932,0.882266 l 0,4.541074 -2.82844,0 0,-4.463227 C 10.871713,47.046093 9.1504314,46.777954 7.6799993,46.310871 6.2268476,45.843791 4.9812972,45.186417 3.9433442,44.338748 2.9226791,43.491084 2.0923121,42.461775 1.4522407,41.250818 0.82946232,40.022572 0.3623809,38.621328 0.05099507,37.047081 L 6.6939375,35.827478 c 0.1383861,0.830378 0.3373282,1.591548 0.5968269,2.283511 0.2767799,0.674682 0.6487151,1.262859 1.1158067,1.764532 0.4670713,0.501687 1.0552479,0.916871 1.7645319,1.245552 0.726559,0.311393 1.617473,0.518985 2.672746,0.622775 l 0,-10.146056 c -0.05191,-0.03458 -0.181657,-0.06918 -0.389235,-0.103796 -0.207606,-0.05188 -0.346,-0.07783 -0.415184,-0.07785 C 10.69007,31.104777 9.3666728,30.724192 8.0692342,30.274393 6.7890753,29.807329 5.6473207,29.184553 4.643967,28.406066 3.6406005,27.610316 2.8275329,26.615606 2.2047616,25.421931 1.5992817,24.211001 1.2965437,22.705961 1.2965468,20.906806 c -3.1e-6,-1.574211 0.2767859,-2.923557 0.8303678,-4.048043 0.5708734,-1.141724 1.3666418,-2.084536 2.3873074,-2.82844 1.0206532,-0.743837 2.2402547,-1.306065 3.6588082,-1.686685 1.4185336,-0.38055 2.9754718,-0.605441 4.6708188,-0.674673 l 0,-3.4771656 2.82844,0 0,3.4771656 c 1.851009,0.06923 3.433896,0.311423 4.748666,0.726571 1.314726,0.415219 2.421882,1.003395 3.321471,1.764532 0.916839,0.743903 1.660709,1.669417 2.231614,2.776542 0.57085,1.089887 1.037931,2.361387 1.401246,3.814502 l -6.850535,1.012011 c -0.519001,-2.975456 -2.136487,-4.64484 -4.852462,-5.008156 l 0,9.134046 c 0.08648,0.03462 0.172976,0.05192 0.25949,0.0519 0.103779,2.1e-5 0.207574,0.01732 0.311388,0.0519 1.487723,0.346008 2.940865,0.752541 4.359431,1.219603 1.435821,0.467101 2.70732,1.098526 3.814502,1.894276 1.124429,0.795787 2.023994,1.825096 2.698696,3.087931 0.691943,1.245565 1.03793,2.828452 1.037959,4.748666 M 12.843849,16.651171 c -0.916878,0.06923 -1.678048,0.224922 -2.283511,0.467082 -0.6054886,0.242221 -1.0898694,0.553608 -1.4531441,0.934164 -0.3632964,0.363315 -0.622786,0.787148 -0.7784698,1.271501 -0.1557039,0.467109 -0.2335508,0.960139 -0.2335409,1.479092 -9.9e-6,0.743897 0.1124357,1.358023 0.3373369,1.842379 0.2421802,0.467106 0.5708671,0.85634 0.9860618,1.167705 0.4324716,0.311411 0.9341521,0.57955 1.5050421,0.804418 0.588163,0.207615 1.228238,0.423856 1.920225,0.648725 l 0,-8.615066 m 8.563168,20.39591 c -2.3e-5,-0.847657 -0.147067,-1.530979 -0.441133,-2.049971 -0.294111,-0.536266 -0.700645,-0.968749 -1.219603,-1.29745 -0.519,-0.328673 -1.133126,-0.596812 -1.842378,-0.804418 -0.691992,-0.224877 -1.435863,-0.449768 -2.231614,-0.674674 l 0,9.52328 c 1.83371,-0.121089 3.243604,-0.553572 4.229686,-1.297449 1.003339,-0.743864 1.505019,-1.876969 1.505042,-3.399318"
         style="fill:#338000;stroke:none"
         id="path2993"
         inkscape:connector-curvature="0" />
    </g>
    <g
       style="font-size:53.14353942999999703px;font-style:normal;font-variant:normal;font-weight:bold;font-stretch:normal;line-height:125%;letter-spacing:0px;word-spacing:0px;fill:#338000;fill-opacity:1;stroke:none;font-family:Courier New;-inkscape-font-specification:Courier New Bold"
       id="text3800-4"
       transform="matrix(0.88368436,0,0,0.88368436,3.7445729,3.6037216)">
      <path
         d="m 64.33541,36.943285 c -3e-5,1.470451 -0.24222,2.811148 -0.726572,4.022094 -0.48441,1.193658 -1.23693,2.231617 -2.257562,3.113879 -1.003387,0.864969 -2.292186,1.556941 -3.8664,2.075919 -1.574261,0.501681 -3.451236,0.79577 -5.630932,0.882266 l 0,4.541074 -2.82844,0 0,-4.463227 c -1.972136,-0.0692 -3.693418,-0.337336 -5.16385,-0.804419 -1.453152,-0.46708 -2.698702,-1.124454 -3.736655,-1.972123 -1.020665,-0.847664 -1.851032,-1.876973 -2.491104,-3.08793 -0.622778,-1.228246 -1.089859,-2.62949 -1.401245,-4.203737 l 6.642942,-1.219603 c 0.138386,0.830378 0.337328,1.591548 0.596827,2.283511 0.27678,0.674682 0.648715,1.262859 1.115807,1.764532 0.467071,0.501687 1.055248,0.916871 1.764531,1.245552 0.72656,0.311393 1.617474,0.518985 2.672747,0.622775 l 0,-10.146056 c -0.05191,-0.03458 -0.181658,-0.06918 -0.389235,-0.103796 -0.207606,-0.05188 -0.346001,-0.07783 -0.415184,-0.07785 -1.34936,-0.311372 -2.672758,-0.691957 -3.970196,-1.141756 -1.280159,-0.467064 -2.421914,-1.08984 -3.425267,-1.868327 -1.003367,-0.79575 -1.816434,-1.79046 -2.439206,-2.984135 -0.60548,-1.21093 -0.908218,-2.71597 -0.908215,-4.515125 -3e-6,-1.574211 0.276786,-2.923557 0.830368,-4.048043 0.570874,-1.141724 1.366642,-2.084536 2.387308,-2.82844 1.020653,-0.743837 2.240254,-1.306065 3.658808,-1.686685 1.418534,-0.38055 2.975472,-0.605441 4.670819,-0.674673 l 0,-3.4771656 2.82844,0 0,3.4771656 c 1.851009,0.06923 3.433896,0.311423 4.748666,0.726571 1.314725,0.415219 2.421881,1.003395 3.321471,1.764532 0.916838,0.743903 1.660709,1.669417 2.231614,2.776542 0.570849,1.089887 1.037931,2.361387 1.401245,3.814502 l -6.850534,1.012011 c -0.519002,-2.975456 -2.136487,-4.64484 -4.852462,-5.008156 l 0,9.134046 c 0.08648,0.03462 0.172976,0.05192 0.25949,0.0519 0.103778,2.1e-5 0.207574,0.01732 0.311388,0.0519 1.487723,0.346008 2.940865,0.752541 4.359431,1.219603 1.43582,0.467101 2.70732,1.098526 3.814502,1.894276 1.124429,0.795787 2.023993,1.825096 2.698695,3.087931 0.691944,1.245565 1.03793,2.828452 1.03796,4.748666 M 49.025504,16.651171 c -0.916878,0.06923 -1.678048,0.224922 -2.283512,0.467082 -0.605488,0.242221 -1.089869,0.553608 -1.453143,0.934164 -0.363297,0.363315 -0.622786,0.787148 -0.77847,1.271501 -0.155704,0.467109 -0.233551,0.960139 -0.233541,1.479092 -10e-6,0.743897 0.112436,1.358023 0.337337,1.842379 0.24218,0.467106 0.570867,0.85634 0.986062,1.167705 0.432471,0.311411 0.934151,0.57955 1.505041,0.804418 0.588164,0.207615 1.228239,0.423856 1.920226,0.648725 l 0,-8.615066 m 8.563168,20.39591 c -2.3e-5,-0.847657 -0.147068,-1.530979 -0.441133,-2.049971 -0.294111,-0.536266 -0.700645,-0.968749 -1.219603,-1.29745 -0.519001,-0.328673 -1.133126,-0.596812 -1.842378,-0.804418 -0.691993,-0.224877 -1.435863,-0.449768 -2.231614,-0.674674 l 0,9.52328 c 1.83371,-0.121089 3.243604,-0.553572 4.229686,-1.297449 1.003339,-0.743864 1.505019,-1.876969 1.505042,-3.399318"
         style="fill:#338000;stroke:none"
         id="path2990"
         inkscape:connector-curvature="0" />
    </g>
    <path
       sodipodi:type="arc"
       style="color:#000000;fill:#333333;fill-opacity:1;fill-rule:nonzero;stroke:#338000;stroke-width:9.42653179000000030;stroke-linecap:round;stroke-linejoin:round;stroke-miterlimit:4;stroke-opacity:1;stroke-dasharray:none;stroke-dashoffset:0;marker:none;visibility:visible;display:inline;overflow:visible;enable-background:accumulate"
       id="path3825"
       sodipodi:cx="26.181818"
       sodipodi:cy="50.363636"
       sodipodi:rx="1.0909091"
       sodipodi:ry="1.2727273"
       d="m 27.272727,50.363636 a 1.0909091,1.2727273 0 1 1 -2.181818,0 1.0909091,1.2727273 0 1 1 2.181818,0 z"
       transform="matrix(0.40502197,0,0,0.34716173,20.855917,31.428302)" />
    <path
       sodipodi:type="arc"
       style="color:#000000;fill:#333333;fill-opacity:1;fill-rule:nonzero;stroke:#338000;stroke-width:9.42653179000000030;stroke-linecap:round;stroke-linejoin:round;stroke-miterlimit:4;stroke-opacity:1;stroke-dasharray:none;stroke-dashoffset:0;marker:none;visibility:visible;display:inline;overflow:visible;enable-background:accumulate"
       id="path3825-9"
       sodipodi:cx="26.181818"
       sodipodi:cy="50.363636"
       sodipodi:rx="1.0909091"
       sodipodi:ry="1.2727273"
       d="m 27.272727,50.363636 a 1.0909091,1.2727273 0 1 1 -2.181818,0 1.0909091,1.2727273 0 1 1 2.181818,0 z"
       transform="matrix(0.40502197,0,0,0.34716173,14.670126,31.428302)" />
    <path
       sodipodi:type="arc"
       style="color:#000000;fill:#333333;fill-opacity:1;fill-rule:nonzero;stroke:#338000;stroke-width:9.42653179000000030;stroke-linecap:round;stroke-linejoin:round;stroke-miterlimit:4;stroke-opacity:1;stroke-dasharray:none;stroke-dashoffset:0;marker:none;visibility:visible;display:inline;overflow:visible;enable-background:accumulate"
       id="path3825-4"
       sodipodi:cx="26.181818"
       sodipodi:cy="50.363636"
       sodipodi:rx="1.0909091"
       sodipodi:ry="1.2727273"
       d="m 27.272727,50.363636 a 1.0909091,1.2727273 0 1 1 -2.181818,0 1.0909091,1.2727273 0 1 1 2.181818,0 z"
       transform="matrix(0.40502197,0,0,0.34716173,27.041707,31.428302)" />
  </g>
</svg>
