<svg version="1.1" viewBox="0 0 24 24" xmlns="http://www.w3.org/2000/svg"><path d="m15.986 4.9863c0.28204 0.3747 0.53942 0.77164 0.76953 1.1895a1.0001 1.0001 0 0 1 0.06836 0.8125c-0.19213 0.55119-0.53834 1.0286-0.99024 1.3789a1.0001 1.0001 0 0 1-1.5176-0.36328c-0.36825-0.77996-0.90579-1.4288-1.5059-2.0078 0.069839 0.33454 0.19065 0.65218 0.18945 1.0059v0.0019531c-0.002173 2.7478-2.2518 4.9961-5 4.9961-1.1234 0-2.1627-0.37592-3-1.0078v10.008h5.9766c2.12-1.8714 3.0165-3.3989 3.4258-4.793 0.20524-0.69915 0.27881-1.3902 0.30078-2.123-0.06504-0.59067-0.088829-1.2238-0.042969-1.9102-0.0106-0.23846-0.010591-0.448-0.019531-0.625-4e-3 -0.07248-4.4e-5 -0.14517 0.011719-0.2168 9.8e-5 -0.0018-1.08e-4 -0.002106 0-0.003906 0.0016-0.02652-0.0039-0.028431 0-0.056641v-0.001953c0.0026-0.01862 0.02209-0.028485 0.02539-0.046875 0.04189-0.14489 0.116-0.27843 0.2168-0.39062 0.25633-0.47318 0.68409-0.8417 1.2441-0.83203h0.001953c0.76326 0.01506 1.4031 0.63394 1.4434 1.3965v0.001954c0.04397 0.8719 0.073859 1.8008 0.042969 2.7617 0.15768 0.93974 0.44418 1.6266 0.83594 2.0371 0.14583 0.15279 0.33266 0.29254 0.53711 0.42578v-8.623l-3.0137-3.0137zm-7.9863 0.013672c-1.1164 0-2 0.88359-2 2 0 1.1164 0.88359 2 2 2s2-0.88359 2-2c0-1.1164-0.88359-2-2-2zm10.777 15.119c-0.35636 0.02375-0.71519 0.07619-1.082 0.16211-0.59373 0.13906-1.2182 0.37065-1.877 0.71875h3.1816v-0.87891c-0.07422 0.0025-0.14825-0.006853-0.22266-0.001953z" fill="#3a3a38"/><path d="m13.992 3c0.18112 0.13569 0.35743 0.2778 0.5293 0.42578 0.00564 0.0048479 0.011949 0.0088112 0.017578 0.013672 0.006253 0.0054078 0.011339 0.012154 0.017579 0.017578 0.17054 0.14824 0.33743 0.30093 0.49805 0.46094 0.074657 0.074372 0.1483 0.14971 0.2207 0.22656 0.008531 0.0090358 0.016891 0.018274 0.02539 0.027344 0.006283 0.0067187 0.013266 0.012794 0.019531 0.019531 0.048292 0.051927 0.095335 0.10518 0.14258 0.1582 0.041455 0.046443 0.082417 0.093341 0.12305 0.14062 0.006907 0.008051 0.014601 0.015362 0.021484 0.023438 0.01682 0.019702 0.032153 0.0407 0.048828 0.060547 0.048436 0.057648 0.097336 0.11497 0.14453 0.17383 0.006367 0.0079467 0.013187 0.015469 0.019531 0.023438 0.056295 0.070651 0.11155 0.14248 0.16602 0.21484l3.0137 3.0137h-2.7754c-0.059591 0.066475-0.12217 0.13054-0.1875 0.19141-0.065644 0.06116-0.13207 0.1207-0.20312 0.17578a1.0001 1.0001 0 0 1-1.5176-0.36328c-0.047298-0.10018-0.097734-0.19894-0.15039-0.29492-0.049864-0.09051-0.10208-0.17847-0.15625-0.26562-0.003237-0.00521-0.006514-0.010427-0.009766-0.015625v0.57227c0 0.554 0.446 1 1 1h4v7.623c0.28141 0.1834 0.61571 0.34774 1 0.49414v-9.0762c0-0.45068 0.098038-0.42541-0.60547-1.0664l-3.3066-3.2383c-0.70952-0.73686-0.71017-0.73633-1.0938-0.73633h-1.002zm-9.9922 6.9922v11.008c0 0.554 0.446 1 1 1h5.1836a1.0001 1.0001 0 0 1 0.22852-0.48828c0.002996-0.00322 9.07e-4 -0.008519 0.003907-0.011719a1.0001 1.0001 0 0 1 0.007812-0.007812c0.07109-0.072141 0.018231-0.018055 0.019531-0.017579a1.0001 1.0001 0 0 1 0.085938-0.080078c0.16116-0.13476 0.29858-0.26328 0.44726-0.39453h-5.9766v-10.008c-0.082607-0.062342-0.16364-0.1281-0.24219-0.19531-0.018966-0.016204-0.037914-0.03235-0.056641-0.048828-0.079555-0.070146-0.15745-0.14182-0.23242-0.2168l-0.0019531-0.001953c-0.0032521-0.003245-0.0065224-0.006512-0.0097657-0.009766-0.068541-0.068991-0.13474-0.14005-0.19922-0.21289-0.027027-0.030437-0.051845-0.062661-0.078125-0.09375-0.046955-0.055703-0.094134-0.1122-0.13867-0.16992-0.013323-0.017254-0.02792-0.033351-0.041016-0.050782zm15.422 10.121c-0.14056-3.17e-4 -0.28125 0.003061-0.42188 0.007813v0.87891h-3.1816c-0.49039 0.25915-1.0013 0.59184-1.5352 1h5.7168v-1.8301c-0.050688-0.01448-0.10597-0.026329-0.15625-0.041016-0.1409-0.011296-0.28132-0.015308-0.42188-0.015625z" fill="#fafafa"/><path d="m11.474 22.526c5.2269-4.3706 4.8077-7.6883 4.6379-11.053-0.74891 5.4019 2.0389 7.3344 6.4146 7.7093-3.2997-1.0405-6.7965-0.97627-11.052 3.3433z" fill="none" stroke="#ed3d3b" stroke-linecap="round" stroke-linejoin="round" stroke-width=".94853"/><circle cx="8" cy="7" r="4" fill="none"/><path d="m8 2c-3.2801 0.0043-6.2981 1.7928-7.877 4.668 0.12894 0.36373 0.35744 0.67659 0.65625 0.9082 1.3218-2.7913 4.1323-4.5725 7.2207-4.5762-2.2091 0-4 1.7909-4 4s1.7909 4 4 4 4-1.7909 4-4c8e-3 -2.0795-1.5788-3.8183-3.6504-4 2.9613 0.13455 5.6055 1.8956 6.8711 4.5762 0.30152-0.23371 0.53191-0.55005 0.66016-0.91797-1.5821-2.8726-4.6014-4.6573-7.8809-4.6582zm0 2c1.6569 0 3 1.3431 3 3s-1.3431 3-3 3-3-1.3431-3-3 1.3431-3 3-3z" fill="#fafafa"/><path d="m8 5c-1.1046 0-2 0.89543-2 2s0.89543 2 2 2 2-0.89543 2-2c0.02896-0.19489 0.02896-0.393 0-0.58789-0.17401 0.38903-0.57545 0.62503-1 0.58789-0.55228 0-1-0.44772-1-1-0.03682-0.42503 0.20005-0.82661 0.58984-1-0.19553-0.02915-0.39431-0.02915-0.58984 0z" fill="#7bcbff"/></svg>
