<svg version="1.1" viewBox="0 0 32 32" xmlns="http://www.w3.org/2000/svg"><g transform="scale(1.333333)"><path d="m3 2h19v19h-19z" fill="#fafafa"/><path d="m12 21h-4v-19h4z" fill="#a1ddaa" opacity=".5" stroke-width="1.2247"/><path d="m7 2v4h-4v1h4v4h-4v1h4v4h-4v1h4v4h1v-4h4v4h1v-4h4v4h1v-4h4v-1h-4v-4h4v-1h-4v-4h4v-1h-4v-4h-1v4h-4v-4h-1v4h-4v-4zm1 5h4v4h-4zm5 0h4v4h-4zm-5 5h4v4h-4zm5 0h4v4h-4z" fill="#797774"/><path d="m3 1c-.554 0-1 .446-1 1v19c0 .554.446 1 1 1h19c.554 0 1-.446 1-1v-19c0-.554-.446-1-1-1zm0 1h19v19h-19z" fill="#3a3a38"/><path d="m13 22v-21h-6v21h5zm-1-1h-4v-4h4zm0-5h-4v-4h4zm0-5h-4v-4h4zm0-5h-4v-4h4z" fill="#18ab50"/></g></svg>
