<svg version="1.1" viewBox="0 0 32 32" xmlns="http://www.w3.org/2000/svg"><g transform="scale(1.333333)"><path d="m3 2h19v19h-19z" fill="#3a3a38"/><path d="m7 2v4h-4v1h4v4h-4v1h4v4h-4v1h4v4h1v-4h4v4h1v-4h4v4h1v-4h4v-1h-4v-4h4v-1h-4v-4h4v-1h-4v-4h-1v4h-4v-4h-1v4h-4v-4zm1 5h4v4h-4zm5 0h4v4h-4zm-5 5h4v4h-4zm5 0h4v4h-4z" fill="#c8c6c4"/><path d="m3 1c-.554 0-1 .446-1 1v19c0 .554.446 1 1 1h19c.554 0 1-.446 1-1v-19c0-.554-.446-1-1-1zm0 1h19v19h-19z" fill="#fafafa"/><path d="m22 7v4h-19v-4z" fill="#309048" opacity=".5" stroke-width="1.2247"/><path d="m23 6h-21v6h21v-5zm-1 1v4h-4v-4zm-5 0v4h-4v-4zm-5 0v4h-4v-4zm-5 0v4h-4v-4z" fill="#18ab50"/></g></svg>
