<svg version="1.1" viewBox="0 0 32 32" xmlns="http://www.w3.org/2000/svg"><g fill="#3a3a38" stroke-linecap="round" stroke-linejoin="round" stroke-width=".26458" aria-label="all" transform="scale(5.039370)"><path d="m2.2577 3.9734q0.03359 0 0.076223-0.00904v0.14469q-0.08785 0.020671-0.17958 0.020671-0.12919 0-0.18862-0.067179-0.058136-0.068471-0.065887-0.21317h-0.00775q-0.083974 0.15632-0.19895 0.22479-0.11369 0.068471-0.28164 0.068471-0.20412 0-0.30747-0.1111-0.10335-0.11111-0.10335-0.30489 0-0.45088 0.58653-0.45734l0.30489-0.00517v-0.076223q0-0.16924-0.068471-0.24288-0.068471-0.074931-0.21833-0.074931-0.15245 0-0.21962 0.05426-0.067179 0.05426-0.080098 0.16795l-0.24288-0.021962q0.059428-0.37724 0.54648-0.37724 0.25838 0 0.38757 0.12144 0.13048 0.12015 0.13048 0.34882v0.60203q0 0.10335 0.02713 0.15632 0.02713 0.051676 0.10335 0.051676zm-0.78677-0.00775q0.12402 0 0.21962-0.059428 0.095601-0.059428 0.14857-0.1589 0.052968-0.099477 0.052968-0.20541v-0.11498l-0.24546 0.00517q-0.15245 0.00258-0.23254 0.03359-0.080098 0.031006-0.12532 0.095601-0.043925 0.063304-0.043925 0.16924 0 0.10594 0.056844 0.17053 0.058136 0.064596 0.16924 0.064596z"/><path d="m3.374 3.9334h0.49093v0.18345h-1.2687v-0.18345h0.54519v-1.5503h-0.37336v-0.18345h0.60591z"/><path d="m4.9617 3.9334h0.49093v0.18345h-1.2687v-0.18345h0.54519v-1.5503h-0.37336v-0.18345h0.60591z"/></g></svg>
