<svg version="1.1" viewBox="0 0 32 32" xmlns="http://www.w3.org/2000/svg"><g transform="scale(1.333333)"><rect x="1" y="2" width="22" height="20" rx="1" fill="#fafafa"/><path d="m2 3h20v18h-20z" fill="#3a3a38"/><rect x="14" y="14" width="7" height="1" ry=".5" fill="#7bcbff"/><rect x="12" y="10" width="9" height="1" ry=".5" fill="#7bcbff"/><rect x="11" y="6" width="10" height="1" ry=".5" fill="#c8c6c4"/><path d="m3.5 18c-0.277 0-0.5 0.223-0.5 0.5s0.223 0.5 0.5 0.5h5.6035c-0.10655-0.32176-0.11146-0.67884-0.0078125-1h-5.5957zm9.375 0-0.83398 1h1.918l-0.83398-1h-0.25zm4.0293 0c0.10365 0.32116 0.098739 0.67824-0.007813 1h3.6035c0.277 0 0.5-0.223 0.5-0.5s-0.223-0.5-0.5-0.5h-3.5957z" fill="#c8c6c4"/><path d="m6.793 6-3.793 10h1.084c0.11794 0 0.21874-0.033649 0.30078-0.099609 0.087174-0.06596 0.14501-0.14226 0.17578-0.22852l0.95312-2.6719h3.9766l0.95508 2.6797c0.041021 0.09132 0.09813 0.16763 0.16992 0.22852 0.076919 0.060883 0.17576 0.091797 0.29883 0.091797h1.0859l-3.7852-10zm0.70703 1.3086c0.046151 0.18772 0.095205 0.36304 0.14648 0.52539 0.051279 0.16235 0.10106 0.30402 0.15234 0.42578l1.334 3.7402h-3.2637l1.3301-3.7324c0.046151-0.12177 0.095206-0.26343 0.14648-0.42578 0.051279-0.16235 0.10302-0.34041 0.1543-0.5332z" fill="#7bcbff"/><path d="m12.955 15.002a0.5 0.5 0 0 0-0.021484 0.005859 0.5 0.5 0 0 0-0.074219 0.015626 0.5 0.5 0 0 0-0.041016 0.011718 0.5 0.5 0 0 0-0.080078 0.042969 0.5 0.5 0 0 0-0.039062 0.025391 0.5 0.5 0 0 0-0.019531 0.011718 0.5 0.5 0 0 0-0.03125 0.033204 0.5 0.5 0 0 0-0.033204 0.03125l-2.5 3a0.5 0.5 0 0 0 0.064454 0.70508 0.5 0.5 0 0 0 0.70508-0.064454l2.1152-2.5391 2.1152 2.5391a0.5 0.5 0 0 0 0.70508 0.064454 0.5 0.5 0 0 0 0.064454-0.70508l-2.4707-2.9629a0.5 0.5 0 0 0-0.029296-0.037109 0.5 0.5 0 0 0-0.064454-0.064454 0.5 0.5 0 0 0-0.019531-0.011718 0.5 0.5 0 0 0-0.039062-0.025391 0.5 0.5 0 0 0-0.080078-0.042969 0.5 0.5 0 0 0-0.041016-0.011718 0.5 0.5 0 0 0-0.074219-0.015626 0.5 0.5 0 0 0-0.021484-0.005859 0.5 0.5 0 0 0-0.044922 0.001953 0.5 0.5 0 0 0-0.044922-0.001953z" color="#000000" fill="#a846b2" stroke-linecap="round" stroke-linejoin="round" style="-inkscape-stroke:none"/></g></svg>
