<svg version="1.1" viewBox="0 0 32 32" xmlns="http://www.w3.org/2000/svg"><g transform="scale(1.333333)"><rect x="1" y="2" width="22" height="20" rx="1" fill="#fafafa"/><path d="m2 3h20v18h-20z" fill="#3a3a38"/><rect x="14" y="14" width="7" height="1" ry=".5" fill="#ed3d3b"/><rect x="12" y="10" width="9" height="1" ry=".5" fill="#ed3d3b"/><rect x="11" y="6" width="10" height="1" ry=".5" fill="#c8c6c4"/><rect x="3" y="18" width="18" height="1" ry=".5" fill="#c8c6c4"/><path d="m6.793 6-3.793 10h1.084c0.11794 0 0.21874-0.033649 0.30078-0.099609 0.087174-0.06596 0.14501-0.14226 0.17578-0.22852l0.95312-2.6719h3.9766l0.95508 2.6797c0.041021 0.09132 0.09813 0.16763 0.16992 0.22852 0.076919 0.060883 0.17576 0.091797 0.29883 0.091797h1.0859l-3.7852-10zm0.70703 1.3086c0.046151 0.18772 0.095205 0.36304 0.14648 0.52539 0.051279 0.16235 0.10106 0.30402 0.15234 0.42578l1.334 3.7402h-3.2637l1.3301-3.7324c0.046151-0.12177 0.095206-0.26343 0.14648-0.42578 0.051279-0.16235 0.10302-0.34041 0.1543-0.5332z" fill="#ed3d3b"/></g></svg>
