<svg viewBox="0 0 24 24" xmlns="http://www.w3.org/2000/svg"><g fill-opacity=".965649"><path d="m11.5 3a9.5 9.5 0 0 0 -9.5 9.5 9.5 9.5 0 0 0 9.5 9.5 9.5 9.5 0 0 0 9.5-9.5 9.5 9.5 0 0 0 -9.5-9.5zm0 1a8.5 8.5 0 0 1 8.5 8.5 8.5 8.5 0 0 1 -8.5 8.5 8.5 8.5 0 0 1 -8.5-8.5 8.5 8.5 0 0 1 8.5-8.5z" fill="#ff9198"/><path d="m11.5 4a8.5 8.5 0 0 0 -8.5 8.5 8.5 8.5 0 0 0 8.5 8.5 8.5 8.5 0 0 0 8.5-8.5 8.5 8.5 0 0 0 -8.5-8.5zm0 .5c.277 0 .5.223.5.5v4.5c0 .277-.223.5-.5.5s-.5-.223-.5-.5v-4.5c0-.277.223-.5.5-.5zm-1.5 1.6835938v1.0273437a5.5 5.5 0 0 0 -4 5.2890625 5.5 5.5 0 0 0 5.5 5.5 5.5 5.5 0 0 0 5.5-5.5 5.5 5.5 0 0 0 -4-5.2851562v-1.03125a6.5 6.5 0 0 1 5 6.3164062 6.5 6.5 0 0 1 -6.5 6.5 6.5 6.5 0 0 1 -6.5-6.5 6.5 6.5 0 0 1 5-6.3164062z" fill="#d42314"/></g></svg>