<svg viewBox="0 0 24 24" xmlns="http://www.w3.org/2000/svg"><g fill-opacity=".965649"><path d="m21 12.5a9.5 9.5 0 0 1 -9.5 9.5 9.5 9.5 0 0 1 -9.5-9.5 9.5 9.5 0 0 1 9.5-9.5 9.5 9.5 0 0 1 9.5 9.5z" fill="#ff9198"/><circle cx="11.5" cy="12.5" fill="#d42314" r="8.5"/><g fill="#3a3a38"><rect height="5.5" ry=".5" width="1" x="11" y="4.5"/><path d="m10 6.1835938a6.5 6.5 0 0 0 -5 6.3164062 6.5 6.5 0 0 0 6.5 6.5 6.5 6.5 0 0 0 6.5-6.5 6.5 6.5 0 0 0 -5-6.3164062v1.03125a5.5 5.5 0 0 1 4 5.2851562 5.5 5.5 0 0 1 -5.5 5.5 5.5 5.5 0 0 1 -5.5-5.5 5.5 5.5 0 0 1 4-5.2890625z"/></g></g></svg>