<svg height="24" viewBox="0 0 6.3499999 6.3500004" width="24" xmlns="http://www.w3.org/2000/svg"><g transform="translate(0 -290.64998)"><path d="m3 4v12h9.210938a5.5000002 5.5000002 0 0 1 -.183594-1h-8.027344v-10h15v4.2148438a5.5000002 5.5000002 0 0 1 1 .3925781v-5.6074219z" fill="#fafafa" transform="matrix(.26458334 0 0 .26458334 0 290.64998)"/><path d="m.26458317 291.44373h5.55625033l-.0000002.26458h-5.55625033z" fill="#1e8bcd" stroke-width=".264583"/><path d="m1.5874999 292.23748h2.9104169v.52916h-2.9104169z" fill="#c8c6c4" stroke-width=".264583"/><path d="m7 20v1h9v-1z" fill="#fafafa" transform="matrix(.26458334 0 0 .26458334 0 290.64998)"/><path d="m2.9104167 294.88331h.2645834v1.05833h-.2645834z" fill="#fafafa"/><g fill="#18ab50"><path d="m17.5 10a4.4999999 4.4999999 0 0 0 -4.5 4.5 4.4999999 4.4999999 0 0 0 4.5 4.5 4.4999999 4.4999999 0 0 0 4.5-4.5 4.4999999 4.4999999 0 0 0 -4.5-4.5zm0 1a3.4999999 3.4999999 0 0 1 3.5 3.5 3.4999999 3.4999999 0 0 1 -1.0625 2.509766 3.4999999 3.4999999 0 0 1 -.261719.232422 3.4999999 3.4999999 0 0 1 -1.580078.707031 3.4999999 3.4999999 0 0 1 -.595703.050781 3.4999999 3.4999999 0 0 1 -3.5-3.5 3.4999999 3.4999999 0 0 1 .017578-.349609 3.4999999 3.4999999 0 0 1 .804688-1.904297 3.4999999 3.4999999 0 0 1 .240234-.257813 3.4999999 3.4999999 0 0 1 .261719-.230469 3.4999999 3.4999999 0 0 1 2.175781-.757812z" stroke-width=".999999" transform="matrix(.26458334 0 0 .26458334 0 290.64998)"/><path d="m4.2333333 295.14789 1.0583334-.66146-1.0583334-.66146z" fill-rule="evenodd" stroke-width=".264583"/></g></g></svg>