<svg version="1.1" viewBox="0 0 24 24" xmlns="http://www.w3.org/2000/svg"><path d="m8.6211 2.5-0.5 0.5h0.37891c0.8137 0 1.5 0.6863 1.5 1.5s-0.6863 1.5-1.5 1.5h-0.38086l1.4375 1.4375c0.57528 0.57528 0.57528 1.5458 0 2.1211-0.57528 0.57528-1.5458 0.57528-2.1211 0l-1.4355-1.4355v0.37695c0 0.43253-0.19611 0.82693-0.5 1.1035v11.896l6.5-6 6.5 6v-19h-9.8789z" color="#000000" fill="#d42314" stroke-linecap="round" stroke-linejoin="round" style="-inkscape-stroke:none"/><path d="m9.1211 2-1 1h0.37891 9.5v17.357l-5.6602-5.2246a0.50005 0.50005 0 0 0-0.67969 0l-5.6602 5.2246v-11.857c0 0.63937-0.42368 1.1992-1 1.4102v11.59a0.50005 0.50005 0 0 0 0.83984 0.36719l6.1602-5.6875 6.1602 5.6875a0.50005 0.50005 0 0 0 0.83984-0.36719v-19a0.50005 0.50005 0 0 0-0.5-0.5h-9.3789z" color="#000000" fill="#ff9198" stroke-linecap="round" stroke-linejoin="round" style="-inkscape-stroke:none"/><g transform="translate(1)"><path d="m3.5 0c-0.277 0-0.5 0.223-0.5 0.5v1.5508a2.5 2.5 0 0 0-0.87891 0.36523l-2.2656-2.2656c-0.19587-0.19587-0.51116-0.19587-0.70703 0-0.19587 0.19587-0.19587 0.51116 0 0.70703l2.2656 2.2656a2.5 2.5 0 0 0-0.35938 0.87695h-1.5547c-0.277 0-0.5 0.223-0.5 0.5s0.223 0.5 0.5 0.5h1.5508a2.5 2.5 0 0 0 0.36523 0.87695l-2.2676 2.2676c-0.19587 0.19587-0.19587 0.51116 0 0.70703 0.19587 0.19587 0.51116 0.19587 0.70703 0l2.2676-2.2676a2.5 2.5 0 0 0 0.87695 0.36133v1.5547c0 0.277 0.223 0.5 0.5 0.5s0.5-0.223 0.5-0.5v-1.5508a2.5 2.5 0 0 0 0.875-0.36523l2.2676 2.2676c0.19587 0.19587 0.51116 0.19587 0.70703 0s0.19587-0.51116 0-0.70703l-2.2656-2.2656a2.5 2.5 0 0 0 0.36133-0.87891h1.5547c0.277 0 0.5-0.223 0.5-0.5s-0.223-0.5-0.5-0.5h-1.5508a2.5 2.5 0 0 0-0.36523-0.87695l2.2656-2.2656c0.19587-0.19587 0.19587-0.51116 0-0.70703-0.19587-0.19587-0.51116-0.19587-0.70703 0l-2.2656 2.2656a2.5 2.5 0 0 0-0.87695-0.36133v-1.5547c0-0.277-0.223-0.5-0.5-0.5zm0 3a1.5 1.5 0 0 1 1.5 1.5 1.5 1.5 0 0 1-1.5 1.5 1.5 1.5 0 0 1-1.5-1.5 1.5 1.5 0 0 1 0.43945-1.0586 1.5 1.5 0 0 1 0.0019531-0.0019531 1.5 1.5 0 0 1 1.0586-0.43945z" fill="#fb983b" style="paint-order:normal"/><circle cx="3.5" cy="4.5" r="1.5" fill="#3a3a38" style="paint-order:normal"/></g></svg>
