<?xml version="1.0" encoding="UTF-8" standalone="no"?>
<svg
   viewBox="0 0 24 24"
   version="1.1"
   id="svg6"
   sodipodi:docname="lc_bookmark2.svg"
   inkscape:version="1.2.1 (9c6d41e410, 2022-07-14)"
   xmlns:inkscape="http://www.inkscape.org/namespaces/inkscape"
   xmlns:sodipodi="http://sodipodi.sourceforge.net/DTD/sodipodi-0.dtd"
   xmlns="http://www.w3.org/2000/svg"
   xmlns:svg="http://www.w3.org/2000/svg">
  <defs
     id="defs10" />
  <sodipodi:namedview
     id="namedview8"
     pagecolor="#ffffff"
     bordercolor="#000000"
     borderopacity="0.25"
     inkscape:showpageshadow="2"
     inkscape:pageopacity="0.0"
     inkscape:pagecheckerboard="0"
     inkscape:deskcolor="#d1d1d1"
     showgrid="true"
     showguides="true"
     inkscape:zoom="23.291667"
     inkscape:cx="8.3720929"
     inkscape:cy="13.610018"
     inkscape:window-width="1920"
     inkscape:window-height="1031"
     inkscape:window-x="0"
     inkscape:window-y="0"
     inkscape:window-maximized="1"
     inkscape:current-layer="svg6">
    <inkscape:grid
       type="xygrid"
       id="grid239"
       spacingx="0.5"
       spacingy="0.5"
       empspacing="2" />
    <sodipodi:guide
       position="12,24"
       orientation="1,0"
       id="guide304"
       inkscape:locked="false" />
    <sodipodi:guide
       position="22,22"
       orientation="0,-1"
       id="guide4681"
       inkscape:locked="false" />
  </sodipodi:namedview>
  <path
     style="fill:#ff9198;fill-opacity:1;stroke:#d42314;stroke-width:1;stroke-linecap:round;stroke-linejoin:round;stroke-dasharray:none;stroke-opacity:1"
     d="m 5.5,2.5 h 13 v 19 l -6.5,-6 -6.5,6 z"
     id="path306"
     sodipodi:nodetypes="cccccc" />
  <path
     d="m 8.513157,14.092524 v -0.880031 q 0.36856,-0.819858 1.143288,-1.647238 0.78225,-0.834901 2.121101,-1.902974 Q 12.973486,8.707034 13.5,8 q 0.526515,-0.707033 0.526515,-1.361415 0,-0.834902 -0.518993,-1.2862 -0.518993,-0.451298 -1.481762,-0.451298 -0.857466,0 -1.391502,0.473863 -0.526515,0.466341 -0.624296,1.316286 L 8.625981,6.563368 Q 8.776414,5.284691 9.671488,4.540049 10.566563,3.787885 12.02576,3.787885 q 1.602108,0 2.497182,0.722077 0.895075,0.722077 0.895075,2.045885 0,0.864988 -0.571644,1.729975 -0.571645,0.857467 -1.707411,1.760063 -1.549457,1.233548 -2.151188,1.820235 -0.594209,0.579166 -0.842423,1.128245 h 5.438142 v 1.098159 z"
     fill="#1e8bcd"
     id="path366" />
</svg>
