<svg version="1.1" viewBox="0 0 32 32" xmlns="http://www.w3.org/2000/svg"><g transform="scale(1.333333)"><path d="m5.5 2.5h13v19l-6.5-6-6.5 6z" fill="#ff9198" stroke="#d42314" stroke-linecap="round" stroke-linejoin="round"/><path d="m8.5132 14.093v-0.88003q0.36856-0.81986 1.1433-1.6472 0.78225-0.8349 2.1211-1.903 1.1959-0.95525 1.7225-1.6623 0.52652-0.70703 0.52652-1.3614 0-0.8349-0.51899-1.2862t-1.4818-0.4513q-0.85747 0-1.3915 0.47386-0.52652 0.46634-0.6243 1.3163l-1.384-0.12787q0.15043-1.2787 1.0455-2.0233 0.89508-0.75216 2.3543-0.75216 1.6021 0 2.4972 0.72208 0.89508 0.72208 0.89508 2.0459 0 0.86499-0.57164 1.73-0.57164 0.85747-1.7074 1.7601-1.5495 1.2335-2.1512 1.8202-0.59421 0.57917-0.84242 1.1282h5.4381v1.0982z" fill="#1e8bcd"/></g></svg>
