<svg version="1.1" viewBox="0 0 24 24" xmlns="http://www.w3.org/2000/svg"><g transform="translate(.80915 -3.0798)" fill="#fafafa"><path d="m12.467 22h-1.5024q-0.25573 0-0.41556-0.12786-0.14917-0.12786-0.23442-0.31966l-1.1934-3.3671h-5.7752l-1.1827 3.3564q-0.063932 0.18114-0.24507 0.31966-0.17048 0.13852-0.41556 0.13852h-1.5024l5.2531-14.001h1.9712zm-8.6308-5.1998h4.7949l-1.9819-5.6366q-0.10655-0.25573-0.21311-0.5967-0.10655-0.34097-0.20245-0.73521-0.10655 0.4049-0.21311 0.74587-0.10655 0.34097-0.20245 0.5967z"/><path d="m21.551 22.001q-0.27691 0-0.42601-0.0852t-0.20236-0.35146l-0.23431-0.96918q-0.40471 0.37276-0.79878 0.67097-0.38341 0.28756-0.80943 0.48992-0.42601 0.20236-0.91593 0.29821-0.48992 0.1065-1.0757 0.1065-0.60707 0-1.1396-0.15976-0.52187-0.17041-0.92658-0.51122-0.39406-0.35146-0.62837-0.86268-0.22366-0.52187-0.22366-1.2248 0-0.61772 0.33016-1.1822 0.34081-0.57512 1.097-1.0224t1.9703-0.72422q1.2141-0.28756 2.9821-0.33016v-0.79878q0-1.2141-0.52187-1.8212-0.51122-0.61772-1.5017-0.61772-0.66032 0-1.1183 0.17041-0.44732 0.1704-0.77748 0.37276t-0.57512 0.37276q-0.23431 0.17041-0.47927 0.17041-0.19171 0-0.33016-0.09585t-0.22366-0.24496l-0.34081-0.59642q0.86268-0.83073 1.8532-1.2354 1.0011-0.41536 2.2153-0.41536 0.87333 0 1.555 0.28756 0.68162 0.27691 1.1396 0.79878 0.45796 0.52187 0.69227 1.2461 0.24496 0.72422 0.24496 1.6082v6.6565zm-3.898-1.1502q0.46862 0 0.86268-0.09585t0.74552-0.26626q0.35146-0.18106 0.66032-0.43666 0.31951-0.26626 0.62837-0.58577v-2.1514q-1.2461 0.05325-2.1194 0.21301-0.87333 0.1491-1.4271 0.40471-0.54317 0.25561-0.78813 0.60707-0.24496 0.34081-0.24496 0.76683 0 0.40471 0.1278 0.70292 0.13845 0.28756 0.36211 0.47927 0.22366 0.18106 0.53252 0.27691 0.30886 0.0852 0.66032 0.0852z" stroke-width=".5453"/></g></svg>
