<svg version="1.1" viewBox="0 0 32 32" xmlns="http://www.w3.org/2000/svg"><g fill="#3a3a38" stroke-linecap="round" stroke-linejoin="round" stroke-width=".26458" aria-label="\cmd" transform="scale(5.039370)"><path d="m1.2455 4.1426-1.0555-1.943h0.22996l1.0607 1.943z"/><path d="m1.7972 3.4166q0-0.34882 0.16666-0.53614t0.48188-0.18733q0.23513 0 0.38757 0.11369 0.15245 0.1124 0.18862 0.3036l-0.24805 0.018087q-0.02067-0.11756-0.10335-0.18474-0.082682-0.068471-0.23513-0.068471-0.20412 0-0.29972 0.12661-0.094309 0.12661-0.094309 0.40954 0 0.2868 0.094309 0.41987 0.095601 0.13177 0.29843 0.13177 0.13953 0 0.23125-0.068471 0.091725-0.068471 0.11369-0.20929l0.24546 0.015503q-0.016795 0.12402-0.094309 0.22608-0.076223 0.10077-0.20283 0.1589-0.12661 0.056844-0.28293 0.056844-0.31652 0-0.48188-0.18603t-0.16536-0.54002z"/><path d="m3.903 4.1168v-0.88625q0-0.19895-0.032298-0.27776-0.031006-0.080098-0.11498-0.080098-0.082682 0-0.13436 0.12402-0.050385 0.12402-0.050385 0.3359v0.78419h-0.21833v-1.0994q0-0.24417-0.00775-0.29843h0.19249l0.00775 0.16407v0.062012h0.00258q0.043925-0.13177 0.1111-0.1912 0.067179-0.06072 0.16795-0.06072 0.11369 0 0.16924 0.062012 0.056844 0.062012 0.08139 0.1912h0.00258q0.051676-0.13694 0.12273-0.19508 0.072347-0.058136 0.18216-0.058136 0.15245 0 0.21833 0.1111 0.065887 0.1111 0.065887 0.38111v0.93147h-0.21703v-0.88625q0-0.19895-0.032298-0.27776-0.031006-0.080098-0.11498-0.080098-0.085266 0-0.13565 0.10852-0.049093 0.10852-0.049093 0.32556v0.81003z"/><path d="m5.9184 3.892q-0.063304 0.13565-0.16795 0.19766-0.10464 0.06072-0.26097 0.06072-0.26097 0-0.3837-0.17958-0.12273-0.17958-0.12273-0.54131 0-0.73122 0.50643-0.73122 0.15632 0 0.26097 0.055552 0.10594 0.055552 0.16924 0.18216h0.00258l-0.00258-0.19508v-0.54131h0.23254v1.6291q0 0.21833 0.00775 0.2881h-0.22221q-0.00517-0.019379-0.00904-0.094309-0.00388-0.074931-0.00388-0.13048zm-0.69505-0.47025q0 0.2868 0.076223 0.41858 0.077515 0.13048 0.25063 0.13048 0.18862 0 0.27905-0.13565 0.090434-0.13694 0.090434-0.43408 0-0.27776-0.08785-0.40437-0.086558-0.12661-0.27905-0.12661-0.17441 0-0.25192 0.13307-0.077515 0.13307-0.077515 0.41858z"/></g></svg>
