<svg version="1.1" viewBox="0 0 24 24" xmlns="http://www.w3.org/2000/svg"><path d="m7 2v20l10-10-9-9zm1 2.4141 7.5859 7.5859-7.5859 7.5859z" fill="#a1ddaa"/><path d="m8 4.4141v15.172l7.5859-7.5859z" fill="#309048" stroke-linecap="round" stroke-width="3.7795"/><g fill="#fafafa" stroke-linecap="round" stroke-linejoin="round" stroke-width="2.4364" aria-label="La TeX"><path d="m5.9803 8.3388v-8.0243h1.1361v7.0964h3.9973v0.92794z"/><path d="m18.43 7.6785q0.15466 0 0.35095-0.041638v0.66621q-0.40449 0.095173-0.82682 0.095173-0.59483 0-0.86846-0.30931-0.26768-0.31526-0.30337-0.98148h-0.03569q-0.38664 0.71975-0.91604 1.035-0.52345 0.31526-1.2967 0.31526-0.93984 0-1.4157-0.51156-0.47587-0.51156-0.47587-1.4038 0-2.076 2.7005-2.1057l1.4038-0.023793v-0.35095q0-0.77923-0.31526-1.1183-0.31526-0.345-1.0053-0.345-0.7019 0-1.0112 0.24983-0.30931 0.24983-0.3688 0.77328l-1.1183-0.10112q0.27362-1.7369 2.5161-1.7369 1.1897 0 1.7845 0.55914 0.60078 0.5532 0.60078 1.6061v2.7719q0 0.47587 0.12492 0.71975 0.12492 0.23793 0.47587 0.23793zm-3.6225-0.03569q0.57104 0 1.0112-0.27362 0.44018-0.27362 0.68406-0.73165 0.24388-0.45802 0.24388-0.94579v-0.5294l-1.1302 0.023793q-0.7019 0.011897-1.0707 0.15466-0.3688 0.14276-0.57699 0.44018-0.20224 0.29147-0.20224 0.77923 0 0.48776 0.26173 0.78518 0.26768 0.29742 0.77923 0.29742z"/><path d="m5.1326 16.47v7.0964h-1.1302v-7.0964h-2.6351v-0.92794h6.4004v0.92794z"/><path d="m10.141 20.575q0 1.0826 0.47587 1.6953 0.48182 0.61268 1.3146 0.61268 0.61268 0 1.0707-0.26173 0.46397-0.26768 0.61863-0.7257l0.93984 0.26768q-0.26173 0.73759-0.96363 1.1302-0.69596 0.39259-1.6655 0.39259-1.4038 0-2.1592-0.87441-0.75544-0.87441-0.75544-2.5043 0-1.5882 0.73759-2.4388 0.74354-0.85656 2.1414-0.85656t2.1176 0.85061 0.71975 2.5697v0.14276zm1.7667-2.7719q-0.79708 0-1.261 0.52345-0.46397 0.5175-0.49371 1.4276h3.4738q-0.16655-1.9511-1.7191-1.9511z"/><path d="m19.189 18.594 1.9808-3.0515h1.2194l-2.5875 3.8307 2.8314 4.1936h-1.2194l-2.2247-3.4084-2.2187 3.4084h-1.2194l2.8314-4.1936-2.5875-3.8307h1.2194z"/></g></svg>
