<?xml version="1.0" encoding="UTF-8" standalone="no"?>
<svg
   version="1.1"
   viewBox="0 0 24 24"
   id="svg242"
   sodipodi:docname="lc_compile-xelatex.svg"
   inkscape:version="1.2.1 (9c6d41e410, 2022-07-14)"
   xmlns:inkscape="http://www.inkscape.org/namespaces/inkscape"
   xmlns:sodipodi="http://sodipodi.sourceforge.net/DTD/sodipodi-0.dtd"
   xmlns="http://www.w3.org/2000/svg"
   xmlns:svg="http://www.w3.org/2000/svg">
  <defs
     id="defs246" />
  <sodipodi:namedview
     id="namedview244"
     pagecolor="#ffffff"
     bordercolor="#000000"
     borderopacity="0.25"
     inkscape:showpageshadow="2"
     inkscape:pageopacity="0.0"
     inkscape:pagecheckerboard="0"
     inkscape:deskcolor="#d1d1d1"
     showgrid="false"
     inkscape:zoom="16.469695"
     inkscape:cx="21.827969"
     inkscape:cy="10.504141"
     inkscape:window-width="1920"
     inkscape:window-height="1031"
     inkscape:window-x="0"
     inkscape:window-y="0"
     inkscape:window-maximized="1"
     inkscape:current-layer="svg242" />
  <path
     d="m7 2v20l10-10-9-9zm1 2.4141 7.5859 7.5859-7.5859 7.5859z"
     fill="#309048"
     id="path238" />
  <path
     d="m8 4.4141v15.172l7.5859-7.5859z"
     fill="#a1ddaa"
     stroke-linecap="round"
     stroke-width="3.7795"
     id="path240" />
  <g
     aria-label="Xe
TeX"
     id="text709"
     style="font-size:12.1822px;font-family:Cousine;-inkscape-font-specification:Cousine;text-align:center;text-anchor:middle;fill:#3a3a38;stroke-width:2.43643;stroke-linecap:round;stroke-linejoin:round">
    <path
       d="M 8.2228038,3.3659843 10.203601,0.31448588 h 1.21941 L 8.8354828,4.1452169 11.666893,8.3387966 h -1.21941 L 8.2228038,4.9303978 6.004073,8.3387966 H 4.7846633 L 7.6160731,4.1452169 5.0285452,0.31448588 h 1.2194097 z"
       id="path291" />
    <path
       d="m 13.796399,5.3467816 q 0,1.0825979 0.475867,1.6952769 0.481815,0.612679 1.314583,0.612679 0.612679,0 1.070701,-0.261727 0.463971,-0.2676753 0.618628,-0.7256974 l 0.939837,0.2676753 q -0.261727,0.7375941 -0.963631,1.1301846 -0.695956,0.3925904 -1.665535,0.3925904 -1.403808,0 -2.159247,-0.874406 -0.75544,-0.874406 -0.75544,-2.5042511 0,-1.5882068 0.737595,-2.4388195 0.743542,-0.8565609 2.141402,-0.8565609 1.39786,0 2.117609,0.8506126 0.719749,0.8506126 0.719749,2.5696829 v 0.1427602 z m 1.766657,-2.7719265 q -0.797078,0 -1.261048,0.5234539 -0.463971,0.5175056 -0.493713,1.4276016 h 3.473831 Q 17.115572,2.5748551 15.563056,2.5748551 Z"
       id="path293" />
    <path
       d="m 5.1326412,16.470177 v 7.09637 H 4.0024565 v -7.09637 H 1.3673419 v -0.927941 h 6.4004139 v 0.927941 z"
       id="path295" />
    <path
       d="m 10.141144,20.574532 q 0,1.082598 0.475867,1.695277 0.481815,0.612679 1.314583,0.612679 0.612679,0 1.070701,-0.261727 0.463971,-0.267675 0.618628,-0.725697 l 0.939837,0.267675 q -0.261727,0.737594 -0.963631,1.130185 -0.695956,0.39259 -1.665535,0.39259 -1.403808,0 -2.1592474,-0.874406 -0.7554392,-0.874406 -0.7554392,-2.504251 0,-1.588207 0.7375942,-2.43882 0.7435424,-0.856561 2.1414024,-0.856561 1.39786,0 2.117609,0.850613 0.719749,0.850613 0.719749,2.569683 v 0.14276 z m 1.766657,-2.771926 q -0.797078,0 -1.261048,0.523454 -0.463971,0.517505 -0.493713,1.427601 h 3.473831 q -0.166554,-1.951055 -1.71907,-1.951055 z"
       id="path297" />
    <path
       d="m 19.188569,18.593735 1.980797,-3.051499 h 1.21941 l -2.587528,3.830731 2.83141,4.19358 h -1.21941 l -2.224679,-3.408399 -2.218731,3.408399 h -1.219409 l 2.831409,-4.19358 -2.587527,-3.830731 h 1.219409 z"
       id="path299" />
  </g>
</svg>
