<?xml version="1.0" encoding="UTF-8" standalone="no"?>
<svg
   version="1.1"
   viewBox="0 0 24 24"
   id="svg242"
   sodipodi:docname="lc_compile-lua.svg"
   inkscape:version="1.2.1 (9c6d41e410, 2022-07-14)"
   xmlns:inkscape="http://www.inkscape.org/namespaces/inkscape"
   xmlns:sodipodi="http://sodipodi.sourceforge.net/DTD/sodipodi-0.dtd"
   xmlns="http://www.w3.org/2000/svg"
   xmlns:svg="http://www.w3.org/2000/svg">
  <defs
     id="defs246" />
  <sodipodi:namedview
     id="namedview244"
     pagecolor="#ffffff"
     bordercolor="#000000"
     borderopacity="0.25"
     inkscape:showpageshadow="2"
     inkscape:pageopacity="0.0"
     inkscape:pagecheckerboard="0"
     inkscape:deskcolor="#d1d1d1"
     showgrid="false"
     inkscape:zoom="16.469695"
     inkscape:cx="12.568539"
     inkscape:cy="10.443424"
     inkscape:window-width="1920"
     inkscape:window-height="1031"
     inkscape:window-x="0"
     inkscape:window-y="0"
     inkscape:window-maximized="1"
     inkscape:current-layer="svg242" />
  <path
     d="m7 2v20l10-10-9-9zm1 2.4141 7.5859 7.5859-7.5859 7.5859z"
     fill="#309048"
     id="path238" />
  <path
     d="m8 4.4141v15.172l7.5859-7.5859z"
     fill="#a1ddaa"
     stroke-linecap="round"
     stroke-width="3.7795"
     id="path240" />
  <g
     aria-label="Lua"
     id="text709"
     style="font-size:12.1822px;font-family:Cousine;-inkscape-font-specification:Cousine;text-align:center;text-anchor:middle;fill:#3a3a38;stroke-width:2.43643;stroke-linecap:round;stroke-linejoin:round"
     transform="translate(-0.5628467,7.9174633)">
    <path
       d="M 2.5071774,8.0352087 V 0.01089797 H 3.6433103 V 7.1072677 h 3.9972846 v 0.927941 z"
       id="path1068" />
    <path
       d="M 10.579075,1.5991048 V 5.679666 q 0,0.9279411 0.291469,1.2907898 0.291468,0.3569004 1.040959,0.3569004 0.767336,0 1.213462,-0.5234539 Q 13.57109,6.2804484 13.57109,5.328714 V 1.5991048 h 1.07665 v 5.0620373 q 0,1.1242363 0.03569,1.3740666 h -1.011218 q -0.0059,-0.029742 -0.0119,-0.1606052 -0.0059,-0.1308635 -0.01785,-0.297417 -0.0059,-0.1725018 -0.01784,-0.6424207 h -0.01784 q -0.368797,0.6662141 -0.856561,0.9457861 -0.481815,0.2736236 -1.201564,0.2736236 -1.058805,0 -1.5525172,-0.5234539 Q 9.5083739,7.1013193 9.5083739,5.8878579 V 1.5991048 Z"
       id="path1070" />
    <path
       d="m 22.267564,7.374943 q 0.154656,0 0.350952,-0.041638 v 0.6662141 q -0.404488,0.095173 -0.82682,0.095173 -0.594834,0 -0.868457,-0.3093137 -0.267676,-0.315262 -0.303366,-0.9814761 h -0.03569 q -0.386642,0.7197492 -0.916044,1.0350112 -0.523454,0.315262 -1.296738,0.315262 -0.939838,0 -1.415705,-0.5115572 Q 16.479829,7.131061 16.479829,6.23881 q 0,-2.0759707 2.700546,-2.1057124 l 1.403808,-0.023793 V 3.7583522 q 0,-0.7792325 -0.315262,-1.1182879 -0.315262,-0.3450038 -1.005269,-0.3450038 -0.701904,0 -1.011218,0.2498303 Q 17.94312,2.7947211 17.883637,3.318175 L 16.765349,3.2170533 q 0.273624,-1.7369153 2.516148,-1.7369153 1.189668,0 1.784502,0.5591439 0.600782,0.5531957 0.600782,1.6060518 v 2.7719265 q 0,0.4758672 0.124915,0.7197492 0.124915,0.2379336 0.475868,0.2379336 z m -3.62254,-0.03569 q 0.571041,0 1.011218,-0.2736236 0.440177,-0.2736237 0.684059,-0.7316459 0.243882,-0.4580221 0.243882,-0.945786 V 4.8587951 l -1.130184,0.023793 q -0.701904,0.011897 -1.070702,0.1546568 -0.368797,0.1427602 -0.576989,0.4401772 -0.202243,0.2914686 -0.202243,0.7792325 0,0.4877639 0.261727,0.7851809 0.267675,0.297417 0.779232,0.2974175 z"
       id="path1072" />
  </g>
</svg>
