<?xml version="1.0" encoding="UTF-8" standalone="no"?>
<svg
   version="1.1"
   viewBox="0 0 24 24"
   id="svg242"
   sodipodi:docname="lc_compile-pdf.svg"
   inkscape:version="1.2.1 (9c6d41e410, 2022-07-14)"
   xmlns:inkscape="http://www.inkscape.org/namespaces/inkscape"
   xmlns:sodipodi="http://sodipodi.sourceforge.net/DTD/sodipodi-0.dtd"
   xmlns="http://www.w3.org/2000/svg"
   xmlns:svg="http://www.w3.org/2000/svg">
  <defs
     id="defs246" />
  <sodipodi:namedview
     id="namedview244"
     pagecolor="#ffffff"
     bordercolor="#000000"
     borderopacity="0.25"
     inkscape:showpageshadow="2"
     inkscape:pageopacity="0.0"
     inkscape:pagecheckerboard="0"
     inkscape:deskcolor="#d1d1d1"
     showgrid="false"
     inkscape:zoom="16.469695"
     inkscape:cx="12.902485"
     inkscape:cy="10.443424"
     inkscape:window-width="1920"
     inkscape:window-height="1031"
     inkscape:window-x="0"
     inkscape:window-y="0"
     inkscape:window-maximized="1"
     inkscape:current-layer="svg242" />
  <path
     d="m7 2v20l10-10-9-9zm1 2.4141 7.5859 7.5859-7.5859 7.5859z"
     fill="#309048"
     id="path238" />
  <path
     d="m8 4.4141v15.172l7.5859-7.5859z"
     fill="#a1ddaa"
     stroke-linecap="round"
     stroke-width="3.7795"
     id="path240" />
  <g
     aria-label="PDF TeX"
     id="text658"
     style="font-size:12.1822px;font-family:Cousine;-inkscape-font-specification:Cousine;text-align:center;text-anchor:middle;fill:#3a3a38;stroke-width:2.43643;stroke-linecap:round;stroke-linejoin:round">
    <path
       d="m 7.5714606,2.7176153 q 0,0.7435425 -0.3569004,1.3264798 Q 6.8636081,4.6270324 6.2033424,4.9541911 5.549025,5.2813498 4.6865156,5.2813498 H 3.0150321 V 8.3387966 H 1.8788991 V 0.31448588 h 2.7362365 q 1.4157049,0 2.1830408,0.63647239 0.7732842,0.63052403 0.7732842,1.76665703 z m -1.1420813,0.017845 q 0,-1.5108784 -1.9510556,-1.5108784 H 3.0150321 v 3.1585686 h 1.5108784 q 0.8863026,0 1.3919115,-0.4342288 0.5115573,-0.4342289 0.5115573,-1.2134614 z"
       id="path711" />
    <path
       d="m 14.917661,4.2463387 q 0,1.9689005 -0.916045,3.0336534 -0.910096,1.0588045 -2.611321,1.0588045 H 9.1894093 V 0.31448588 h 1.8499337 q 1.957004,0 2.914687,0.98147612 0.963631,0.9755278 0.963631,2.9503767 z m -1.142082,0 q 0,-1.5703618 -0.654317,-2.2841626 -0.654317,-0.7197492 -2.075971,-0.7197492 h -0.719749 v 6.1684287 h 0.963631 q 1.261048,0 1.873727,-0.7911293 0.612679,-0.7911292 0.612679,-2.3733876 z"
       id="path713" />
    <path
       d="m 17.826399,1.2424269 v 2.93848 h 4.021078 v 0.9398377 h -4.021078 v 3.218052 H 16.690266 V 0.31448588 h 5.299971 V 1.2424269 Z"
       id="path715" />
    <path
       d="m 5.1326412,16.470177 v 7.09637 H 4.0024565 v -7.09637 H 1.3673419 v -0.927941 h 6.4004139 v 0.927941 z"
       id="path717" />
    <path
       d="m 10.141144,20.574532 q 0,1.082598 0.475867,1.695277 0.481815,0.612679 1.314583,0.612679 0.612679,0 1.070701,-0.261727 0.463971,-0.267675 0.618628,-0.725697 l 0.939837,0.267675 q -0.261727,0.737594 -0.963631,1.130185 -0.695956,0.39259 -1.665535,0.39259 -1.403808,0 -2.1592474,-0.874406 -0.7554392,-0.874406 -0.7554392,-2.504251 0,-1.588207 0.7375942,-2.43882 0.7435424,-0.856561 2.1414024,-0.856561 1.39786,0 2.117609,0.850613 0.719749,0.850613 0.719749,2.569683 v 0.14276 z m 1.766657,-2.771926 q -0.797078,0 -1.261048,0.523454 -0.463971,0.517505 -0.493713,1.427601 h 3.473831 q -0.166554,-1.951055 -1.71907,-1.951055 z"
       id="path719" />
    <path
       d="m 19.188569,18.593735 1.980797,-3.051499 h 1.21941 l -2.587528,3.830731 2.83141,4.19358 h -1.21941 l -2.224679,-3.408399 -2.218731,3.408399 h -1.219409 l 2.831409,-4.19358 -2.587527,-3.830731 h 1.219409 z"
       id="path721" />
  </g>
</svg>
