<svg version="1.1" viewBox="0 0 32 32" xmlns="http://www.w3.org/2000/svg"><g transform="scale(1.333333)"><path d="m7 2v20l10-10-9-9zm1 2.4141 7.5859 7.5859-7.5859 7.5859z" fill="#a1ddaa"/><path d="m8 4.4141v15.172l7.5859-7.5859z" fill="#309048" stroke-linecap="round" stroke-width="3.7795"/><g fill="#fafafa" stroke-linecap="round" stroke-linejoin="round" stroke-width="2.4364" aria-label="PDF TeX"><path d="m7.5715 2.7176q0 0.74354-0.3569 1.3265-0.35095 0.58294-1.0112 0.9101-0.65432 0.32716-1.5168 0.32716h-1.6715v3.0574h-1.1361v-8.0243h2.7362q1.4157 0 2.183 0.63647 0.77328 0.63052 0.77328 1.7667zm-1.1421 0.017845q0-1.5109-1.9511-1.5109h-1.4633v3.1586h1.5109q0.8863 0 1.3919-0.43423 0.51156-0.43423 0.51156-1.2135z"/><path d="m14.918 4.2463q0 1.9689-0.91604 3.0337-0.9101 1.0588-2.6113 1.0588h-2.2009v-8.0243h1.8499q1.957 0 2.9147 0.98148 0.96363 0.97553 0.96363 2.9504zm-1.1421 0q0-1.5704-0.65432-2.2842-0.65432-0.71975-2.076-0.71975h-0.71975v6.1684h0.96363q1.261 0 1.8737-0.79113 0.61268-0.79113 0.61268-2.3734z"/><path d="m17.826 1.2424v2.9385h4.0211v0.93984h-4.0211v3.2181h-1.1361v-8.0243h5.3v0.92794z"/><path d="m5.1326 16.47v7.0964h-1.1302v-7.0964h-2.6351v-0.92794h6.4004v0.92794z"/><path d="m10.141 20.575q0 1.0826 0.47587 1.6953 0.48182 0.61268 1.3146 0.61268 0.61268 0 1.0707-0.26173 0.46397-0.26768 0.61863-0.7257l0.93984 0.26768q-0.26173 0.73759-0.96363 1.1302-0.69596 0.39259-1.6655 0.39259-1.4038 0-2.1592-0.87441-0.75544-0.87441-0.75544-2.5043 0-1.5882 0.73759-2.4388 0.74354-0.85656 2.1414-0.85656t2.1176 0.85061 0.71975 2.5697v0.14276zm1.7667-2.7719q-0.79708 0-1.261 0.52345-0.46397 0.5175-0.49371 1.4276h3.4738q-0.16655-1.9511-1.7191-1.9511z"/><path d="m19.189 18.594 1.9808-3.0515h1.2194l-2.5875 3.8307 2.8314 4.1936h-1.2194l-2.2247-3.4084-2.2187 3.4084h-1.2194l2.8314-4.1936-2.5875-3.8307h1.2194z"/></g></g></svg>
