<svg version="1.1" viewBox="0 0 24 24" xmlns="http://www.w3.org/2000/svg"><path d="m7 2v20l10-10-9-9zm1 2.4141 7.5859 7.5859-7.5859 7.5859z" fill="#309048"/><path d="m8 4.4141v15.172l7.5859-7.5859z" fill="#a1ddaa" stroke-linecap="round" stroke-width="3.7795"/><g fill="#3a3a38" stroke-linecap="round" stroke-linejoin="round" stroke-width="2.4364" aria-label="Xe TeX"><path d="m8.2228 3.366 1.9808-3.0515h1.2194l-2.5875 3.8307 2.8314 4.1936h-1.2194l-2.2247-3.4084-2.2187 3.4084h-1.2194l2.8314-4.1936-2.5875-3.8307h1.2194z"/><path d="m13.796 5.3468q0 1.0826 0.47587 1.6953 0.48182 0.61268 1.3146 0.61268 0.61268 0 1.0707-0.26173 0.46397-0.26768 0.61863-0.7257l0.93984 0.26768q-0.26173 0.73759-0.96363 1.1302-0.69596 0.39259-1.6655 0.39259-1.4038 0-2.1592-0.87441-0.75544-0.87441-0.75544-2.5043 0-1.5882 0.7376-2.4388 0.74354-0.85656 2.1414-0.85656t2.1176 0.85061 0.71975 2.5697v0.14276zm1.7667-2.7719q-0.79708 0-1.261 0.52345-0.46397 0.51751-0.49371 1.4276h3.4738q-0.16655-1.9511-1.7191-1.9511z"/><path d="m5.1326 16.47v7.0964h-1.1302v-7.0964h-2.6351v-0.92794h6.4004v0.92794z"/><path d="m10.141 20.575q0 1.0826 0.47587 1.6953 0.48182 0.61268 1.3146 0.61268 0.61268 0 1.0707-0.26173 0.46397-0.26768 0.61863-0.7257l0.93984 0.26768q-0.26173 0.73759-0.96363 1.1302-0.69596 0.39259-1.6655 0.39259-1.4038 0-2.1592-0.87441-0.75544-0.87441-0.75544-2.5043 0-1.5882 0.73759-2.4388 0.74354-0.85656 2.1414-0.85656t2.1176 0.85061 0.71975 2.5697v0.14276zm1.7667-2.7719q-0.79708 0-1.261 0.52345-0.46397 0.5175-0.49371 1.4276h3.4738q-0.16655-1.9511-1.7191-1.9511z"/><path d="m19.189 18.594 1.9808-3.0515h1.2194l-2.5875 3.8307 2.8314 4.1936h-1.2194l-2.2247-3.4084-2.2187 3.4084h-1.2194l2.8314-4.1936-2.5875-3.8307h1.2194z"/></g></svg>
