<?xml version="1.0" encoding="UTF-8" standalone="no"?>
<svg
   version="1.1"
   viewBox="0 0 24 24"
   id="svg242"
   sodipodi:docname="lc_compile-latex.svg"
   inkscape:version="1.2.1 (9c6d41e410, 2022-07-14)"
   xmlns:inkscape="http://www.inkscape.org/namespaces/inkscape"
   xmlns:sodipodi="http://sodipodi.sourceforge.net/DTD/sodipodi-0.dtd"
   xmlns="http://www.w3.org/2000/svg"
   xmlns:svg="http://www.w3.org/2000/svg">
  <defs
     id="defs246" />
  <sodipodi:namedview
     id="namedview244"
     pagecolor="#ffffff"
     bordercolor="#000000"
     borderopacity="0.25"
     inkscape:showpageshadow="2"
     inkscape:pageopacity="0.0"
     inkscape:pagecheckerboard="0"
     inkscape:deskcolor="#d1d1d1"
     showgrid="false"
     inkscape:zoom="16.469695"
     inkscape:cx="12.568539"
     inkscape:cy="10.443424"
     inkscape:window-width="1920"
     inkscape:window-height="1031"
     inkscape:window-x="0"
     inkscape:window-y="0"
     inkscape:window-maximized="1"
     inkscape:current-layer="svg242" />
  <path
     d="m7 2v20l10-10-9-9zm1 2.4141 7.5859 7.5859-7.5859 7.5859z"
     fill="#309048"
     id="path238" />
  <path
     d="m8 4.4141v15.172l7.5859-7.5859z"
     fill="#a1ddaa"
     stroke-linecap="round"
     stroke-width="3.7795"
     id="path240" />
  <g
     aria-label="La
TeX"
     id="text709"
     style="font-size:12.1822px;font-family:Cousine;-inkscape-font-specification:Cousine;text-align:center;text-anchor:middle;fill:#3a3a38;stroke-width:2.43643;stroke-linecap:round;stroke-linejoin:round">
    <path
       d="M 5.9802796,8.3387966 V 0.31448588 h 1.136133 V 7.4108556 h 3.9972844 v 0.927941 z"
       id="path1044" />
    <path
       d="m 18.430156,7.6785309 q 0.154656,0 0.350952,-0.041638 v 0.6662141 q -0.404487,0.095173 -0.82682,0.095173 -0.594834,0 -0.868457,-0.3093137 -0.267676,-0.315262 -0.303366,-0.9814761 h -0.03569 q -0.386642,0.7197492 -0.916044,1.0350112 -0.523454,0.315262 -1.296738,0.315262 -0.939838,0 -1.415705,-0.5115572 -0.475867,-0.5115573 -0.475867,-1.4038083 0,-2.0759707 2.700546,-2.1057124 l 1.403808,-0.023793 V 4.0619401 q 0,-0.7792325 -0.315262,-1.1182879 -0.315262,-0.3450037 -1.005269,-0.3450037 -0.701904,0 -1.011218,0.2498302 Q 14.105712,3.098309 14.046229,3.621763 L 12.927941,3.5206412 q 0.273624,-1.7369153 2.516148,-1.7369153 1.189668,0 1.784502,0.5591439 0.600782,0.5531957 0.600782,1.6060519 v 2.7719264 q 0,0.4758672 0.124915,0.7197492 0.124916,0.2379336 0.475868,0.2379336 z m -3.62254,-0.03569 q 0.571041,0 1.011218,-0.2736236 0.440177,-0.2736237 0.684059,-0.7316458 0.243882,-0.4580222 0.243882,-0.9457861 V 5.162383 l -1.130184,0.023793 q -0.701904,0.011897 -1.070701,0.1546568 -0.368798,0.1427602 -0.576989,0.4401772 -0.202244,0.2914687 -0.202244,0.7792325 0,0.4877639 0.261727,0.7851809 0.267675,0.297417 0.779232,0.297417 z"
       id="path1046" />
    <path
       d="m 5.1326412,16.470177 v 7.09637 H 4.0024565 v -7.09637 H 1.3673419 v -0.927941 h 6.4004139 v 0.927941 z"
       id="path1048" />
    <path
       d="m 10.141144,20.574532 q 0,1.082598 0.475867,1.695277 0.481815,0.612679 1.314583,0.612679 0.612679,0 1.070701,-0.261727 0.463971,-0.267675 0.618628,-0.725697 l 0.939837,0.267675 q -0.261727,0.737594 -0.963631,1.130185 -0.695956,0.39259 -1.665535,0.39259 -1.403808,0 -2.1592474,-0.874406 -0.7554392,-0.874406 -0.7554392,-2.504251 0,-1.588207 0.7375942,-2.43882 0.7435424,-0.856561 2.1414024,-0.856561 1.39786,0 2.117609,0.850613 0.719749,0.850613 0.719749,2.569683 v 0.14276 z m 1.766657,-2.771926 q -0.797078,0 -1.261048,0.523454 -0.463971,0.517505 -0.493713,1.427601 h 3.473831 q -0.166554,-1.951055 -1.71907,-1.951055 z"
       id="path1050" />
    <path
       d="m 19.188569,18.593735 1.980797,-3.051499 h 1.21941 l -2.587528,3.830731 2.83141,4.19358 h -1.21941 l -2.224679,-3.408399 -2.218731,3.408399 h -1.219409 l 2.831409,-4.19358 -2.587527,-3.830731 h 1.219409 z"
       id="path1052" />
  </g>
</svg>
