<svg version="1.1" viewBox="0 0 24 24" xmlns="http://www.w3.org/2000/svg"><path d="m7 2v20l10-10-9-9zm1 2.4141 7.5859 7.5859-7.5859 7.5859z" fill="#309048"/><path d="m8 4.4141v15.172l7.5859-7.5859z" fill="#a1ddaa" stroke-linecap="round" stroke-width="3.7795"/><g transform="translate(-.56285 7.9175)" fill="#3a3a38" stroke-linecap="round" stroke-linejoin="round" stroke-width="2.4364" aria-label="Lua"><path d="m2.5072 8.0352v-8.0243h1.1361v7.0964h3.9973v0.92794z"/><path d="m10.579 1.5991v4.0806q0 0.92794 0.29147 1.2908 0.29147 0.3569 1.041 0.3569 0.76734 0 1.2135-0.52345 0.44612-0.52345 0.44612-1.4752v-3.7296h1.0766v5.062q0 1.1242 0.03569 1.3741h-1.0112q-0.0059-0.029742-0.0119-0.16061-0.0059-0.13086-0.01785-0.29742-0.0059-0.1725-0.01784-0.64242h-0.01784q-0.3688 0.66621-0.85656 0.94579-0.48182 0.27362-1.2016 0.27362-1.0588 0-1.5525-0.52345-0.48777-0.5294-0.48777-1.7429v-4.2888z"/><path d="m22.268 7.3749q0.15466 0 0.35095-0.041638v0.66621q-0.40449 0.095173-0.82682 0.095173-0.59483 0-0.86846-0.30931-0.26768-0.31526-0.30337-0.98148h-0.03569q-0.38664 0.71975-0.91604 1.035-0.52345 0.31526-1.2967 0.31526-0.93984 0-1.4157-0.51156-0.47587-0.51156-0.47587-1.4038 0-2.076 2.7005-2.1057l1.4038-0.023793v-0.35095q0-0.77923-0.31526-1.1183-0.31526-0.345-1.0053-0.345-0.7019 0-1.0112 0.24983t-0.3688 0.77328l-1.1183-0.10112q0.27362-1.7369 2.5161-1.7369 1.1897 0 1.7845 0.55914 0.60078 0.5532 0.60078 1.6061v2.7719q0 0.47587 0.12492 0.71975 0.12492 0.23793 0.47587 0.23793zm-3.6225-0.03569q0.57104 0 1.0112-0.27362 0.44018-0.27362 0.68406-0.73165 0.24388-0.45802 0.24388-0.94579v-0.5294l-1.1302 0.023793q-0.7019 0.011897-1.0707 0.15466-0.3688 0.14276-0.57699 0.44018-0.20224 0.29147-0.20224 0.77923t0.26173 0.78518q0.26768 0.29742 0.77923 0.29742z"/></g></svg>
