<svg version="1.1" viewBox="0 0 32 32" xmlns="http://www.w3.org/2000/svg"><g stroke-width=".26458" transform="scale(5.039370)"><path d="m2.7782 1.323c-1.2358 0-2.1755 0.90393-2.2469 2.112a0.26461 0.26461 0 0 0-5.159e-4 0.013952l-0.00155 0.25373a0.26461 0.26461 0 0 0 0.52762 0.027905c0.06041-0.60411 0.29054-0.99154 0.59893-1.2439 0.30838-0.25231 0.70979-0.37 1.1224-0.37 0.38743 0 0.66347 0.1539 0.86713 0.41186 0.18126 0.2296 0.29112 0.55241 0.31419 0.91106h-0.51986a0.26461 0.26461 0 0 0-0.18707 0.45165l1.0583 1.0583a0.26461 0.26461 0 0 0 0.37414 0l1.0583-1.0583a0.26461 0.26461 0 0 0-0.18707-0.45165h-0.53537c-0.064886-1.2052-1.0047-2.1167-2.2428-2.1167z" fill="#7bcbff"/><path d="m2.7782 1.5876c-1.1125 0-1.9187 0.77778-1.9828 1.8629l-0.00155 0.25373c0.13229-1.3229 1.0583-1.8521 1.9844-1.8521 0.92604 0 1.4552 0.79375 1.4552 1.7198v0.13229h-0.79375l1.0583 1.0583 1.0583-1.0583h-0.79375v-0.13229c0-1.1426-0.8297-1.9844-1.9844-1.9844z" fill="#3a3a38"/><circle cx="2.5136" cy="3.5719" r="0" fill="#0063b1"/><g fill="#fafafa" stroke-linecap="round" stroke-linejoin="round" aria-label="DVI PDF"><path d="m2.03 1.1392q0 0.52094-0.24237 0.80265-0.2408 0.28014-0.69091 0.28014h-0.58232v-2.1231h0.48946q0.51779 0 0.77118 0.25968 0.25496 0.25811 0.25496 0.78062zm-0.30218 0q0-0.41549-0.17312-0.60435-0.17312-0.19043-0.54927-0.19043h-0.19043v1.6321h0.25496q0.33365 0 0.49576-0.20932t0.1621-0.62796z"/><path d="m3.3159 2.222h-0.31162l-0.79479-2.1231h0.31634l0.50363 1.4196q0.048789 0.13535 0.1322 0.4391 0.062953-0.2345 0.1322-0.4391l0.50048-1.4196h0.31634z"/><path d="m4.4459 0.098943h1.2953v0.24552h-0.49733v1.6321h0.49733v0.24552h-1.2953v-0.24552h0.49733v-1.6321h-0.49733z"/><path d="m2.0206 4.7638q0 0.19673-0.09443 0.35096-0.092856 0.15424-0.26755 0.2408-0.17312 0.086561-0.40133 0.086561h-0.44225v0.80895h-0.3006v-2.1231h0.72396q0.37457 0 0.5776 0.1684 0.2046 0.16683 0.2046 0.46743zm-0.30218 0.00472q0-0.39975-0.51622-0.39975h-0.38716v0.83571h0.39975q0.2345 0 0.36828-0.11489 0.13535-0.11489 0.13535-0.32106z"/><path d="m3.9643 5.1683q0 0.52094-0.24237 0.80265-0.2408 0.28014-0.69091 0.28014h-0.58232v-2.1231h0.48946q0.51779 0 0.77118 0.25968 0.25496 0.25811 0.25496 0.78062zm-0.30218 0q0-0.41549-0.17312-0.60435-0.17312-0.19043-0.54927-0.19043h-0.19043v1.6321h0.25496q0.33365 0 0.49576-0.20932t0.1621-0.62796z"/><path d="m4.7339 4.3735v0.77747h1.0639v0.24867h-1.0639v0.85144h-0.3006v-2.1231h1.4023v0.24552z"/></g></g></svg>
