<svg version="1.1" viewBox="0 0 32 32" xmlns="http://www.w3.org/2000/svg"><g transform="scale(1.333333)"><path d="m3 2h19v19h-19z" fill="#fafafa"/><path d="m7 2v4h-4v1h4v4h-4v1h4v4h-4v1h4v4h1v-0.5-3.5h3.5 0.5v0.11719c0.24568 0.10613 0.47785 0.26062 0.73047 0.36328l0.26953-0.46289v-0.017578h0.009766l0.58398-1h-0.59375v-2.7617l-1.291-2.2383h-3.709v-4h2.8145c0.10608-0.1562 0.21833-0.30306 0.33203-0.5a1.0002 1.0002 0 0 1 0.86328-0.5 1.0002 1.0002 0 0 1 0.86523 0.49609l0.29297 0.50391h3.832v3.1582l1-1.7129v-1.4453h0.84375l0.29297-0.50391a1.0002 1.0002 0 0 1 1.7285 0.0039062c0.1137 0.19694 0.22595 0.3438 0.33203 0.5h0.80273v-1h-4v-4h-1v4h-4v-4h-1v4h-4v-4h-1zm8.502 9 0.50391 0.86328 0.50391-0.86328h-1.0078zm4.8008 0-0.57617 1h2.2734v-1h-1.6973zm-12.303 1h4v4h-4v-4zm10 2.9902-0.083984 0.14648 0.083984 0.14453v-0.29102zm0.41992 1.0098 0.58398 1h1.4961 1.5v-1h-3.5801zm-1.3418 3.8418 0.007813 0.050781c0.002799-0.01556 0.002859-0.031355 0.005859-0.046875l-0.013672-0.003906zm-0.078125 0.33203v0.32227c2.6e-4 -0.08736 0.030309-0.17083 0.037109-0.25781l-0.037109-0.064453zm0 0.32617v0.5h0.041016c-0.023952-0.16406-0.041016-0.3297-0.041016-0.5z" fill="#797774"/><path d="m3 1c-0.554 0-1 0.446-1 1v19c0 0.554 0.446 1 1 1h5.3477c-0.14977-0.31145-0.25512-0.64711-0.30664-1h-5.041v-19h19v15.346c0.37404 0.17981 0.7129 0.42248 1 0.7168v-16.062c0-0.554-0.446-1-1-1h-19zm11.959 20c-0.051517 0.35289-0.15687 0.68855-0.30664 1h2.6953c-0.14977-0.31145-0.25512-0.64711-0.30664-1h-2.082z" fill="#3a3a38"/><path d="m8 2v18.5c0-1.9212 1.5788-3.5 3.5-3.5 0.17839-2.9e-5 0.34198 0.048924 0.5 0.11719v-5.6133l-1.1562-2.0039h0.001953c-0.16314-0.28256-0.29173-0.52637-0.375-0.82227s-0.08843-0.67083 0-0.96484c0.17687-0.58803 0.42471-0.77802 0.67578-1.2129a1.0002 1.0002 0 0 1 0.85352-0.49805v-4.002h-4zm0 18.5v0.5h0.041016c-0.023952-0.16406-0.041016-0.3297-0.041016-0.5z" fill="#ed3d3b" opacity=".5"/><path d="m7 1v21h1 0.34766c-0.14977-0.31145-0.25512-0.64711-0.30664-1h-0.041016v-0.5-3.5h3.5 0.5v0.11719c0.24568 0.10613 0.47785 0.26062 0.73047 0.36328l0.26953-0.46289v-3.7793l-1.291-2.2383h-3.709v-4h2.8145c0.10608-0.1562 0.21833-0.30306 0.33203-0.5a1.0002 1.0002 0 0 1 0.86328-0.5 1.0002 1.0002 0 0 1 0.86523 0.49609l0.125 0.21484v-5.7109h-1-4-1zm1 1h4v4h-4v-4zm0 10h4v4h-4v-4z" fill="#ed3d3b"/><g transform="translate(8,7)"><path d="m4.0117 0c-0.57735 1-0.87813 1-0.30078 2l3.541 6.1406-2.0566 3.5254c0.38758 0.35762 0.65215 0.82864 0.75586 1.3457l1.1621-2.0137c0.78042-0.01 0.8788-0.7746 1.334-0.78516l1.6035 2.7812c-0.0023 0.01134-0.0017 0.02375-0.0039 0.03516 0.10132-0.5274 0.36977-1.0082 0.76562-1.3711l-2.0527-3.5176 3.541-6.1406c0.57735-1 0.27657-1-0.30078-2l-3.9941 6.8477zm3.9883 8c0.277 0 0.5 0.223 0.5 0.5s-0.223 0.5-0.5 0.5-0.5-0.223-0.5-0.5 0.223-0.5 0.5-0.5z" fill="#3a3a38"/><g fill="#1e8bcd"><path d="m3.5 11a2.5 2.5 0 0 0-2.5 2.5 2.5 2.5 0 0 0 2.5 2.5 2.5 2.5 0 0 0 2.5-2.5 2.5 2.5 0 0 0-2.5-2.5zm0 1a1.5 1.5 0 0 1 1.5 1.5 1.5 1.5 0 0 1-1.5 1.5 1.5 1.5 0 0 1-1.5-1.5 1.5 1.5 0 0 1 1.5-1.5z"/><path d="m12.5 11a2.5 2.5 0 0 0-2.5 2.5 2.5 2.5 0 0 0 2.5 2.5 2.5 2.5 0 0 0 2.5-2.5 2.5 2.5 0 0 0-2.5-2.5zm0 1a1.5 1.5 0 0 1 1.5 1.5 1.5 1.5 0 0 1-1.5 1.5 1.5 1.5 0 0 1-1.5-1.5 1.5 1.5 0 0 1 1.5-1.5z"/></g></g></g></svg>
