<svg version="1.1" viewBox="0 0 24 24" xmlns="http://www.w3.org/2000/svg"><g fill="#fafafa" stroke-linecap="round" stroke-linejoin="round"><g aria-label="x"><path d="m13.808 8-1.9029-2.6321-1.9148 2.6321h-1.15l2.4602-3.296-2.3534-3.1182h1.1797l1.7784 2.4957 1.7666-2.4957h1.1915l-2.3534 3.1063 2.4898 3.3079z"/></g><g aria-label="y"><path d="m9.8485 21.934q-0.43868 0-0.73508-0.06521v-0.80029q0.22527 0.03557 0.49796 0.03557 0.46832 0 0.87736-0.34976 0.41496-0.34976 0.69951-1.1145l0.1067-0.29048-2.7862-6.349h1.1382l1.565 3.8058q0.53946 1.3279 0.58095 1.5057l0.24305-0.65209 1.8377-4.6595h1.1263l-2.7032 6.4142q-0.5276 1.3931-1.0967 1.9563-0.56317 0.56317-1.3516 0.56317z"/></g><path d="m5 12h15"/></g><path d="m19.5 10.5h-14.933" fill="none" stroke="#7bcbff" stroke-linecap="round" stroke-linejoin="round"/></svg>
