<?xml version="1.0" encoding="UTF-8" standalone="no"?>
<svg
   height="24"
   viewBox="0 0 24 24"
   width="24"
   version="1.1"
   id="svg22"
   sodipodi:docname="lc_dfrac.svg"
   inkscape:version="1.2.1 (9c6d41e410, 2022-07-14)"
   xmlns:inkscape="http://www.inkscape.org/namespaces/inkscape"
   xmlns:sodipodi="http://sodipodi.sourceforge.net/DTD/sodipodi-0.dtd"
   xmlns="http://www.w3.org/2000/svg"
   xmlns:svg="http://www.w3.org/2000/svg">
  <defs
     id="defs26" />
  <sodipodi:namedview
     id="namedview24"
     pagecolor="#ffffff"
     bordercolor="#000000"
     borderopacity="0.25"
     inkscape:showpageshadow="2"
     inkscape:pageopacity="0.0"
     inkscape:pagecheckerboard="0"
     inkscape:deskcolor="#d1d1d1"
     showgrid="true"
     inkscape:zoom="23.291667"
     inkscape:cx="11.076923"
     inkscape:cy="10.003578"
     inkscape:window-width="1920"
     inkscape:window-height="1031"
     inkscape:window-x="0"
     inkscape:window-y="0"
     inkscape:window-maximized="1"
     inkscape:current-layer="svg22">
    <inkscape:grid
       type="xygrid"
       id="grid408" />
  </sodipodi:namedview>
  <path
     d="m 10.382099,7.3057578 q 0,0.3191858 0.460569,0.3574879 l -0.06224,0.472395 H 9.0252898 L 8.9008117,7.8930593 Q 9.2369021,7.2291531 10.469234,5.9524103 L 11.240997,5.1480623 10.519025,3.4499942 Q 10.357204,3.0542041 10.182935,2.964832 10.021113,2.8626926 9.672575,2.8626926 l -0.062239,-0.4213252 1.307018,-0.3702555 0.311195,0.2808834 0.871346,2.0810909 q 1.020719,-1.072464 1.020719,-1.4171847 0,-0.3447204 -0.398329,-0.4213249 V 2.1732513 h 1.655557 l 0.199164,0.2298138 q 0.04979,0.05107 -0.473016,0.6766737 -0.51036,0.6256039 -1.095406,1.2256732 l -0.672181,0.6894411 0.871346,2.0427887 q 0.124478,0.268116 0.186717,0.2936506 0.06224,0.012767 0.211612,0.012767 0.149374,0 0.547703,-0.2425813 l 0.124478,0.4085577 q -0.809107,0.7149761 -1.294571,0.7149761 -0.33609,0 -0.522807,-0.3191856 -0.07469,-0.1149071 -0.174269,-0.3447207 L 11.489953,5.7098292 q -1.107854,1.136301 -1.107854,1.5959286 z"
     id="path2"
     style="fill:#3a3a38;stroke-width:0.236688" />
  <path
     d="m 4.5443123,10 a 0.47342434,0.47342434 0 1 0 0,0.946754 H 19.455688 a 0.47342434,0.47342434 0 1 0 0,-0.946754 z"
     fill-rule="evenodd"
     id="path4"
     style="fill:#1e8bcd;stroke-width:0.236688;fill-opacity:1" />
  <path
     d="m 13.486361,13.788718 q 0,-0.46316 -0.495092,-0.51765 l -0.01303,-0.46316 1.53739,-0.204335 0.442977,0.299691 q -0.221489,1.076167 -1.016241,2.370291 l -3.087807,4.944916 q -0.117259,0.190714 -0.143316,0.422294 0,0.340558 0.312689,0.340558 0.143317,0 0.31269,-0.09536 0.156344,0.245203 0.156344,0.504028 0,0.258824 -0.260574,0.46316 -0.260575,0.217957 -0.651436,0.217957 -0.377833,0 -0.6123501,-0.217957 -0.2214886,-0.204336 -0.2214886,-0.51765 0,-0.313314 0.1563448,-0.69474 0.2605749,-0.585762 0.9120109,-1.634684 L 10.190093,14.102028 Q 10.177063,13.911315 10.033748,13.666112 9.942547,13.4754 9.3301971,13.4754 l -0.052115,-0.449538 1.5373899,-0.422293 0.338747,0.326936 0.599321,4.726959 q 1.732821,-2.901563 1.732821,-3.86875 z"
     id="path6"
     style="fill:#3a3a38;stroke-width:0.236688" />
</svg>
