<svg version="1.1" viewBox="0 0 16 16" xmlns="http://www.w3.org/2000/svg">/&amp;gt;<g transform="translate(5 3)"><path d="m0.5 0a0.50001 0.50001 0 0 0-0.037109 0.00195 0.50001 0.50001 0 0 0-0.048828 0.00586 0.50001 0.50001 0 0 0-0.013672 0.00195 0.50001 0.50001 0 0 0-0.027344 0.00586 0.50001 0.50001 0 0 0-0.00586 0.00195 0.50001 0.50001 0 0 0-0.015625 0.00391 0.50001 0.50001 0 0 0-0.019531 0.00781 0.50001 0.50001 0 0 0-0.021484 0.00781 0.50001 0.50001 0 0 0-0.00586 0.00195 0.50001 0.50001 0 0 0-0.03125 0.015625 0.50001 0.50001 0 0 0-0.042969 0.025391 0.50001 0.50001 0 0 0-0.013672 0.00781 0.50001 0.50001 0 0 0-0.015625 0.011719 0.50001 0.50001 0 0 0-0.017578 0.013672 0.50001 0.50001 0 0 0-0.00586 0.00391 0.50001 0.50001 0 0 0-0.013672 0.013672 0.50001 0.50001 0 0 0-0.011719 0.011719 0.50001 0.50001 0 0 0-0.00586 0.00391 0.50001 0.50001 0 0 0-0.00195 0.00195 0.50001 0.50001 0 0 0-0.00391 0.00391 0.50001 0.50001 0 0 0-0.00977 0.011719 0.50001 0.50001 0 0 0-0.017578 0.019531 0.50001 0.50001 0 0 0-0.00586 0.00586 0.50001 0.50001 0 0 0-0.00781 0.011719 0.50001 0.50001 0 0 0-0.044922 0.072266 0.50001 0.50001 0 0 0-0.015625 0.03125 0.50001 0.50001 0 0 0-0.00195 0.00586 0.50001 0.50001 0 0 0-0.00391 0.00781 0.50001 0.50001 0 0 0-0.00391 0.013672 0.50001 0.50001 0 0 0-0.00586 0.013672 0.50001 0.50001 0 0 0-0.00586 0.019531 0.50001 0.50001 0 0 0 0 0.00195 0.50001 0.50001 0 0 0-0.00195 0.00586 0.50001 0.50001 0 0 0-0.00781 0.041016 0.50001 0.50001 0 0 1 0 0.00195 0.50001 0.50001 0 0 0-0.007807 0.083996v12a0.50001 0.50001 0 0 0 0.00195 0.03516 0.50001 0.50001 0 0 0 0.00586 0.05078 0.50001 0.50001 0 0 0 0.00781 0.04101 0.50001 0.50001 0 0 0 0.00195 0.0059 0.50001 0.50001 0 0 0 0 2e-3 0.50001 0.50001 0 0 0 0.011719 0.0332 0.50001 0.50001 0 0 0 0.00391 0.01367 0.50001 0.50001 0 0 0 0.00391 0.0078 0.50001 0.50001 0 0 0 0 2e-3 0.50001 0.50001 0 0 0 0.00195 0.0039 0.50001 0.50001 0 0 0 0.015625 0.03125 0.50001 0.50001 0 0 0 0.025391 0.04297 0.50001 0.50001 0 0 0 0.019531 0.0293 0.50001 0.50001 0 0 0 0.00781 0.01172 0.50001 0.50001 0 0 0 0.00586 0.0059 0.50001 0.50001 0 0 0 0.017578 0.01953 0.50001 0.50001 0 0 0 0.013672 0.01562 0.50001 0.50001 0 0 0 0.00195 2e-3 0.50001 0.50001 0 0 0 0.017578 0.01563 0.50001 0.50001 0 0 0 0.013672 0.01367 0.50001 0.50001 0 0 0 0.00586 0.0039 0.50001 0.50001 0 0 0 0.017578 0.01367 0.50001 0.50001 0 0 0 0.015625 0.01172 0.50001 0.50001 0 0 0 0.013672 0.0078 0.50001 0.50001 0 0 0 0.042969 0.02539 0.50001 0.50001 0 0 0 0.03125 0.01563 0.50001 0.50001 0 0 0 0.00586 2e-3 0.50001 0.50001 0 0 0 0.021484 0.0078 0.50001 0.50001 0 0 0 0.035156 0.01172 0.50001 0.50001 0 0 0 0.00586 2e-3 0.50001 0.50001 0 0 0 0.027344 0.0059 0.50001 0.50001 0 0 0 0.013672 2e-3 0.50001 0.50001 0 0 0 0.048828 0.0059 0.50001 0.50001 0 0 0 0.00195 0 0.50001 0.50001 0 0 0 0.035166 0.00156h10a0.50001 0.50001 0 0 0 0.03516-2e-3 0.50001 0.50001 0 0 0 0.05078-0.0059 0.50001 0.50001 0 0 0 0.0957-0.02539 0.50001 0.50001 0 0 0 0.01367-0.0059 0.50001 0.50001 0 0 0 0.11524-0.06836 0.50001 0.50001 0 0 0 0.01172-0.0098 0.50001 0.50001 0 0 0 0.02539-0.02344 0.50001 0.50001 0 0 0 0.01172-0.01172 0.50001 0.50001 0 0 0 0.02344-0.02539 0.50001 0.50001 0 0 0 0.0098-0.01172 0.50001 0.50001 0 0 0 0.01953-0.02734 0.50001 0.50001 0 0 0 0.0078-0.01367 0.50001 0.50001 0 0 0 0.02539-0.04297 0.50001 0.50001 0 0 0 0.01563-0.03125 0.50001 0.50001 0 0 0 0.0059-0.01367 0.50001 0.50001 0 0 0 0.01172-0.0332 0.50001 0.50001 0 0 0 0.0039-0.01563 0.50001 0.50001 0 0 0 0.0078-0.0332 0.50001 0.50001 0 0 0 2e-3 -0.01367 0.50001 0.50001 0 0 0 0.0059-0.04883 0.50001 0.50001 0 0 0 0-2e-3 0.50001 0.50001 0 0 0 0.0018-0.03495v-12a0.50001 0.50001 0 0 0-2e-3 -0.035156 0.50001 0.50001 0 0 1 0-0.00195 0.50001 0.50001 0 0 0-0.0059-0.048828 0.50001 0.50001 0 0 0-2e-3 -0.013672 0.50001 0.50001 0 0 0-0.04492-0.12695 0.50001 0.50001 0 0 0-0.02539-0.042969 0.50001 0.50001 0 0 0-0.0078-0.013672 0.50001 0.50001 0 0 0-0.32812-0.20898 0.50001 0.50001 0 0 0-0.04883-0.00586 0.50001 0.50001 0 0 0-0.03504-0.00196h-9.375zm0.5 1c0.085414-7.6e-6 0.89513 3.1e-6 1.125 0h2.7637c0.42379 1.4e-6 0.76742-1.5e-6 1.2227 0 1.029 3.3e-6 1.8065 6.4e-6 2.7637 0h0.02539c0.24962 2.4e-6 1.0161-7.4e-6 1.0996 0v11c-0.08349 8e-6 -0.84999-2e-6 -1.0996 0h-0.02539c-0.9572-7e-6 -1.7347-3e-6 -2.7637 0-0.45524 1e-6 -0.79887-1e-6 -1.2227 0h-3.8887v-8.9961z" fill="#0063b1"/><path d="m1 1h9v11h-9z" fill="#83beec"/><path d="m2 2v1h7v-1zm0 2v1h7v-1zm0 2v1h7v-1zm0 2v1h7v-1zm0 2v1h7v-1z" fill="#1e8bcd"/></g><path d="m0.5 0a0.50001 0.50001 0 0 0-0.037109 0.00195 0.50001 0.50001 0 0 0-0.048828 0.00586 0.50001 0.50001 0 0 0-0.013672 0.00195 0.50001 0.50001 0 0 0-0.027344 0.00586 0.50001 0.50001 0 0 0-0.00586 0.00195 0.50001 0.50001 0 0 0-0.015625 0.00391 0.50001 0.50001 0 0 0-0.019531 0.00781 0.50001 0.50001 0 0 0-0.021484 0.00781 0.50001 0.50001 0 0 0-0.00586 0.00195 0.50001 0.50001 0 0 0-0.03125 0.015625 0.50001 0.50001 0 0 0-0.042969 0.025391 0.50001 0.50001 0 0 0-0.013672 0.00781 0.50001 0.50001 0 0 0-0.015625 0.011719 0.50001 0.50001 0 0 0-0.017578 0.013672 0.50001 0.50001 0 0 0-0.00586 0.00391 0.50001 0.50001 0 0 0-0.013672 0.013672 0.50001 0.50001 0 0 0-0.011719 0.011719 0.50001 0.50001 0 0 0-0.00586 0.00391 0.50001 0.50001 0 0 0-0.00195 0.00195 0.50001 0.50001 0 0 0-0.00391 0.00391 0.50001 0.50001 0 0 0-0.00977 0.011719 0.50001 0.50001 0 0 0-0.017578 0.019531 0.50001 0.50001 0 0 0-0.00586 0.00586 0.50001 0.50001 0 0 0-0.00781 0.011719 0.50001 0.50001 0 0 0-0.044922 0.072266 0.50001 0.50001 0 0 0-0.015625 0.03125 0.50001 0.50001 0 0 0-0.00195 0.00586 0.50001 0.50001 0 0 0-0.00391 0.00781 0.50001 0.50001 0 0 0-0.00391 0.013672 0.50001 0.50001 0 0 0-0.00586 0.013672 0.50001 0.50001 0 0 0-0.00586 0.019531 0.50001 0.50001 0 0 0 0 0.00195 0.50001 0.50001 0 0 0-0.00195 0.00586 0.50001 0.50001 0 0 0-0.00781 0.041016 0.50001 0.50001 0 0 1 0 0.00195 0.50001 0.50001 0 0 0-0.007807 0.083996v12a0.50001 0.50001 0 0 0 0.00195 0.03516 0.50001 0.50001 0 0 0 0.00586 0.05078 0.50001 0.50001 0 0 0 0.00781 0.04101 0.50001 0.50001 0 0 0 0.00195 0.0059 0.50001 0.50001 0 0 0 0 2e-3 0.50001 0.50001 0 0 0 0.011719 0.0332 0.50001 0.50001 0 0 0 0.00391 0.01367 0.50001 0.50001 0 0 0 0.00391 0.0078 0.50001 0.50001 0 0 0 0 2e-3 0.50001 0.50001 0 0 0 0.00195 0.0039 0.50001 0.50001 0 0 0 0.015625 0.03125 0.50001 0.50001 0 0 0 0.025391 0.04297 0.50001 0.50001 0 0 0 0.019531 0.0293 0.50001 0.50001 0 0 0 0.00781 0.01172 0.50001 0.50001 0 0 0 0.00586 0.0059 0.50001 0.50001 0 0 0 0.017578 0.01953 0.50001 0.50001 0 0 0 0.013672 0.01562 0.50001 0.50001 0 0 0 0.00195 2e-3 0.50001 0.50001 0 0 0 0.017578 0.01563 0.50001 0.50001 0 0 0 0.013672 0.01367 0.50001 0.50001 0 0 0 0.00586 0.0039 0.50001 0.50001 0 0 0 0.017578 0.01367 0.50001 0.50001 0 0 0 0.015625 0.01172 0.50001 0.50001 0 0 0 0.013672 0.0078 0.50001 0.50001 0 0 0 0.042969 0.02539 0.50001 0.50001 0 0 0 0.03125 0.01563 0.50001 0.50001 0 0 0 0.00586 2e-3 0.50001 0.50001 0 0 0 0.021484 0.0078 0.50001 0.50001 0 0 0 0.035156 0.01172 0.50001 0.50001 0 0 0 0.00586 2e-3 0.50001 0.50001 0 0 0 0.027344 0.0059 0.50001 0.50001 0 0 0 0.013672 2e-3 0.50001 0.50001 0 0 0 0.048828 0.0059 0.50001 0.50001 0 0 0 0.00195 0 0.50001 0.50001 0 0 0 0.035166 0.00156h10a0.50001 0.50001 0 0 0 0.03516-2e-3 0.50001 0.50001 0 0 0 0.05078-0.0059 0.50001 0.50001 0 0 0 0.0957-0.02539 0.50001 0.50001 0 0 0 0.01367-0.0059 0.50001 0.50001 0 0 0 0.11524-0.06836 0.50001 0.50001 0 0 0 0.01172-0.0098 0.50001 0.50001 0 0 0 0.02539-0.02344 0.50001 0.50001 0 0 0 0.01172-0.01172 0.50001 0.50001 0 0 0 0.02344-0.02539 0.50001 0.50001 0 0 0 0.0098-0.01172 0.50001 0.50001 0 0 0 0.01953-0.02734 0.50001 0.50001 0 0 0 0.0078-0.01367 0.50001 0.50001 0 0 0 0.02539-0.04297 0.50001 0.50001 0 0 0 0.01563-0.03125 0.50001 0.50001 0 0 0 0.0059-0.01367 0.50001 0.50001 0 0 0 0.01172-0.0332 0.50001 0.50001 0 0 0 0.0039-0.01563 0.50001 0.50001 0 0 0 0.0078-0.0332 0.50001 0.50001 0 0 0 2e-3 -0.01367 0.50001 0.50001 0 0 0 0.0059-0.04883 0.50001 0.50001 0 0 0 0-2e-3 0.50001 0.50001 0 0 0 0.0018-0.03495v-12a0.50001 0.50001 0 0 0-2e-3 -0.035156 0.50001 0.50001 0 0 1 0-0.00195 0.50001 0.50001 0 0 0-0.0059-0.048828 0.50001 0.50001 0 0 0-2e-3 -0.013672 0.50001 0.50001 0 0 0-0.04492-0.12695 0.50001 0.50001 0 0 0-0.02539-0.042969 0.50001 0.50001 0 0 0-0.0078-0.013672 0.50001 0.50001 0 0 0-0.32812-0.20898 0.50001 0.50001 0 0 0-0.04883-0.00586 0.50001 0.50001 0 0 0-0.03504-0.00196h-9.375zm0.5 1c0.085414-7.6e-6 0.89513 3.1e-6 1.125 0h2.7637c0.42379 1.4e-6 0.76742-1.5e-6 1.2227 0 1.029 3.3e-6 1.8065 6.4e-6 2.7637 0h0.02539c0.24962 2.4e-6 1.0161-7.4e-6 1.0996 0v11c-0.08349 8e-6 -0.84999-2e-6 -1.0996 0h-0.02539c-0.9572-7e-6 -1.7347-3e-6 -2.7637 0-0.45524 1e-6 -0.79887-1e-6 -1.2227 0h-3.8887v-8.9961z" fill="#0063b1"/><path d="m1 1h9v11h-9z" fill="#83beec"/><path d="m2 2v1h7v-1zm0 2v1h7v-1zm0 2v1h7v-1zm0 2v1h7v-1zm0 2v1h7v-1z" fill="#1e8bcd"/></svg>
