<svg viewBox="0 0 32 32" xmlns="http://www.w3.org/2000/svg"><g transform="scale(1.333333)"><path d="m3 2a1.0001 1.0001 0 0 0 -1 1v16a1.0001 1.0001 0 0 0 .2929688.707031l2 2a1.0001 1.0001 0 0 0 .7070312.292969h16a1.0001 1.0001 0 0 0 1-1v-18a1.0001 1.0001 0 0 0 -1-1zm3 1h12v6h-12zm1 12h10v6h-6v-5h-2v5h-2z" fill="#d492d8"/><path d="m.79375 291.44375v4.23334l.5291667.52916h.2645833v-1.85208h3.175v1.85208h.79375v-4.7625h-.5291666v1.85209h-3.7041667v-1.85209z" fill="#a846b2" stroke-width=".264583" transform="matrix(3.77952756 0 0 3.77952756 0 -1098.51960945)"/><path d="m1.5875 291.44375v1.5875h3.175v-1.5875zm.2645834 3.175v1.5875h.5291666v-1.32291h.5291667v1.32291h1.5875v-1.5875z" fill="#3a3a38" transform="matrix(3.77952756 0 0 3.77952756 0 -1098.51960945)"/></g></svg>