<svg viewBox="0 0 24 24" xmlns="http://www.w3.org/2000/svg"><path d="m12 2a5 5 0 0 0 -5 5v5h-2c-.554 0-1 .446-1 1v8c0 .554.446 1 1 1h14c.554 0 1-.446 1-1v-8c0-.554-.446-1-1-1h-2v-5a5 5 0 0 0 -5-5zm0 1a4 4 0 0 1 4 4v5h-8v-5a4 4 0 0 1 4-4zm-7 10h14v8h-14v-1-6zm7 1a2 2 0 0 0 -2 2v3c0 .554.446 1 1 1h1c.554 0 1-.446 1-1v-1.271484a2 2 0 0 0 1-1.728516 2 2 0 0 0 -2-2zm0 1a1 1 0 0 1 1 1 1 1 0 0 1 -1 1v2h-1v-3a1 1 0 0 1 1-1z" fill="#f8db8f"/><path d="m5 13v8h14v-8zm7 1a2 2 0 0 1 2 2 2 2 0 0 1 -1 1.728516v1.271484c0 .554-.446 1-1 1h-1c-.554 0-1-.446-1-1v-3a2 2 0 0 1 2-2z" fill="#ed8733"/></svg>