<svg viewBox="0 0 24 24" xmlns="http://www.w3.org/2000/svg"><path d="m16 3v16.90625.09375 1h5c.554 0 1-.446 1-1 0-5.666667 0-11.3333333 0-17zm1 4h4v13c-1.333333 0-2.666667 0-4 0 0-4.333333 0-8.666667 0-13z" fill="#fafafa"/><path d="m7.00006 15.480118a.50005.50005 0 0 1 .203125-.394531l2.951171-2.947266a.50063788.50063788 0 1 1 .707032.708984l-2.146485 2.142579 5.785157.0078a.50005.50005 0 1 1 0 1l-5.785157-.0078 2.146485 2.15039a.50005.50005 0 1 1 -.708985.705078l-2.957031-2.960937a.50005.50005 0 0 1 -.195312-.404297z" fill="#1e8bcd" fill-rule="evenodd"/><path d="m17 4v2h4v-2z" fill="#797774"/></svg>