<svg version="1.1" viewBox="0 0 32 32" xmlns="http://www.w3.org/2000/svg"><g transform="scale(1.333333)"><path d="m12 3a9 9 0 0 0-9 9 9 9 0 0 0 9 9 9 9 0 0 0 6.6934-2.998h-1.4414a8 8 0 0 1-5.252 1.998 8 8 0 0 1-8-8 8 8 0 0 1 8-8 8 8 0 0 1 7.9062 6.7754l1.0898 1.0918a9 9 0 0 0-8.9961-8.8672zm7.5332 11.658a8 8 0 0 1-0.14062 0.33984h0.48047l-0.33984-0.33984z" fill="#d42314"/><path d="m12 4a8 8 0 0 0-8 8 8 8 0 0 0 8 8 8 8 0 0 0 5.2617-1.998h-5.7617c-0.81476 0-1.502-0.68719-1.502-1.502s0.68719-1.502 1.502-1.502h2.3164l-1.8164-1.8164-3.5742 3.5742a0.83553 0.83556 0 1 1-1.1816-1.1816l3.5742-3.5742-3.5664-3.5664a0.83487 0.83489 0 0 1 0.58203-1.4336 0.83487 0.83489 0 0 1 0.59961 0.25195l3.5664 3.5664 3.5664-3.5664a0.83482 0.83485 0 0 1 0.57227-0.25195 0.83482 0.83485 0 0 1 0.60742 1.4336l-3.5645 3.5664 2.998 2.998h3.2324a8 8 0 0 0 0.11719-0.34375l-2.0859-2.0879c-0.57838-0.57838-0.57838-1.5486 0-2.127 0.28898-0.28898 0.68096-0.43945 1.0625-0.43945 0.38158 0 0.77076 0.14576 1.0645 0.43945l0.33398 0.33398a8 8 0 0 0-7.9043-6.7734z" fill="#ff9198"/><path d="m7.834 7a0.83487 0.83489 0 0 0-0.58203 1.4336l3.5664 3.5664-3.5742 3.5742a0.83553 0.83556 0 1 0 1.1816 1.1816l3.5742-3.5742 1.8164 1.8164h2.3633l-2.998-2.998 3.5645-3.5664a0.83482 0.83485 0 0 0-0.60742-1.4336 0.83482 0.83485 0 0 0-0.57227 0.25195l-3.5664 3.5664-3.5664-3.5664a0.83487 0.83489 0 0 0-0.59961-0.25195z" fill="#fafafa"/><path d="m18.505859 11.001953c-.127809 0-.25558.048549-.353515.146485-.195868.195869-.195868.513115 0 .708984l4.140625 4.142578h-10.792969c-.277 0-.5.223-.5.5s.223.5.5.5h10.792969l-4.140625 4.142578c-.195868.195869-.195868.513116 0 .708984.097935.097936.225706.146485.353515.146485s.257539-.048554.355469-.146485l4.992188-4.998046c.047015-.047013.084075-.103236.109375-.166016.02334-.057904.037109-.12105.037109-.1875s-.013769-.129596-.037109-.1875c-.0253-.06278-.06236-.119003-.109375-.166016l-4.992188-4.998046c-.09793-.09793-.22766-.146485-.355469-.146485z" fill="#1e8bcd"/></g></svg>
