<?xml version="1.0" encoding="UTF-8" standalone="no"?>
<svg
   viewBox="0 0 24 24"
   version="1.1"
   id="svg24"
   sodipodi:docname="lc_errorprev.svg"
   inkscape:version="1.2.1 (9c6d41e410, 2022-07-14)"
   xmlns:inkscape="http://www.inkscape.org/namespaces/inkscape"
   xmlns:sodipodi="http://sodipodi.sourceforge.net/DTD/sodipodi-0.dtd"
   xmlns="http://www.w3.org/2000/svg"
   xmlns:svg="http://www.w3.org/2000/svg">
  <defs
     id="defs28" />
  <sodipodi:namedview
     id="namedview26"
     pagecolor="#ffffff"
     bordercolor="#000000"
     borderopacity="0.25"
     inkscape:showpageshadow="2"
     inkscape:pageopacity="0.0"
     inkscape:pagecheckerboard="0"
     inkscape:deskcolor="#d1d1d1"
     showgrid="true"
     inkscape:zoom="23.291667"
     inkscape:cx="14.211091"
     inkscape:cy="14.254025"
     inkscape:window-width="1920"
     inkscape:window-height="1031"
     inkscape:window-x="0"
     inkscape:window-y="0"
     inkscape:window-maximized="1"
     inkscape:current-layer="svg24">
    <inkscape:grid
       type="xygrid"
       id="grid324"
       spacingx="0.5"
       spacingy="0.5"
       empspacing="2" />
  </sodipodi:namedview>
  <path
     id="path163"
     d="M 12 3 A 9 9 0 0 0 3.0097656 11.861328 L 4.0957031 10.773438 A 8 8 0 0 1 12 4 A 8 8 0 0 1 20 12 A 8 8 0 0 1 12 20 A 8 8 0 0 1 6.7480469 18.001953 L 5.3066406 18.001953 A 9 9 0 0 0 12 21 A 9 9 0 0 0 21 12 A 9 9 0 0 0 12 3 z M 4.4667969 14.658203 L 4.1269531 14.998047 L 4.6074219 14.998047 A 8 8 0 0 1 4.4667969 14.658203 z "
     style="fill:#d42314" />
  <path
     id="path165"
     d="M 12 4 A 8 8 0 0 0 4.1015625 10.767578 L 4.4296875 10.439453 C 4.7233794 10.145761 5.1125635 10 5.4941406 10 C 5.8756854 10 6.267663 10.150472 6.5566406 10.439453 C 7.1350224 11.017838 7.1350229 11.988022 6.5566406 12.566406 L 4.4726562 14.652344 A 8 8 0 0 0 4.6015625 14.998047 L 7.8203125 14.998047 L 10.818359 12 L 7.2519531 8.4335938 A 0.83486508 0.83489353 0 0 1 7.8339844 7 A 0.83486508 0.83489353 0 0 1 8.4335938 7.2519531 L 12 10.818359 L 15.566406 7.2519531 A 0.8348194 0.83484536 0 0 1 16.138672 7 A 0.8348194 0.83484536 0 0 1 16.746094 8.4335938 L 13.181641 12 L 16.755859 15.574219 A 0.83553188 0.83556031 0 1 1 15.574219 16.755859 L 12 13.181641 L 10.183594 14.998047 L 12.5 14.998047 C 13.314759 14.998047 14.001953 15.685241 14.001953 16.5 C 14.001953 17.314759 13.314759 18.001953 12.5 18.001953 L 6.7167969 18.001953 A 8 8 0 0 0 12 20 A 8 8 0 0 0 20 12 A 8 8 0 0 0 12 4 z "
     style="fill:#ff9198" />
  <path
     id="path167"
     d="M 7.8339844 7 A 0.83486508 0.83489353 0 0 0 7.2519531 8.4335938 L 10.818359 12 L 7.8203125 14.998047 L 10.183594 14.998047 L 12 13.181641 L 15.574219 16.755859 A 0.83553188 0.83556031 0 1 0 16.755859 15.574219 L 13.181641 12 L 16.746094 8.4335938 A 0.8348194 0.83484536 0 0 0 16.138672 7 A 0.8348194 0.83484536 0 0 0 15.566406 7.2519531 L 12 10.818359 L 8.4335938 7.2519531 A 0.83486508 0.83489353 0 0 0 7.8339844 7 z "
     style="fill:#fafafa" />
  <path
     d="m5.494141 11.001953c.127809 0 .25558.04855.353515.146485.195868.195869.195868.513115 0 .708984l-4.140625 4.142578h10.792969c.277 0 .5.223.5.5s-.223.5-.5.5h-10.792969l4.140625 4.142578c.195868.195869.195868.513116 0 .708984-.09793.09794-.225706.146485-.353515.146485s-.257539-.04855-.355469-.146485l-4.992188-4.998046c-.04702-.04701-.08408-.103236-.109375-.166016-.02334-.057904-.037109-.12105-.037109-.1875s.01377-.129596.03711-.1875c.0253-.06278.06236-.119003.109375-.166016l4.992188-4.998046c.09793-.09793.22766-.146485.355468-.146485z"
     fill="#1e8bcd"
     id="path20" />
</svg>
