<svg version="1.1" viewBox="0 0 32 32" xmlns="http://www.w3.org/2000/svg"><g transform="scale(1.333333)"><path d="m12 3a9 9 0 0 0-8.9902 8.8613l1.0859-1.0879a8 8 0 0 1 7.9043-6.7734 8 8 0 0 1 8 8 8 8 0 0 1-8 8 8 8 0 0 1-5.252-1.998h-1.4414a9 9 0 0 0 6.6934 2.998 9 9 0 0 0 9-9 9 9 0 0 0-9-9zm-7.5332 11.658-0.33984 0.33984h0.48047a8 8 0 0 1-0.14062-0.33984z" fill="#ff9198"/><path d="m12 4a8 8 0 0 0-7.8984 6.7676l0.32812-0.32812c0.29369-0.29369 0.68288-0.43945 1.0645-0.43945 0.38154 0 0.77352 0.15047 1.0625 0.43945 0.57838 0.57838 0.57838 1.5486 0 2.127l-2.084 2.0859a8 8 0 0 0 0.12891 0.3457h3.2188l2.998-2.998-3.5664-3.5664a0.83487 0.83489 0 0 1 0.58203-1.4336 0.83487 0.83489 0 0 1 0.59961 0.25195l3.5664 3.5664 3.5664-3.5664a0.83482 0.83485 0 0 1 0.57227-0.25195 0.83482 0.83485 0 0 1 0.60742 1.4336l-3.5645 3.5664 3.5742 3.5742a0.83553 0.83556 0 1 1-1.1816 1.1816l-3.5742-3.5742-1.8164 1.8164h2.3164c0.81476 0 1.502 0.68719 1.502 1.502s-0.68719 1.502-1.502 1.502h-5.7832a8 8 0 0 0 5.2832 1.998 8 8 0 0 0 8-8 8 8 0 0 0-8-8z" fill="#d42314"/><path d="m7.834 7a0.83487 0.83489 0 0 0-0.58203 1.4336l3.5664 3.5664-2.998 2.998h2.3633l1.8164-1.8164 3.5742 3.5742a0.83553 0.83556 0 1 0 1.1816-1.1816l-3.5742-3.5742 3.5645-3.5664a0.83482 0.83485 0 0 0-0.60742-1.4336 0.83482 0.83485 0 0 0-0.57227 0.25195l-3.5664 3.5664-3.5664-3.5664a0.83487 0.83489 0 0 0-0.59961-0.25195z" fill="#3a3a38"/><path d="m5.494141 11.001953c.127809 0 .25558.04855.353515.146485.195868.195869.195868.513115 0 .708984l-4.140625 4.142578h10.792969c.277 0 .5.223.5.5s-.223.5-.5.5h-10.792969l4.140625 4.142578c.195868.195869.195868.513116 0 .708984-.09793.09794-.225706.146485-.353515.146485s-.257539-.04855-.355469-.146485l-4.992188-4.998046c-.04702-.04701-.08408-.103236-.109375-.166016-.02334-.057904-.037109-.12105-.037109-.1875s.01377-.129596.03711-.1875c.0253-.06278.06236-.119003.109375-.166016l4.992188-4.998046c.09793-.09793.22766-.146485.355468-.146485z" fill="#7bcbff"/></g></svg>
