<svg width="24" height="24" version="1.1" viewBox="0 0 6.35 6.35" xmlns="http://www.w3.org/2000/svg"><g fill="#1e8bcd" stroke-linecap="round" stroke-linejoin="round"><path d="m0.79297 2.9102a0.26458 0.26458 0 0 0-0.26367 0.26562 0.26458 0.26458 0 0 0 0.26367 0.26367h4.7637a0.26458 0.26458 0 0 0 0.26367-0.26367 0.26458 0.26458 0 0 0-0.26367-0.26562z" color="#000000" style="-inkscape-stroke:none"/><path d="m3.1758 0.5293a0.26458 0.26458 0 0 0-0.26562 0.26367v4.7637a0.26458 0.26458 0 0 0 0.26562 0.26367 0.26458 0.26458 0 0 0 0.26367-0.26367v-4.7637a0.26458 0.26458 0 0 0-0.26367-0.26367z" color="#000000" style="-inkscape-stroke:none"/></g></svg>
