<svg version="1.1" viewBox="0 0 32 32" xmlns="http://www.w3.org/2000/svg"><g transform="scale(1.333333)"><g transform="skewX(-15) scale(3.77952756)" fill="#3a3a38" stroke-linecap="round" stroke-linejoin="round" stroke-width=".52917" aria-label="S"><path d="m5.4659 4.0125q0 0.50524-0.37069 0.78806-0.36795 0.28282-1.0517 0.28282-1.2549 0-1.4581-0.98302l0.50798-0.1016q0.076884 0.35422 0.31852 0.51622 0.24164 0.15926 0.64528 0.15926 0.43659 0 0.66175-0.17024 0.22791-0.17024 0.22791-0.48327 0-0.19221-0.090613-0.31303-0.087868-0.12082-0.2334-0.1977-0.14553-0.076884-0.3295-0.12356-0.18123-0.049426-0.36795-0.096105-0.44208-0.11533-0.63155-0.20594-0.18672-0.090613-0.2993-0.20594-0.11258-0.11807-0.17024-0.26909-0.057663-0.15102-0.057663-0.35422 0-0.47503 0.33225-0.7304 0.33499-0.25811 0.9583-0.25811 0.58212 0 0.88966 0.20319 0.30754 0.20319 0.42835 0.68646l-0.51622 0.090613q-0.065901-0.30754-0.2636-0.44483-0.1977-0.14004-0.54093-0.14004-0.77708 0-0.77708 0.58487 0 0.16475 0.071392 0.26909 0.074138 0.1016 0.1977 0.17024 0.12631 0.065901 0.29106 0.10983 0.1675 0.043934 0.35696 0.093359 0.38167 0.096105 0.54917 0.16201 0.1675 0.063155 0.29655 0.14553 0.1318 0.082376 0.22516 0.19496 0.093359 0.11258 0.14553 0.2636 0.054917 0.15102 0.054917 0.35696z"/></g></g></svg>
