<svg viewBox="0 0 24 24" xmlns="http://www.w3.org/2000/svg"><path d="m2 1c-.554 0-1 .446-1 1v10c0 .554.446 1 1 1h8.378906l1.083985-1.082031c-.274466-.035804-.527511-.096366-.734375-.210938-.29584-.171032-.559891-.406569-.791016-.707031l-.0683594.603516c-.018488.171032-.1185482.255859-.2988281.255859h-.7910156v-9.859375h1.2207031v4.0429688c.27735-.3281975.593287-.5878215.949219-.7773438.355932-.1941448.766265-.2910156 1.228515-.2910156.392912 0 .746218.0759733 1.060547.2285156.31433.1525423.582808.3716084.804688.6582031.22188.2865948.390296.635473.505859 1.046875.120185.4067797.179688.8689992.179688 1.3867188 0 .1344608-.017373.2563488-.025391.3847656l1.222656-1.2207031c.155441-.1558722.357966-.2561053.576172-.2851563.032665-.2084602.130426-.4012479.279297-.5507812l.21875-.21875v-4.4042969c0-.554-.446-1-1-1zm2.5507812 3.9609375c.3790447 0 .715879.0626926 1.0117188.1875.2958397.1201849.5434202.2930289.7421875.5195313.1987673.2265021.3494769.4962171.4511719.8105468.1063174.3143298.1582031.6632078.1582031 1.046875v4.3339844h-.5410156c-.1201849 0-.2126288-.017709-.2773438-.054687-.0647146-.03698-.1077466-.112953-.1308593-.228516l-.1523438-.63086c-.1756548.161789-.350452.306117-.5214844.435547-.1664098.124808-.3404908.232486-.5253906.320313s-.3850214.151757-.5976562.193359c-.2126348.046227-.4449814.06836-.6992188.06836-.2634822 0-.5110627-.034178-.7421875-.103516-.2265023-.07396-.4278608-.184111-.6035156-.332031-.1710324-.152543-.3065082-.340621-.4082031-.5625-.0970725-.226503-.1464844-.491791-.1464844-.796875 0-.268105.0715463-.5245391.2148437-.7695315.1479198-.2496147.3866465-.4718708.7148438-.6660156.3281972-.1941448.7562386-.3505183 1.2832031-.4707031.5269646-.1248074 1.174072-.1963538 1.9414062-.2148438v-.5214844c.0000002-.5269646-.1133414-.9220646-.3398437-1.1855468-.2218797-.2681048-.5486234-.4023438-.9785156-.4023438-.2865948 0-.5297483.0373683-.7285157.1113281-.1941448.07396-.362562.1543601-.5058593.2421875-.1432974.0878274-.2686826.1701807-.375.2441406-.101695.0739601-.2042295.1113282-.3105469.1113282-.0832049 0-.1547512-.0208974-.2148438-.0625-.0600923-.0416024-.1095044-.0954413-.1464843-.1601563l-.2207031-.3886719c.3744221-.3605547.775186-.6290326 1.2050781-.8046874.4345146-.1802774.9163948-.2695313 1.4433593-.2695313zm7.2167968.9765625c-.374423 0-.70364.0880171-.990234.2636719-.281973.1756548-.541597.4264252-.777344.75v3.2714841c.212635.291217.446935.497003.701172.617188.254238.115563.532807.173828.83789.173828.624038 0 1.102727-.223493 1.435547-.671875.33282-.4483832.5-1.1163874.5-2.0039064 0-.8228042-.149472-1.4281165-.445312-1.8164062-.295839-.3882896-.716264-.5839844-1.261719-.5839844zm-6.0449218 2.8710938c-.5408319.0231123-1.0018146.0693344-1.3808593.1386718-.3790446.064715-.6893177.1527322-.9296875.2636719-.2357473.1109402-.4054014.2419892-.5117188.3945313-.1063174.14792-.1601562.3150997-.1601562.5000002 0 .175654.0285143.327602.0839844.457031.0600925.124808.1373028.229295.234375.3125.0970724.078583.2136038.138084.3476562.179688.1340521.036978.2771452.05664.4296875.05664.2033898 0 .3914676-.020893.5625-.0625.1710323-.041607.3318326-.099872.484375-.173828.1525423-.078583.295635-.172264.4296875-.283203.1386748-.115563.2761038-.244139.4101562-.382813z" fill="#fb983b"/><g fill="#fafafa" transform="matrix(1.1539234 0 0 1.1539234 -4.693158 -8.844162)"><path d="m13.280817 19.81098-.329645.323786-1.951172 3.233878 1 .631356 3.806641-1.011719.310113-.34527z"/><path d="m20.023438 5.0019531c-.218741 0-.435904.0845454-.603516.2519531l-7.931641 7.9257818 3.285157 3.289062 7.974609-7.890625c.335222-.3347843.335222-.8741989 0-1.2089844l-2.117188-2.1152344c-.167612-.1673927-.388681-.2519531-.607421-.2519531zm.001953 1 1.972656 1.9707031-7.21875 7.1445318-1.935547-1.9375z" stroke-width="1.153923" transform="matrix(.86660865 0 0 .86660865 4.067131 7.664427)"/></g></svg>