<svg viewBox="0 0 24 24" xmlns="http://www.w3.org/2000/svg"><g fill="#fafafa" transform="matrix(1 0 0 -1 0 24)"><rect height="3" rx="1" width="18" x="3" y="2"/><path d="m3.5 14c-.277 0-.5.223-.5.5v1c0 .277.223.5.5.5h4.7382812c-.0219503-.038714-.0551678-.071414-.0742187-.111328-.2725568-.571047-.2473343-1.287452.0917969-1.888672z" transform="matrix(1 0 0 -1 0 24)"/></g><g transform="translate(0 2)"><path d="m21.271484 3c-.177888.0052-.37069.0968893-.521484.1914062-4.136759 2.5854751-4.75 3.8085938-7.25 7.3085938-.122562.147438-.192493.325021-.216797.509766.244537-.007882.49524-.009517.728516.001953.106528.022231.195929.055251.291015.083984.003642-.004767.008162-.008841.011719-.013672 2.459109-3.4427518 3.05583-4.4568755 6.685547-6.8085935v2.2421875.0019531c-1.022415 1.516941-1.384215 1.3543009-1.855469 2.1074219-.47147.753469-1.101466 1.519707-2.851562 3.044922 0 0-.001953.001953-.001953.001953-.501347.024528-.772348.026284-.988282.005859.105864.105418.209904.220546.3125.355469.081135.184976.174965.406059.251954.644531.151635-.001498.285334.001353.472656-.007812.225038-.01109.439748-.0978.609375-.246094 3.574573-3.1153378 2.912893-2.4303742 4.880859-5.3496092.11091-.1651661.17007-.3596438.169922-.5585938v-2.5c-.000147-.563767-.16498-1.031753-.728516-1.015625z" fill="#fafafa" transform="translate(0 -2)"/><path d="m13.230469 11.009766c-.261194.0097-.514334.028905-.730469.046875-2.056692.4941-1.737133 1.337014-3.28125 3.322265-.5164461.665166-.060862 1.627608.78125 1.628906 2.711581-.173351 3.740121.528889 5.578125-1.234374.07164-.071321.132206-.152947.179687-.242188.163105-.351692.261893-.682612.259766-1.011719-.0037-.568259-.23225-1.098535-.402344-1.486328-.441609-.580756-.879988-.870494-1.603515-1.021484-.250162-.0123-.520057-.011643-.78125-.001953zm.013672.978515c.210834.00158.431247.021505.666015.052735.64578.226088 1.039135.662816 1.083985 1.507812.00048.074069-.016149.177391-.048829.296875l-3.078124-1.417969-.015626-.005859c.452428-.326142.89617-.4373 1.392579-.433594zm-2.058594 1.226563 3.021484 1.390625c-.40276.269951-.730031.357145-1.169922.392578-.904208-.0092-2.418947-.008766-3.035156-.009766.603734-.776211.927598-1.337725 1.183594-1.773437z" fill="#83beec" transform="translate(0 -2)"/><path d="m11.185547 11.214844c-.255996.435712-.57986.997226-1.183594 1.773437.616209.000977 2.130949.000587 3.035156.0098.439891-.03543.767162-.122627 1.169922-.392578z" fill="#0063b1"/></g></svg>