<svg viewBox="0 0 24 24" xmlns="http://www.w3.org/2000/svg"><path d="m5 3c-.554 0-1 .446-1 1v12.990234h1v-12.990234h9v4c0 .554.446 1 1 1h4v11 1h-1-5.888672l-.998047 1h7.886719c.552285 0 1-.447715 1-1v-12.75-.2089844c0-.4506799.098038-.4254121-.605469-1.0664062l-3.30664-3.2382813c-.709525-.7368575-.710169-.7363281-1.09375-.7363281h-.332032-.662109zm10 1 4 4h-4z" fill="#fafafa"/><g fill="none" stroke="#1e8bcd" stroke-linecap="round" stroke-linejoin="round" transform="matrix(-1 0 0 1 18.007121 14)"><path d="m8.507121 1.494946-2.9999998 2.9949499 2.9999998 3.0050501"/><path d="m5.5071212 4.4898959h9.9928788"/></g></svg>