<svg viewBox="0 0 24 24" xmlns="http://www.w3.org/2000/svg"><path d="m12 2a10 10 0 0 0 -10 10 10 10 0 0 0 10 10 10 10 0 0 0 10-10 10 10 0 0 0 -10-10zm0 1a9 9 0 0 1 9 9 9 9 0 0 1 -9 9 9 9 0 0 1 -9-9 9 9 0 0 1 9-9z" fill="#83beec"/><path d="m12 3a9 9 0 0 0 -9 9 9 9 0 0 0 9 9 9 9 0 0 0 9-9 9 9 0 0 0 -9-9zm0 2c2.21 0 4 1.79 4 4 0 .88-.359687 1.68-.929688 2.25l-.90039.919922c-.72.73-1.169922 1.330078-1.169922 2.830078h-2v-.5c0-1.1.449922-2.100078 1.169922-2.830078l1.240234-1.259766c.37-.36.589844-.860156.589844-1.410156 0-1.1-.9-2-2-2s-2 .9-2 2h-2c0-2.21 1.7899998-4 4-4zm-1 12h2v2h-2z" fill="#0063b1"/></svg>