<svg viewBox="0 0 24 24" xmlns="http://www.w3.org/2000/svg"><path d="m5 2c-.554 0-1 .446-1 1v18c0 .554.446 1 1 1h14c.554 0 1-.446 1-1v-10.109375-3.640625-.2089844c0-.4506799.098038-.4254121-.605469-1.0664062l-3.30664-3.2382813c-.709525-.7368575-.710169-.7363281-1.09375-.7363281h-.332032-.662109zm0 1h9v4c0 .554.446 1 1 1h4v13h-14zm10 0 4 4h-4z" fill="#fafafa"/><rect fill="#fafafa" height="1" ry=".410114" width="7" x="6" y="12"/><g fill="#fb983b"><rect height="1" ry=".410114" width="7" x="6" y="6"/><rect height="1" ry=".410114" width="5" x="6" y="9"/><rect height="1" ry=".410114" width="11" x="6" y="15"/><rect height="1" ry=".410114" width="2" x="15" y="12"/><rect height="1" ry=".410114" width="3" x="6" y="18"/><rect height="1" ry=".410114" width="5" x="11" y="18"/></g></svg>