<svg viewBox="0 0 32 32" xmlns="http://www.w3.org/2000/svg"><g transform="scale(1.333333)"><g transform="matrix(3.77952756 0 0 3.77952756 0 -1098.51960945)"><path d="m1.3229167 293.03123 1.8520833-1.5875 1.8520833 1.5875v3.17499h-3.7041667z" fill="#fafafa"/><path d="m1.5875 293.03122 1.5875-1.4552 1.5874997 1.4552v2.91042h-3.1749997z" fill="#3a3a38" fill-opacity=".978947"/><path d="m1.5875 291.44373h.2645833v1.32291h-.2645833z" fill="#0063b1" fill-opacity=".978947"/><path d="m3.175 291.70832-2.38125001 2.24896-.26458333-.26458 2.64583334-2.51355 2.6458334 2.38124-.2645834.26459z" fill="#83beec"/></g><path d="m5 2v1 6h1v-6h1v4.5h1v-5.5h-.5-.5-1z" fill="#83beec" fill-opacity=".978947"/><g fill="#7bcbff" transform="matrix(3.77952756 0 0 3.77952756 0 -1098.51960945)"><path d="m3.175 294.08957h1.0583332v1.85208h-1.0583332z"/><path d="m2.1166666 294.08957h.7937499v.79375h-.7937499z"/></g></g></svg>