<svg height="24" viewBox="0 0 6.3499999 6.3500002" width="24" xmlns="http://www.w3.org/2000/svg"><g transform="translate(0 -290.64998)"><path d="m12 3-7 6v12h14v-12zm0 .5 6 5.5v11h-12v-11z" fill="#fafafa" stroke-width="3.779527" transform="matrix(.26458334 0 0 .26458334 0 290.64998)"/><path d="m1.5875 291.44373h.2645833v1.32291h-.2645833z" fill="#0063b1" fill-opacity=".978947"/><path d="m3.175 291.70832-2.38125001 2.24896-.26458333-.26458 2.64583334-2.51355 2.6458334 2.38124-.2645834.26459z" fill="#83beec"/><g fill-opacity=".978947"><path d="m5 2v1 6h1v-6h1v4.5h1v-5.5h-.5-.5-1z" fill="#83beec" transform="matrix(.26458333 0 0 .26458333 0 290.64998)"/><g fill="#1e8bcd"><path d="m3.175 294.08957h1.0583332v1.85208h-1.0583332z"/><path d="m2.1166666 294.08957h.7937499v.79375h-.7937499z"/></g></g></g></svg>