<svg height="24" viewBox="0 0 6.3499999 6.3500002" width="24" xmlns="http://www.w3.org/2000/svg"><g stroke-width=".264583" transform="translate(0 -290.64998)"><path d="m7.9570312 5.0449219a2.5 2.5 0 0 1 .0429688.4550781 2.5 2.5 0 0 1 -2.5 2.5 2.5 2.5 0 0 1 -.4570312-.0449219 2.5 2.5 0 0 0 .4589843 1.0449219 2.5 2.5 0 0 0 1.9980469 1 2.5 2.5 0 0 0 2.5-2.5 2.5 2.5 0 0 0 -1-1.9960938 2.5 2.5 0 0 0 -1.0429688-.4589843zm.8203126 1.671875a1.5 1.5 0 0 1 .2226562.7832031 1.5 1.5 0 0 1 -1.5 1.5 1.5 1.5 0 0 1 -.78125-.2226562 3.5000001 3.5000001 0 0 0 2.0585938-2.0605469z" fill="#f8db8f" stroke-width=".999999" transform="matrix(.26458334 0 0 .26458334 0 290.64998)"/><path d="m.52916667 291.17917v5.29166h5.29166673v-5.29166zm.26458333.26458h4.7625v4.7625h-4.7625z" fill="#fafafa"/><path d="m4.2333334 293.95729-1.0583334 1.05833-1.190625 1.19063h3.571875v-.92604zm-1.5875.52917-1.71979173 1.71979h.66145833l1.3890625-1.38906z" fill="#0063b1"/><path d="m4.2333334 293.56042-1.0583334 1.05833-.5291666-.52917-1.8520834 1.85209v.26458h.13229167l1.71979173-1.71979.3307291.33073-1.3890625 1.38906h.396875l2.2489584-2.24896 1.3229166 1.32292v-.39688z" fill="#83beec"/><path d="m8.7773438 6.7167969a3.5 3.5 0 0 1 -2.0585938 2.0605469 1.5 1.5 0 0 0 .78125.2226562 1.5 1.5 0 0 0 1.5-1.5 1.5 1.5 0 0 0 -.2226562-.7832031z" fill="#ed8733" stroke-width=".999999" transform="matrix(.26458334 0 0 .26458334 0 290.64998)"/></g></svg>