<svg version="1.1" viewBox="0 0 32 32" xmlns="http://www.w3.org/2000/svg"><g transform="scale(1.333333)"><path d="m5.5 2.5h13v19l-6.5-6-6.5 6z" fill="#d42314" stroke="#ff9198" stroke-linecap="round" stroke-linejoin="round"/><path d="m15.652 10.675q0 1.0455-0.44378 1.8353-0.44378 0.78977-1.3012 1.226-0.84994 0.42873-2.0158 0.42873-1.4818 0-2.3919-0.64686-0.91012-0.64686-1.1508-1.8729l1.3689-0.15795q0.42873 1.572 2.2038 1.572 1.0606 0 1.6924-0.63182 0.63182-0.63182 0.63182-1.7225 0-0.93268-0.6243-1.5269t-1.6698-0.59421q-0.54908 0-1.0229 0.173-0.47386 0.173-0.94773 0.58669h-1.3238l0.35352-5.4757h6.0248v1.0906h-4.7762l-0.21813 3.1967q0.88003-0.67695 2.1888-0.67695 1.5344 0 2.4746 0.88755 0.94773 0.88003 0.94773 2.3091z" fill="#7bcbff"/></g></svg>
