<svg version="1.1" viewBox="0 0 32 32" xmlns="http://www.w3.org/2000/svg"><g transform="scale(1.333333)"><path d="m5.5 2.5h13v19l-6.5-6-6.5 6z" fill="#ff9198" stroke="#d42314" stroke-linecap="round" stroke-linejoin="round"/><path d="m15.554 10.974q0 1.5946-0.91764 2.5498-0.91012 0.95525-2.5047 0.95525-1.7751 0-2.7304-1.2937-0.95525-1.3012-0.95525-3.6856 0-2.6175 0.99286-4.0466 0.99286-1.4291 2.798-1.4291 2.3994 0 3.0237 2.1587l-1.2937 0.23317q-0.39865-1.2937-1.745-1.2937-1.1508 0-1.7901 1.0455t-0.63934 2.9334q0.36856-0.68447 1.038-1.038 0.66943-0.36104 1.5344-0.36104 1.4442 0 2.3167 0.89508 0.87251 0.88755 0.87251 2.3768zm-1.3765 0.06017q0-1.0831-0.57916-1.6848-0.57164-0.60173-1.557-0.60173-0.5566 0-1.053 0.25574-0.49643 0.24821-0.78225 0.69951-0.2783 0.44378-0.2783 1.0079 0 1.1433 0.60173 1.9105 0.60925 0.76721 1.557 0.76721 0.95525 0 1.5194-0.63182 0.57164-0.63182 0.57164-1.7225z" fill="#1e8bcd"/></g></svg>
