<svg version="1.1" viewBox="0 0 32 32" xmlns="http://www.w3.org/2000/svg"><g transform="scale(1.333333)"><path d="m5.5 2.5h13v19l-6.5-6-6.5 6z" fill="#d42314" stroke="#ff9198" stroke-linecap="round" stroke-linejoin="round"/><path d="m15.652 11.338q0 1.399-0.94773 2.1662-0.94772 0.76721-2.6476 0.76721-1.6096 0-2.5724-0.7296-0.96277-0.7296-1.1358-2.1437l1.399-0.12787q0.27078 1.8804 2.3091 1.8804 1.0229 0 1.6021-0.47386 0.58669-0.47386 0.58669-1.384 0-0.56412-0.346-0.94773-0.33847-0.39112-0.92516-0.59421-0.58669-0.21061-1.3163-0.21061h-0.76721v-1.1734h0.73712q0.64686 0 1.1809-0.21061 0.54156-0.21813 0.84994-0.60925t0.30839-0.92516q0-0.79729-0.50395-1.2411-0.49643-0.4513-1.4818-0.4513-0.89508 0-1.4517 0.45882-0.54908 0.45882-0.63934 1.2937l-1.3614-0.1053q0.15043-1.3012 1.0756-2.0308 0.93268-0.7296 2.3919-0.7296 1.5946 0 2.4746 0.70703 0.88755 0.69951 0.88755 1.9556 0 0.89507-0.59421 1.557-0.59421 0.6619-1.6247 0.87251v0.03009q1.1358 0.12787 1.8202 0.79729 0.69199 0.66943 0.69199 1.6021z" fill="#7bcbff"/></g></svg>
