<?xml version="1.0" encoding="UTF-8" standalone="no"?>
<svg
   viewBox="0 0 24 24"
   version="1.1"
   id="svg6"
   sodipodi:docname="lc_bookmark3.svg"
   inkscape:version="1.2.1 (9c6d41e410, 2022-07-14)"
   xmlns:inkscape="http://www.inkscape.org/namespaces/inkscape"
   xmlns:sodipodi="http://sodipodi.sourceforge.net/DTD/sodipodi-0.dtd"
   xmlns="http://www.w3.org/2000/svg"
   xmlns:svg="http://www.w3.org/2000/svg">
  <defs
     id="defs10" />
  <sodipodi:namedview
     id="namedview8"
     pagecolor="#ffffff"
     bordercolor="#000000"
     borderopacity="0.25"
     inkscape:showpageshadow="2"
     inkscape:pageopacity="0.0"
     inkscape:pagecheckerboard="0"
     inkscape:deskcolor="#d1d1d1"
     showgrid="true"
     showguides="true"
     inkscape:zoom="32.939391"
     inkscape:cx="11.688133"
     inkscape:cy="12.932844"
     inkscape:window-width="1920"
     inkscape:window-height="1031"
     inkscape:window-x="0"
     inkscape:window-y="0"
     inkscape:window-maximized="1"
     inkscape:current-layer="svg6">
    <inkscape:grid
       type="xygrid"
       id="grid239"
       spacingx="0.5"
       spacingy="0.5"
       empspacing="2" />
    <sodipodi:guide
       position="12,24"
       orientation="1,0"
       id="guide304"
       inkscape:locked="false" />
    <sodipodi:guide
       position="22,22"
       orientation="0,-1"
       id="guide4681"
       inkscape:locked="false" />
  </sodipodi:namedview>
  <path
     style="fill:#ff9198;fill-opacity:1;stroke:#d42314;stroke-width:1;stroke-linecap:round;stroke-linejoin:round;stroke-dasharray:none;stroke-opacity:1"
     d="m 5.5,2.5 h 13 v 19 l -6.5,-6 -6.5,6 z"
     id="path306"
     sodipodi:nodetypes="cccccc" />
  <path
     d="m 15.651753,11.337552 q 0,1.399024 -0.947726,2.166231 -0.947725,0.767207 -2.647615,0.767207 -1.609629,0 -2.572399,-0.729599 -0.962769,-0.729598 -1.135766,-2.143666 l 1.399024,-0.127867 q 0.270778,1.880408 2.309141,1.880408 1.022942,0 1.602108,-0.473863 0.586688,-0.473863 0.586688,-1.38398 0,-0.564123 -0.345995,-0.947726 -0.338474,-0.3911249 -0.925161,-0.5942089 -0.586688,-0.210606 -1.316286,-0.210606 h -0.767207 v -1.173375 h 0.73712 q 0.646861,0 1.180897,-0.210606 0.541557,-0.218127 0.849944,-0.609252 0.308387,-0.391125 0.308387,-0.925161 0,-0.797293 -0.503949,-1.24107 -0.496428,-0.451298 -1.481762,-0.451298 -0.895075,0 -1.451675,0.45882 -0.54908,0.45882 -0.639339,1.293721 L 8.528766,6.5763581 q 0.150433,-1.301243 1.075594,-2.030841 0.932682,-0.729599 2.391879,-0.729599 1.594587,0 2.474618,0.707034 0.887553,0.699512 0.887553,1.955625 0,0.895074 -0.59421,1.556978 -0.594209,0.661904 -1.624672,0.87251 v 0.03009 q 1.135766,0.127868 1.820235,0.797293 0.69199,0.6694259 0.69199,1.6021079 z"
     fill="#1e8bcd"
     id="path595" />
</svg>
