<?xml version="1.0" encoding="UTF-8" standalone="no"?>
<svg
   viewBox="0 0 24 24"
   version="1.1"
   id="svg6"
   sodipodi:docname="lc_bookmark5.svg"
   inkscape:version="1.2.1 (9c6d41e410, 2022-07-14)"
   xmlns:inkscape="http://www.inkscape.org/namespaces/inkscape"
   xmlns:sodipodi="http://sodipodi.sourceforge.net/DTD/sodipodi-0.dtd"
   xmlns="http://www.w3.org/2000/svg"
   xmlns:svg="http://www.w3.org/2000/svg">
  <defs
     id="defs10" />
  <sodipodi:namedview
     id="namedview8"
     pagecolor="#ffffff"
     bordercolor="#000000"
     borderopacity="0.25"
     inkscape:showpageshadow="2"
     inkscape:pageopacity="0.0"
     inkscape:pagecheckerboard="0"
     inkscape:deskcolor="#d1d1d1"
     showgrid="true"
     showguides="true"
     inkscape:zoom="32.939391"
     inkscape:cx="8.0450789"
     inkscape:cy="12.963203"
     inkscape:window-width="1920"
     inkscape:window-height="1031"
     inkscape:window-x="0"
     inkscape:window-y="0"
     inkscape:window-maximized="1"
     inkscape:current-layer="svg6">
    <inkscape:grid
       type="xygrid"
       id="grid239"
       spacingx="0.5"
       spacingy="0.5"
       empspacing="2" />
    <sodipodi:guide
       position="12,24"
       orientation="1,0"
       id="guide304"
       inkscape:locked="false" />
    <sodipodi:guide
       position="22,22"
       orientation="0,-1"
       id="guide4681"
       inkscape:locked="false" />
  </sodipodi:namedview>
  <path
     style="fill:#ff9198;fill-opacity:1;stroke:#d42314;stroke-width:1;stroke-linecap:round;stroke-linejoin:round;stroke-dasharray:none;stroke-opacity:1"
     d="m 5.5,2.5 h 13 v 19 l -6.5,-6 -6.5,6 z"
     id="path306"
     sodipodi:nodetypes="cccccc" />
  <path
     d="m 15.651753,10.675079 q 0,1.045508 -0.443776,1.835279 -0.443777,0.789772 -1.301243,1.226026 -0.849944,0.428734 -2.015798,0.428734 -1.481762,0 -2.391879,-0.646861 -0.910118,-0.64686 -1.15081,-1.872887 l 1.368937,-0.157954 q 0.428733,1.572021 2.203839,1.572021 1.06055,0 1.692367,-0.631817 0.631818,-0.631817 0.631818,-1.722454 0,-0.9326827 -0.624296,-1.5268917 -0.624296,-0.594209 -1.669803,-0.594209 -0.549079,0 -1.022942,0.172998 -0.473863,0.172997 -0.947726,0.586687 H 8.656634 L 9.01015,3.8680013 h 6.024829 v 1.090637 h -4.776237 l -0.218128,3.196694 q 0.880031,-0.676947 2.188796,-0.676947 1.534413,0 2.474617,0.887553 0.947726,0.880031 0.947726,2.3091407 z"
     fill="#1e8bcd"
     id="path616" />
</svg>
