<svg version="1.1" viewBox="0 0 32 32" xmlns="http://www.w3.org/2000/svg"><g transform="scale(1.333333)"><g fill="#1e8bcd"><path d="m13 2v1.1875c1.1846 0 2 0.48615 2 2.2188v3.6875c0 0.831 1.0016 2.3936 2 2.9062-1.6826 0.26876-2 1.2976-2 2.25v4.3438c0 1.7326-0.8155 2.2188-2 2.2188v1.1875c1.7768 0 3.0469-0.6966 3.0469-2.5v-4.7812c0-1.7395 1.4526-1.7188 2.9531-1.7188v-2c-1.129 0-2.9531-0.70941-2.9531-2.4062v-4.0938c0-1.8034-1.27-2.5-3.0469-2.5z"/><path d="m11 2v1.1875c-1.1846 0-2 0.48615-2 2.2188v3.6875c0 0.831-1.0016 2.3936-2 2.9062 1.6826 0.26876 2 1.2976 2 2.25v4.3438c0 1.7326 0.8155 2.2188 2 2.2188v1.1875c-1.7768 0-3.0469-0.6966-3.0469-2.5v-4.7812c0-1.7395-1.4526-1.7188-2.9531-1.7188v-2c1.129 0 2.9531-0.70941 2.9531-2.4062v-4.0938c0-1.8034 1.27-2.5 3.0469-2.5z"/><path d="m20 2c1.1045 0 2 0.8954 2 2v16c0 1.1045-0.74861 2-2 2h-2v-1h2c0.5523 0 1-0.4477 1-1v-16c0-0.58652-0.53932-1-1-1h-2v-1h1z"/><path d="m4 2c-1.1045 0-2 0.8954-2 2v16c0 1.1045 0.74861 2 2 2h2v-1h-2c-0.5523 0-1-0.4477-1-1v-16c0-0.58652 0.53932-1 1-1h2v-1h-1z"/></g></g></svg>
