<svg version="1.1" viewBox="0 0 32 32" xmlns="http://www.w3.org/2000/svg"><g transform="scale(1.333333)"><g transform="translate(-1 -1)"><path d="m8 1a7 7 0 0 0-7 7 7 7 0 0 0 7 7 7 7 0 0 0 7-7 7 7 0 0 0-7-7z" fill="#d42314"/><path d="m14 8a6 6 0 0 1-6 6 6 6 0 0 1-6-6 6 6 0 0 1 6-6 6 6 0 0 1 6 6z" fill="#ff9198" fill-opacity=".96565"/><path d="m4.4062 4.0918a0.50005 0.50005 0 0 0-0.34961 0.85938l3.1426 3.1426-3.1426 3.1426a0.50005 0.50005 0 1 0 0.70703 0.70703l3.1426-3.1426 3.1426 3.1426a0.50005 0.50005 0 1 0 0.70703-0.70703l-3.1426-3.1426 3.1426-3.1426a0.50005 0.50005 0 0 0-0.36328-0.85938 0.50005 0.50005 0 0 0-0.34375 0.15234l-3.1426 3.1426-3.1426-3.1426a0.50005 0.50005 0 0 0-0.35742-0.15234z" fill="#fafafa"/></g><g transform="translate(-3 5)"><path d="m8 0-8 16h16z" fill="#ed8733"/><path d="m8 2.2422-6.377 12.754h12.754z" fill="#f8db8f"/><path d="m7 4.9492v5.0508h2v-5.0508zm0 7.0508v2h2v-2z" fill="#3a3a38"/></g><g transform="translate(8 8)"><path d="m1 1h14v14h-14z" fill="#fafafa"/><path d="m1 0c-0.554 0-1 0.446-1 1v14c0 0.554 0.446 1 1 1h14c0.554 0 1-0.446 1-1v-14c0-0.554-0.446-1-1-1zm0 1h14v14h-14z" fill="#3a3a38"/><path d="m14 2h-6l2 2-6 6-2-2v6h6l-2-2 6-6 2 2z" fill="#1e8bcd"/></g></g></svg>
