<svg viewBox="0 0 32 32" xmlns="http://www.w3.org/2000/svg"><g transform="scale(1.333333)"><path fill="#3a3a38" d="M20.945312,22.15625c-0.304688,0-0.592773-0.126953-0.833984-0.367188l-6.123047-6.124023 C12.723633,16.607422,11.134277,17.125,9.5,17.125c-4.20459,0-7.625-3.420898-7.625-7.625c0-4.20459,3.42041-7.625,7.625-7.625 c2.013672,0,3.983398,0.834961,5.404297,2.291016c1.416016,1.450684,2.168945,3.346191,2.121094,5.336914 c0,1.631348-0.517578,3.220703-1.459961,4.485352l6.223633,6.222656c0.345703,0.311523,0.455078,0.731445,0.294922,1.148438 C21.904297,21.828125,21.435547,22.15625,20.945312,22.15625L20.945312,22.15625z M9.5,3.125 c-3.515137,0-6.375,2.859863-6.375,6.375c0,3.515625,2.859863,6.375,6.375,6.375c3.515625,0,6.375-2.859375,6.375-6.375 C15.875,5.984863,13.015625,3.125,9.5,3.125z"/><path fill="#fafafa" d="M9.5,2c4.1,0,7.5,3.4,7.4,7.5c0,1.6-0.5,3.200001-1.499999,4.5l6.3,6.300001 c0.766113,0.689501,0.065035,1.731049-0.754538,1.731049c-0.250206,0-0.511576-0.097162-0.745462-0.331049L14,15.5 c-1.299999,1-2.9,1.5-4.5,1.5C5.3,17,2,13.6,2,9.5S5.400001,2,9.5,2 M9.5,16c3.6,0,6.5-2.9,6.5-6.5S13.1,3,9.5,3S3,5.9,3,9.5 S5.900001,16,9.5,16 M9.5,1.75c-4.27336,0-7.75,3.476641-7.75,7.75s3.47664,7.75,7.75,7.75 c1.623313,0,3.203783-0.502993,4.47601-1.42043l6.04721,6.04721c0.264481,0.264471,0.583391,0.40427,0.922241,0.40427 c0.540789,0,1.056959-0.360868,1.255239-0.877569c0.17667-0.4604,0.05201-0.942381-0.33346-1.289301l-6.137676-6.138163 C16.647001,12.703791,17.15,11.123313,17.15,9.5c0.049311-2.01865-0.716379-3.94618-2.156089-5.42144 C13.54973,2.59873,11.54728,1.75,9.5,1.75L9.5,1.75z M9.5,15.75c-3.446259,0-6.25-2.80374-6.25-6.25s2.80374-6.25,6.25-6.25 s6.25,2.80374,6.25,6.25S12.94626,15.75,9.5,15.75L9.5,15.75z"/></g></svg>