<svg version="1.1" viewBox="0 0 16 16" xmlns="http://www.w3.org/2000/svg">/&amp;gt;<path d="m8.5 3c0.63937 0 1.1992 0.42368 1.4102 1 0.41363 1.2e-6 0.75389-1.5e-6 1.2012 0 1.029 3.3e-6 1.8065 6.4e-6 2.7637 0h0.025391c0.24962 2.4e-6 1.0161-7.4e-6 1.0996 0v11c-0.08349 8e-6 -0.85-2e-6 -1.0996 0h-0.025391c-0.9572-7e-6 -1.7347-3e-6 -2.7637 0h-5.1114v-6.5c0 0.63937-0.42368 1.1992-1 1.4102v5.5898a0.50001 0.50001 0 0 0 0.0019531 0.035156 0.50001 0.50001 0 0 0 0.0058594 0.050782 0.50001 0.50001 0 0 0 0.0078125 0.041015 0.50001 0.50001 0 0 0 0.0019531 0.005859 0.50001 0.50001 0 0 0 0 0.001954 0.50001 0.50001 0 0 0 0.011719 0.033203 0.50001 0.50001 0 0 0 0.0039062 0.013672 0.50001 0.50001 0 0 0 0.0039063 0.007812 0.50001 0.50001 0 0 0 0 0.001953 0.50001 0.50001 0 0 0 0.0019531 0.003906 0.50001 0.50001 0 0 0 0.015625 0.03125 0.50001 0.50001 0 0 0 0.025391 0.042969 0.50001 0.50001 0 0 0 0.019531 0.029297 0.50001 0.50001 0 0 0 0.0078125 0.011719 0.50001 0.50001 0 0 0 0.0058593 0.005859 0.50001 0.50001 0 0 0 0.017578 0.019532 0.50001 0.50001 0 0 0 0.013672 0.015624 0.50001 0.50001 0 0 0 0.0019532 0.001954 0.50001 0.50001 0 0 0 0.017578 0.015625 0.50001 0.50001 0 0 0 0.013672 0.013671 0.50001 0.50001 0 0 0 0.0058594 0.003907 0.50001 0.50001 0 0 0 0.017578 0.013672 0.50001 0.50001 0 0 0 0.015625 0.011718 0.50001 0.50001 0 0 0 0.013672 0.007813 0.50001 0.50001 0 0 0 0.042969 0.02539 0.50001 0.50001 0 0 0 0.03125 0.015626 0.50001 0.50001 0 0 0 0.0058594 0.001953 0.50001 0.50001 0 0 0 0.021484 0.007812 0.50001 0.50001 0 0 0 0.035156 0.011719 0.50001 0.50001 0 0 0 0.0058594 0.001953 0.50001 0.50001 0 0 0 0.027344 0.005859 0.50001 0.50001 0 0 0 0.013672 0.001954 0.50001 0.50001 0 0 0 0.048828 0.005859 0.50001 0.50001 0 0 0 0.0019532 0 0.50001 0.50001 0 0 0 0.035156 0.001953h10a0.50001 0.50001 0 0 0 0.035156-0.001953 0.50001 0.50001 0 0 0 0.050782-0.005859 0.50001 0.50001 0 0 0 0.095703-0.025391 0.50001 0.50001 0 0 0 0.013671-0.005859 0.50001 0.50001 0 0 0 0.11524-0.06836 0.50001 0.50001 0 0 0 0.011719-0.009766 0.50001 0.50001 0 0 0 0.02539-0.023437 0.50001 0.50001 0 0 0 0.011719-0.011719 0.50001 0.50001 0 0 0 0.023437-0.02539 0.50001 0.50001 0 0 0 0.009766-0.011719 0.50001 0.50001 0 0 0 0.019531-0.027344 0.50001 0.50001 0 0 0 0.007813-0.013672 0.50001 0.50001 0 0 0 0.02539-0.042969 0.50001 0.50001 0 0 0 0.015626-0.03125 0.50001 0.50001 0 0 0 0.005859-0.013671 0.50001 0.50001 0 0 0 0.011719-0.033203 0.50001 0.50001 0 0 0 0.003906-0.015626 0.50001 0.50001 0 0 0 0.007812-0.033203 0.50001 0.50001 0 0 0 0.001954-0.013671 0.50001 0.50001 0 0 0 0.005859-0.048829 0.50001 0.50001 0 0 0 0-0.001953 0.50001 0.50001 0 0 0 0.001953-0.035156v-12a0.50001 0.50001 0 0 0-0.001953-0.035156 0.50001 0.50001 0 0 1 0-0.0019532 0.50001 0.50001 0 0 0-0.005859-0.048828 0.50001 0.50001 0 0 0-0.001954-0.013672 0.50001 0.50001 0 0 0-0.044922-0.12695 0.50001 0.50001 0 0 0-0.02539-0.042969 0.50001 0.50001 0 0 0-0.007813-0.013672 0.50001 0.50001 0 0 0-0.32812-0.20898 0.50001 0.50001 0 0 0-0.048828-0.0058594 0.50001 0.50001 0 0 0-0.035156-0.0019531h-7z" fill="#83beec"/><path d="m9.9102 4c0.057507 0.15714 0.089844 0.32567 0.089844 0.5 0 0.8137-0.6863 1.5-1.5 1.5h-0.38086l1.4375 1.4375c0.57528 0.57528 0.57528 1.5458 0 2.1211-0.57528 0.57528-1.5458 0.57528-2.1211 0l-1.4355-1.4355v6.877h9v-11h-5.0898z" fill="#0063b1"/><path d="m9.9102 5c-0.21091 0.57632-0.77078 1-1.4102 1h5.5v-1h-4.0898zm-0.79102 2 0.4375 0.4375c0.1618 0.1618 0.27687 0.35576 0.34766 0.5625h4.0957v-1h-4.8809zm0.7832 2c-0.070917 0.20518-0.18498 0.39787-0.3457 0.55859-0.57528 0.57528-1.5458 0.57528-2.1211 0l-0.43555-0.43555v0.87695h7v-1h-4.0977zm-2.9023 2v1h7v-1h-7zm0 2v1h7v-1h-7z" fill="#1e8bcd"/><path d="m9.9043 1c-0.070729 0.20741-0.1854 0.4022-0.34766 0.56445l-1.4355 1.4355h0.37891c0.8137 0 1.5 0.6863 1.5 1.5v-3.5h-0.095703zm0.095703 3.5c0 0.8137-0.6863 1.5-1.5 1.5h-0.38086l1.4375 1.4375c0.57528 0.57528 0.57528 1.5458 0 2.1211-0.57528 0.57528-1.5458 0.57528-2.1211 0l-1.4355-1.4355v0.37695c0 0.8137-0.6863 1.5-1.5 1.5s-1.5-0.6863-1.5-1.5v-0.37891l-1.4375 1.4375c-0.1618 0.1618-0.35576 0.27687-0.5625 0.34766v2.0938h9v-7.5z" fill="#0063b1"/><path d="m9 2.1211-0.87891 0.87891h0.87891v-0.87891zm-0.88086 3.8789 0.88086 0.88086v-0.88086h-0.88086zm-5.1191 2.1211-0.87891 0.87891h0.96875c-0.057507-0.15714-0.089844-0.32567-0.089844-0.5v-0.37891zm3 0.0019531v0.37695c0 0.17433-0.032337 0.34286-0.089844 0.5h0.9668l-0.87695-0.87695zm-4 1.877v1h7v-1h-7z" fill="#1e8bcd"/><path d="m2.1191 0 0.88086 0.88086v-0.38086c0-0.17433 0.032337-0.34286 0.089844-0.5h-0.9707zm3.791 0c0.057507 0.15714 0.089844 0.32567 0.089844 0.5v0.37891l0.87891-0.87891h-0.96875zm3.9922 0c0.11193 0.32256 0.11213 0.67691 0.0019531 1h0.095703v11c-0.08349 8e-6 -0.85-2e-6 -1.0996 0h-0.025391c-0.9572-7e-6 -1.7347-3e-6 -2.7637 0h-5.1114v-2.0938c-0.32297 0.11058-0.67731 0.10958-1-0.0019531v2.5957a0.50001 0.50001 0 0 0 0.0019531 0.035156 0.50001 0.50001 0 0 0 0.0058594 0.050782 0.50001 0.50001 0 0 0 0.0078125 0.041015 0.50001 0.50001 0 0 0 0.0019531 0.005859 0.50001 0.50001 0 0 0 0 0.001954 0.50001 0.50001 0 0 0 0.011719 0.033203 0.50001 0.50001 0 0 0 0.0039062 0.013672 0.50001 0.50001 0 0 0 0.0039062 0.007812 0.50001 0.50001 0 0 0 0 0.001953 0.50001 0.50001 0 0 0 0.0019531 0.003906 0.50001 0.50001 0 0 0 0.015625 0.03125 0.50001 0.50001 0 0 0 0.025391 0.042969 0.50001 0.50001 0 0 0 0.019531 0.029297 0.50001 0.50001 0 0 0 0.0078125 0.011719 0.50001 0.50001 0 0 0 0.0058594 0.005859 0.50001 0.50001 0 0 0 0.017578 0.019532 0.50001 0.50001 0 0 0 0.013672 0.015624 0.50001 0.50001 0 0 0 0.0019531 0.001954 0.50001 0.50001 0 0 0 0.017578 0.015625 0.50001 0.50001 0 0 0 0.013672 0.013671 0.50001 0.50001 0 0 0 0.0058594 0.003907 0.50001 0.50001 0 0 0 0.017578 0.013672 0.50001 0.50001 0 0 0 0.015625 0.011718 0.50001 0.50001 0 0 0 0.013672 0.007813 0.50001 0.50001 0 0 0 0.042969 0.02539 0.50001 0.50001 0 0 0 0.03125 0.015626 0.50001 0.50001 0 0 0 0.0058594 0.001953 0.50001 0.50001 0 0 0 0.021484 0.007812 0.50001 0.50001 0 0 0 0.035156 0.011719 0.50001 0.50001 0 0 0 0.0058594 0.001953 0.50001 0.50001 0 0 0 0.027344 0.005859 0.50001 0.50001 0 0 0 0.013672 0.001954 0.50001 0.50001 0 0 0 0.048828 0.005859 0.50001 0.50001 0 0 0 0.0019531 0 0.50001 0.50001 0 0 0 0.035156 0.001953h10a0.50001 0.50001 0 0 0 0.035156-0.001953 0.50001 0.50001 0 0 0 0.050782-0.005859 0.50001 0.50001 0 0 0 0.095703-0.025391 0.50001 0.50001 0 0 0 0.013671-0.005859 0.50001 0.50001 0 0 0 0.11524-0.06836 0.50001 0.50001 0 0 0 0.011719-0.009766 0.50001 0.50001 0 0 0 0.02539-0.023437 0.50001 0.50001 0 0 0 0.011719-0.011719 0.50001 0.50001 0 0 0 0.023437-0.02539 0.50001 0.50001 0 0 0 0.009766-0.011719 0.50001 0.50001 0 0 0 0.019531-0.027344 0.50001 0.50001 0 0 0 0.007813-0.013672 0.50001 0.50001 0 0 0 0.02539-0.042969 0.50001 0.50001 0 0 0 0.015626-0.03125 0.50001 0.50001 0 0 0 0.005859-0.013671 0.50001 0.50001 0 0 0 0.011719-0.033203 0.50001 0.50001 0 0 0 0.003906-0.015626 0.50001 0.50001 0 0 0 0.007812-0.033203 0.50001 0.50001 0 0 0 0.001954-0.013671 0.50001 0.50001 0 0 0 0.005859-0.048829 0.50001 0.50001 0 0 0 0-0.001953 0.50001 0.50001 0 0 0 0.001953-0.035156v-12a0.50001 0.50001 0 0 0-0.001953-0.035156 0.50001 0.50001 0 0 1 0-0.0019531 0.50001 0.50001 0 0 0-0.005859-0.048828 0.50001 0.50001 0 0 0-0.001954-0.013672 0.50001 0.50001 0 0 0-0.044922-0.12695 0.50001 0.50001 0 0 0-0.02539-0.042969 0.50001 0.50001 0 0 0-0.007813-0.013672 0.50001 0.50001 0 0 0-0.32812-0.20898 0.50001 0.50001 0 0 0-0.048828-0.0058594 0.50001 0.50001 0 0 0-0.035156-0.0019531h-0.59766zm-9.9023 2.123v0.9668c0.15714-0.057507 0.32567-0.089844 0.5-0.089844h0.37695l-0.87695-0.87695zm0 3.7871v0.96875l0.87891-0.87891h-0.37891c-0.17433 0-0.34286-0.032337-0.5-0.089844z" fill="#83beec"/><path d="m4.5 0c-0.277 0-0.5 0.223-0.5 0.5v1.5508a2.5 2.5 0 0 0-0.87891 0.36523l-2.2656-2.2656c-0.19587-0.19587-0.51116-0.19587-0.70703 0s-0.19587 0.51116 0 0.70703l2.2656 2.2656a2.5 2.5 0 0 0-0.35938 0.87695h-1.5547c-0.277 0-0.5 0.223-0.5 0.5s0.223 0.5 0.5 0.5h1.5508a2.5 2.5 0 0 0 0.36523 0.87695l-2.2676 2.2676c-0.19587 0.19587-0.19587 0.51116 0 0.70703s0.51116 0.19587 0.70703 0l2.2676-2.2676a2.5 2.5 0 0 0 0.87695 0.36133v1.5547c0 0.277 0.223 0.5 0.5 0.5s0.5-0.223 0.5-0.5v-1.5508a2.5 2.5 0 0 0 0.875-0.36523l2.2676 2.2676c0.19587 0.19587 0.51116 0.19587 0.70703 0s0.19587-0.51116 0-0.70703l-2.2656-2.2656a2.5 2.5 0 0 0 0.36133-0.87891h1.5547c0.277 0 0.5-0.223 0.5-0.5s-0.223-0.5-0.5-0.5h-1.5508a2.5 2.5 0 0 0-0.36523-0.87695l2.2656-2.2656c0.19587-0.19587 0.19587-0.51116 0-0.70703s-0.51116-0.19587-0.70703 0l-2.2656 2.2656a2.5 2.5 0 0 0-0.87695-0.36133v-1.5547c0-0.277-0.223-0.5-0.5-0.5zm0 3a1.5 1.5 0 0 1 1.5 1.5 1.5 1.5 0 0 1-1.5 1.5 1.5 1.5 0 0 1-1.5-1.5 1.5 1.5 0 0 1 0.43945-1.0586 1.5 1.5 0 0 1 0.00195-0.00195 1.5 1.5 0 0 1 1.0586-0.43945z" fill="#fb983b" style="paint-order:normal"/></svg>
