<svg version="1.1" viewBox="0 0 24 24" xmlns="http://www.w3.org/2000/svg"><g fill="#7bcbff" stroke-linecap="round" stroke-linejoin="round" aria-label="MP"><path d="m9.2169 18.226v-8.0125q0-1.2462 0.027693-1.8554l0.027693-0.9231q-0.59078 1.9016-0.87694 2.6862l-1.5139 4.0432h-1.2646l-1.5323-4.0432q-0.16616-0.42462-0.88617-2.6862l0.036924 2.7785v8.0125h-1.477v-12.453h2.1877l1.7077 4.5139q0.19385 0.48924 0.62771 2.1324l0.24-0.83079 0.40616-1.2923 1.7077-4.5232h2.077v12.453z"/><path d="m22.242 9.503q0 1.1539-0.55386 2.0585-0.54463 0.90463-1.5693 1.4123-1.0154 0.5077-2.3539 0.5077h-2.5939v4.7447h-1.7631v-12.453h4.2462q2.197 0 3.3878 0.98771 1.2 0.97848 1.2 2.7416zm-1.7723 0.027693q0-2.3447-3.0278-2.3447h-2.2708v4.9016h2.3447q1.3754 0 2.16-0.67386 0.79386-0.67386 0.79386-1.8831z"/></g></svg>
