<svg version="1.1" viewBox="0 0 32 32" xmlns="http://www.w3.org/2000/svg"><g transform="scale(1.333333)"><g fill="#7bcbff"><path d="m7.4029 21.548q-0.32775 0.1748-0.7866 0.3059-0.437 0.15295-1.1581 0.15295-0.7429 0-1.3329-0.45885-0.6118-0.45885-0.6118-1.2018 0-0.72105 0.3933-1.0925 0.37145-0.37145 0.89585-0.37145 0.874 0 1.0488 0.7866-0.37145 0.19665-0.37145 0.67735 0 0.6118 0.58995 0.6118 0.89585 0 1.2236-1.2018 0.2185-0.7866 0.3496-2.1632 0.15295-1.3766 0.24035-1.901l1.2018-7.4946h-1.6169l0.1311-0.7429 1.6606-0.437 0.19665-1.0051q0.76475-4.0204 3.7145-4.0204 0.98326 0 1.6606 0.5244 0.6992 0.50255 0.6992 1.2673t-0.41515 1.2018-0.93956 0.437q-0.76475 0-0.98326-0.7866 0.5244-0.3933 0.5244-0.7866 0-0.8303-0.9614-0.8303-1.0051 0-1.311 1.0925-0.2185 0.80845-0.2622 1.7917t-0.06555 1.2236h2.0976l-0.15295 1.0707h-2.1195l-1.2236 7.7349q-0.32775 2.1413-0.4807 2.5565-0.1311 0.41515-0.32775 0.98326-0.19665 0.58995-0.3933 0.8303-0.1748 0.2622-0.4807 0.6555-0.3059 0.41515-0.63365 0.58995z"/><path d="m14.634 20.481q0 0.5301 0.80845 0.59371l-0.10925 0.78455h-3.0809l-0.2185-0.40288q0.58995-1.1026 2.7531-3.223l1.3547-1.3359-1.2673-2.8201q-0.28405-0.65732-0.58995-0.80575-0.28405-0.16963-0.89585-0.16963l-0.10925-0.69973 2.2943-0.61492 0.54625 0.46649 1.5295 3.4563q1.7917-1.7811 1.7917-2.3536t-0.6992-0.69973v-0.69973h2.9061l0.3496 0.38167q0.0874 0.08482-0.8303 1.1238-0.89585 1.039-1.9228 2.0356l-1.1799 1.145 1.5295 3.3926q0.2185 0.44528 0.32775 0.48769 0.10925 0.02121 0.37145 0.02121t0.9614-0.40288l0.2185 0.67853q-1.4203 1.1874-2.2724 1.1874-0.58995 0-0.9177-0.5301-0.1311-0.19084-0.3059-0.57251l-1.3984-3.0746q-1.9447 1.8872-1.9447 2.6505z"/></g><path d="m22 2-20 20" fill="none" stroke="#ed3d3b" stroke-linecap="round" stroke-linejoin="round"/></g></svg>
