<svg version="1.1" viewBox="0 0 24 24" xmlns="http://www.w3.org/2000/svg"><g transform="matrix(-1 0 0 -1 24 24)"><path d="m20 20h-17v-17h17z" fill="#fafafa"/><path d="m20 21 .390625-.07813c.108876-.0459.202191-.115986.287109-.195313.02238-.02086.04016-.04358.06055-.06641.05888-.06592.108595-.136792.148438-.216797.01536-.03071.03077-.05936.04297-.0918.041338-.110017.070308-.226714.070308-.35155v-7-3-7c0-.1385-.027656-.270906-.078125-.390625-.045898-.108876-.115986-.202191-.195312-.287109-.020859-.022385-.043581-.040163-.066407-.060547-.065922-.058884-.136793-.108595-.216797-.148438-.030712-.015361-.059361-.030773-.091796-.042969-.11003-.041342-.226727-.070312-.351563-.070312h-17c-.124837 0-.241533.02897-.351562.070312-.032436.012196-.061085.027608-.091797.042969-.080004.039843-.150875.089554-.216797.148438-.022826.020384-.045548.038162-.066406.060547-.079327.084918-.149415.178233-.195313.287109-.050469.119719-.078125.252125-.078125.390625v7 3 7c0 .124836.02897.241533.070312.351562.012196.03244.027608.06108.042969.0918.039843.08.089554.150875.148438.216797.020384.02283.038162.04555.060547.06641.084918.07933.178233.149417.287109.195313.119719.050462.252125.078118.390625.078118zm0-1h-17v-7-3-7h17v7 3z" fill="#3a3a38"/><path transform="matrix(-1 0 0 -1 24 24)" d="m9.209 6.5c-0.39109 0-0.75432 0.069026-1.0879 0.20898-0.32782 0.13436-0.61196 0.33037-0.85352 0.58789-0.24155 0.25752-0.43033 0.5697-0.56836 0.93359-0.13228 0.36389-0.19922 0.77115-0.19922 1.2246 0 0.43667 0.06694 0.83507 0.19922 1.1934 0.13803 0.35829 0.32681 0.66409 0.56836 0.91602 0.24155 0.25192 0.52569 0.44793 0.85352 0.58789 0.33357 0.13436 0.6968 0.20117 1.0879 0.20117 0.35658 0 0.69952-0.066813 1.0273-0.20117 0.32782-0.13996 0.61402-0.33597 0.86133-0.58789 0.25306-0.25192 0.45398-0.55772 0.60352-0.91602 0.14953-0.35829 0.22461-0.75669 0.22461-1.1934 0-0.45346-0.069001-0.86072-0.20703-1.2246-0.13228-0.36389-0.31899-0.67607-0.56055-0.93359s-0.52971-0.45353-0.86328-0.58789c-0.33357-0.13996-0.69485-0.20898-1.0859-0.20898zm6.8926 0.11719c-0.25881 0-0.48002 0.062384-0.66406 0.18555-0.17829 0.11757-0.33864 0.28779-0.48242 0.51172l-7.3418 11.043h0.93164c0.23005 0 0.43098-0.042979 0.60352-0.12695 0.17829-0.083975 0.34265-0.24339 0.49219-0.47852l7.4023-11.135zm-7.1016 0.79297h0.36523c0.82165 0 1.4824 0.66272 1.4824 1.4844v1.0332c0 0.82165-0.66077 1.4824-1.4824 1.4824h-0.36523c-0.82165 0-1.4824-0.66077-1.4824-1.4824v-1.0332c0-0.82165 0.66077-1.4844 1.4824-1.4844zm6.7734 5.2285c-0.39109 0-0.7503 0.069027-1.0781 0.20898-0.32782 0.13436-0.61196 0.33037-0.85352 0.58789-0.24155 0.25752-0.43228 0.5697-0.57031 0.93359-0.13228 0.36389-0.19726 0.77114-0.19726 1.2246 0 0.43667 0.064987 0.83507 0.19726 1.1934 0.13803 0.35829 0.32876 0.6663 0.57031 0.92383 0.24155 0.25192 0.52569 0.44793 0.85352 0.58789 0.32782 0.13436 0.68704 0.20117 1.0781 0.20117 0.36233 0 0.70733-0.066812 1.0352-0.20117 0.32782-0.13996 0.61598-0.33597 0.86328-0.58789 0.25306-0.25752 0.45398-0.56554 0.60352-0.92383 0.14953-0.35829 0.22461-0.75669 0.22461-1.1934 0-0.45346-0.069001-0.86072-0.20703-1.2246-0.13228-0.36389-0.31899-0.67607-0.56055-0.93359s-0.52971-0.45353-0.86328-0.58789c-0.33357-0.13996-0.69887-0.20898-1.0957-0.20898zm-0.16211 0.93359h0.36328c0.82165 0 1.4844 0.66272 1.4844 1.4844v1.0332c0 0.82165-0.66272 1.4824-1.4844 1.4824h-0.36328c-0.82165 0-1.4824-0.66077-1.4824-1.4824v-1.0332c0-0.82165 0.66077-1.4844 1.4824-1.4844z" fill="#1e8bcd"/></g><path d="m22 2-20 20" fill="none" stroke="#ed3d3b" stroke-linecap="round" stroke-linejoin="round"/></svg>
