<svg viewBox="0 0 24 24" xmlns="http://www.w3.org/2000/svg"><g fill="#fafafa" stroke-linecap="round" stroke-linejoin="round" stroke-width=".26458" aria-label="text" transform="scale(3.77952756)"><path d="m0.28694 2.9024v-0.18345h0.21962l0.074931-0.36432h0.15503v0.36432h0.5581v0.18345h-0.5581v0.84232q0 0.10206 0.05426 0.15115 0.055552 0.049092 0.18087 0.049092 0.17312 0 0.3837-0.043925v0.17699q-0.21833 0.059428-0.43279 0.059428-0.20929 0-0.31393-0.08785-0.10464-0.089141-0.10464-0.28034v-0.86687z"/><path d="m2.0452 3.467q0 0.23513 0.10335 0.36819 0.10464 0.13307 0.28551 0.13307 0.13307 0 0.23254-0.056844 0.10077-0.058136 0.13436-0.15761l0.20412 0.058136q-0.056844 0.1602-0.20929 0.24546-0.15115 0.085266-0.36173 0.085266-0.30489 0-0.46896-0.18991-0.16407-0.18991-0.16407-0.54389 0-0.34494 0.1602-0.52968 0.16149-0.18603 0.46509-0.18603 0.3036 0 0.45992 0.18474t0.15632 0.5581v0.031006zm0.3837-0.60203q-0.17312 0-0.27388 0.11369-0.10077 0.1124-0.10723 0.31006h0.75447q-0.036173-0.42375-0.37336-0.42375z"/><path d="m4.421 4.1168-0.4147-0.57361-0.41729 0.57361h-0.25063l0.53614-0.7183-0.51289-0.67954h0.25709l0.38757 0.54389 0.38499-0.54389h0.25967l-0.51289 0.67696 0.5426 0.72089z"/><path d="m5.0502 2.9024v-0.18345h0.21962l0.074931-0.36432h0.15503v0.36432h0.5581v0.18345h-0.55811v0.84232q0 0.10206 0.05426 0.15115 0.055552 0.049092 0.18087 0.049092 0.17312 0 0.3837-0.043925v0.17699q-0.21833 0.059428-0.43279 0.059428-0.20929 0-0.31393-0.08785-0.10464-0.089141-0.10464-0.28034v-0.86687z"/></g></svg>
