<svg version="1.1" viewBox="0 0 32 32" xmlns="http://www.w3.org/2000/svg"><g transform="scale(1.333333)"><path d="m3 2h19v19h-19z" fill="#3a3a38"/><path d="m8 2v8c0-1.0907 0.9093-2 2-2h1 1v-6h-4z" fill="#309048" opacity=".5"/><path d="m7 2v4h-4v1h4v4h-4v1h4v4h-4v1h4v4h1v-4-1-4-1-1-3h4v1h1v-1h1.043c0.49432-0.5928 1.1602-1 1.957-1h-3v-4h-1v4h-4v-4h-1zm9 4c0.81966 0 1.5018 0.43015 2 1.0508v-0.050781h4v-1h-4v-4h-1v4h-1z" fill="#c8c6c4"/><path d="m3 1c-0.554 0-1 0.446-1 1v19c0 0.554 0.446 1 1 1h5v-1h-5v-19h19v6c0.36286 0 0.7041 0.10287 1 0.27734v-6.2773c0-0.554-0.446-1-1-1h-19z" fill="#fafafa"/><path d="m7 1v21h1v-1-4-1-4-1-1-3h4v1h1v-7h-6zm1 1h4v4h-4v-4z" fill="#18ab50"/><g transform="translate(-18.089 3.9231)"><path d="m28.089 5.0769c-0.554 0-1 0.446-1 1v12c0 0.554 0.446 1 1 1h12c0.554 0 1-0.446 1-1v-12c0-0.554-0.446-1-1-1h-1v1h1v12h-12v-12h1v-1z" fill="#f8db8f"/><path d="m28.089 6.0769v12h12v-12h-1v11h-10v-11z" fill="#ed8733"/><path d="m29.089 7.0769v10h10v-10c0 0.554-0.446 1-1 1h-8c-0.554 0-1-0.446-1-1z" fill="#3a3a38" stroke-width="1.118"/><path d="m34.089 3.0769a2 2 0 0 0-2 2h-2v2h8v-2h-2a2 2 0 0 0-2-2zm0 1a1 1 0 0 1 1 1 1 1 0 0 1-1 1 1 1 0 0 1-1-1 1 1 0 0 1 0.0059-0.099609 1 1 0 0 1 0.99414-0.90039z" fill="#fafafa"/></g></g></svg>
