<svg viewBox="0 0 24 24" xmlns="http://www.w3.org/2000/svg"><path d="m9.4570312 2.3066406a.99624993.99624993 0 0 0 -.359375.0761719l-1.8476562.765625a.99624993.99624993 0 0 0 -.5390625 1.3007813l1.3242187 3.1953124c-.1366949.1246681-.2659661.2539211-.390625.390625l-3.1933593-1.3242187a.99624993.99624993 0 0 0 -1.3046875.5390625l-.7636719 1.8476562a.99624993.99624993 0 0 0 .5390625 1.3027348l3.1953125 1.324218c-.0088328.185014-.0101814.367694-.0019531.552735l-3.1933594 1.322265a.99624993.99624993 0 0 0 -.5390625 1.302735l.765625 1.847656a.99624993.99624993 0 0 0 1.3007813.539062l3.1953124-1.324218c.1246677.136695.2539211.265966.390625.390625l-1.3242187 3.193359a.99624993.99624993 0 0 0 .5390625 1.304688l1.8476562.763672a.99624993.99624993 0 0 0 1.3027348-.539063l1.324218-3.195313c.185013.008831.367694.010182.552735.001954l1.322265 3.193359a.99624993.99624993 0 0 0 1.302735.539063l1.847656-.765626a.99624993.99624993 0 0 0 .539062-1.300781l-1.324218-3.195312c.136694-.124671.265966-.253921.390625-.390625l3.193359 1.324218a.99624993.99624993 0 0 0 1.304688-.539062l.763672-1.847656a.99624993.99624993 0 0 0 -.539063-1.302735l-3.195313-1.324218c.008831-.185013.010182-.367694.001954-.552735l3.193359-1.322265a.99624993.99624993 0 0 0 .539063-1.3027348l-.765626-1.8476562a.99624993.99624993 0 0 0 -1.300781-.5390625l-3.195312 1.3242187c-.124669-.1366947-.253921-.2659661-.390625-.390625l1.324218-3.1933593a.99624993.99624993 0 0 0 -.539062-1.3046875l-1.847656-.7636719a.99624993.99624993 0 0 0 -1.302735.5390625l-1.324218 3.1953125c-.185014-.0088328-.367694-.0101813-.552735-.0019531l-1.322265-3.1933594a.99624993.99624993 0 0 0 -.9433598-.6152344zm.0234376.9960938 1.5683592 3.7890625a5 5 0 0 1 1.900391.0039062l1.570312-3.7929687 1.847657.765625-1.570313 3.7929687a5 5 0 0 1 1.341797 1.3417969l3.792969-1.5703125.765625 1.8476563-3.789063 1.5683592a5 5 0 0 1 -.003906 1.900391l3.792969 1.570312-.765625 1.847657-3.792969-1.570313a5 5 0 0 1 -1.341797 1.341797l1.570313 3.792969-1.847657.765625-1.568359-3.789063a5 5 0 0 1 -1.900391-.003906l-1.5703122 3.792969-1.8476563-.765625 1.5703125-3.792969a5 5 0 0 1 -1.3417969-1.341797l-3.7929687 1.570313-.765625-1.847657 3.7890625-1.568359a5 5 0 0 1 .0039062-1.900391l-3.7929687-1.5703122.765625-1.8476563 3.7929687 1.5703125a5 5 0 0 1 1.3417969-1.3417969l-1.5703125-3.7929687zm2.5332032 6.6972656a2 2 0 0 0 -.779297.152344 2 2 0 0 0 -1.082031 2.613281 2 2 0 0 0 2.613281 1.082031 2 2 0 0 0 1.082031-2.613281 2 2 0 0 0 -1.833984-1.234375zm-.00586 1a1 1 0 0 1 .916016.617188 1 1 0 0 1 -.541016 1.30664 1 1 0 0 1 -1.30664-.541016 1 1 0 0 1 .541016-1.30664 1 1 0 0 1 .390624-.076172z" fill="#fafafa" transform="scale(.99999999)"/></svg>