<svg version="1.1" viewBox="0 0 32 32" xmlns="http://www.w3.org/2000/svg"><g transform="scale(1.333333)"><g fill="#3a3a38" stroke-linecap="round" stroke-linejoin="round" aria-label="?"><path d="m16.283 9.5077q0 0.67386-0.20308 1.2-0.20308 0.52616-0.59078 0.97848-0.37847 0.44309-1.2277 1.0523-1.0154 0.73848-1.3477 1.08-0.32308 0.34155-0.51693 0.73848-0.18462 0.39693-0.19385 0.90463h-1.6154q0.01846-0.64617 0.22154-1.1539 0.21231-0.51693 0.57232-0.94156 0.36924-0.43386 1.2462-1.0893 0.98771-0.72001 1.2923-1.0616 0.31385-0.34154 0.49847-0.72924 0.18462-0.39693 0.18462-0.90463 0-1.0062-0.73848-1.5416-0.72925-0.54463-1.9847-0.54463-1.2462 0-2.0308 0.67386-0.7754 0.67386-0.90463 1.837l-1.6985-0.11077q0.24-1.8185 1.4677-2.797 1.2369-0.98771 3.1478-0.98771 2.0585 0 3.2401 0.8954 1.1816 0.88617 1.1816 2.5016zm-5.7693 9.2494v-1.8554h1.8v1.8554z"/></g></g></svg>
