<svg version="1.1" viewBox="0 0 24 24" xmlns="http://www.w3.org/2000/svg"><g fill="#1e8bcd" stroke-linecap="round" stroke-linejoin="round" aria-label="PS"><path d="m10.897 9.503q0 1.1539-0.55386 2.0585-0.54463 0.90463-1.5693 1.4123-1.0154 0.5077-2.3539 0.5077h-2.5939v4.7447h-1.7631v-12.453h4.2462q2.197 0 3.3878 0.98771 1.2 0.97848 1.2 2.7416zm-1.7723 0.027693q0-2.3447-3.0278-2.3447h-2.2708v4.9016h2.3447q1.3754 0 2.16-0.67386 0.79386-0.67386 0.79386-1.8831z"/><path d="m22.325 14.811q0 1.6985-1.2462 2.6493-1.2369 0.95079-3.5355 0.95079-4.2185 0-4.9016-3.3047l1.7077-0.34155q0.25847 1.1908 1.0708 1.7354 0.81232 0.5354 2.1693 0.5354 1.4677 0 2.2247-0.57232 0.76617-0.57232 0.76617-1.6246 0-0.64617-0.30462-1.0523-0.29539-0.40616-0.78463-0.66463t-1.1077-0.41539q-0.60924-0.16616-1.2369-0.32308-1.4862-0.3877-2.1231-0.69232-0.62771-0.30462-1.0062-0.69232-0.37847-0.39693-0.57232-0.90463-0.19385-0.5077-0.19385-1.1908 0-1.597 1.1169-2.4554 1.1262-0.86771 3.2216-0.86771 1.957 0 2.9908 0.68309 1.0339 0.68309 1.44 2.3077l-1.7354 0.30462q-0.22154-1.0339-0.88617-1.4954-0.66463-0.47078-1.8185-0.47078-2.6124 0-2.6124 1.9662 0 0.55386 0.24 0.90463 0.24924 0.34155 0.66463 0.57232 0.42462 0.22154 0.97848 0.36924 0.56309 0.1477 1.2 0.31385 1.2831 0.32308 1.8462 0.54463 0.56309 0.21231 0.99694 0.48924 0.44309 0.27693 0.75694 0.6554 0.31385 0.37847 0.48924 0.88617 0.18462 0.5077 0.18462 1.2z"/></g></svg>
