<svg version="1.1" viewBox="0 0 24 24" xmlns="http://www.w3.org/2000/svg"><path d="m7 2v20l10-10-9-9zm1 2.4141 7.5859 7.5859-7.5859 7.5859z" fill="#a1ddaa"/><path d="m8 4.4141v15.172l7.5859-7.5859z" fill="#309048" stroke-linecap="round" stroke-width="3.7795"/><path d="m18 3v3.3105c-0.56455-0.50762-1.1882-0.94478-1.8594-1.2969l0.001953-0.0039063c-0.084638-0.043875-0.17034-0.084051-0.25586-0.125-0.015212-0.007284-0.029684-0.016246-0.044922-0.023438-0.012328-0.0058695-0.024752-0.011766-0.037109-0.017578-0.10097-0.047092-0.20264-0.0917-0.30469-0.13477-0.70034-0.29554-1.4249-0.49732-2.1562-0.60742-0.018907-0.0028463-0.037724-0.0050882-0.056641-0.0078125-0.15516-0.022709-0.30971-0.040227-0.46484-0.054688-0.005886-5.487e-4 -0.011694-0.0014163-0.017578-0.0019531-0.027301-0.0024351-0.054724-0.0017217-0.082032-0.0039063-0.14214-0.011644-0.28395-0.020586-0.42578-0.025391-0.027984-9.095e-4 -0.056004-0.0013047-0.083984-0.0019531-0.14916-0.0036456-0.29875-0.0038326-0.44727 0-0.029319 7.73e-4 -0.058589 8.946e-4 -0.087891 0.0019531-0.15878 0.0056679-0.31693 0.015178-0.47461 0.029297-0.007815 6.997e-4 -0.015627 0.0012327-0.023437 0.0019531-0.030601 0.0028219-0.061247 0.0046745-0.091797 0.0078125-0.051432 0.0051802-0.10133 0.014938-0.15234 0.021484-0.002657 3.409e-4 -0.005148 0.0016362-0.007813 0.0019531-0.11672 0.014026-0.23356 0.028312-0.34961 0.046875-0.013083 0.0020928-0.02599 0.0054404-0.039063 0.0078125l0.90039 0.90039c0.13262-0.0090145 0.265-0.018777 0.39844-0.021484 0.037872-7.535e-4 0.075292-0.0017253 0.11328-0.0019531 0.18927-0.0011518 0.37889 0.003281 0.56836 0.015625 0.026055 0.0016771 0.052094 0.0058746 0.078125 0.0078125 0.1816 0.013624 0.36388 0.032439 0.54492 0.058594 0.016885 0.0024394 0.033904 0.0033104 0.050781 0.0058594 0.007198 0.0011055 0.01429 0.0027809 0.021485 0.0039062 0.16886 0.025975 0.33616 0.058706 0.50391 0.095703 0.094848 0.020986 0.18921 0.04192 0.2832 0.066406 0.002602 6.778e-4 0.005212 0.0012727 0.007813 0.0019531 0.002589 6.738e-4 0.005223 0.0012766 0.007812 0.0019531 0.12823 0.033684 0.25614 0.071387 0.38281 0.11133 0.25845 0.081495 0.51387 0.17545 0.76367 0.2832 0.77382 0.33415 1.4867 0.79011 2.1172 1.3457h-3.2812v0.58594l0.41406 0.41406h4.5859v-5h-1zm-12 3.293c-0.19875 0.17786-0.39138 0.36469-0.57617 0.5625-0.82597 0.88417-1.4421 1.9023-1.8477 2.9863-0.05893 0.15753-0.11613 0.31642-0.16602 0.47656v0.001953c-0.0047683 0.015216-0.010956 0.029658-0.015625 0.044922-0.018407 0.060179-0.033581 0.12106-0.050781 0.18164-0.015653 0.05536-0.032294 0.1104-0.046875 0.16602-0.018362 0.069703-0.034073 0.14056-0.050781 0.21094-0.012959 0.054762-0.027135 0.10909-0.039063 0.16406-0.00891 0.041055-0.019011 0.081726-0.027344 0.12305-0.0058411 0.02864-0.01022 0.057278-0.015625 0.085937-0.015459 0.080384-0.027752 0.16145-0.041016 0.24219-0.00338 0.022105-0.0065585 0.044298-0.0097657 0.066407-0.022012 0.14051-0.043241 0.28052-0.058594 0.42188-0.0031683 0.017444-0.0060026 0.03491-0.0078125 0.052734-1.97e-4 0.0019 1.96e-4 0.00386 0 0.00586-0.0083479 0.081476-0.013431 0.16272-0.019531 0.24414-0.0030633 0.041048-0.0053103 0.081957-0.0078126 0.12305-0.0053322 0.087237-0.0089451 0.17462-0.011719 0.26172-0.0015969 0.050117-0.003144 0.10024-0.0039063 0.15039-0.0011382 0.075554-0.0027259 0.15117-0.0019531 0.22656 7.27e-4 0.073344 0.0033425 0.14735 0.0058594 0.2207 0.0022396 0.063946 0.0042058 0.12762 0.0078125 0.19141 0.007303 0.13158 0.016205 0.26318 0.029297 0.39453 4.617e-4 0.004563 0.0014844 0.009108 0.0019531 0.013671 2.58e-4 0.0026-2.6e-4 0.005313 0 0.007813 0.0015675 0.015146 0.0054017 0.02992 0.0078125 0.044922 0.028345 0.26436 0.069138 0.52698 0.12109 0.78906 0.0010195 0.005132 9.203e-4 0.010497 0.0019532 0.015625 5.295e-4 0.002655 0.0014178 0.00516 0.0019531 0.007813 0.0556 0.27662 0.12296 0.55205 0.20508 0.82422 0.081483 0.27006 0.17737 0.53698 0.28516 0.80078 0.0020487 0.005166 0.0037496 0.010485 0.0058593 0.015625 0.0035634 0.008669 0.0081103 0.01675 0.011719 0.02539 0.10765 0.25978 0.22791 0.51578 0.36133 0.76758 0.082913 0.15648 0.16879 0.31201 0.26172 0.46484 0.21483 0.35334 0.45173 0.68578 0.70703 1 0.002051 0.002538 0.0038005 0.005281 0.0058594 0.007813 0.0029069 0.003563 0.0068318 0.006226 0.0097656 0.009765 0.18692 0.22883 0.38369 0.44724 0.58984 0.6543 0.1225 0.12303 0.24873 0.24162 0.37695 0.35742v-1.4238c-0.023915-0.027569-0.048539-0.054354-0.072266-0.082031-0.038933-0.04554-0.081298-0.08842-0.11914-0.13477-0.11747-0.1434-0.22458-0.29386-0.33203-0.44531-0.042282-0.05984-0.088327-0.11683-0.12891-0.17774-0.083225-0.12442-0.15807-0.25556-0.23438-0.38476-0.057662-0.098083-0.11825-0.1947-0.17188-0.29492-0.0011042-0.002064-0.0028084-0.003792-0.0039062-0.00586-0.001367-0.002564-0.00255-0.005242-0.0039062-0.007812-0.053456-0.1013-0.098938-0.20689-0.14844-0.31055-0.06109-0.12834-0.12549-0.25537-0.17969-0.38672-0.035596-0.08616-0.063062-0.17603-0.095703-0.26367-0.058281-0.15652-0.11732-0.31279-0.16602-0.47266-8.426e-4 -0.002766-0.0030708-0.005044-0.0039062-0.007812-0.0084551-0.028111-0.014317-0.05726-0.021484-0.085938-0.012573-0.050304-0.025698-0.10046-0.039062-0.15039-0.04008-0.149-0.078965-0.29819-0.11133-0.44922-0.029313-0.14164-0.054662-0.28325-0.076172-0.42578-0.011588-0.07774-0.021871-0.15582-0.03125-0.23437-0.01709-0.14155-0.031534-0.28385-0.041016-0.42578-0.0023209-0.035185-0.0059463-0.070159-0.0078124-0.10547-0.0091028-0.17001-0.01151-0.33981-0.0097657-0.50977 6.686e-4 -0.069212 0.0015116-0.13822 0.0039063-0.20703 0.0064183-0.1775 0.016969-0.35466 0.035156-0.53125 0.018904-0.18355 0.046577-0.36693 0.078125-0.54883 0.0086297-0.049433 0.015902-0.099238 0.025391-0.14844 0.031982-0.16583 0.070798-0.3304 0.11328-0.49414 0.013399-0.05099 0.028559-0.10146 0.042969-0.15234 0.030011-0.10691 0.063153-0.2126 0.097656-0.31836 0.0015328-0.004698 0.0043177-0.008976 0.0058594-0.013672 0.33124-1.0089 0.86335-1.9614 1.5957-2.793v-1.4199zm14 6.707c0 0.11217-0.003195 0.22469-0.007812 0.33594-5.4e-5 0.001292 5.3e-5 0.002612 0 0.003906-0.002941 0.070004-0.006976 0.13938-0.011719 0.20898-0.004417 0.064881-0.009666 0.12892-0.015625 0.19336-0.005811 0.062823-0.012266 0.12504-0.019532 0.1875-0.005622 0.04834-0.013047 0.096458-0.019531 0.14453-0.009568 0.070956-0.017868 0.14246-0.029297 0.21289-0.008066 0.049678-0.018365 0.099072-0.027343 0.14844-0.012618 0.069407-0.024656 0.13819-0.039063 0.20703-0.022292 0.10651-0.045756 0.2133-0.072266 0.31836-0.00312 0.012357-0.006587 0.024773-0.009765 0.037109-0.043852 0.17032-0.095719 0.3378-0.15039 0.50391-0.017866 0.054199-0.035703 0.10843-0.054687 0.16211-0.058795 0.1665-0.12201 0.33062-0.19141 0.49219-0.010955 0.025506-0.022 0.050841-0.033203 0.076172-0.074021 0.16751-0.15516 0.33259-0.24023 0.49414-0.005682 0.010789-0.009895 0.022443-0.015625 0.033204-0.002458 0.004625-0.005348 0.009053-0.007812 0.013672-0.036713 0.068618-0.078525 0.13371-0.11719 0.20117-0.056201 0.092812-0.11228 0.1858-0.16992 0.27734-0.034609 0.055206-0.069217 0.11058-0.10352 0.16602-0.076582 0.11547-0.15389 0.23049-0.23633 0.3418-0.003015 0.004071-0.006742 0.007653-0.009765 0.011718-0.044401 0.059167-0.088809 0.11773-0.13477 0.17578-0.073934 0.093899-0.15042 0.18681-0.22852 0.27734-0.10407 0.11895-0.21201 0.23469-0.32227 0.34766-0.009953 0.010198-0.019314 0.021091-0.029297 0.03125-0.034908 0.035544-0.06793 0.072516-0.10352 0.10742-0.056396 0.05473-0.1134 0.10943-0.17188 0.16211-0.07523 0.067765-0.15176 0.13342-0.22852 0.19922-0.04554 0.03893-0.08842 0.0813-0.13477 0.11914-0.1434 0.11747-0.29386 0.22458-0.44531 0.33203-0.054518 0.038518-0.1072 0.0794-0.16211 0.11719-0.035164 0.023591-0.07184 0.045303-0.10742 0.068359-0.096699 0.060679-0.19469 0.1197-0.29297 0.17774-0.1001 0.05885-0.19833 0.12138-0.30078 0.17578-0.10363 0.05524-0.21207 0.10159-0.31836 0.15234-0.12834 0.06109-0.25536 0.12549-0.38672 0.17969-0.08616 0.0356-0.17603 0.063063-0.26367 0.095703-0.14379 0.053543-0.28731 0.10789-0.43359 0.1543-0.031121 0.009573-0.062448 0.018129-0.09375 0.027344-0.062908 0.016816-0.12659 0.031995-0.18945 0.048828-0.16258 0.043733-0.32498 0.087443-0.49023 0.12109-0.002635 5.37e-4 -0.005175 0.001422-0.007812 0.001953-0.001864 3.75e-4 -0.003996-3.73e-4 -0.00586 0-0.11378 0.02261-0.22854 0.042966-0.34375 0.060547-0.11712 0.017871-0.23451 0.034009-0.35352 0.046875-0.013216 0.001461-0.026057 0.003858-0.039063 0.005859-0.004579 4.81e-4 -0.009093 0.00148-0.013672 0.001953-0.030597 0.003161-0.061208 0.00501-0.091797 0.007813-0.080235 0.007198-0.16126 0.012772-0.24219 0.017578-0.052319 0.003192-0.10399 0.005656-0.15625 0.007813-0.065637 0.002625-0.13125 0.002863-0.19727 0.003906-0.18845 0.003097-0.37738 0.002346-0.56445-0.007813-0.002607-1.38e-4 -0.005206 1.41e-4 -0.007812 0-0.008503-4.7e-4 -0.016892-0.001456-0.025391-0.001953-0.1821-0.010651-0.36283-0.029764-0.54297-0.052734-0.038372-0.004917-0.07706-0.008195-0.11523-0.013672-0.18239-0.025958-0.36335-0.059299-0.54297-0.097656-0.037092-0.007992-0.074262-0.016819-0.11133-0.025391-0.16006-0.036577-0.31922-0.078809-0.47656-0.125l-0.79297 0.79297c0.018203 0.006617 0.036369 0.013076 0.054687 0.019531 0.051829 0.018311 0.10409 0.03537 0.15625 0.052734 0.068301 0.022682 0.13606 0.047247 0.20508 0.06836 0.11839 0.036212 0.23736 0.068124 0.35742 0.099609 0.071064 0.018636 0.14308 0.03582 0.21484 0.052734 0.071447 0.016862 0.14295 0.033706 0.21484 0.048829 0.019662 0.004109 0.03887 0.009695 0.058594 0.013671 0.022111 0.00451 0.044283 0.007473 0.066406 0.011719 0.10164 0.019882 0.20423 0.03635 0.30664 0.052735 0.1526 0.024413 0.30492 0.045947 0.45898 0.0625 0.012361 0.002088 0.024716 0.00458 0.037109 0.005859 0.0019 1.95e-4 0.00386-1.94e-4 0.00586 0 0.005231 5.36e-4 0.010393 0.001426 0.015624 0.001953 0.14351 0.014459 0.28909 0.02566 0.43359 0.033203 0.014281 7.46e-4 0.02868-6.77e-4 0.042969 0 0.1338 0.006343 0.26791 0.011384 0.40234 0.011719 0.0078 1.9e-5 0.015635 1e-6 0.023437 0 0.011763-4e-6 0.023399 5.1e-5 0.035156 0 0.12292-4.96e-4 0.24587-0.004184 0.36914-0.009766 0.030027-0.001374 0.059853-0.004183 0.089844-0.005859 0.1378-0.00763 0.27606-0.017179 0.41406-0.03125 0.002582-2.63e-4 0.005231 2.66e-4 0.007813 0h0.001953c0.28295-0.029161 0.56514-0.074104 0.84766-0.13086 0.21991-0.044179 0.4395-0.094982 0.6582-0.15625 0.045888-0.012855 0.091167-0.027478 0.13672-0.041016 0.012317-0.003455 0.024851-0.006055 0.037109-0.009766 0.021785-0.006571 0.042798-0.014607 0.064454-0.021484 0.25328-0.078514 0.50004-0.16659 0.74219-0.26562 0.003241-0.001325 0.006527-0.002577 0.009766-0.003906 0.001353-5.56e-4 0.002553-0.001396 0.003906-0.001953 0.82676-0.33974 1.5874-0.79581 2.2617-1.3457 0.23194-0.18913 0.45288-0.38921 0.66406-0.59961 0.16311-0.16251 0.31876-0.33164 0.46875-0.50586 0.034585-0.039199 0.069988-0.076831 0.10352-0.11719 0.00741-0.008901 0.014239-0.018309 0.021484-0.027344 0.002035-0.002536 0.003836-0.005265 0.00586-0.007812 0.16524-0.20077 0.32143-0.40876 0.46875-0.62305 0.010208-0.014552 0.021264-0.02822 0.03125-0.042969 0.018611-0.027374 0.034758-0.056158 0.052734-0.083984 0.12471-0.18809 0.24309-0.3809 0.35352-0.57812 0.012287-0.020234 0.025676-0.03976 0.037109-0.060547 0.0021-0.0038 0.003759-0.007899 0.005859-0.011719 0.009066-0.016536 0.016427-0.034182 0.025391-0.050781 0.064468-0.11948 0.12645-0.23885 0.18555-0.36133 0.002527-0.005237 0.005295-0.010382 0.007812-0.015625 0.029766-0.061905 0.057555-0.12482 0.085938-0.1875 0.039443-0.087212 0.076584-0.1751 0.11328-0.26367 0.024288-0.058558 0.049186-0.11661 0.072266-0.17578 0.002541-0.006514 0.005286-0.01301 0.007812-0.019531 0.048244-0.12467 0.09397-0.25182 0.13672-0.37891 0.02093-0.062221 0.040949-0.12468 0.060547-0.1875 0.033873-0.10855 0.063941-0.21801 0.09375-0.32812 0.007643-0.028235 0.018017-0.05565 0.025391-0.083984 0.002015-0.007763 0.003862-0.015668 0.005859-0.023437 0.038961-0.1514 0.072383-0.30494 0.10352-0.45898 0.010318-0.051211 0.019854-0.10277 0.029297-0.1543 0.024581-0.13364 0.045884-0.26892 0.064453-0.4043 0.004274-0.031309 0.009723-0.062338 0.013672-0.09375 4.91e-4 -0.0039 0.001468-0.007817 0.001954-0.011718 0.020803-0.16629 0.035337-0.3334 0.046874-0.50195 0.001683-0.024749 0.004379-0.049416 0.00586-0.074219 0.010825-0.17994 0.017578-0.36085 0.017578-0.54297h-1z" fill="#7bcbff"/></svg>
