<?xml version="1.0" encoding="UTF-8" standalone="no"?>
<svg
   viewBox="0 0 24 24"
   version="1.1"
   id="svg24"
   sodipodi:docname="lc_selection.svg"
   inkscape:version="1.2.1 (9c6d41e410, 2022-07-14)"
   xmlns:inkscape="http://www.inkscape.org/namespaces/inkscape"
   xmlns:sodipodi="http://sodipodi.sourceforge.net/DTD/sodipodi-0.dtd"
   xmlns="http://www.w3.org/2000/svg"
   xmlns:svg="http://www.w3.org/2000/svg">
  <defs
     id="defs28" />
  <sodipodi:namedview
     id="namedview26"
     pagecolor="#ffffff"
     bordercolor="#000000"
     borderopacity="0.25"
     inkscape:showpageshadow="2"
     inkscape:pageopacity="0.0"
     inkscape:pagecheckerboard="0"
     inkscape:deskcolor="#d1d1d1"
     showgrid="false"
     inkscape:zoom="23.291667"
     inkscape:cx="8.5438283"
     inkscape:cy="12.021467"
     inkscape:window-width="1366"
     inkscape:window-height="739"
     inkscape:window-x="0"
     inkscape:window-y="0"
     inkscape:window-maximized="1"
     inkscape:current-layer="svg24" />
  <path
     d="m5 3v18h14v-14.2705905l-4-3.7294095z"
     fill="#fafafa"
     id="path2" />
  <path
     d="m5 2c-.554 0-1 .446-1 1v18c0 .554.446 1 1 1h14c.554 0 1-.446 1-1v-10.109375-3.6412209-.2079239c0-.4506799.09887-.4265951-.604637-1.0675892l-3.307389-3.2370335c-.709525-.7368575-.711223-.7368575-1.094804-.7368575h-.331557-.661613zm0 1h9v4c0 .554.446 1 1 1h4v13h-14z"
     fill="#3a3a38"
     id="path4" />
  <path
     d="m15 7h4l-4-4z"
     fill="#fafafa"
     fill-rule="evenodd"
     id="path6" />
  <rect
     fill="#3a3a38"
     height="1"
     ry=".410114"
     width="7"
     x="6"
     y="12"
     id="rect8"
     style="fill:#1e8bcd" />
  <rect
     height="1"
     ry="0.41011399"
     width="7"
     x="6"
     y="6"
     id="rect10"
     style="fill:#3a3a38" />
  <rect
     height="1"
     ry="0.41011399"
     width="5"
     x="6"
     y="9"
     id="rect12"
     style="fill:#1e8bcd" />
  <rect
     height="1"
     ry="0.41011399"
     width="11"
     x="6"
     y="15"
     id="rect14"
     style="fill:#1e8bcd" />
  <rect
     height="1"
     ry="0.41011399"
     width="2"
     x="15"
     y="12"
     id="rect16"
     style="fill:#1e8bcd" />
  <rect
     height="1"
     ry="0.41011399"
     width="3"
     x="6"
     y="18"
     id="rect18"
     style="fill:#3a3a38" />
  <rect
     height="1"
     ry="0.41011399"
     width="5"
     x="11"
     y="18"
     id="rect20"
     style="fill:#3a3a38" />
</svg>
