<svg version="1.1" viewBox="0 0 32 32" xmlns="http://www.w3.org/2000/svg"><g transform="scale(1.333333)"><path d="m5 3v18h14v-14.271l-4-3.7294z" fill="#fafafa"/><path d="m5 2c-0.554 0-1 0.446-1 1v18c0 0.554 0.446 1 1 1h14c0.554 0 1-0.446 1-1v-13.959c0-0.45068 0.09887-0.4266-0.60464-1.0676l-3.3074-3.237c-0.70952-0.73686-0.71122-0.73686-1.0948-0.73686h-0.99317zm0 1h9v4c0 0.554 0.446 1 1 1h4v13h-14z" fill="#3a3a38"/><path d="m15 7h4l-4-4z" fill="#fafafa" fill-rule="evenodd"/><rect x="6" y="12" width="7" height="1" ry=".41011" fill="#1e8bcd"/><rect x="6" y="6" width="7" height="1" ry=".41011" fill="#3a3a38"/><g fill="#1e8bcd"><rect x="6" y="9" width="5" height="1" ry=".41011"/><rect x="6" y="15" width="11" height="1" ry=".41011"/><rect x="15" y="12" width="2" height="1" ry=".41011"/></g><rect x="6" y="18" width="3" height="1" ry=".41011" fill="#3a3a38"/><rect x="11" y="18" width="5" height="1" ry=".41011" fill="#3a3a38"/></g></svg>
