<svg viewBox="0 0 24 24" xmlns="http://www.w3.org/2000/svg"><path d="m2 3v1 3 13c0 .554.446 1 1 1h12v-1h-1.369141c-.01803.0015-.03443.0069-.05273.0078-.0339.0016-.06913-.0066-.103516-.0078h-10.474613v-13h12v-4h-12z" fill="#fafafa"/><path d="m16 3v4 4.082031c.104223.03855.204703.0874.298828.146485.0944.05926.182567.12602.259766.203125l.441406.441406v-4.873047h4v13h-3.474609-.15625-.369141v-.886719l-.421875.421875c-.07675.08035-.166578.150503-.261719.212891-.0016.000999-.002306.002906-.003906.003906-.0098.0064-.02133.009495-.03125.015625-.089491.055503-.182905.101533-.28125.138672v.09375 1h5c.554 0 1-.446 1-1v-13-3-1z" fill="#fafafa"/><path d="m19.007121 15.480118a.50005.50005 0 0 0 -.203125-.394531l-2.951171-2.947266a.50063788.50063788 0 1 0 -.707032.708984l2.146485 2.142579-5.785157.0078a.50005.50005 0 1 0 0 1l5.785157-.0078-2.146485 2.15039a.50005.50005 0 1 0 .708985.705078l2.957031-2.960937a.50005.50005 0 0 0 .195312-.404297z" fill="#1e8bcd" fill-rule="evenodd"/><path d="m3 4v2h12v-2zm13 0v2h5v-2z" fill="#797774"/></svg>