<svg viewBox="0 0 24 24" xmlns="http://www.w3.org/2000/svg"><path d="m2 3v1 3 13c0 .554.446 1 1 1h18c.554 0 1-.446 1-1v-13-3-1h-1c-6 0-12 0-18 0zm1 4h18v13c-6.00882.0041-11.9902693 0-18 0z" fill="#fafafa"/><path d="m16 7v6.996094l1.486328.002c.420169-.0059.867656.182805 1.138672.484375s.382812.666177.382812 1.015625c.000001.349447-.111796.712102-.382812 1.013672s-.718503.492228-1.138672.486328l-1.486328-.002v4.003906h6v-14z" fill="#1e8bcd"/><path d="m17 7v6.998047h.486328c.420169-.005942.867656.182805 1.138672.484375s.382812.666177.382812 1.015625c.000002.349447-.111796.712102-.382812 1.013672s-.718503.492228-1.138672.486328h-.486328v3.001953h4v-13z" fill="#0063b1"/><path d="m10.00006 15.480118a.50005.50005 0 0 1 .203125-.394531l2.951171-2.947266a.50063788.50063788 0 1 1 .707032.708984l-2.146485 2.142579 5.785157.0078a.50005.50005 0 1 1 0 1l-5.785157-.0078 2.146485 2.15039a.50005.50005 0 1 1 -.708985.705078l-2.957031-2.960937a.50005.50005 0 0 1 -.195312-.404297z" fill="#1e8bcd" fill-rule="evenodd"/><path d="m21 7v13h-5v1h5c.554 0 1-.446 1-1v-13z" fill="#83beec"/><path d="m3 4h18v2h-18z" fill="#797774"/></svg>