<svg version="1.1" viewBox="0 0 32 32" xmlns="http://www.w3.org/2000/svg"><g transform="scale(1.333333)"><path d="m18.373 9.4401q0-0.78333-0.4541-1.2142-0.43518-0.45042-1.2677-0.45042-0.81359 0-1.4191 0.56792-0.60546 0.54833-0.60546 1.3708 0 0.47 0.24597 0.86167-0.47302 0.43083-0.94604 0.43083-1.0406 0-1.0406-1.0771 0-1.3513 1.192-2.2717 1.2109-0.92042 2.7246-0.92042 1.5326 0 2.4029 0.78333 0.87035 0.78333 0.87035 2.1933 0 1.88-1.4758 3.8775-1.4569 1.9975-5.0707 4.8567h5.733l-0.18921 1.4296h-7.7575l0.17029-1.1163q3.9733-3.4467 5.4302-5.4442 1.4569-2.0171 1.4569-3.8775z" fill="#3a3a38" stroke-width=".27376"/><path d="m11.316 4a0.54757 0.54757 0 0 0-0.51758 0.3684l-4.4309 12.8-1.9302-5.148a0.54757 0.54757 0 0 0-0.51276-0.35503h-1.3688a0.54757 0.54757 0 1 0 0 1.095h0.98917l2.3307 6.2152a0.54757 0.54757 0 0 0 1.0303-0.01337l4.7999-13.867h9.7393a0.54757 0.54757 0 1 0 0-1.095z" fill="#1e8bcd" fill-rule="evenodd" stroke-width=".27376"/></g></svg>
