<svg version="1.1" viewBox="0 0 24 24" xmlns="http://www.w3.org/2000/svg"><path d="m14 7h4l-4-4z" fill="#fafafa" fill-rule="evenodd"/><circle cx="16" cy="17" r="4" fill="#fafafa"/><path d="m16 12c-3.2801 0.0043-6.2981 1.7928-7.877 4.668 0.12894 0.36373 0.35744 0.67659 0.65625 0.9082 1.3218-2.7913 4.1323-4.5725 7.2207-4.5762-2.2091 0-4 1.7909-4 4s1.7909 4 4 4 4-1.7909 4-4c8e-3 -2.0795-1.5788-3.8183-3.6504-4 2.9613 0.13455 5.6055 1.8956 6.8711 4.5762 0.30152-0.23371 0.53191-0.55005 0.66016-0.91797-1.5821-2.8726-4.6014-4.6573-7.8809-4.6582zm0 2c1.6569 0 3 1.3431 3 3s-1.3431 3-3 3-3-1.3431-3-3 1.3431-3 3-3z" fill="#3a3a38"/><path d="m15.999953 15c-1.104569 0-2 .895431-2 2s.895431 2 2 2 2-.89543 2-2c.02896-.194894.02896-.392997 0-.587891-.174008.38903-.57545.625034-1 .587891-.552285 0-1-.447715-1-1-.03682-.425027.200049-.826612.589844-1-.195534-.02915-.39431-.02915-.589844 0z" fill="#1e8bcd"/><g fill="#1e8bcd" stroke-linecap="round" stroke-linejoin="round" stroke-width="2.4281" aria-label="DVI"><path d="m6.8748 5.924q0 1.9622-0.91293 3.0233-0.907 1.0552-2.6024 1.0552h-2.1934v-7.997h1.8436q1.9504 0 2.9048 0.97814 0.96036 0.97221 0.96036 2.9404zm-1.1382 0q0-1.565-0.65209-2.2764-0.65209-0.7173-2.0689-0.7173h-0.7173v6.1475h0.96036q1.2568 0 1.8674-0.78844 0.6106-0.78844 0.6106-2.3653z"/><path d="m11.718 10.003h-1.1738l-2.9937-7.997h1.1916l1.897 5.3472q0.18377 0.50982 0.49796 1.6539 0.23712-0.88329 0.49796-1.6539l1.8851-5.3472h1.1916z"/><path d="m15.974 2.0055h4.8788v0.92479h-1.8733v6.1475h1.8733v0.92479h-4.8788v-0.92479h1.8733v-6.1475h-1.8733z"/></g></svg>
