<svg viewBox="0 0 24 24" xmlns="http://www.w3.org/2000/svg"><path d="m5 3c-.554 0-1 .446-1 1v17c0 .554.446 1 1 1h14.890625l-1-1h-3.388672-.001953-10.5v-17h9v4c0 .554.446 1 1 1h4v2.265625c.380836.315573.715237.682422 1 1.087891v-4.103516-.2089844c0-.4506799.098038-.4254121-.605469-1.0664062l-3.30664-3.2382813c-.709525-.7368575-.710169-.7363281-1.09375-.7363281h-.332032-.662109zm10 1 4 4h-4z" fill="#fafafa"/><path d="m15.5 11a4.5 4.5 0 0 0 -4.5 4.5 4.5 4.5 0 0 0 4.5 4.5 4.5 4.5 0 0 0 2.8125-.992188l3.839844 3.839844a.50005.50005 0 1 0 .707031-.707031l-3.837891-3.837891a4.5 4.5 0 0 0 .978516-2.802734 4.5 4.5 0 0 0 -4.5-4.5zm0 1a3.5 3.5 0 0 1 3.5 3.5 3.5 3.5 0 0 1 -3.5 3.5 3.5 3.5 0 0 1 -3.5-3.5 3.5 3.5 0 0 1 3.5-3.5z" fill="#1e8bcd"/></svg>