<svg version="1.1" viewBox="0 0 24 24" xmlns="http://www.w3.org/2000/svg"><path d="m12.688 7h4l-4-4z" fill="#3a3a38" fill-rule="evenodd"/><circle cx="14.688" cy="17" r="4" fill="#3a3a38"/><path d="m14.687 12c-3.2801 0.0043-6.2981 1.7928-7.877 4.668 0.12894 0.36373 0.35744 0.67659 0.65625 0.9082 1.3218-2.7913 4.1323-4.5725 7.2207-4.5762-2.2091 0-4 1.7909-4 4s1.7909 4 4 4 4-1.7909 4-4c8e-3 -2.0795-1.5788-3.8183-3.6504-4 2.9613 0.13455 5.6055 1.8956 6.8711 4.5762 0.30152-0.23371 0.53191-0.55005 0.66016-0.91797-1.5821-2.8726-4.6014-4.6573-7.8809-4.6582zm0 2c1.6569 0 3 1.3431 3 3s-1.3431 3-3 3-3-1.3431-3-3 1.3431-3 3-3z" fill="#fafafa"/><g fill="#7bcbff"><path d="m14.687 15c-1.1046 0-2 0.89543-2 2s0.89543 2 2 2 2-0.89543 2-2c0.02896-0.19489 0.02896-0.393 0-0.58789-0.17401 0.38903-0.57545 0.62503-1 0.58789-0.55228 0-1-0.44772-1-1-0.03682-0.42503 0.20005-0.82661 0.58984-1-0.19553-0.02915-0.39431-0.02915-0.58984 0z"/><g stroke-linecap="round" stroke-linejoin="round" stroke-width="2.4281" aria-label="PS"><path d="m9.1695 4.4005q0 0.74102-0.35569 1.322-0.34976 0.58096-1.0078 0.907-0.65209 0.32605-1.5117 0.32605h-1.6658v3.0471h-1.1323v-7.997h2.7269q1.4109 0 2.1756 0.63431 0.77066 0.62838 0.77066 1.7607zm-1.1382 0.017784q0-1.5057-1.9444-1.5057h-1.4583v3.1478h1.5057q0.88329 0 1.3872-0.43275 0.50982-0.43275 0.50982-1.2093z"/><path d="m16.509 7.8092q0 1.0908-0.8003 1.7014-0.79437 0.6106-2.2705 0.6106-2.7092 0-3.1478-2.1223l1.0967-0.21934q0.16599 0.76473 0.68766 1.1145 0.52168 0.34383 1.3931 0.34383 0.94257 0 1.4287-0.36754 0.49203-0.36754 0.49203-1.0434 0-0.41497-0.19563-0.67581-0.1897-0.26084-0.50389-0.42682-0.31419-0.16599-0.71138-0.26677-0.39126-0.10671-0.79437-0.20748-0.95443-0.24898-1.3635-0.44461-0.40311-0.19563-0.64617-0.44461-0.24305-0.25491-0.36754-0.58096-0.12449-0.32605-0.12449-0.76473 0-1.0256 0.7173-1.5769 0.72323-0.55724 2.0689-0.55724 1.2568 0 1.9207 0.43868 0.66395 0.43868 0.92479 1.482l-1.1145 0.19563q-0.14228-0.66395-0.5691-0.96036-0.42682-0.30233-1.1678-0.30233-1.6777 0-1.6777 1.2627 0 0.35569 0.15413 0.58096 0.16006 0.21934 0.42682 0.36754 0.27269 0.14228 0.62838 0.23713 0.36162 0.09485 0.77066 0.20156 0.82401 0.20748 1.1856 0.34976 0.36162 0.13635 0.64024 0.31419 0.28455 0.17784 0.48611 0.4209 0.20156 0.24305 0.31419 0.5691 0.11856 0.32605 0.11856 0.77066z"/></g><text font-family="Cousine" font-size="10px" stroke-linecap="round" stroke-linejoin="round" stroke-width="2" text-align="center" style="shape-inside:url(#rect397);white-space:pre" xml:space="preserve"/></g></svg>
