<svg version="1.1" viewBox="0 0 32 32" xmlns="http://www.w3.org/2000/svg"><g transform="scale(1.333333)"><path d="m14 7h4l-4-4z" fill="#3a3a38" fill-rule="evenodd"/><circle cx="16" cy="17" r="4" fill="#3a3a38"/><path d="m16 12c-3.2801 0.0043-6.2981 1.7928-7.877 4.668 0.12894 0.36373 0.35744 0.67659 0.65625 0.9082 1.3218-2.7913 4.1323-4.5725 7.2207-4.5762-2.2091 0-4 1.7909-4 4s1.7909 4 4 4 4-1.7909 4-4c8e-3 -2.0795-1.5788-3.8183-3.6504-4 2.9613 0.13455 5.6055 1.8956 6.8711 4.5762 0.30152-0.23371 0.53191-0.55005 0.66016-0.91797-1.5821-2.8726-4.6014-4.6573-7.8809-4.6582zm0 2c1.6569 0 3 1.3431 3 3s-1.3431 3-3 3-3-1.3431-3-3 1.3431-3 3-3z" fill="#fafafa"/><path d="m15.999953 15c-1.104569 0-2 .895431-2 2s.895431 2 2 2 2-.89543 2-2c.02896-.194894.02896-.392997 0-.587891-.174008.38903-.57545.625034-1 .587891-.552285 0-1-.447715-1-1-.03682-.425027.200049-.826612.589844-1-.195534-.02915-.39431-.02915-.589844 0z" fill="#7bcbff"/><g fill="#7bcbff" stroke-linecap="round" stroke-linejoin="round" stroke-width="2.4281" aria-label="log"><path d="m4.5687 9.1608h2.2527v0.84179h-5.8214v-0.84179h2.5017v-7.1138h-1.7132v-0.84179h2.7803z"/><path d="m13.994 6.7895q0 1.6184-0.74694 2.478-0.74102 0.85365-2.146 0.85365-1.3753 0-2.1104-0.86551-0.72916-0.86551-0.72916-2.4661 0-1.6539 0.74694-2.4839 0.75287-0.83587 2.1282-0.83587 1.4465 0 2.1519 0.82401t0.70545 2.4957zm-1.1204 0q0-1.2745-0.40904-1.9029-0.40311-0.62838-1.3101-0.62838-0.91886 0-1.3457 0.64024-0.42682 0.64024-0.42682 1.8911 0 1.2449 0.42682 1.897 0.42683 0.64617 1.2805 0.64617 0.94257 0 1.3635-0.63431 0.4209-0.63431 0.4209-1.9089z"/><path d="m18.423 12.516q-0.99592 0-1.6006-0.40904-0.60467-0.40904-0.77066-1.1738l1.0908-0.1482q0.10078 0.44461 0.43275 0.68174 0.3379 0.24305 0.88329 0.24305 1.4702 0 1.4702-1.8674v-1.1501h-0.01186q-0.29048 0.6106-0.80622 0.92479-0.51575 0.31419-1.2271 0.31419-1.1738 0-1.7192-0.76473-0.53946-0.77066-0.53946-2.4187 0-1.6777 0.58096-2.4661 0.58096-0.79437 1.7903-0.79437 0.66988 0 1.1619 0.31419 0.49796 0.30826 0.76473 0.88329h0.01778q0-0.17784 0.02371-0.59874 0.02371-0.42682 0.04742-0.49796h1.0137q-0.03557 0.32012-0.03557 1.3279v4.8966q0 1.3457-0.62838 2.0215-0.62838 0.68173-1.9385 0.68173zm1.5057-5.7799q0-1.1441-0.44461-1.7962-0.44461-0.65802-1.2212-0.65802-0.81215 0-1.1738 0.5691-0.36162 0.56317-0.36162 1.8851 0 0.89515 0.1482 1.4168 0.15413 0.51575 0.47425 0.75287t0.89515 0.23712q0.50389 0 0.88329-0.27862 0.38533-0.28455 0.59281-0.82401 0.20748-0.54539 0.20748-1.3042z"/></g></g></svg>
