<?xml version="1.0" encoding="UTF-8" standalone="no"?>
<svg
   viewBox="0 0 24 24"
   version="1.1"
   id="svg26"
   sodipodi:docname="lc_view-doc-ps.svg"
   inkscape:version="1.2.1 (9c6d41e410, 2022-07-14)"
   xmlns:inkscape="http://www.inkscape.org/namespaces/inkscape"
   xmlns:sodipodi="http://sodipodi.sourceforge.net/DTD/sodipodi-0.dtd"
   xmlns="http://www.w3.org/2000/svg"
   xmlns:svg="http://www.w3.org/2000/svg">
  <defs
     id="defs30">
    <rect
       x="26.4375"
       y="26.4375"
       width="28.25"
       height="27.6875"
       id="rect397" />
  </defs>
  <sodipodi:namedview
     id="namedview28"
     pagecolor="#ffffff"
     bordercolor="#000000"
     borderopacity="0.25"
     inkscape:showpageshadow="2"
     inkscape:pageopacity="0.0"
     inkscape:pagecheckerboard="0"
     inkscape:deskcolor="#d1d1d1"
     showgrid="true"
     inkscape:zoom="16"
     inkscape:cx="9.03125"
     inkscape:cy="11.125"
     inkscape:window-width="1366"
     inkscape:window-height="739"
     inkscape:window-x="0"
     inkscape:window-y="0"
     inkscape:window-maximized="1"
     inkscape:current-layer="svg26">
    <inkscape:grid
       type="xygrid"
       id="grid879" />
  </sodipodi:namedview>
  <path
     d="m 12.6875,7 h 4 l -4,-4 z"
     fill="#fafafa"
     fill-rule="evenodd"
     id="path6" />
  <circle
     cx="14.6875"
     cy="17"
     fill="#fafafa"
     r="4"
     id="circle20" />
  <path
     d="M 14.687453,12 C 11.407344,12.0043 8.389336,13.792832 6.8105,16.667969 6.939445,17.031703 7.167939,17.344556 7.46675,17.576172 8.788539,14.784863 11.599004,13.00371 14.687453,13 c -2.209139,0 -4,1.790861 -4,4 0,2.209139 1.790861,4 4,4 2.209139,0 4,-1.790861 4,-4 0.008,-2.079511 -1.578821,-3.81826 -3.650391,-4 2.961312,0.134551 5.605464,1.895565 6.871094,4.576172 0.301515,-0.233711 0.531909,-0.55005 0.660156,-0.917969 C 20.986238,13.785613 17.966894,12.000945 14.687453,12 Z m 0,2 c 1.656854,0 3,1.343146 3,3 0,1.656854 -1.343146,3 -3,3 -1.656854,0 -3,-1.343146 -3,-3 0,-1.656854 1.343146,-3 3,-3 z"
     fill="#3a3a38"
     id="path22" />
  <path
     d="m 14.687453,15 c -1.104569,0 -2,0.895431 -2,2 0,1.104569 0.895431,2 2,2 1.104569,0 2,-0.89543 2,-2 0.02896,-0.194894 0.02896,-0.392997 0,-0.587891 -0.174008,0.38903 -0.57545,0.625034 -1,0.587891 -0.552285,0 -1,-0.447715 -1,-1 -0.03682,-0.425027 0.200049,-0.826612 0.589844,-1 -0.195534,-0.02915 -0.39431,-0.02915 -0.589844,0 z"
     fill="#1e8bcd"
     id="path24" />
  <text
     xml:space="preserve"
     style="font-size:12.1408px;font-family:Cousine;-inkscape-font-specification:Cousine;text-align:center;text-anchor:middle;fill:#1e8bcd;stroke-width:2.42814;stroke-linecap:round;stroke-linejoin:round"
     x="9.8216295"
     y="10.002574"
     id="text775"><tspan
       sodipodi:role="line"
       id="tspan773"
       x="9.8216295"
       y="10.002574"
       style="fill:#1e8bcd;stroke-width:2.42814">PS</tspan></text>
  <text
     xml:space="preserve"
     id="text395"
     style="fill:#1e8bcd;-inkscape-font-specification:Cousine;font-family:Cousine;font-size:10px;stroke-linecap:round;text-align:center;stroke-linejoin:round;stroke-width:2;white-space:pre;shape-inside:url(#rect397)" />
</svg>
