<?xml version="1.0" encoding="UTF-8" standalone="no"?>
<svg
   viewBox="0 0 24 24"
   version="1.1"
   id="svg26"
   sodipodi:docname="lc_viewlog.svg"
   inkscape:version="1.2.1 (9c6d41e410, 2022-07-14)"
   xmlns:inkscape="http://www.inkscape.org/namespaces/inkscape"
   xmlns:sodipodi="http://sodipodi.sourceforge.net/DTD/sodipodi-0.dtd"
   xmlns="http://www.w3.org/2000/svg"
   xmlns:svg="http://www.w3.org/2000/svg">
  <defs
     id="defs30" />
  <sodipodi:namedview
     id="namedview28"
     pagecolor="#ffffff"
     bordercolor="#000000"
     borderopacity="0.25"
     inkscape:showpageshadow="2"
     inkscape:pageopacity="0.0"
     inkscape:pagecheckerboard="0"
     inkscape:deskcolor="#d1d1d1"
     showgrid="true"
     inkscape:zoom="22.627417"
     inkscape:cx="13.50132"
     inkscape:cy="10.474019"
     inkscape:window-width="1920"
     inkscape:window-height="1031"
     inkscape:window-x="0"
     inkscape:window-y="0"
     inkscape:window-maximized="1"
     inkscape:current-layer="svg26">
    <inkscape:grid
       type="xygrid"
       id="grid879" />
  </sodipodi:namedview>
  <path
     d="m14 7h4l-4-4z"
     fill="#fafafa"
     fill-rule="evenodd"
     id="path6" />
  <circle
     cx="16"
     cy="17"
     fill="#fafafa"
     r="4"
     id="circle20" />
  <path
     d="m15.999953 12c-3.280109.0043-6.298117 1.792832-7.876953 4.667969.128945.363734.357439.676587.65625.908203 1.321789-2.791309 4.132254-4.572462 7.220703-4.576172-2.209139 0-4 1.790861-4 4s1.790861 4 4 4 4-1.790861 4-4c.008-2.079511-1.578821-3.81826-3.650391-4 2.961312.134551 5.605464 1.895565 6.871094 4.576172.301515-.233711.531909-.55005.660156-.917969-1.582074-2.87259-4.601418-4.657258-7.880859-4.658203zm0 2c1.656854 0 3 1.343146 3 3s-1.343146 3-3 3-3-1.343146-3-3 1.343146-3 3-3z"
     fill="#3a3a38"
     id="path22" />
  <path
     d="m15.999953 15c-1.104569 0-2 .895431-2 2s.895431 2 2 2 2-.89543 2-2c.02896-.194894.02896-.392997 0-.587891-.174008.38903-.57545.625034-1 .587891-.552285 0-1-.447715-1-1-.03682-.425027.200049-.826612.589844-1-.195534-.02915-.39431-.02915-.589844 0z"
     fill="#1e8bcd"
     id="path24" />
  <text
     xml:space="preserve"
     style="font-size:12.1408px;font-family:Cousine;-inkscape-font-specification:Cousine;text-align:center;text-anchor:middle;fill:#1e8bcd;stroke-width:2.42814;stroke-linecap:round;stroke-linejoin:round"
     x="11.13413"
     y="10.002574"
     id="text775"><tspan
       sodipodi:role="line"
       id="tspan773"
       x="11.13413"
       y="10.002574"
       style="fill:#1e8bcd;stroke-width:2.42814">log</tspan></text>
</svg>
