<svg version="1.1" viewBox="0 0 32 32" xmlns="http://www.w3.org/2000/svg"><g transform="scale(1.333333)"><g fill="#3a3a38" stroke-linecap="round" stroke-linejoin="round" aria-label="W"><path d="m16.131 18.795h-2.1271q-0.75676-2.8225-1.1556-4.2951-0.38861-1.4726-0.82834-3.4361-0.29657 1.2783-0.55223 2.3112-0.24544 1.0329-1.4624 5.42h-2.1271l-2.1578-13.796h1.9328l1.1147 8.5391q0.16362 1.3397 0.33747 3.5384 0.32725-1.4113 0.542-2.3316 0.22498-0.92038 1.4726-5.4712h1.7896q0.70563 2.5873 1.1045 4.0701 0.40906 1.4828 0.91016 3.7327l0.35793-3.5384 1.0636-8.5391h1.9328z"/></g><path d="m6 20.5 2 2 2-2 2 2 2-2 2 2 2-2" fill="none" stroke="#1e8bcd" stroke-linecap="round" stroke-linejoin="round"/></g></svg>
