<svg version="1.1" viewBox="0 0 24 24" xmlns="http://www.w3.org/2000/svg"><g stroke-linecap="round" stroke-linejoin="round"><path d="m21.5 4v14.5h-16v-14.5z" color="#000000" fill="#fafafa" style="-inkscape-stroke:none"/><path d="m5 2v16.5c2.65e-5 0.27613 0.22387 0.49997 0.5 0.5h16c0.27613-2.7e-5 0.49997-0.22387 0.5-0.5v-16.5zm1 2h15v14h-15z" color="#000000" fill="#3a3a38" style="-inkscape-stroke:none"/></g><g transform="translate(-3,3)" stroke-linecap="round" stroke-linejoin="round"><path d="m21.5 4v14.5h-16v-14.5z" color="#000000" fill="#fafafa" style="-inkscape-stroke:none"/><path d="m5 2v16.5c2.65e-5 0.27613 0.22387 0.49997 0.5 0.5h16c0.27613-2.7e-5 0.49997-0.22387 0.5-0.5v-16.5zm1 2h15v14h-15z" color="#000000" fill="#3a3a38" style="-inkscape-stroke:none"/></g><rect x="2" y="5" width="17" height="2" fill="#1e8bcd"/></svg>
