<svg version="1.1" viewBox="0 0 32 32" xmlns="http://www.w3.org/2000/svg"><g transform="scale(1.333333)"><g fill="#3a3a38" stroke-linecap="round" stroke-linejoin="round" aria-label="ab"><path d="m10.869 17.732q0.24 0 0.54463-0.06462v1.0339q-0.6277 0.1477-1.2831 0.1477-0.9231 0-1.3477-0.48001-0.41539-0.48924-0.47078-1.5231h-0.055386q-0.60001 1.1169-1.4216 1.6062-0.81232 0.48924-2.0123 0.48924-1.4585 0-2.197-0.79386t-0.73848-2.1785q0-3.2216 4.1909-3.2678l2.1785-0.03692v-0.54463q0-1.2093-0.48924-1.7354-0.48924-0.5354-1.56-0.5354-1.0893 0-1.5693 0.3877-0.48001 0.3877-0.57232 1.2l-1.7354-0.15693q0.42462-2.6954 3.9047-2.6954 1.8462 0 2.7693 0.86771 0.93233 0.85848 0.93233 2.4924v4.3016q0 0.73848 0.19385 1.1169 0.19385 0.36924 0.73848 0.36924zm-5.6217-0.05539q0.88617 0 1.5693-0.42462 0.68309-0.42462 1.0616-1.1354 0.37847-0.71078 0.37847-1.4677v-0.82156l-1.7539 0.03692q-1.0893 0.01846-1.6616 0.24-0.57232 0.22154-0.8954 0.68309-0.31385 0.45232-0.31385 1.2093 0 0.75694 0.40616 1.2185 0.41539 0.46155 1.2093 0.46155z"/><path d="m22.113 13.717q0 2.6216-0.94156 3.9232-0.93233 1.3016-2.677 1.3016-2.2524 0-3.0831-1.6985h-0.01846q0 0.44309-0.03692 0.9231-0.02769 0.48001-0.04616 0.59078h-1.6062q0.05539-0.49847 0.05539-2.0585v-11.64h1.6616v3.9047q0 0.60001-0.03692 1.4493h0.03692q0.84002-1.8462 3.0831-1.8462 3.6093 0 3.6093 5.1509zm-1.717 0.05538q0-2.0677-0.57232-2.9908-0.56309-0.93233-1.7723-0.93233-1.3754 0-2.0031 1.0154-0.6277 1.0062-0.6277 3.0554 0 1.9293 0.60924 2.8616 0.60924 0.93233 2.0031 0.93233 1.2462 0 1.8-0.96002 0.56309-0.96925 0.56309-2.9816z"/></g><path d="m1 18v5h1v-2h20v2h1v-5h-1v2h-20v-2h-1z" color="#000000" fill="#1e8bcd" stroke-linecap="round" stroke-linejoin="round" style="-inkscape-stroke:none"/></g></svg>
