<svg viewBox="0 0 24 24" xmlns="http://www.w3.org/2000/svg"><path d="m5 2c-.554 0-1 .446-1 1v18c0 .554.446 1 1 1h14c.554 0 1-.446 1-1v-10.109375-3.640625-.2089844c0-.4506799.098038-.4254121-.605469-1.0664062l-3.30664-3.2382813c-.709525-.7368575-.710169-.7363281-1.09375-.7363281zm0 1h9v4c0 .554.446 1 1 1h4v6.542969l.361328.226562a.99831365.99831365 0 0 1 .107422.078125c.706071.586087.706071 1.718601 0 2.304688a.99831365.99831365 0 0 1 -.107422.078125l-.361328.226562v3.542969h-14v-3.552734l-.3476562-.216797a.99831365.99831365 0 0 1 -.1074219-.078125c-.7060712-.586087-.7060712-1.718601 0-2.304688a.99831365.99831365 0 0 1 .1074219-.078125l.3476562-.216797zm10 0 4 4h-4z" fill="#fafafa"/><g fill-rule="evenodd"><path d="m9.501953 13c-.117632-.00069-.231741.04011-.322265.115234l-3.9980474 2.5c-.24089.199955-.24089.569577 0 .769532l3.9980474 2.5c.325924.271804.820933.039622.820312-.384766v-5c-.000025-.27537-.222679-.4989-.498047-.5zm4.996094 0c-.275368.0011-.498022.22463-.498047.5v5c-.000621.424388.494388.65657.820312.384766l4-2.5c.240891-.199955.240891-.569577 0-.769532l-4-2.5c-.090519-.07512-.204633-.115924-.322265-.115234zm-5.498047 1.324219v3.351562l-2.3515625-1.675781zm6 0 2.353516 1.675781-2.353516 1.675781z" fill="#83beec"/><path d="m9 14.324219-2.3515625 1.675781 2.3515625 1.675781zm6 0v3.351562l2.353516-1.675781z" fill="#0063b1"/></g></svg>