<?xml version="1.0" encoding="UTF-8" standalone="no"?>
<!-- Created with Inkscape (http://www.inkscape.org/) --><svg height="128" id="svg1877" inkscape:version="0.44" sodipodi:docbase="/home/pinheiro/artwork/Oxygen/Pinheiro" sodipodi:docname="acroread.svg" sodipodi:version="0.32" version="1.0" width="128" xmlns="http://www.w3.org/2000/svg" xmlns:cc="http://web.resource.org/cc/" xmlns:dc="http://purl.org/dc/elements/1.1/" xmlns:inkscape="http://www.inkscape.org/namespaces/inkscape" xmlns:rdf="http://www.w3.org/1999/02/22-rdf-syntax-ns#" xmlns:sodipodi="http://sodipodi.sourceforge.net/DTD/sodipodi-0.dtd" xmlns:svg="http://www.w3.org/2000/svg" xmlns:xlink="http://www.w3.org/1999/xlink">
  <metadata>
    <rdf:RDF xmlns:cc="http://web.resource.org/cc/" xmlns:dc="http://purl.org/dc/elements/1.1/" xmlns:rdf="http://www.w3.org/1999/02/22-rdf-syntax-ns#">
      <cc:Work rdf:about="">
        <dc:title></dc:title>
        <dc:description></dc:description>
        <dc:subject>
          <rdf:Bag>
            <rdf:li>unsorted</rdf:li>
          </rdf:Bag>
        </dc:subject>
        <dc:publisher>
          <cc:Agent rdf:about="http://www.openclipart.org/">
            <dc:title>Open Clip Art Library, Source: Oxygen Icons, Source: Oxygen Icons, Source: Oxygen Icons, Source: Oxygen Icons</dc:title>
          </cc:Agent>
        </dc:publisher>
        <dc:creator>
          <cc:Agent>
            <dc:title></dc:title>
          </cc:Agent>
        </dc:creator>
        <dc:rights>
          <cc:Agent>
            <dc:title></dc:title>
          </cc:Agent>
        </dc:rights>
        <dc:date></dc:date>
        <dc:format>image/svg+xml</dc:format>
        <dc:type rdf:resource="http://purl.org/dc/dcmitype/StillImage"/>
        <cc:license rdf:resource="http://creativecommons.org/licenses/by-sa/3.0/ or http://creativecommons.org/licenses/LGPL/2.1/"/>
        <dc:language>en</dc:language>
      </cc:Work>
    </rdf:RDF>
  </metadata>
  <defs id="defs1879">
    <linearGradient id="linearGradient3106" inkscape:collect="always">
      <stop id="stop3108" offset="0" style="stop-color:white;stop-opacity:1;"/>
      <stop id="stop3110" offset="1" style="stop-color:white;stop-opacity:0;"/>
    </linearGradient>
    <linearGradient id="linearGradient3083" inkscape:collect="always">
      <stop id="stop3085" offset="0" style="stop-color:white;stop-opacity:1;"/>
      <stop id="stop3087" offset="1" style="stop-color:white;stop-opacity:0;"/>
    </linearGradient>
    <linearGradient id="linearGradient3058" inkscape:collect="always">
      <stop id="stop3060" offset="0" style="stop-color:white;stop-opacity:1;"/>
      <stop id="stop3062" offset="1" style="stop-color:white;stop-opacity:0;"/>
    </linearGradient>
    <linearGradient id="linearGradient5477">
      <stop id="stop5479" offset="0" style="stop-color:black;stop-opacity:1;"/>
      <stop id="stop5481" offset="1" style="stop-color:white;stop-opacity:1;"/>
    </linearGradient>
    <linearGradient id="linearGradient3880" inkscape:collect="always">
      <stop id="stop3882" offset="0" style="stop-color:black;stop-opacity:1;"/>
      <stop id="stop3884" offset="1" style="stop-color:black;stop-opacity:0;"/>
    </linearGradient>
    <linearGradient id="linearGradient3853" inkscape:collect="always">
      <stop id="stop3855" offset="0" style="stop-color:black;stop-opacity:1;"/>
      <stop id="stop3857" offset="1" style="stop-color:black;stop-opacity:0;"/>
    </linearGradient>
    <linearGradient id="linearGradient3837">
      <stop id="stop3839" offset="0" style="stop-color:black;stop-opacity:1;"/>
      <stop id="stop3849" offset="0.25" style="stop-color:black;stop-opacity:0.59927797;"/>
      <stop id="stop3847" offset="0.5" style="stop-color:black;stop-opacity:0.27797833;"/>
      <stop id="stop3841" offset="1" style="stop-color:black;stop-opacity:0;"/>
    </linearGradient>
    <linearGradient id="linearGradient3814">
      <stop id="stop3816" offset="0" style="stop-color:white;stop-opacity:0;"/>
      <stop id="stop3824" offset="0.18531764" style="stop-color:white;stop-opacity:0;"/>
      <stop id="stop3822" offset="0.28106508" style="stop-color:white;stop-opacity:0.33574006;"/>
      <stop id="stop3829" offset="0.45126861" style="stop-color:white;stop-opacity:0.1696751;"/>
      <stop id="stop3831" offset="0.47940481" style="stop-color:white;stop-opacity:0;"/>
      <stop id="stop3833" offset="0.65610015" style="stop-color:white;stop-opacity:0.3068592;"/>
      <stop id="stop3818" offset="1" style="stop-color:white;stop-opacity:0;"/>
    </linearGradient>
    <linearGradient id="linearGradient3804" inkscape:collect="always">
      <stop id="stop3806" offset="0" style="stop-color:white;stop-opacity:1;"/>
      <stop id="stop3808" offset="1" style="stop-color:white;stop-opacity:0;"/>
    </linearGradient>
    <linearGradient id="linearGradient3783" inkscape:collect="always">
      <stop id="stop3785" offset="0" style="stop-color:white;stop-opacity:1;"/>
      <stop id="stop3787" offset="1" style="stop-color:white;stop-opacity:0;"/>
    </linearGradient>
    <linearGradient id="linearGradient3771" inkscape:collect="always">
      <stop id="stop3773" offset="0" style="stop-color:#f7fafe;stop-opacity:1;"/>
      <stop id="stop3775" offset="1" style="stop-color:#f7fafe;stop-opacity:0;"/>
    </linearGradient>
    <linearGradient id="linearGradient3756" inkscape:collect="always">
      <stop id="stop3758" offset="0" style="stop-color:black;stop-opacity:1;"/>
      <stop id="stop3760" offset="1" style="stop-color:black;stop-opacity:0;"/>
    </linearGradient>
    <linearGradient id="linearGradient3742" inkscape:collect="always">
      <stop id="stop3744" offset="0" style="stop-color:white;stop-opacity:1;"/>
      <stop id="stop3746" offset="1" style="stop-color:white;stop-opacity:0;"/>
    </linearGradient>
    <linearGradient id="linearGradient3710" inkscape:collect="always">
      <stop id="stop3712" offset="0" style="stop-color:white;stop-opacity:1;"/>
      <stop id="stop3714" offset="1" style="stop-color:white;stop-opacity:0;"/>
    </linearGradient>
    <linearGradient id="linearGradient3695">
      <stop id="stop3697" offset="0" style="stop-color:#626262;stop-opacity:1;"/>
      <stop id="stop3699" offset="1" style="stop-color:#efefef;stop-opacity:1;"/>
    </linearGradient>
    <linearGradient gradientUnits="userSpaceOnUse" id="linearGradient3886" inkscape:collect="always" x1="53.777279" x2="34.243549" xlink:href="#linearGradient3880" y1="53.014202" y2="148.6344"/>
    <linearGradient gradientTransform="matrix(2.695388,0.213097,-0.213097,2.695388,14.72041,-36.629)" gradientUnits="userSpaceOnUse" id="linearGradient4014" inkscape:collect="always" x1="28.138407" x2="29.138409" xlink:href="#linearGradient3771" y1="5.6195269" y2="16.588285"/>
    <linearGradient gradientTransform="matrix(2.695388,0.213097,-0.213097,2.695388,14.72041,-36.629)" gradientUnits="userSpaceOnUse" id="linearGradient4017" inkscape:collect="always" x1="28.138407" x2="29.138409" xlink:href="#linearGradient3771" y1="5.6195269" y2="16.588285"/>
    <linearGradient gradientTransform="matrix(2.695388,0.213097,-0.213097,2.695388,14.72041,-36.629)" gradientUnits="userSpaceOnUse" id="linearGradient4020" inkscape:collect="always" x1="28.138407" x2="29.138409" xlink:href="#linearGradient3771" y1="5.6195269" y2="16.588285"/>
    <radialGradient cx="-36.857941" cy="75.225319" fx="-36.857941" fy="75.225319" gradientTransform="matrix(0.933029,-0.126122,13.99076,108.242,-969.0881,-8033.763)" gradientUnits="userSpaceOnUse" id="radialGradient4027" inkscape:collect="always" r="0.9722718" xlink:href="#linearGradient3853"/>
    <linearGradient gradientTransform="matrix(2.838573,0.224418,-0.224418,2.838573,15.70712,-18.07678)" gradientUnits="userSpaceOnUse" id="linearGradient4031" inkscape:collect="always" x1="4.9107008" x2="58.884792" xlink:href="#linearGradient3710" y1="44.649334" y2="36.866131"/>
    <linearGradient gradientTransform="matrix(2.838573,0.224418,-0.224418,2.838573,15.70712,-18.07678)" gradientUnits="userSpaceOnUse" id="linearGradient4034" inkscape:collect="always" x1="4.9107008" x2="58.884792" xlink:href="#linearGradient3710" y1="44.649334" y2="36.866131"/>
    <linearGradient gradientTransform="matrix(2.838573,0.224418,-0.224418,2.838573,15.70712,-18.07678)" gradientUnits="userSpaceOnUse" id="linearGradient4037" inkscape:collect="always" x1="4.9107008" x2="58.884792" xlink:href="#linearGradient3710" y1="44.649334" y2="36.866131"/>
    <linearGradient gradientTransform="matrix(2.695388,0.213097,-0.213097,2.695388,14.72041,-36.629)" gradientUnits="userSpaceOnUse" id="linearGradient4042" inkscape:collect="always" x1="20.606983" x2="14.043751" xlink:href="#linearGradient3837" y1="54.213417" y2="16.4375"/>
    <linearGradient gradientTransform="matrix(2.695388,0.213097,-0.213097,2.695388,14.72041,-36.629)" gradientUnits="userSpaceOnUse" id="linearGradient4045" inkscape:collect="always" x1="6.28125" x2="14.3125" xlink:href="#linearGradient3804" y1="35.763672" y2="35.763672"/>
    <linearGradient gradientTransform="matrix(2.695388,0.213097,-0.213097,2.695388,14.72041,-36.629)" gradientUnits="userSpaceOnUse" id="linearGradient4048" inkscape:collect="always" x1="5.323966" x2="16.25" xlink:href="#linearGradient3783" y1="55.630238" y2="54.984375"/>
    <linearGradient gradientTransform="matrix(2.695388,0.213097,-0.213097,2.695388,14.72041,-36.629)" gradientUnits="userSpaceOnUse" id="linearGradient4051" inkscape:collect="always" x1="15.6875" x2="16.753466" xlink:href="#linearGradient3783" y1="48.890625" y2="55.4375"/>
    <linearGradient gradientTransform="matrix(2.695388,0.213097,-0.213097,2.695388,14.72041,-36.629)" gradientUnits="userSpaceOnUse" id="linearGradient4054" inkscape:collect="always" x1="15.6875" x2="16.25" xlink:href="#linearGradient3783" y1="48.890625" y2="54.984375"/>
    <linearGradient gradientTransform="matrix(2.695388,0.213097,-0.213097,2.695388,14.72041,-36.629)" gradientUnits="userSpaceOnUse" id="linearGradient4057" inkscape:collect="always" x1="11.967802" x2="15.346087" xlink:href="#linearGradient3756" y1="50.304192" y2="57.638905"/>
    <linearGradient gradientTransform="matrix(2.838573,0.224418,-0.224418,2.838573,15.09863,-9.622281)" gradientUnits="userSpaceOnUse" id="linearGradient4061" inkscape:collect="always" x1="4.9107008" x2="58.884792" xlink:href="#linearGradient3710" y1="44.649334" y2="36.866131"/>
    <linearGradient gradientTransform="matrix(2.838573,0.224418,-0.224418,2.838573,15.09863,-9.622281)" gradientUnits="userSpaceOnUse" id="linearGradient4064" inkscape:collect="always" x1="4.9107008" x2="58.884792" xlink:href="#linearGradient3710" y1="44.649334" y2="36.866131"/>
    <linearGradient gradientTransform="matrix(2.838573,0.224418,-0.224418,2.838573,15.70712,-18.07678)" gradientUnits="userSpaceOnUse" id="linearGradient4068" inkscape:collect="always" x1="32.438522" x2="33.050251" xlink:href="#linearGradient3695" y1="40" y2="42.76342"/>
    <linearGradient gradientTransform="matrix(2.695388,0.213097,-0.213097,2.695388,14.72041,-36.629)" gradientUnits="userSpaceOnUse" id="linearGradient4071" inkscape:collect="always" x1="4.5181999" x2="18.826626" xlink:href="#linearGradient3814" y1="41.236893" y2="38.015541"/>
    <linearGradient gradientTransform="matrix(2.838573,0.224418,-0.224418,2.838573,15.70712,-18.07678)" gradientUnits="userSpaceOnUse" id="linearGradient4075" inkscape:collect="always" x1="36.10664" x2="38.780388" xlink:href="#linearGradient3742" y1="42.068642" y2="40.875401"/>
    <linearGradient gradientUnits="userSpaceOnUse" id="linearGradient4078" inkscape:collect="always" x1="53.777279" x2="34.243549" xlink:href="#linearGradient3880" y1="53.014202" y2="148.6344"/>
    <linearGradient gradientUnits="userSpaceOnUse" id="linearGradient4080" inkscape:collect="always" x1="53.777279" x2="34.243549" xlink:href="#linearGradient3880" y1="53.014202" y2="148.6344"/>
    <linearGradient gradientTransform="matrix(0.965146,0,0,0.965146,2.355023,1.471211)" gradientUnits="userSpaceOnUse" id="linearGradient5127" inkscape:collect="always" x1="92.956825" x2="59.82354" xlink:href="#XMLID_5_" y1="-8.9549065" y2="206.72591"/>
    <radialGradient cx="51.9995" cy="-9" gradientUnits="userSpaceOnUse" id="XMLID_5_" r="111.0006">
      <stop id="stop4094" offset="0.15000001" style="stop-color:#c20600;stop-opacity:1;"/>
      <stop id="stop2886" offset="0.57499999" style="stop-color:#860202;stop-opacity:1;"/>
      <stop id="stop4102" offset="1" style="stop-color:#760101;stop-opacity:1;"/>
    </radialGradient>
    <linearGradient gradientUnits="userSpaceOnUse" id="linearGradient5483" inkscape:collect="always" x1="74.0625" x2="108.0625" xlink:href="#linearGradient5477" y1="85.125" y2="126.0625"/>
    <linearGradient gradientTransform="translate(0,-1)" gradientUnits="userSpaceOnUse" id="linearGradient5487" inkscape:collect="always" x1="39.8125" x2="45.3125" xlink:href="#linearGradient5477" y1="79.125" y2="138.875"/>
    <linearGradient gradientTransform="translate(0,-2)" gradientUnits="userSpaceOnUse" id="linearGradient5491" inkscape:collect="always" x1="34.5625" x2="44.0625" xlink:href="#linearGradient5477" y1="99.375" y2="125.125"/>
    <linearGradient gradientTransform="translate(0,0.7)" gradientUnits="userSpaceOnUse" id="linearGradient5495" inkscape:collect="always" x1="82.3125" x2="36.3125" xlink:href="#linearGradient5477" y1="61.875" y2="128.3125"/>
    <linearGradient gradientTransform="translate(0,-3.3)" gradientUnits="userSpaceOnUse" id="linearGradient5499" inkscape:collect="always" x1="82.3125" x2="72.327019" xlink:href="#linearGradient5477" y1="61.875" y2="133.3125"/>
    <linearGradient gradientTransform="translate(0,1.7)" gradientUnits="userSpaceOnUse" id="linearGradient5503" inkscape:collect="always" x1="82.3125" x2="72.327019" xlink:href="#linearGradient5477" y1="61.875" y2="133.3125"/>
    <linearGradient gradientTransform="matrix(1.556306,0,0,1.556306,50.77552,-229.5802)" gradientUnits="userSpaceOnUse" id="linearGradient3070" inkscape:collect="always" x1="37.761684" x2="198.91217" xlink:href="#linearGradient3058" y1="-113.79204" y2="195.86526"/>
    <linearGradient gradientUnits="userSpaceOnUse" id="linearGradient3089" inkscape:collect="always" x1="-34.184532" x2="183.04672" xlink:href="#linearGradient3083" y1="36.065971" y2="46.516651"/>
    <linearGradient gradientTransform="translate(1,9.75)" gradientUnits="userSpaceOnUse" id="linearGradient2033" inkscape:collect="always" x1="5.5" x2="118.81155" xlink:href="#linearGradient3106" y1="23.5" y2="14.357233"/>
    <linearGradient gradientTransform="matrix(0.743717,-5.185456e-3,5.51366e-3,0.790789,49.17392,85.52182)" gradientUnits="userSpaceOnUse" id="linearGradient2044" inkscape:collect="always" x1="-50.616333" x2="115.02144" xlink:href="#linearGradient3106" y1="26.287924" y2="11.479097"/>
  </defs>
  <sodipodi:namedview bordercolor="#666666" borderopacity="1.0" height="128px" id="base" inkscape:current-layer="layer1" inkscape:cx="146.4869" inkscape:cy="136.44634" inkscape:document-units="px" inkscape:grid-bbox="true" inkscape:guide-bbox="true" inkscape:pageopacity="0.0" inkscape:pageshadow="2" inkscape:window-height="1012" inkscape:window-width="1095" inkscape:window-x="818" inkscape:window-y="54" inkscape:zoom="2.0000001" pagecolor="#ffffff" showgrid="false" showguides="true" width="128px"/>
  <g id="layer1" inkscape:groupmode="layer" inkscape:label="Layer 1">
    <path d="M 97.792404,4.0756182 L 35.902429,10.228423 L 29.448017,10.922122 L 28.332067,11.314212 L 27.366921,11.133247 L 20.641061,11.917428 C 19.226177,12.076011 18.190257,13.367828 18.348841,14.782704 L 17.59482,23.257891 L 28.577641,119.78887 C 29.023519,122.19945 30.773829,124.06002 32.830315,123.67962 L 47.971039,121.68901 L 48.0012,121.68901 L 114.32569,113.46028 C 116.31062,113.23781 117.68491,111.43383 117.46242,109.4489 L 116.16122,105.11949 C 117.14889,104.37034 117.72795,103.13281 117.57878,101.8018 L 101.74347,7.2123421 C 101.52101,5.2274127 99.777338,3.8531444 97.792404,4.0756182 z " id="path5469" sodipodi:nodetypes="cccccccccccccccccc" style="opacity:0.3;fill:none;fill-opacity:1;fill-rule:nonzero;stroke:black;stroke-width:0.96514583;stroke-linecap:round;stroke-linejoin:round;stroke-miterlimit:4;stroke-dasharray:none;stroke-dashoffset:4;stroke-opacity:1"/>
    <path d="M 97.792404,4.0756182 L 35.902429,10.228423 L 29.448017,10.922122 L 28.332067,11.314212 L 27.366921,11.133247 L 19.977523,11.887267 C 18.562639,12.04585 17.526719,13.337667 17.685302,14.752544 L 17.021765,23.257891 L 28.151102,120.55665 C 28.59698,122.96722 30.347291,124.82779 32.403776,124.4474 L 47.544501,122.45678 L 47.574661,122.45678 L 114.41101,114.31336 C 116.39593,114.09089 117.77021,112.28692 117.54773,110.30198 L 116.67307,105.2048 C 117.66074,104.45566 118.2398,103.21811 118.09063,101.88711 L 101.74347,7.2123421 C 101.52101,5.2274127 99.777338,3.8531444 97.792404,4.0756182 z " id="path5437" style="opacity:0.2;fill:none;fill-opacity:1;fill-rule:nonzero;stroke:black;stroke-width:2.89543724;stroke-linecap:round;stroke-linejoin:round;stroke-miterlimit:4;stroke-dasharray:none;stroke-dashoffset:4;stroke-opacity:1"/>
    <path d="M 97.792404,4.0756182 L 35.902429,10.228423 L 29.448017,10.922122 L 28.332067,11.314212 L 27.366921,11.133247 L 19.977523,11.887267 C 18.562639,12.04585 17.526719,13.337667 17.685302,14.752544 L 17.021765,23.257891 L 28.151102,120.55665 C 28.59698,122.96722 30.347291,124.82779 32.403776,124.4474 L 114.41101,114.31336 C 116.39593,114.09089 117.77021,112.28692 117.54773,110.30198 L 116.67307,105.2048 C 117.66074,104.45566 118.2398,103.21811 118.09063,101.88711 L 101.74347,7.2123421 C 101.52101,5.2274127 99.777338,3.8531444 97.792404,4.0756182 z " id="path5439" sodipodi:nodetypes="cccccccccccccccc" style="opacity:0.1;fill:none;fill-opacity:1;fill-rule:nonzero;stroke:black;stroke-width:4.82572889;stroke-linecap:round;stroke-linejoin:round;stroke-miterlimit:4;stroke-dasharray:none;stroke-dashoffset:4;stroke-opacity:1"/>
    <path d="M 97.792404,4.0756182 L 35.902429,10.228423 L 29.448017,10.922122 L 28.332067,11.314212 L 27.366921,11.133247 L 19.977523,11.887267 C 18.562639,12.04585 17.526719,13.337667 17.685302,14.752544 L 17.021765,23.257891 L 28.151102,120.55665 C 28.59698,122.96722 30.347291,124.82779 32.403776,124.4474 L 114.41101,114.31336 C 116.39593,114.09089 117.77021,112.28692 117.54773,110.30198 L 116.67307,105.2048 C 117.66074,104.45566 118.2398,103.21811 118.09063,101.88711 L 101.74347,7.2123421 C 101.52101,5.2274127 99.777338,3.8531444 97.792404,4.0756182 z " id="path5441" sodipodi:nodetypes="cccccccccccccccc" style="opacity:0.05;fill:none;fill-opacity:1;fill-rule:nonzero;stroke:black;stroke-width:6.75602055;stroke-linecap:round;stroke-linejoin:round;stroke-miterlimit:4;stroke-dasharray:none;stroke-dashoffset:4;stroke-opacity:1"/>
    <path d="M 97.753653,3.5824674 L 29.409266,10.42897 C 29.367919,10.433779 29.327369,10.443917 29.288623,10.459131 L 28.263155,10.821061 L 27.448813,10.670257 C 27.410068,10.655042 27.369517,10.644905 27.328171,10.640096 L 19.938773,11.394117 C 18.292654,11.578617 17.060824,13.070326 17.194139,14.711805 C 17.196661,14.742855 17.190647,14.77113 17.194139,14.802287 L 16.530602,23.217152 C 16.527768,23.247246 16.527768,23.277541 16.530602,23.307635 L 27.65994,120.60639 C 27.669543,120.61689 27.679607,120.62695 27.6901,120.63656 C 27.929541,121.93106 28.511123,123.09123 29.348944,123.89393 C 30.179324,124.68949 31.276595,125.12604 32.455507,124.91939 L 32.485668,124.91939 L 114.46274,114.78536 C 116.71012,114.53347 118.2723,112.49695 118.02172,110.26124 C 118.02204,110.2512 118.02204,110.24112 118.02172,110.23108 L 117.17721,105.31487 C 118.13134,104.45457 118.71898,103.22367 118.56461,101.84638 C 118.56492,101.83633 118.56492,101.82626 118.56461,101.81621 L 102.21745,7.1716033 C 102.21633,7.1616167 102.21863,7.1514028 102.21745,7.1414425 C 101.95227,4.9195406 99.97831,3.3331253 97.753653,3.5824674 z " id="path5301" sodipodi:nodetypes="cccccccscccccscccsccsccsc" style="opacity:0.3;fill:black;fill-opacity:1;fill-rule:nonzero;stroke:none;stroke-width:1;stroke-linecap:round;stroke-linejoin:round;stroke-miterlimit:4;stroke-dasharray:none;stroke-dashoffset:4;stroke-opacity:1"/>
    <path d="M 36.570581,17.536448 L 48.216306,121.43988 L 115.10747,113.29155 C 117.09241,113.06908 118.46075,111.25447 118.23827,109.26953 L 100.9342,9.4970363 C 100.71172,7.5121023 98.985556,6.1338725 97.000595,6.3563475 L 36.570581,17.536448 z " id="path2792" sodipodi:nodetypes="ccccccc" style="fill:#721919;fill-opacity:1;fill-rule:nonzero;stroke:none;stroke-width:0.1;stroke-linecap:round;stroke-linejoin:round;stroke-miterlimit:4;stroke-dasharray:none;stroke-dashoffset:4;stroke-opacity:0.1300813"/>
    <path d="M 113.81669,111.18694 C 117.30402,110.55608 116.28874,105.36648 116.97441,102.10651 L 108.79051,101.83818 L 113.81669,111.18694 z " id="path3740" sodipodi:nodetypes="cccc" style="fill:url(#linearGradient4075);fill-opacity:1;fill-rule:evenodd;stroke:none;stroke-width:1px;stroke-linecap:butt;stroke-linejoin:miter;stroke-opacity:1"/>
    <path d="M 36.808077,9.1846991 L 30.133175,9.8837085 L 29.025475,10.295044 L 28.044943,10.102391 L 20.648087,10.877005 C 19.233209,11.035587 18.210835,12.316812 18.369417,13.731689 L 17.696163,22.247406 L 28.839539,119.52079 C 29.285421,121.93137 31.034018,123.81589 33.090509,123.43549 L 48.267083,121.42809 L 49.322706,112.82291 C 50.238172,112.34747 50.80839,111.34249 50.686266,110.25292 L 39.574054,11.456353 C 39.415472,10.041478 38.222953,9.0261168 36.808077,9.1846991 z " id="rect2790" sodipodi:nodetypes="cccccccccccccc" style="fill:black;fill-opacity:1;fill-rule:nonzero;stroke:none;stroke-width:0.1;stroke-linecap:round;stroke-linejoin:round;stroke-miterlimit:4;stroke-dasharray:none;stroke-dashoffset:4;stroke-opacity:0.1300813"/>
    <path d="M 37.329177,9.7408259 L 30.659279,10.484863 L 29.524323,10.903677 L 28.52687,10.655304 L 21.176466,11.430298 C 19.76159,11.588883 18.672378,12.88125 18.83096,14.296127 L 18.158371,22.803445 L 28.768047,117.38389 C 28.785919,115.90815 31.437141,112.24478 33.179731,111.96917 L 50.039585,109.91182 C 44.231532,77.479745 41.127561,43.78341 37.329177,9.7408259 z " id="path3812" sodipodi:nodetypes="ccccccccccc" style="fill:url(#linearGradient4071);fill-opacity:1;fill-rule:nonzero;stroke:none;stroke-width:0.1;stroke-linecap:round;stroke-linejoin:round;stroke-miterlimit:4;stroke-dasharray:none;stroke-dashoffset:4;stroke-opacity:0.1300813"/>
    <path d="M 114.40208,105.05163 L 113.93985,111.16633 L 33.519749,121.11393 C 30.338857,121.7023 30.177401,115.08211 33.805396,114.69493 L 114.40208,105.05163 z " id="path2797" sodipodi:nodetypes="ccccc" style="fill:url(#linearGradient4068);fill-opacity:1;fill-rule:evenodd;stroke:none;stroke-width:1px;stroke-linecap:butt;stroke-linejoin:miter;stroke-opacity:1"/>
    <path d="M 48.266235,121.35946 L 115.05385,113.32883 C 116.94715,113.11662 118.28212,111.43694 118.20799,109.5615 C 117.90098,111.03949 116.70429,112.26465 115.12396,112.44177 L 48.176746,120.51557 L 48.266235,121.35946 z " id="path3724" sodipodi:nodetypes="cccccc" style="fill:black;fill-opacity:0.47560975;fill-rule:nonzero;stroke:none;stroke-width:0.1;stroke-linecap:round;stroke-linejoin:round;stroke-miterlimit:4;stroke-dasharray:none;stroke-dashoffset:4;stroke-opacity:0.1300813"/>
    <path d="M 48.240405,120.68826 L 115.05608,112.50205 C 116.9494,112.28984 118.28437,110.61018 118.21024,108.73474 C 117.90324,110.21273 116.70653,111.43789 115.12622,111.615 L 48.03265,119.81204 L 48.240405,120.68826 z " id="path3726" sodipodi:nodetypes="cccccc" style="opacity:0.49180328;fill:url(#linearGradient4064);fill-opacity:1;fill-rule:nonzero;stroke:none;stroke-width:0.1;stroke-linecap:round;stroke-linejoin:round;stroke-miterlimit:4;stroke-dasharray:none;stroke-dashoffset:4;stroke-opacity:0.1300813"/>
    <path d="M 48.1876,120.55786 L 115.05608,112.50205 C 116.9494,112.28984 118.28437,110.61018 118.21024,108.73474 C 117.90324,110.21273 116.66272,111.99229 115.08238,112.16942 L 48.092715,119.98179 L 48.1876,120.55786 z " id="path3728" sodipodi:nodetypes="cccccc" style="opacity:0.34426228;fill:url(#linearGradient4061);fill-opacity:1;fill-rule:nonzero;stroke:none;stroke-width:0.1;stroke-linecap:round;stroke-linejoin:round;stroke-miterlimit:4;stroke-dasharray:none;stroke-dashoffset:4;stroke-opacity:0.1300813"/>
    <g id="g5505" style="opacity:0.39754098">
      <path d="M 30.625,118.75 C 32.625,118.75 114.11742,108.58839 114.11742,108.58839" id="path5475" sodipodi:nodetypes="cc" style="fill:none;fill-opacity:0.75;fill-rule:evenodd;stroke:url(#linearGradient5483);stroke-width:0.1;stroke-linecap:butt;stroke-linejoin:miter;stroke-opacity:1;stroke-miterlimit:4;stroke-dasharray:none"/>
      <path d="M 31.066942,117.61742 C 33.066942,117.61742 114.25,107.5 114.25,107.5" id="path5485" sodipodi:nodetypes="cc" style="fill:none;fill-opacity:0.75;fill-rule:evenodd;stroke:url(#linearGradient5487);stroke-width:0.1;stroke-linecap:butt;stroke-linejoin:miter;stroke-miterlimit:4;stroke-dasharray:none;stroke-opacity:1"/>
      <path d="M 31.464689,116.79419 C 33.464689,116.79419 114.25,106.5 114.25,106.5" id="path5489" sodipodi:nodetypes="cc" style="fill:none;fill-opacity:0.75;fill-rule:evenodd;stroke:url(#linearGradient5491);stroke-width:0.1;stroke-linecap:butt;stroke-linejoin:miter;stroke-miterlimit:4;stroke-dasharray:none;stroke-opacity:1"/>
      <path d="M 31.332107,119.81742 C 33.332107,119.81742 114.02903,109.7 114.02903,109.7" id="path5493" sodipodi:nodetypes="cc" style="fill:none;fill-opacity:0.75;fill-rule:evenodd;stroke:url(#linearGradient5495);stroke-width:0.1;stroke-linecap:butt;stroke-linejoin:miter;stroke-miterlimit:4;stroke-dasharray:none;stroke-opacity:1"/>
      <path d="M 31.906631,115.81742 C 33.906631,115.81742 114.02903,105.7 114.02903,105.7" id="path5497" sodipodi:nodetypes="cc" style="fill:none;fill-opacity:0.75;fill-rule:evenodd;stroke:url(#linearGradient5499);stroke-width:0.1;stroke-linecap:butt;stroke-linejoin:miter;stroke-miterlimit:4;stroke-dasharray:none;stroke-opacity:1"/>
      <path d="M 32.039214,120.90581 C 34.039214,120.90581 114.02903,110.7 114.02903,110.7" id="path5501" sodipodi:nodetypes="cc" style="fill:none;fill-opacity:0.75;fill-rule:evenodd;stroke:url(#linearGradient5503);stroke-width:0.1;stroke-linecap:butt;stroke-linejoin:miter;stroke-miterlimit:4;stroke-dasharray:none;stroke-opacity:1"/>
    </g>
    <path d="M 48.266235,121.35946 L 115.05385,113.32883 C 116.94715,113.11662 118.28212,111.43694 118.20799,109.5615 C 117.92019,111.64351 116.62134,112.74903 115.04103,112.92614 L 48.283162,120.9658 L 48.266235,121.35946 z " id="path3732" sodipodi:nodetypes="cccccc" style="opacity:0.68999999;fill:black;fill-opacity:0.47560975;fill-rule:nonzero;stroke:none;stroke-width:0.1;stroke-linecap:round;stroke-linejoin:round;stroke-miterlimit:4;stroke-dasharray:none;stroke-dashoffset:4;stroke-opacity:0.1300813"/>
    <path d="M 114.40208,105.05163 L 113.93985,111.16633 L 33.519749,121.11393 C 30.338857,121.7023 30.177401,115.08211 33.805396,114.69493 L 114.40208,105.05163 z " id="path3754" sodipodi:nodetypes="ccccc" style="fill:url(#linearGradient4057);fill-opacity:1;fill-rule:evenodd;stroke:none;stroke-width:1px;stroke-linecap:butt;stroke-linejoin:miter;stroke-opacity:1"/>
    <path d="M 30.323763,116.57455 C 30.408002,115.85521 31.699233,114.27239 32.130588,114.08992 C 37.659649,113.48171 43.188711,112.87349 48.717771,112.26527 C 48.690475,111.89584 48.663177,111.5264 48.63588,111.15695 C 43.02037,111.78658 37.404856,112.41622 31.789345,113.04585 C 31.122266,113.06924 30.413377,115.51661 30.323763,116.57455 z " id="path3781" sodipodi:nodetypes="cccccc" style="opacity:0.42213117;fill:url(#linearGradient4054);fill-opacity:1;fill-rule:evenodd;stroke:none;stroke-width:1px;stroke-linecap:butt;stroke-linejoin:miter;stroke-opacity:1"/>
    <path d="M 30.323763,116.57455 C 30.408002,115.85521 32.162414,114.09924 32.59377,113.91677 C 38.122831,113.30856 42.868192,112.75825 48.397253,112.15004 C 48.369957,111.7806 48.276764,111.64356 48.249468,111.27411 C 42.633958,111.90374 38.821907,112.47936 32.746139,113.12663 C 31.067199,113.3055 30.413377,115.51661 30.323763,116.57455 z " id="path3791" sodipodi:nodetypes="ccccsc" style="opacity:0.42213117;fill:url(#linearGradient4051);fill-opacity:1;fill-rule:evenodd;stroke:none;stroke-width:1px;stroke-linecap:butt;stroke-linejoin:miter;stroke-opacity:1"/>
    <path d="M 30.323763,116.57455 C 30.456774,116.58919 30.543259,116.1674 30.693915,115.87939 C 31.12948,115.04669 31.926993,113.95817 32.861792,113.93796 C 38.390852,113.32974 42.868192,112.75825 48.397253,112.15004 C 48.369957,111.7806 48.218,111.85079 48.190705,111.48137 C 42.575193,112.11098 38.3617,112.8215 32.74619,113.45112 C 31.589698,113.62771 30.769537,114.79846 30.442076,115.79649 C 30.346984,116.08632 30.240555,116.57197 30.323763,116.57455 z " id="path3793" sodipodi:nodetypes="csccccsc" style="opacity:0.42213117;fill:url(#linearGradient4048);fill-opacity:1;fill-rule:evenodd;stroke:none;stroke-width:1px;stroke-linecap:butt;stroke-linejoin:miter;stroke-opacity:1"/>
    <path d="M 28.146,10.648501 L 40.465125,113.73176 L 41.664336,113.5723 L 29.12739,10.832036 L 28.146,10.648501 z " id="path3799" sodipodi:nodetypes="ccccc" style="opacity:0.36885244;fill:url(#linearGradient4045);fill-opacity:1;fill-rule:nonzero;stroke:none;stroke-width:0.1;stroke-linecap:round;stroke-linejoin:round;stroke-miterlimit:4;stroke-dasharray:none;stroke-dashoffset:4;stroke-opacity:0.1300813"/>
    <path d="M 37.726641,13.669124 L 31.056744,14.413162 L 29.921786,14.831976 L 28.924334,14.583602 L 21.573931,15.358596 C 20.159054,15.517181 19.069842,16.809548 19.228425,18.224425 L 18.555835,26.731743 L 28.768047,117.38389 C 28.785919,115.90815 30.687928,112.24548 33.179731,111.96917 L 50.039585,109.91182 C 44.231532,77.479745 41.525027,47.711708 37.726641,13.669124 z " id="path3835" sodipodi:nodetypes="ccccccccccc" style="fill:url(#linearGradient4042);fill-opacity:1;fill-rule:nonzero;stroke:none;stroke-width:0.1;stroke-linecap:round;stroke-linejoin:round;stroke-miterlimit:4;stroke-dasharray:none;stroke-dashoffset:4;stroke-opacity:0.1300813"/>
    <path d="M 36.576034,9.2019109 L 48.88956,112.92418 L 115.64536,104.89136 C 117.6303,104.66889 118.99861,102.85427 118.77615,100.86935 L 102.41452,6.1915657 C 102.19207,4.2066339 100.46587,2.8284046 98.480939,3.0508791 L 36.576034,9.2019109 z " id="rect1887" sodipodi:nodetypes="ccccccc" style="fill:url(#linearGradient5127);fill-opacity:1.0;fill-rule:nonzero;stroke:none;stroke-width:0.1;stroke-linecap:round;stroke-linejoin:round;stroke-miterlimit:4;stroke-dasharray:none;stroke-dashoffset:4;stroke-opacity:0.1300813"/>
    <path d="M 48.87475,112.90496 L 115.66234,104.87432 C 117.55566,104.66211 118.89061,102.98245 118.8165,101.10701 C 118.50951,102.58499 117.31279,103.81015 115.73246,103.98727 L 48.785261,112.06107 L 48.87475,112.90496 z " id="path3703" sodipodi:nodetypes="cccccc" style="fill:black;fill-opacity:0.47560975;fill-rule:nonzero;stroke:none;stroke-width:0.1;stroke-linecap:round;stroke-linejoin:round;stroke-miterlimit:4;stroke-dasharray:none;stroke-dashoffset:4;stroke-opacity:0.1300813"/>
    <path d="M 48.84892,112.23377 L 115.66459,104.04756 C 117.55792,103.83533 118.89288,102.15566 118.81874,100.28023 C 118.51177,101.75823 117.31503,102.98337 115.73473,103.1605 L 48.656735,110.89261 L 48.84892,112.23377 z " id="path3718" sodipodi:nodetypes="cccccc" style="opacity:0.49180328;fill:url(#linearGradient4037);fill-opacity:1;fill-rule:nonzero;stroke:none;stroke-width:0.1;stroke-linecap:round;stroke-linejoin:round;stroke-miterlimit:4;stroke-dasharray:none;stroke-dashoffset:4;stroke-opacity:0.1300813"/>
    <path d="M 36.634848,8.038675 C 35.586835,8.1747479 40.177098,55.096612 46.959072,112.91665 L 50.820869,112.41523 C 44.023618,54.597181 37.682863,7.9025997 36.634848,8.038675 z " id="path3851" style="fill:url(#radialGradient4027);fill-opacity:1;fill-rule:nonzero;stroke:none;stroke-width:0.1;stroke-linecap:round;stroke-linejoin:round;stroke-miterlimit:4;stroke-dasharray:none;stroke-dashoffset:4;stroke-opacity:0.1300813"/>
    <path d="M 48.582846,112.01805 L 115.66459,104.04756 C 117.55792,103.83533 118.89288,102.15566 118.81874,100.28023 C 118.51177,101.75823 117.2712,103.53779 115.69089,103.7149 L 48.48796,111.44198 L 48.582846,112.01805 z " id="path3708" sodipodi:nodetypes="cccccc" style="opacity:0.34426228;fill:url(#linearGradient4034);fill-opacity:1;fill-rule:nonzero;stroke:none;stroke-width:0.1;stroke-linecap:round;stroke-linejoin:round;stroke-miterlimit:4;stroke-dasharray:none;stroke-dashoffset:4;stroke-opacity:0.1300813"/>
    <path d="M 48.96673,112.10335 L 115.66459,104.04756 C 117.55792,103.83533 118.89288,102.15566 118.81874,100.28023 C 118.51177,101.75823 117.32144,103.18473 115.74112,103.36185 L 48.865275,111.21118 L 48.96673,112.10335 z " id="path3720" sodipodi:nodetypes="cccccc" style="opacity:0.34426228;fill:url(#linearGradient4031);fill-opacity:1;fill-rule:nonzero;stroke:none;stroke-width:0.1;stroke-linecap:round;stroke-linejoin:round;stroke-miterlimit:4;stroke-dasharray:none;stroke-dashoffset:4;stroke-opacity:0.1300813"/>
    <path d="M 48.87475,112.90496 L 115.66234,104.87432 C 117.55566,104.66211 118.89061,102.98245 118.8165,101.10701 C 118.5287,103.18901 117.22988,104.29453 115.64956,104.47164 L 48.891675,112.51131 L 48.87475,112.90496 z " id="path3722" sodipodi:nodetypes="cccccc" style="fill:black;fill-opacity:0.47560975;fill-rule:nonzero;stroke:none;stroke-width:0.1;stroke-linecap:round;stroke-linejoin:round;stroke-miterlimit:4;stroke-dasharray:none;stroke-dashoffset:4;stroke-opacity:0.1300813"/>
    <g id="g3876" style="fill:url(#linearGradient3886);fill-opacity:1" transform="matrix(2.695388,0.213097,-0.213097,2.695388,19.14573,-249.2679)">
      <path d="M 36.885155,90.664517 C 36.83568,90.66421 36.77929,90.690488 36.728905,90.695767 C 37.282468,90.760801 37.74132,91.14319 37.853905,91.727017 L 46.635155,126.16452 C 46.775035,126.88988 46.329267,127.61838 45.603905,127.75827 L 21.541405,132.60202 L 21.541405,132.66452 L 45.916405,127.75827 C 46.641764,127.61838 47.087535,126.88988 46.947655,126.16452 L 38.166405,91.727017 C 38.044008,91.092326 37.502511,90.668354 36.885155,90.664517 z " id="path3866" style="opacity:0.46311472;fill:url(#linearGradient4078);fill-opacity:1;fill-rule:nonzero;stroke:none;stroke-width:0.1;stroke-linecap:round;stroke-linejoin:round;stroke-miterlimit:4;stroke-dasharray:none;stroke-dashoffset:4;stroke-opacity:0.1300813"/>
      <path d="M 36.886996,90.668449 C 36.808482,90.667961 36.717555,90.685951 36.636996,90.699699 C 37.139864,90.803452 37.563335,91.186929 37.668246,91.730949 L 46.449496,126.16844 C 46.589376,126.89381 46.143604,127.62231 45.418246,127.76219 L 21.511996,132.57469 L 21.543246,132.66844 L 45.918246,127.76219 C 46.643604,127.62231 47.089376,126.89381 46.949496,126.16844 L 38.168246,91.730949 C 38.04585,91.096259 37.504352,90.672286 36.886996,90.668449 z " id="path3870" style="opacity:0.46311472;fill:url(#linearGradient4080);fill-opacity:1;fill-rule:nonzero;stroke:none;stroke-width:0.1;stroke-linecap:round;stroke-linejoin:round;stroke-miterlimit:4;stroke-dasharray:none;stroke-dashoffset:4;stroke-opacity:0.1300813"/>
    </g>
    <path d="M 99.156878,2.9957048 C 98.919279,2.9754335 98.640257,2.9921919 98.39214,3.0200019 L 36.561008,9.1924588 L 36.580894,9.744954 L 98.352186,3.5253872 C 100.33711,3.3029127 102.11486,4.7372755 102.33732,6.7222019 L 102.38393,6.1325858 C 102.18928,4.3957681 100.82008,3.137604 99.156878,2.9957048 z " id="path3769" sodipodi:nodetypes="cccccccc" style="opacity:0.34836067;fill:black;fill-opacity:1;fill-rule:nonzero;stroke:none;stroke-width:0.1;stroke-linecap:round;stroke-linejoin:round;stroke-miterlimit:4;stroke-dasharray:none;stroke-dashoffset:4;stroke-opacity:0.1300813"/>
    <path d="M 99.151088,3.3409238 C 98.913487,3.3206529 98.634464,3.337411 98.386349,3.365221 L 36.62588,9.4479135 L 36.743375,11.116353 L 98.524697,4.4161465 C 100.50964,4.1936721 102.22659,5.3015509 102.44905,7.2864771 L 102.37813,6.4778049 C 102.18349,4.7409874 100.81429,3.4828232 99.151088,3.3409238 z " id="path3779" sodipodi:nodetypes="cccccccc" style="fill:url(#linearGradient4020);fill-opacity:1;fill-rule:nonzero;stroke:none;stroke-width:0.1;stroke-linecap:round;stroke-linejoin:round;stroke-miterlimit:4;stroke-dasharray:none;stroke-dashoffset:4;stroke-opacity:0.1300813"/>
    <path d="M 99.151088,3.3409238 C 98.913487,3.3206529 98.634464,3.337411 98.386349,3.365221 L 36.612021,9.4891965 L 36.661831,10.065245 L 98.544259,4.0210965 C 100.52919,3.798622 102.20818,5.3450444 102.43063,7.3299706 L 102.37813,6.4778049 C 102.18349,4.7409874 100.81429,3.4828232 99.151088,3.3409238 z " id="path3764" sodipodi:nodetypes="cccccccc" style="fill:url(#linearGradient4017);fill-opacity:1;fill-rule:nonzero;stroke:none;stroke-width:0.1;stroke-linecap:round;stroke-linejoin:round;stroke-miterlimit:4;stroke-dasharray:none;stroke-dashoffset:4;stroke-opacity:0.1300813"/>
    <path d="M 99.151088,3.3409238 C 98.913487,3.3206529 98.634464,3.337411 98.386349,3.365221 L 36.612021,9.4891965 L 36.708099,10.600346 L 98.530341,4.1971431 C 100.51527,3.9746686 102.20818,5.3450444 102.43063,7.3299706 L 102.37813,6.4778049 C 102.18349,4.7409874 100.81429,3.4828232 99.151088,3.3409238 z " id="path3888" sodipodi:nodetypes="cccccccc" style="fill:url(#linearGradient4014);fill-opacity:1;fill-rule:nonzero;stroke:none;stroke-width:0.1;stroke-linecap:round;stroke-linejoin:round;stroke-miterlimit:4;stroke-dasharray:none;stroke-dashoffset:4;stroke-opacity:0.1300813"/>
    <path d="M 72.25,5.65625 L 69.71875,5.90625 C 75.22069,8.6395007 77.553177,19.195391 77.6875,32.59375 C 78.677555,33.295344 79.711054,33.953583 80.75,34.65625 C 80.424238,20.82116 77.872533,9.5105328 72.25,5.65625 z M 80.75,34.65625 L 78.042034,32.207187 L 77.267717,33.162522 L 77.223574,39.702167 L 77.879121,40.801571 L 80.6875,42.40625 C 90.046257,48.858216 100.97777,54.850462 111.59375,59.375 L 110.25,51.59375 C 100.02585,46.58506 89.580788,40.628752 80.75,34.65625 z M 80.6875,42.40625 C 79.612026,41.66481 78.56119,40.907095 77.53125,40.15625 C 76.930554,53.994364 74.448825,69.626243 71.0625,82.59375 L 68.340616,89.327174 L 68.10029,94.269615 L 72.817502,89.51756 L 74.765243,87.589082 L 75.65625,79.78125 C 78.453635,68.111309 80.306792,54.696326 80.6875,42.40625 z M 75.65625,79.78125 C 74.867939,83.069867 74.052917,86.185255 73.125,89.125 C 84.558643,82.030571 99.241317,74.186452 113.0625,67.8125 L 112.15625,62.59375 C 99.722845,67.160903 86.559636,73.295581 75.65625,79.78125 z M 73.125,89.125 C 71.399719,90.195506 69.749055,91.286753 68.1875,92.3125 C 64.566814,102.94583 60.343943,110.07974 56.3125,109.78125 C 62.539754,112.90118 68.607342,103.43742 73.125,89.125 z M 56.3125,109.78125 C 46.80819,103.9814 63.68913,95.403563 68.1875,92.3125 C 69.207217,89.317767 70.156976,86.061344 71.0625,82.59375 C 56.882829,91.727523 48.022484,101.16757 52.78125,107.4375 C 53.928042,108.94845 55.109457,109.69217 56.3125,109.78125 z M 77.53125,40.15625 C 77.643859,37.562228 77.71191,35.029316 77.6875,32.59375 C 62.530892,21.85316 53.417176,11.390307 61.53125,6.71875 L 60.15625,6.84375 C 49.790261,13.875014 60.264777,27.56859 77.53125,40.15625 z " id="path3066" sodipodi:nodetypes="cccccccccccccccccccccccccccccccccccscccccc" style="fill:url(#linearGradient3089);fill-opacity:1.0;fill-rule:nonzero;stroke:none;stroke-width:0.1;stroke-linecap:round;stroke-linejoin:round;stroke-miterlimit:4;stroke-dasharray:none;stroke-dashoffset:4;stroke-opacity:0.1300813"/>
    <path d="M 108.57062,94.003717 C 108.47948,94.008282 108.38992,94.032373 108.29221,94.075386 C 107.93562,94.265269 107.54126,94.565985 107.11323,94.990055 C 106.69469,95.402321 106.30826,95.881358 105.93797,96.439271 C 105.57718,96.985374 105.27802,97.570153 105.04373,98.188677 C 104.82009,98.806038 104.72218,99.414158 104.75423,100.0036 C 104.76685,100.21783 104.84013,100.42628 104.96761,100.60641 C 105.09393,100.77589 105.23734,100.92387 105.41227,101.04491 C 105.5872,101.16596 105.77193,101.24305 105.97184,101.29667 C 106.17059,101.33965 106.35008,101.34237 106.50639,101.29295 C 106.69466,101.24004 106.89153,101.15317 107.0858,101.05648 C 107.28956,100.94798 107.48327,100.84389 107.66456,100.72706 C 107.84585,100.61023 108.00086,100.48838 108.15019,100.37504 C 108.29836,100.25105 108.43514,100.14494 108.54302,100.04691 C 108.62243,99.984328 108.63464,99.934438 108.58853,99.907128 C 108.54125,99.869178 108.48233,99.892338 108.40293,99.954908 C 108.13274,100.14614 107.79599,100.3263 107.40744,100.51967 C 107.02955,100.71187 106.66378,100.85396 106.31803,100.94563 C 106.18069,100.97141 106.04067,100.97797 105.89985,100.97179 C 105.76852,100.95379 105.6651,100.92095 105.55043,100.85801 C 105.44523,100.78325 105.34948,100.67675 105.26926,100.53458 C 105.1997,100.39125 105.14071,100.19006 105.12576,99.954518 C 105.10848,99.697668 105.13067,99.454008 105.1903,99.210318 C 105.24877,98.955978 105.32493,98.724748 105.41769,98.488219 C 105.51044,98.251699 105.60822,98.017852 105.71513,97.81212 C 105.83151,97.594581 105.95995,97.401268 106.05969,97.22866 C 106.3793,97.193755 106.74832,97.151229 107.17445,97.104676 C 107.60059,97.05813 108.02677,97.013522 108.45174,96.956316 C 108.87671,96.899122 109.26227,96.834586 109.61267,96.785527 C 109.97372,96.735311 110.24752,96.692156 110.42514,96.640407 C 110.67342,96.576833 110.88019,96.452862 111.07363,96.310494 C 110.96854,96.482388 110.86342,96.626582 110.75181,96.824068 C 110.54285,97.181095 110.31669,97.580913 110.08624,98.037308 C 109.59805,98.996208 109.26736,99.750038 109.07935,100.29883 C 109.0294,100.43366 109.03403,100.53977 109.08129,100.57773 C 109.09894,100.64048 109.15269,100.65701 109.26755,100.62291 C 109.69387,100.47932 109.96326,100.32595 110.05467,100.17582 C 110.60293,99.372068 111.13272,98.643508 111.66648,98.003048 C 112.21089,97.36143 112.7673,96.787253 113.32801,96.294776 C 113.40742,96.232202 113.49779,96.209344 113.58302,96.200029 C 113.77478,96.179089 113.86815,96.259881 113.88677,96.430334 C 113.89375,96.494261 113.89197,96.547083 113.86467,96.593184 C 113.60226,97.053077 113.35779,97.527724 113.13083,98.01608 C 112.91337,98.492625 112.7052,98.991068 112.5137,99.507888 C 112.03328,100.73546 111.8175,101.73682 111.83737,102.51086 C 111.85142,102.96636 111.92644,103.32186 112.07739,103.60157 L 112.91343,103.50278 C 112.63929,103.2632 112.49821,102.88483 112.48731,102.39012 C 112.44846,101.63972 112.64463,100.61579 113.09327,99.294668 C 113.56204,97.960566 114.11441,96.755799 114.76492,95.7037 C 114.90377,95.49449 114.89404,95.368986 114.73908,95.332003 C 114.5936,95.283217 114.42824,95.343046 114.20551,95.475178 C 114.09296,95.530599 113.97077,95.612535 113.83559,95.756664 C 113.57023,95.893463 113.06318,96.342217 112.33399,97.068702 C 112.02333,97.382938 111.70982,97.704354 111.41099,98.028071 C 111.12163,98.339974 110.84767,98.643328 110.58079,98.963548 C 110.52501,99.045108 110.45976,99.097318 110.39583,99.104298 C 110.31061,99.113608 110.26805,99.059768 110.25525,98.942578 C 110.24594,98.857358 110.26331,98.767768 110.30011,98.709838 C 110.46082,98.207165 110.65657,97.730962 110.89418,97.241437 C 111.14126,96.740103 111.43625,96.214183 111.78989,95.701201 C 111.81836,95.665756 111.84021,95.627291 111.83556,95.584671 C 111.82374,95.575185 111.78226,95.591093 111.71952,95.608722 C 111.69827,95.615031 111.69258,95.625814 111.6732,95.632287 C 111.6678,95.626407 111.68202,95.612378 111.67303,95.609046 C 111.63874,95.591234 111.57934,95.622596 111.53424,95.702983 C 111.51482,95.712791 111.4804,95.716576 111.46467,95.72671 C 111.4149,95.764496 111.37558,95.810214 111.34944,95.866968 C 111.33615,95.878301 111.34055,95.902198 111.32652,95.913612 C 111.32447,95.916734 111.30533,95.910641 111.30328,95.913774 C 111.22227,95.978754 111.15396,96.057142 111.04908,96.124727 C 110.83815,96.266357 110.62167,96.362419 110.40028,96.408158 C 110.23214,96.448088 110.01728,96.468084 109.77341,96.505498 C 109.54019,96.541759 109.28309,96.586147 109.00727,96.627051 C 108.73027,96.657313 108.4337,96.692431 108.12475,96.726174 C 107.82645,96.758764 107.52988,96.793881 107.24224,96.825296 C 107.7656,96.68189 108.23927,96.482351 108.63265,96.234545 C 109.02603,95.986748 109.28979,95.708113 109.41702,95.392353 C 109.49544,95.222082 109.50203,95.046925 109.45977,94.857483 C 109.42816,94.666889 109.35921,94.486319 109.24704,94.347636 C 109.14435,94.19715 109.01778,94.105382 108.84984,94.048255 C 108.76527,94.014372 108.66175,93.999153 108.57062,94.003717 z M 108.73654,94.467406 C 108.86322,94.442796 108.94385,94.4676 109.01593,94.535185 C 109.08682,94.592128 109.13076,94.68427 109.13408,94.813269 C 109.13739,94.942283 109.08578,95.096977 108.99787,95.279064 C 108.89096,95.484799 108.74336,95.679099 108.5371,95.863334 C 108.34148,96.046415 108.11903,96.222409 107.86667,96.379339 C 107.61312,96.525624 107.34713,96.660369 107.05582,96.756869 C 106.7645,96.853379 106.47419,96.918542 106.19719,96.948794 C 106.51635,96.515054 106.86902,96.092926 107.2343,95.68648 C 107.59839,95.26939 107.94975,94.923041 108.3195,94.656252 C 108.46999,94.553573 108.61935,94.480214 108.73654,94.467406 z M 104.10516,96.916895 C 103.01734,97.024948 101.884,97.537372 100.72249,98.451229 C 99.562135,99.375748 98.785033,100.38827 98.396033,101.46571 C 98.319933,101.65729 98.290341,101.82851 98.306633,101.97766 C 98.308844,101.99789 98.327038,102.00493 98.330198,102.02398 C 98.129004,102.07962 97.929989,102.13011 97.727063,102.19088 C 98.035044,100.76654 98.248756,99.676268 98.378046,98.885938 C 98.420837,98.784238 98.466321,98.686238 98.492469,98.629478 C 98.528093,98.560898 98.570577,98.500658 98.607379,98.442734 C 98.617041,98.333876 98.549096,98.250388 98.442746,98.164975 C 98.347041,98.078407 98.226939,98.044333 98.046998,98.074765 C 97.973585,98.093567 97.905224,98.132954 97.8388,98.21567 C 97.781857,98.28658 97.720684,98.370761 97.677894,98.472458 C 97.543868,98.627248 97.358729,98.814448 97.123995,99.034138 C 96.899905,99.252668 96.617459,99.523498 96.292662,99.806928 C 95.878955,100.16476 95.512698,100.45705 95.183244,100.69787 C 94.863276,100.92687 94.584683,101.09237 94.350127,101.21501 C 94.268389,101.25628 94.181582,101.28376 94.071557,101.26343 C 93.982838,101.24079 93.919047,101.16194 93.907411,101.0554 C 93.901591,101.00214 93.929783,100.93463 93.952435,100.84591 C 94.110632,100.41896 94.363992,99.853958 94.730967,99.167028 C 95.172694,98.37492 95.507684,97.9324 95.720938,97.812076 C 95.679844,97.633297 95.588407,97.554668 95.440423,97.581609 C 95.356355,97.601576 95.110526,97.722742 94.745619,97.935087 C 94.400853,98.134463 94.225216,98.278092 94.190748,98.357317 C 94.165768,98.424732 94.167072,98.522128 94.192855,98.659448 C 94.229288,98.795628 94.23453,98.870008 94.217879,98.914938 C 93.491538,100.65451 93.117048,101.65462 93.076401,101.87467 C 93.06324,101.95157 93.075515,102.01576 93.147583,102.08336 C 93.219649,102.15095 93.308002,102.18501 93.403884,102.17454 C 93.435845,102.17105 93.481412,102.15537 93.543006,102.12709 C 94.124656,101.82637 94.885274,101.26511 95.832375,100.46092 C 96.55306,99.853948 97.16153,99.290048 97.633519,98.774918 C 97.628499,98.926398 97.617748,99.128668 97.591249,99.379508 C 97.575394,99.629208 97.527183,99.938438 97.481525,100.30997 C 97.380528,101.16189 97.289497,101.84685 97.170247,102.33422 C 95.605962,102.81773 94.090088,103.35692 92.626162,103.96962 C 91.151582,104.58347 89.688767,105.26178 88.270761,105.99882 C 88.010833,106.13566 87.775731,106.26293 87.529798,106.39911 L 88.342591,106.30047 C 90.882846,104.89104 93.817503,103.65544 97.125548,102.5902 C 96.969137,103.32958 96.798677,104.073 96.606233,104.77859 C 96.054235,105.03002 95.501195,105.28659 94.961459,105.55705 L 95.820733,105.45809 C 96.04204,105.3496 96.265858,105.23444 96.492458,105.12802 C 96.467309,105.21663 96.427003,105.29625 96.401276,105.38432 L 96.935498,105.33411 C 96.978913,105.18333 97.005787,105.02202 97.048463,104.86847 C 98.819654,104.06526 100.73777,103.32503 102.82028,102.64346 C 102.67265,103.34897 102.50362,104.0427 102.3234,104.71549 L 102.83422,104.6422 C 103.0195,103.96019 103.20621,103.25864 103.37726,102.52337 C 103.68473,102.41829 104.02352,102.32771 104.37469,102.2375 C 104.33879,102.65316 104.1198,103.14171 103.64118,103.70688 C 103.54278,103.79309 103.49619,103.8531 103.50319,103.91702 C 103.50434,103.92767 103.50527,103.94243 103.52659,103.9401 C 103.5905,103.93312 103.6587,103.87049 103.73463,103.77596 C 104.24089,103.27865 104.54692,102.91212 104.65633,102.63066 C 104.70977,102.5278 104.73858,102.3968 104.72347,102.25831 C 104.71928,102.22003 104.70839,102.17921 104.69942,102.14227 C 104.94157,102.08519 105.18051,102.02491 105.442,101.97439 C 106.22453,101.83501 107.09633,101.71336 108.06581,101.60746 C 108.31084,101.5807 108.52447,101.57739 108.71625,101.55645 C 108.91982,101.54499 109.1003,101.53511 109.25063,101.52948 C 109.7773,101.51508 110.0493,101.6979 110.0912,102.08143 C 110.1424,102.55019 109.90045,103.10554 109.33591,103.76015 C 109.26779,103.81983 109.23845,103.87464 109.22083,103.92364 L 109.38336,103.89927 C 109.40587,103.8794 109.42848,103.87914 109.45276,103.8523 C 109.95902,103.35499 110.26489,102.96522 110.37431,102.68376 C 110.41593,102.5714 110.43215,102.43942 110.4182,102.31157 C 110.40305,102.17307 110.35387,102.03831 110.27599,101.91744 C 110.1981,101.79659 110.09091,101.69973 109.97159,101.59418 C 109.86407,101.49811 109.75717,101.40157 109.62119,101.34095 C 109.49584,101.27919 109.36819,101.25909 109.24869,101.25058 C 109.0972,101.24557 108.91871,101.23027 108.71398,101.23107 C 108.52104,101.24136 108.28356,101.27656 108.01722,101.30566 C 106.91757,101.42577 105.7907,101.6133 104.60483,101.91051 C 104.59607,101.89512 104.591,101.87929 104.58127,101.86419 C 104.50337,101.74333 104.39502,101.63581 104.27686,101.54091 C 104.16933,101.44485 104.0626,101.37154 103.92662,101.31094 C 103.83998,101.26824 103.75417,101.237 103.67032,101.21975 C 103.79138,100.67022 103.93616,100.07169 104.031,99.613518 C 104.19689,98.862318 104.32144,98.23482 104.43605,97.704826 C 104.51797,97.566515 104.56523,97.415688 104.57258,97.285513 C 104.56327,97.200291 104.51423,97.120508 104.43151,97.054074 C 104.35944,96.986485 104.28584,96.951492 104.19829,96.939489 C 104.17465,96.920515 104.14777,96.912246 104.10516,96.916895 z M 94.276421,97.310817 C 94.244751,97.316971 94.195497,97.332732 94.160539,97.35811 C 93.959101,97.487926 93.687926,97.694113 93.351312,97.968051 C 93.025341,98.240835 92.698779,98.538298 92.334859,98.858348 C 91.970932,99.178398 91.604371,99.502128 91.27241,99.818688 C 90.93928,100.1246 90.695435,100.3626 90.510475,100.54451 C 90.440914,100.40118 90.363465,100.21984 90.297578,100.01142 C 90.241177,99.791188 90.174162,99.581038 90.107111,99.361968 C 90.049548,99.131078 89.99612,98.909348 89.939724,98.689108 C 89.882161,98.458225 89.823401,98.252941 89.772822,98.085971 C 89.751694,97.991259 89.7225,97.929935 89.678723,97.923931 C 89.63378,97.907286 89.601964,97.934613 89.562842,97.971223 C 89.522553,97.997188 89.495827,98.043911 89.470849,98.111318 C 89.032604,98.148618 88.632181,98.185335 88.286198,98.212547 C 87.944117,98.239137 87.649711,98.272323 87.403521,98.288428 C 87.381046,98.28011 87.379181,98.250602 87.356715,98.242271 C 87.344894,98.232789 87.309296,98.227848 87.286829,98.219515 C 86.955763,98.05085 86.710943,97.986264 86.541653,98.01553 C 86.308437,98.051794 86.080514,98.189251 85.870577,98.438571 C 85.800655,98.489334 85.751148,98.528018 85.708537,98.532668 C 85.697881,98.533838 85.497768,98.552898 85.104753,98.606608 C 84.860882,98.644028 84.736767,98.692058 84.710626,98.748808 C 84.684484,98.805568 84.661623,98.856628 84.665116,98.888578 C 84.672096,98.952508 84.725071,99.009278 84.8291,99.073378 C 84.931963,99.126828 85.030505,99.167928 85.132208,99.210718 C 85.198454,99.225038 85.214291,99.293848 85.179824,99.373078 C 83.962076,101.25256 83.390301,102.63559 83.465581,103.52216 C 83.47489,103.60739 83.509406,103.684 83.560167,103.75392 C 83.62158,103.82268 83.700731,103.86886 83.770471,103.91515 C 83.850864,103.96028 83.915975,103.9945 84.003531,104.0065 C 84.09225,104.02914 84.185772,104.02352 84.259184,104.00471 C 85.181566,103.7638 86.206253,103.0339 87.335187,101.82173 C 87.915046,101.20859 88.319786,100.65471 88.578704,100.16286 C 88.847101,99.659198 88.97666,99.220448 88.964405,98.812118 C 88.962073,98.790818 88.954655,98.750118 88.940516,98.719318 C 88.926365,98.688518 88.930765,98.657318 88.916627,98.626518 C 88.891822,98.596888 88.874916,98.568008 88.892737,98.533708 C 88.967263,98.407872 89.16879,98.338623 89.448905,98.29741 C 89.477021,98.452752 89.513733,98.655308 89.569161,98.877628 C 89.626724,99.108518 89.690572,99.333198 89.759952,99.573568 C 89.82933,99.813948 89.904765,100.05221 89.974146,100.29259 C 90.053015,100.52115 90.127297,100.71701 90.187367,100.87215 C 89.954955,101.11315 89.70594,101.39086 89.426081,101.69095 C 89.145055,101.98038 88.859663,102.29338 88.57264,102.62659 C 88.285618,102.9598 87.994892,103.28926 87.719685,103.63195 C 87.434992,103.98647 87.169208,104.32203 86.936616,104.66007 C 86.725332,104.99579 86.543044,105.34191 86.362555,105.6635 C 86.192621,105.97833 86.072326,106.27767 85.997016,106.57249 L 86.298989,106.54714 C 86.309462,106.51571 86.309926,106.48548 86.321582,106.45402 C 86.43815,106.13942 86.583522,105.83298 86.756844,105.54453 C 86.930172,105.25608 87.086115,105.00756 87.216644,104.82082 C 87.477706,104.44732 87.761177,104.1004 88.045872,103.74589 C 88.331731,103.40202 88.607705,103.0735 88.875748,102.76393 C 89.154443,102.45319 89.407558,102.17572 89.660113,101.92174 C 89.912667,101.66776 90.14654,101.45036 90.352811,101.26612 C 90.43884,101.46156 90.546092,101.6725 90.682886,101.93785 C 90.818511,102.19254 90.959289,102.46094 91.106736,102.72513 C 91.263667,102.9775 91.423136,103.22195 91.576583,103.44236 C 91.730022,103.66278 91.8664,103.82096 91.975086,103.92767 C 92.10507,104.03206 92.203846,104.06906 92.25479,104.04194 C 92.31638,104.01365 92.258855,103.93309 92.11356,103.78725 C 91.98124,103.66156 91.837446,103.46268 91.691168,103.20914 C 91.546049,102.96626 91.40527,102.69787 91.267318,102.42186 C 91.140013,102.14469 91.028511,101.87853 90.913029,101.61085 C 90.797543,101.34317 90.703416,101.12885 90.652839,100.96188 C 90.857943,100.76698 91.127964,100.5184 91.461094,100.21249 C 91.794218,99.906588 92.146188,99.607028 92.500626,99.298788 C 92.853893,98.979918 93.203697,98.682288 93.540321,98.408337 C 93.876933,98.134399 94.148879,97.919722 94.372789,97.798233 C 94.453357,97.746313 94.496771,97.700827 94.511102,97.634573 C 94.524257,97.557678 94.524337,97.498588 94.486564,97.448806 C 94.459431,97.39787 94.403059,97.359721 94.346306,97.333572 C 94.317924,97.320503 94.308091,97.304663 94.276421,97.310817 z M 103.50414,97.385932 C 103.57987,97.388444 103.62474,97.495335 103.64569,97.687095 C 103.6362,97.698916 103.64268,97.724862 103.64617,97.756819 C 103.65682,97.755658 103.66841,97.769248 103.66958,97.779897 C 103.67951,98.16692 103.54842,98.48063 103.3042,98.712138 C 103.11207,98.927178 102.868,99.169278 102.56567,99.461038 C 102.27282,99.740988 101.92951,100.06456 101.52646,100.42122 C 100.89184,100.98913 100.43921,101.37523 100.11685,101.59316 C 99.895527,101.6387 99.667357,101.68524 99.443829,101.73731 C 99.344162,101.6651 99.277323,101.54655 99.255145,101.3435 C 99.249327,101.29024 99.234422,101.23618 99.230932,101.20422 C 99.238094,101.1711 99.248365,101.11905 99.253201,101.06461 C 99.404775,100.37965 99.846757,99.691168 100.58661,98.963508 C 101.28966,98.293778 102.02686,97.819708 102.78479,97.553643 C 103.14719,97.417036 103.38229,97.356123 103.50414,97.385932 z M 87.754569,98.634618 C 88.239793,98.635518 88.448545,98.813638 88.408886,99.141388 C 88.334028,99.936548 87.809551,100.85357 86.847771,101.9181 C 85.936925,102.95551 85.131889,103.57484 84.420252,103.77117 C 84.086321,103.87233 83.912012,103.79817 83.884084,103.54248 C 83.871282,103.4253 83.877015,103.31771 83.928136,103.19355 C 84.385449,101.65587 85.129445,100.28984 86.15417,99.110618 C 86.302334,98.986628 86.386214,98.937828 86.408688,98.946148 C 86.592303,98.850628 86.81334,98.778358 87.034741,98.732608 C 87.25497,98.676208 87.495388,98.630588 87.754569,98.634618 z M 103.58326,98.733428 C 103.5546,98.865938 103.54193,99.034288 103.51677,99.198738 C 103.5011,99.351388 103.46069,99.500528 103.42721,99.687458 C 103.33397,100.25252 103.24837,100.74893 103.15869,101.17683 C 102.92002,101.17722 102.65146,101.21646 102.32249,101.25239 C 101.71814,101.3184 101.11022,101.40262 100.48823,101.52085 C 100.87271,101.21507 101.28484,100.87958 101.78228,100.44268 C 102.22444,100.0494 102.59704,99.728058 102.89105,99.458768 C 103.19454,99.177668 103.42076,98.923678 103.58326,98.733428 z M 117.5312,99.101028 C 117.45661,99.109178 117.39064,99.142528 117.29943,99.195618 C 117.21885,99.247538 117.17753,99.318438 117.18452,99.382358 C 117.188,99.414318 117.21195,99.433008 117.25457,99.428348 C 117.30783,99.422528 117.351,99.412888 117.41726,99.427218 C 117.48233,99.430888 117.55539,99.470268 117.60384,99.518888 C 117.66174,99.555678 117.68661,99.620868 117.69825,99.727408 C 117.75527,100.24943 117.33013,100.99415 116.41231,101.96763 C 115.86683,102.54364 115.37479,102.95628 114.93378,103.25626 L 115.51449,103.20574 C 115.89412,102.90604 116.2573,102.55045 116.59937,102.12902 C 116.93151,101.71542 117.19691,101.32898 117.40471,100.9613 C 117.61249,100.59362 117.73038,100.23212 117.79251,99.912688 C 117.83548,99.713948 117.87179,99.564568 117.859,99.447378 C 117.83223,99.202348 117.71229,99.081248 117.5312,99.101028 z M 103.62546,101.45249 C 104.07943,101.45713 104.31403,101.65288 104.3729,101.98185 C 104.07059,102.06013 103.7529,102.15429 103.44504,102.24398 C 103.51297,101.9443 103.5639,101.72996 103.62546,101.45249 z M 103.02151,101.50318 C 103.04771,101.50032 103.06591,101.50528 103.09124,101.5027 C 103.01378,101.84254 102.93971,102.15227 102.86498,102.38749 C 100.89004,102.99097 98.979544,103.70718 97.138997,104.51921 C 97.319475,103.8524 97.515605,103.18764 97.682525,102.4701 C 97.908686,102.39652 98.149294,102.3231 98.401543,102.2559 C 98.503076,102.43228 98.694399,102.51355 98.96095,102.48443 C 99.078136,102.47163 99.180862,102.45386 99.2626,102.4126 C 99.461911,102.29575 99.722887,102.07889 99.979507,101.89627 C 100.7025,101.7643 101.49834,101.64953 102.37108,101.5542 C 102.61611,101.52744 102.82857,101.51348 103.02151,101.50318 z " id="path2024" style="opacity:0.59836067;fill:url(#linearGradient2044);fill-opacity:1;fill-rule:nonzero;stroke:none;stroke-width:0.1;stroke-linecap:round;stroke-linejoin:round;stroke-miterlimit:4;stroke-dasharray:none;stroke-dashoffset:4;stroke-opacity:1"/>
  </g>
</svg>
