<?xml version="1.0" encoding="UTF-8" standalone="no"?>
<!-- Created with Inkscape (http://www.inkscape.org/) -->

<svg
   xmlns:osb="http://www.openswatchbook.org/uri/2009/osb"
   xmlns:dc="http://purl.org/dc/elements/1.1/"
   xmlns:cc="http://creativecommons.org/ns#"
   xmlns:rdf="http://www.w3.org/1999/02/22-rdf-syntax-ns#"
   xmlns:svg="http://www.w3.org/2000/svg"
   xmlns="http://www.w3.org/2000/svg"
   xmlns:sodipodi="http://sodipodi.sourceforge.net/DTD/sodipodi-0.dtd"
   xmlns:inkscape="http://www.inkscape.org/namespaces/inkscape"
   width="32"
   height="32"
   id="svg2"
   version="1.1"
   inkscape:version="0.48.3.1 r9886"
   sodipodi:docname="bold.svg">
  <defs
     id="defs4">
    <linearGradient
       id="linearGradient3757"
       osb:paint="solid">
      <stop
         style="stop-color:#000000;stop-opacity:1;"
         offset="0"
         id="stop3759" />
    </linearGradient>
  </defs>
  <sodipodi:namedview
     id="base"
     pagecolor="#ffffff"
     bordercolor="#666666"
     borderopacity="1.0"
     inkscape:pageopacity="0.0"
     inkscape:pageshadow="2"
     inkscape:zoom="13.774016"
     inkscape:cx="8.443437"
     inkscape:cy="-2.4253657"
     inkscape:document-units="px"
     inkscape:current-layer="layer1"
     showgrid="false"
     inkscape:window-width="1680"
     inkscape:window-height="995"
     inkscape:window-x="-2"
     inkscape:window-y="-3"
     inkscape:window-maximized="1"
     showborder="true" />
  <metadata
     id="metadata7">
    <rdf:RDF>
      <cc:Work
         rdf:about="">
        <dc:format>image/svg+xml</dc:format>
        <dc:type
           rdf:resource="http://purl.org/dc/dcmitype/StillImage" />
        <dc:title />
      </cc:Work>
    </rdf:RDF>
  </metadata>
  <g
     inkscape:label="Layer 1"
     inkscape:groupmode="layer"
     id="layer1"
     transform="translate(0,-1020.3622)">
    <g
       style="font-size:40px;font-style:normal;font-variant:normal;font-weight:bold;font-stretch:normal;text-align:start;line-height:125%;letter-spacing:0px;word-spacing:0px;writing-mode:lr-tb;text-anchor:start;fill:#ffffff;fill-opacity:1;stroke:#808080;stroke-opacity:1;font-family:FreeSerif;-inkscape-font-specification:FreeSerif Bold"
       id="text2985"
       transform="translate(-8,8)">
      <path
         d="m 28.34,1027.2822 c 5.146645,1.0933 7.719975,3.4533 7.72,7.08 -2.5e-5,2.2667 -1.02669,4.0933 -3.08,5.48 -2.053353,1.36 -4.77335,2.04 -8.16,2.04 l -12.88,0 0,-1 c 1.466665,-0.16 2.41333,-0.4133 2.84,-0.76 0.45333,-0.3733 0.679996,-1.0667 0.68,-2.08 l 0,-19.36 c -4e-6,-1.0133 -0.240004,-1.72 -0.72,-2.12 -0.480003,-0.4 -1.413335,-0.64 -2.8,-0.72 l 0,-1 12.36,0 c 3.333317,0 5.893315,0.56 7.68,1.68 1.813311,1.0934 2.719977,2.6667 2.72,4.72 -2.3e-5,1.52 -0.480023,2.7467 -1.44,3.68 -0.960021,0.9067 -2.600019,1.6934 -4.92,2.36 m -6.48,0.88 0,10 c -10e-6,0.88 0.186656,1.5067 0.56,1.88 0.373322,0.3733 0.999988,0.56 1.88,0.56 3.253317,0 4.879982,-1.96 4.88,-5.88 -1.8e-5,-4.3733 -2.040016,-6.56 -6.12,-6.56 l -1.2,0 m 0,-10.16 0,8.96 c 2.453321,-0.053 4.106652,-0.44 4.96,-1.16 0.853317,-0.7466 1.279983,-2.1733 1.28,-4.28 -1.7e-5,-1.8933 -0.33335,-3.28 -1,-4.16 -0.666682,-0.88 -1.693347,-1.32 -3.08,-1.32 -0.773345,0 -1.333345,0.1467 -1.68,0.44 -0.320011,0.2934 -0.48001,0.8 -0.48,1.52"
         style="fill:#ffffff;fill-opacity:1"
         id="path2987"
         inkscape:connector-curvature="0" />
    </g>
  </g>
</svg>
