<svg width="16px" height="16px" enable-background="new" version="1.1" xmlns="http://www.w3.org/2000/svg" xmlns:xlink="http://www.w3.org/1999/xlink">
 <defs>
  <linearGradient id="linearGradient3814" x1="8.8297" x2="3.1985" y1="9.8282" y2="2.7104" gradientTransform="translate(.012624 .0043937)" gradientUnits="userSpaceOnUse">
   <stop stop-color="#fff" stop-opacity="0" offset="0"/>
   <stop stop-color="#e3e3e3" stop-opacity=".39665" offset=".5"/>
   <stop stop-color="#fff" stop-opacity="0" offset="1"/>
  </linearGradient>
 </defs>
 <g>
  <path transform="matrix(.9353 0 0 .9353 .5 .53519)" d="m16.038 7.9812a8.0188 8.0188 0 1 1-16.038 0 8.0188 8.0188 0 1 1 16.038 0z" color="#000000" enable-background="accumulate" fill="#4d4d4d"/>
  <g fill="#ececec">
   <path d="m12.749 12.962c-0.52851 0.27422-1.0794 0.48114-1.6528 0.62074-0.57338 0.1396-1.1717 0.20941-1.7949 0.20941-1.8597 0-3.3331-0.51853-4.42-1.5556-1.0869-1.042-1.6304-2.453-1.6304-4.233-7e-7 -1.7849 0.54346-3.1959 1.6304-4.233 1.0869-1.042 2.5602-1.5631 4.42-1.5631 0.62322 1.14e-5 1.2215 0.069813 1.7949 0.20941 0.57336 0.13962 1.1243 0.34653 1.6528 0.62074v2.3109c-0.5335-0.36396-1.0595-0.6307-1.578-0.80023-0.51854-0.16951-1.0645-0.25427-1.6379-0.25428-1.0271 9.3e-6 -1.8348 0.32908-2.4231 0.9872-0.58834 0.65814-0.8825 1.5656-0.8825 2.7223-3.7e-6 1.1517 0.29416 2.0567 0.8825 2.7148 0.58833 0.65814 1.396 0.9872 2.4231 0.9872 0.57337 2e-6 1.1193-0.08476 1.6379-0.25428 0.51852-0.16952 1.0445-0.43626 1.578-0.80023v2.3109" style=""/>
  </g>
  <path d="m8 0.5c-4.1421 0-7.5 3.3579-7.5 7.5 0 4.1421 3.3579 7.5 7.5 7.5 4.1421 0 7.5-3.3579 7.5-7.5 0-4.1421-3.3579-7.5-7.5-7.5z" color="#000000" enable-background="accumulate" fill="url(#linearGradient3814)"/>
 </g>
</svg>
