<?xml version="1.0" encoding="UTF-8" standalone="no"?>
<!-- Created with Inkscape (http://www.inkscape.org/) -->

<svg
   xmlns:dc="http://purl.org/dc/elements/1.1/"
   xmlns:cc="http://creativecommons.org/ns#"
   xmlns:rdf="http://www.w3.org/1999/02/22-rdf-syntax-ns#"
   xmlns:svg="http://www.w3.org/2000/svg"
   xmlns="http://www.w3.org/2000/svg"
   xmlns:sodipodi="http://sodipodi.sourceforge.net/DTD/sodipodi-0.dtd"
   xmlns:inkscape="http://www.inkscape.org/namespaces/inkscape"
   width="100"
   height="100"
   id="svg3018"
   version="1.1"
   inkscape:version="0.48.3.1 r9886"
   sodipodi:docname="count.svg">
  <defs
     id="defs3020">
    <clipPath
       id="presentation_clip_path"
       clipPathUnits="userSpaceOnUse">
      <rect
         x="0"
         y="0"
         width="21000"
         height="29700"
         id="rect7" />
    </clipPath>
  </defs>
  <sodipodi:namedview
     id="base"
     pagecolor="#ffffff"
     bordercolor="#666666"
     borderopacity="1.0"
     inkscape:pageopacity="0.0"
     inkscape:pageshadow="2"
     inkscape:zoom="7.89"
     inkscape:cx="28.770596"
     inkscape:cy="50"
     inkscape:document-units="px"
     inkscape:current-layer="g15"
     showgrid="false"
     inkscape:window-width="1680"
     inkscape:window-height="995"
     inkscape:window-x="-2"
     inkscape:window-y="-3"
     inkscape:window-maximized="1" />
  <metadata
     id="metadata3023">
    <rdf:RDF>
      <cc:Work
         rdf:about="">
        <dc:format>image/svg+xml</dc:format>
        <dc:type
           rdf:resource="http://purl.org/dc/dcmitype/StillImage" />
        <dc:title />
      </cc:Work>
    </rdf:RDF>
  </metadata>
  <g
     inkscape:label="Layer 1"
     inkscape:groupmode="layer"
     id="layer1"
     transform="translate(0,-952.36218)">
    <g
       style="fill-rule:evenodd;stroke-width:12.44864157;stroke-linejoin:round;visibility:visible;stroke-miterlimit:4;stroke-dasharray:none"
       id="g15"
       class="com.sun.star.drawing.PolyPolygonShape"
       transform="matrix(0.08033005,0,0,0.08033005,-434.86051,486.09299)">
      <g
         transform="matrix(12.448642,0,0,12.448642,5344.8768,5654.0025)"
         style="font-size:40px;font-style:normal;font-weight:normal;line-height:125%;letter-spacing:0px;word-spacing:0px;fill:#000000;fill-opacity:1;stroke:#000000;font-family:Sans;stroke-opacity:1;stroke-width:0.99999997;stroke-miterlimit:4;stroke-dasharray:none"
         id="flowRoot3779">
        <path
           d="m 16.023437,47.362154 6.445313,0 0,-22.246094 -7.011719,1.40625 0,-3.59375 6.972656,-1.40625 3.945313,0 0,25.839844 6.445312,0 0,3.320312 -16.796875,0 0,-3.320312"
           style="stroke:#000000;stroke-opacity:1;stroke-width:0.99999997;stroke-miterlimit:4;stroke-dasharray:none"
           id="path3810" />
      </g>
      <g
         transform="matrix(12.448642,0,0,12.448642,5724.1695,5965.5217)"
         style="font-size:40px;font-style:normal;font-weight:normal;line-height:125%;letter-spacing:0px;word-spacing:0px;fill:#000000;fill-opacity:1;stroke:#000000;font-family:Sans;stroke-width:0.99999996999999996;stroke-miterlimit:4;stroke-dasharray:none;stroke-opacity:1"
         id="flowRoot3789">
        <path
           d="m 18.738281,47.362154 13.769531,0 0,3.320312 -18.515624,0 0,-3.320312 c 1.497391,-1.549474 3.535149,-3.626295 6.113281,-6.230469 2.591134,-2.617175 4.218736,-4.303371 4.882812,-5.058594 1.263006,-1.419254 2.141911,-2.61717 2.636719,-3.59375 0.507795,-0.989564 0.761701,-1.959615 0.761719,-2.910156 -1.8e-5,-1.549456 -0.546892,-2.812476 -1.640625,-3.789062 -1.080744,-0.976537 -2.493503,-1.464818 -4.238282,-1.464844 -1.236989,2.6e-5 -2.545581,0.21487 -3.925781,0.644531 -1.367193,0.429713 -2.832036,1.080754 -4.394531,1.953125 l 0,-3.984375 c 1.588537,-0.637992 3.07291,-1.119763 4.453125,-1.445312 1.380199,-0.325492 2.643219,-0.488252 3.789062,-0.488282 3.020819,3e-5 5.429671,0.755238 7.226563,2.265625 1.796855,1.510443 2.695291,3.52867 2.695312,6.054688 -2.1e-5,1.197937 -0.227885,2.337259 -0.683593,3.417969 -0.442729,1.067725 -1.25653,2.330744 -2.441407,3.789062 -0.325538,0.377618 -1.360693,1.471367 -3.105468,3.28125 -1.744805,1.796884 -4.20574,4.316413 -7.382813,7.558594"
           style="stroke-width:0.99999996999999996;stroke-miterlimit:4;stroke-dasharray:none;stroke:#000000;stroke-opacity:1"
           id="path3813" />
      </g>
      <g
         transform="matrix(12.448642,0,0,12.448642,6098.1131,6277.0409)"
         style="font-size:40px;font-style:normal;font-weight:normal;line-height:125%;letter-spacing:0px;word-spacing:0px;fill:#000000;fill-opacity:1;stroke:#000000;font-family:Sans;stroke-opacity:1;stroke-width:0.99999997;stroke-miterlimit:4;stroke-dasharray:none"
         id="flowRoot3797">
        <path
           d="m 27.292969,34.95981 c 1.888002,0.403661 3.359355,1.243504 4.414062,2.519531 1.067687,1.276054 1.601541,2.851573 1.601563,4.726563 -2.2e-5,2.87761 -0.989605,5.10417 -2.96875,6.679687 -1.979184,1.575521 -4.791681,2.363281 -8.4375,2.363282 -1.223968,-1e-6 -2.486988,-0.123699 -3.789063,-0.371094 -1.289068,-0.234375 -2.623702,-0.592448 -4.003906,-1.074219 l 0,-3.808594 c 1.093746,0.638025 2.291661,1.119796 3.59375,1.445313 1.302075,0.325524 2.662751,0.488284 4.082031,0.488281 2.473945,3e-6 4.355454,-0.488278 5.644531,-1.464844 1.302066,-0.976557 1.953107,-2.395826 1.953125,-4.257812 -1.8e-5,-1.71874 -0.605486,-3.059884 -1.816406,-4.023438 -1.197932,-0.976549 -2.871107,-1.464829 -5.019531,-1.464843 l -3.398438,0 0,-3.242188 3.554688,0 c 1.940091,1.7e-5 3.424464,-0.384097 4.453125,-1.152344 1.028629,-0.78123 1.542951,-1.901021 1.542969,-3.359375 -1.8e-5,-1.497372 -0.533872,-2.643204 -1.601563,-3.4375 -1.054702,-0.807265 -2.571628,-1.210911 -4.550781,-1.210937 -1.08074,2.6e-5 -2.239593,0.117214 -3.476563,0.351562 -1.236985,0.234401 -2.597661,0.598984 -4.082031,1.09375 l 0,-3.515625 c 1.497391,-0.416637 2.897129,-0.729137 4.199219,-0.9375 1.315095,-0.208303 2.552073,-0.31247 3.710937,-0.3125 2.994777,3e-5 5.364567,0.683623 7.109375,2.050782 1.744771,1.354193 2.617166,3.190128 2.617188,5.507812 -2.2e-5,1.614604 -0.462261,2.98179 -1.386719,4.101563 -0.924498,1.106787 -2.239601,1.875016 -3.945312,2.304687"
           style="stroke:#000000;stroke-opacity:1;stroke-width:0.99999997;stroke-miterlimit:4;stroke-dasharray:none"
           id="path3816" />
      </g>
    </g>
  </g>
</svg>
