<?xml version="1.0" encoding="UTF-8" standalone="no"?>
<!-- Created with Inkscape (http://www.inkscape.org/) -->

<svg
   xmlns:dc="http://purl.org/dc/elements/1.1/"
   xmlns:cc="http://creativecommons.org/ns#"
   xmlns:rdf="http://www.w3.org/1999/02/22-rdf-syntax-ns#"
   xmlns:svg="http://www.w3.org/2000/svg"
   xmlns="http://www.w3.org/2000/svg"
   xmlns:sodipodi="http://sodipodi.sourceforge.net/DTD/sodipodi-0.dtd"
   xmlns:inkscape="http://www.inkscape.org/namespaces/inkscape"
   width="48"
   height="48"
   id="svg2"
   version="1.1"
   inkscape:version="0.91 r13725"
   sodipodi:docname="font_textsc48.svg">
  <defs
     id="defs4" />
  <sodipodi:namedview
     id="base"
     pagecolor="#ffffff"
     bordercolor="#666666"
     borderopacity="1.0"
     inkscape:pageopacity="0.0"
     inkscape:pageshadow="2"
     inkscape:zoom="16.4375"
     inkscape:cx="6.0836499"
     inkscape:cy="23.939163"
     inkscape:document-units="px"
     inkscape:current-layer="layer1"
     showgrid="true"
     inkscape:window-width="1920"
     inkscape:window-height="1138"
     inkscape:window-x="-8"
     inkscape:window-y="-8"
     inkscape:window-maximized="1">
    <inkscape:grid
       type="xygrid"
       id="grid2989"
       empspacing="5"
       visible="true"
       enabled="true"
       snapvisiblegridlinesonly="true" />
  </sodipodi:namedview>
  <metadata
     id="metadata7">
    <rdf:RDF>
      <cc:Work
         rdf:about="">
        <dc:format>image/svg+xml</dc:format>
        <dc:type
           rdf:resource="http://purl.org/dc/dcmitype/StillImage" />
        <dc:title />
      </cc:Work>
    </rdf:RDF>
  </metadata>
  <g
     inkscape:label="Layer 1"
     inkscape:groupmode="layer"
     id="layer1"
     transform="translate(0,-1004.3622)">
    <rect
       style="fill:#ffffff;fill-opacity:1;stroke:#000000;stroke-width:1;stroke-linecap:butt;stroke-linejoin:miter;stroke-miterlimit:4;stroke-opacity:1;stroke-dasharray:none"
       id="rect2991"
       width="46"
       height="46"
       x="1"
       y="1"
       transform="translate(0,1004.3622)" />
    <g
       style="font-style:normal;font-variant:normal;font-weight:normal;font-stretch:normal;font-size:40px;line-height:125%;font-family:Serif;-inkscape-font-specification:Serif;text-align:start;letter-spacing:0px;word-spacing:0px;writing-mode:lr-tb;text-anchor:start;fill:#000000;fill-opacity:1;stroke:none"
       id="text2985">
      <path
         d="m 3.5371094,1041.868 0,-6.6406 2.2460937,0.02 q 0.097656,3.3204 1.9140625,4.9219 1.8359375,1.5821 5.5664064,1.5821 3.476562,0 5.292969,-1.3672 1.835937,-1.3868 1.835937,-4.0235 0,-2.1093 -1.113281,-3.2422 -1.09375,-1.1328 -4.648438,-2.207 l -3.847656,-1.1523 q -4.1796874,-1.2696 -5.8984374,-3.1641 -1.6992187,-1.8945 -1.6992187,-5.1953 0,-3.7109 2.6367187,-5.7617 2.6367188,-2.0508 7.4023434,-2.0508 2.03125,0 4.453125,0.4492 2.421875,0.4297 5.15625,1.2695 l 0,6.211 -2.207031,0 q -0.332031,-3.086 -2.070312,-4.4531 -1.71875,-1.3868 -5.253907,-1.3868 -3.085937,0 -4.7070309,1.2696 -1.6015625,1.25 -1.6015625,3.6523 0,2.0899 1.2109375,3.2813 1.2109375,1.1914 5.1367189,2.3632 l 3.613281,1.0743 q 3.964844,1.1914 5.644531,3.0468 1.699219,1.836 1.699219,4.9414 0,4.2383 -2.714844,6.3868 -2.714843,2.1484 -8.085937,2.1484 -2.402344,0 -4.9023439,-0.4883 -2.4804687,-0.4883 -5.0585937,-1.4844 z"
         style=""
         id="path3338" />
      <path
         d="m 44.814453,1037.0438 q -0.761719,3.3203 -2.929687,5.0586 -2.167969,1.7383 -5.605469,1.7383 -4.53125,0 -7.285156,-2.9883 -2.753907,-3.0078 -2.753907,-7.9687 0,-4.9805 2.753907,-7.9493 2.753906,-2.9882 7.285156,-2.9882 1.972656,0 3.925781,0.4687 1.953125,0.4492 3.925781,1.3867 l 0,5.3125 -2.089843,0 q -0.410157,-2.7343 -1.796875,-3.9843 -1.367188,-1.25 -3.925782,-1.25 -2.910156,0 -4.394531,2.2656 -1.484375,2.2461 -1.484375,6.7383 0,4.4922 1.464844,6.7578 1.484375,2.2656 4.414062,2.2656 2.324219,0 3.710938,-1.2109 1.386719,-1.211 1.894531,-3.6524 l 2.890625,0 z"
         style=""
         id="path3340" />
    </g>
  </g>
</svg>
