<svg class="svg-icon" style="width: 1em; height: 1em;vertical-align: middle;fill: currentColor;overflow: hidden;" viewBox="0 0 1024 1024" version="1.1" xmlns="http://www.w3.org/2000/svg"><path d="M667.428571 694.857143q0 18.870857-13.458286 32.256t-32.256 13.458286-32.256-13.458286-13.458286-32.256 13.458286-32.256 32.256-13.458286 32.256 13.458286 13.458286 32.256zM813.714286 694.857143q0 18.870857-13.458286 32.256t-32.256 13.458286-32.256-13.458286-13.458286-32.256 13.458286-32.256 32.256-13.458286 32.256 13.458286 13.458286 32.256zM877.714286 786.285714l0-182.857143q0-7.460571-5.412571-12.873143t-12.873143-5.412571l-694.857143 0q-7.460571 0-12.873143 5.412571t-5.412571 12.873143l0 182.857143q0 7.460571 5.412571 12.873143t12.873143 5.412571l694.857143 0q7.460571 0 12.873143-5.412571t5.412571-12.873143zM174.884571 512l674.304 0-89.746286-275.456q-2.267429-7.460571-9.142857-12.288t-14.848-4.827429l-446.829714 0q-7.972571 0-14.848 4.827429t-9.142857 12.288zM950.857143 603.428571l0 182.857143q0 37.741714-26.843429 64.585143t-64.585143 26.843429l-694.857143 0q-37.741714 0-64.585143-26.843429t-26.843429-64.585143l0-182.857143q0-14.262857 9.142857-42.861714l112.566857-346.258286q9.728-30.281143 35.986286-49.152t57.709714-18.870857l446.829714 0q31.451429 0 57.709714 18.870857t35.986286 49.152l112.566857 346.258286q9.142857 28.598857 9.142857 42.861714z"  /></svg>