<?xml version="1.0" encoding="UTF-8" standalone="no"?>
<!-- Created with Inkscape (http://www.inkscape.org/) -->

<svg
   xmlns:osb="http://www.openswatchbook.org/uri/2009/osb"
   xmlns:dc="http://purl.org/dc/elements/1.1/"
   xmlns:cc="http://creativecommons.org/ns#"
   xmlns:rdf="http://www.w3.org/1999/02/22-rdf-syntax-ns#"
   xmlns:svg="http://www.w3.org/2000/svg"
   xmlns="http://www.w3.org/2000/svg"
   xmlns:sodipodi="http://sodipodi.sourceforge.net/DTD/sodipodi-0.dtd"
   xmlns:inkscape="http://www.inkscape.org/namespaces/inkscape"
   width="32"
   height="32"
   id="svg2"
   version="1.1"
   inkscape:version="0.48.3.1 r9886"
   sodipodi:docname="italic.svg">
  <defs
     id="defs4">
    <linearGradient
       id="linearGradient3757"
       osb:paint="solid">
      <stop
         style="stop-color:#000000;stop-opacity:1;"
         offset="0"
         id="stop3759" />
    </linearGradient>
  </defs>
  <sodipodi:namedview
     id="base"
     pagecolor="#ffffff"
     bordercolor="#666666"
     borderopacity="1.0"
     inkscape:pageopacity="0.0"
     inkscape:pageshadow="2"
     inkscape:zoom="24.65625"
     inkscape:cx="9.2065906"
     inkscape:cy="16"
     inkscape:document-units="px"
     inkscape:current-layer="layer1"
     showgrid="false"
     inkscape:window-width="1680"
     inkscape:window-height="995"
     inkscape:window-x="-2"
     inkscape:window-y="-3"
     inkscape:window-maximized="1" />
  <metadata
     id="metadata7">
    <rdf:RDF>
      <cc:Work
         rdf:about="">
        <dc:format>image/svg+xml</dc:format>
        <dc:type
           rdf:resource="http://purl.org/dc/dcmitype/StillImage" />
        <dc:title />
      </cc:Work>
    </rdf:RDF>
  </metadata>
  <g
     inkscape:label="Layer 1"
     inkscape:groupmode="layer"
     id="layer1"
     transform="translate(0,-1020.3622)">
    <g
       style="font-size:40px;font-style:italic;font-variant:normal;font-weight:normal;font-stretch:normal;text-align:start;line-height:125%;letter-spacing:0px;word-spacing:0px;writing-mode:lr-tb;text-anchor:start;fill:#ffffff;fill-opacity:1;stroke:#808080;stroke-opacity:1;font-family:FreeSerif;-inkscape-font-specification:FreeSerif Italic"
       id="text2985"
       transform="translate(-8,8)">
      <path
         d="m 23.34,1039.7822 c 0.613327,0 1.706659,-1.04 3.28,-3.12 l 0.52,0.44 c -1.146675,1.68 -2.133341,2.8666 -2.96,3.56 -0.826673,0.6666 -1.706672,1 -2.64,1 -1.226669,0 -1.840002,-0.76 -1.84,-2.28 -2e-6,-0.7734 0.293331,-2.2267 0.88,-4.36 l 1.92,-7.08 c 0.239995,-0.8 0.359995,-1.3867 0.36,-1.76 -5e-6,-0.4 -0.160005,-0.6533 -0.48,-0.76 -0.293338,-0.1067 -0.973337,-0.1733 -2.04,-0.2 l 0,-0.64 c 1.226663,-0.1067 3.359994,-0.44 6.4,-1 l 0.12,0.08 -3.76,13.76 c -0.266672,0.96 -0.400005,1.5466 -0.4,1.76 -5e-6,0.1333 0.06666,0.2666 0.2,0.4 0.133328,0.1333 0.279994,0.2 0.44,0.2 m 1.6,-24.12 c 0.373326,-0.4 0.826658,-0.6 1.36,-0.6 0.533324,0 0.99999,0.2267 1.4,0.68 0.399989,0.4267 0.599989,0.9333 0.6,1.52 -1.1e-5,0.56 -0.200011,1.04 -0.6,1.44 -0.373343,0.4 -0.826676,0.6 -1.36,0.6 -0.586675,0 -1.053341,-0.1867 -1.4,-0.56 -0.346674,-0.4 -0.520007,-0.92 -0.52,-1.56 -7e-6,-0.6133 0.173326,-1.12 0.52,-1.52"
         id="path2987"
         inkscape:connector-curvature="0"
         style="fill:#ffffff;fill-opacity:1" />
    </g>
  </g>
</svg>
