<?xml version="1.0" encoding="UTF-8" standalone="no"?>
<!-- Created with Inkscape (http://www.inkscape.org/) -->

<svg
   xmlns:osb="http://www.openswatchbook.org/uri/2009/osb"
   xmlns:dc="http://purl.org/dc/elements/1.1/"
   xmlns:cc="http://creativecommons.org/ns#"
   xmlns:rdf="http://www.w3.org/1999/02/22-rdf-syntax-ns#"
   xmlns:svg="http://www.w3.org/2000/svg"
   xmlns="http://www.w3.org/2000/svg"
   xmlns:sodipodi="http://sodipodi.sourceforge.net/DTD/sodipodi-0.dtd"
   xmlns:inkscape="http://www.inkscape.org/namespaces/inkscape"
   width="32"
   height="32"
   id="svg2"
   version="1.1"
   inkscape:version="0.48.3.1 r9886"
   sodipodi:docname="overline.svg">
  <defs
     id="defs4">
    <linearGradient
       id="linearGradient3757"
       osb:paint="solid">
      <stop
         style="stop-color:#000000;stop-opacity:1;"
         offset="0"
         id="stop3759" />
    </linearGradient>
  </defs>
  <sodipodi:namedview
     id="base"
     pagecolor="#ffffff"
     bordercolor="#666666"
     borderopacity="1.0"
     inkscape:pageopacity="0.0"
     inkscape:pageshadow="2"
     inkscape:zoom="16.4375"
     inkscape:cx="13.809886"
     inkscape:cy="24"
     inkscape:document-units="px"
     inkscape:current-layer="layer1"
     showgrid="false"
     inkscape:window-width="1680"
     inkscape:window-height="995"
     inkscape:window-x="-2"
     inkscape:window-y="-3"
     inkscape:window-maximized="1" />
  <metadata
     id="metadata7">
    <rdf:RDF>
      <cc:Work
         rdf:about="">
        <dc:format>image/svg+xml</dc:format>
        <dc:type
           rdf:resource="http://purl.org/dc/dcmitype/StillImage" />
        <dc:title />
      </cc:Work>
    </rdf:RDF>
  </metadata>
  <g
     inkscape:label="Layer 1"
     inkscape:groupmode="layer"
     id="layer1"
     transform="translate(0,-1020.3622)">
    <g
       id="g3763"
       transform="translate(-8.2762213,6.31251)">
      <g
         id="text2985"
         style="font-size:40px;font-style:normal;font-variant:normal;font-weight:normal;font-stretch:normal;text-align:start;line-height:125%;letter-spacing:0px;word-spacing:0px;writing-mode:lr-tb;text-anchor:start;fill:#ffffff;fill-opacity:1;stroke:#808080;stroke-opacity:1;font-family:FreeSerif;-inkscape-font-specification:FreeSerif">
        <path
           style="fill:#ffffff;fill-opacity:1"
           id="path3816"
           d="m 24.02,1024.5423 c 2.559988,0 4.666652,0.8533 6.32,2.56 1.653316,1.7066 2.479982,3.8666 2.48,6.48 -1.8e-5,2.7733 -0.853351,5.0933 -2.56,6.96 -1.706681,1.8666 -3.813345,2.8 -6.32,2.8 -2.506674,0 -4.600005,-0.8934 -6.28,-2.68 -1.653335,-1.8134 -2.480001,-4.0667 -2.48,-6.76 -10e-7,-2.7467 0.813332,-4.9867 2.44,-6.72 1.653329,-1.76 3.78666,-2.64 6.4,-2.64 m -5.24,7.4 c -4e-6,2.8533 0.519995,5.28 1.56,7.28 1.039993,2 2.399992,3 4.08,3 1.493322,0 2.666654,-0.64 3.52,-1.92 0.853319,-1.28 1.279985,-3.0534 1.28,-5.32 -1.5e-5,-2.7467 -0.533348,-4.9867 -1.6,-6.72 -1.066679,-1.7334 -2.440011,-2.6 -4.12,-2.6 -1.413341,0 -2.560006,0.5733 -3.44,1.72 -0.853338,1.1466 -1.280004,2.6666 -1.28,4.56"
           inkscape:connector-curvature="0" />
      </g>
      <rect
         y="1016.7571"
         x="14.768035"
         height="3.0345278"
         width="19.016373"
         id="rect5299"
         style="fill:#ffffff;fill-opacity:1;stroke:#808080;stroke-width:1;stroke-linecap:butt;stroke-linejoin:miter;stroke-miterlimit:2;stroke-opacity:1;stroke-dasharray:none" />
    </g>
  </g>
</svg>
