<?xml version="1.0" encoding="UTF-8" standalone="no"?>
<!-- Created with Inkscape (http://www.inkscape.org/) -->

<svg
   xmlns:dc="http://purl.org/dc/elements/1.1/"
   xmlns:cc="http://creativecommons.org/ns#"
   xmlns:rdf="http://www.w3.org/1999/02/22-rdf-syntax-ns#"
   xmlns:svg="http://www.w3.org/2000/svg"
   xmlns="http://www.w3.org/2000/svg"
   xmlns:xlink="http://www.w3.org/1999/xlink"
   xmlns:sodipodi="http://sodipodi.sourceforge.net/DTD/sodipodi-0.dtd"
   xmlns:inkscape="http://www.inkscape.org/namespaces/inkscape"
   width="48"
   height="48"
   id="svg2"
   version="1.1"
   inkscape:version="0.48.3.1 r9886"
   sodipodi:docname="addCol.svg">
  <defs
     id="defs4">
    <filter
       color-interpolation-filters="sRGB"
       inkscape:collect="always"
       id="filter4787">
      <feGaussianBlur
         inkscape:collect="always"
         stdDeviation="2.2677902"
         id="feGaussianBlur4789" />
    </filter>
    <linearGradient
       inkscape:collect="always"
       xlink:href="#linearGradient3638"
       id="linearGradient4215"
       gradientUnits="userSpaceOnUse"
       gradientTransform="translate(-81.000004,-47.999997)"
       x1="73.615906"
       y1="97.608109"
       x2="73.943695"
       y2="138.20813" />
    <linearGradient
       id="linearGradient3638">
      <stop
         style="stop-color:#ffffff;stop-opacity:0;"
         offset="0"
         id="stop3640" />
      <stop
         id="stop3661"
         offset="0.06868132"
         style="stop-color:#ffffff;stop-opacity:1;" />
      <stop
         id="stop3659"
         offset="0.5"
         style="stop-color:#ffffff;stop-opacity:1;" />
      <stop
         style="stop-color:#ffffff;stop-opacity:0;"
         offset="1"
         id="stop3642" />
    </linearGradient>
    <filter
       color-interpolation-filters="sRGB"
       inkscape:collect="always"
       x="-0.023605747"
       width="1.0472115"
       y="-0.46785066"
       height="1.9357013"
       id="filter4253">
      <feGaussianBlur
         inkscape:collect="always"
         stdDeviation="0.94422987"
         id="feGaussianBlur4255" />
    </filter>
    <linearGradient
       inkscape:collect="always"
       xlink:href="#linearGradient3368"
       id="linearGradient3816"
       x1="28.364862"
       y1="12"
       x2="77.328758"
       y2="122.48434"
       gradientUnits="userSpaceOnUse"
       gradientTransform="matrix(0.2,0,0,0.2,10.199998,16.2)" />
    <linearGradient
       y2="0"
       x2="28"
       y1="57.5"
       x1="28"
       gradientUnits="userSpaceOnUse"
       id="linearGradient3368">
      <stop
         id="stop3370"
         style="stop-color:#595959;stop-opacity:1;"
         offset="0" />
      <stop
         id="stop3372"
         style="stop-color:#222222;stop-opacity:1;"
         offset="1" />
    </linearGradient>
    <linearGradient
       inkscape:collect="always"
       xlink:href="#linearGradient3149"
       id="linearGradient3891"
       gradientUnits="userSpaceOnUse"
       gradientTransform="matrix(0.2455636,0,0,0.2572864,31.471919,18.885428)"
       x1="-34.499901"
       y1="-1.3553318"
       x2="-34.499901"
       y2="-11.966981" />
    <linearGradient
       id="linearGradient3149">
      <stop
         id="stop3151"
         offset="0"
         style="stop-color:#454545;stop-opacity:1;" />
      <stop
         style="stop-color:#cacaca;stop-opacity:1;"
         offset="0.48275861"
         id="stop3920" />
      <stop
         id="stop3153"
         offset="1"
         style="stop-color:#f8f8f8;stop-opacity:1;" />
    </linearGradient>
    <linearGradient
       inkscape:collect="always"
       xlink:href="#linearGradient2575"
       id="linearGradient4190"
       gradientUnits="userSpaceOnUse"
       gradientTransform="matrix(0.2,0,0,0.2,10.200475,16.2)"
       x1="79.587105"
       y1="-25.960203"
       x2="110.8327"
       y2="90.649948" />
    <linearGradient
       id="linearGradient2575"
       gradientUnits="userSpaceOnUse"
       x1="28"
       y1="57.5"
       x2="28"
       y2="0">
      <stop
         offset="0"
         style="stop-color:#474747;stop-opacity:1;"
         id="stop2577" />
      <stop
         offset="1"
         style="stop-color:#000000;stop-opacity:1;"
         id="stop2579" />
    </linearGradient>
    <linearGradient
       inkscape:collect="always"
       xlink:href="#linearGradient4005"
       id="linearGradient4648"
       gradientUnits="userSpaceOnUse"
       gradientTransform="translate(-81,-41.4)"
       x1="63.085938"
       y1="19.992191"
       x2="63.085938"
       y2="13.937426" />
    <linearGradient
       inkscape:collect="always"
       id="linearGradient4005">
      <stop
         style="stop-color:#000000;stop-opacity:1;"
         offset="0"
         id="stop4007" />
      <stop
         style="stop-color:#000000;stop-opacity:0;"
         offset="1"
         id="stop4009" />
    </linearGradient>
    <filter
       color-interpolation-filters="sRGB"
       inkscape:collect="always"
       x="-0.035955057"
       width="1.0719101"
       y="-0.25168538"
       height="1.5033708"
       id="filter4033">
      <feGaussianBlur
         inkscape:collect="always"
         stdDeviation="0.6349485"
         id="feGaussianBlur4035" />
    </filter>
    <linearGradient
       inkscape:collect="always"
       xlink:href="#linearGradient4077"
       id="linearGradient4590"
       gradientUnits="userSpaceOnUse"
       x1="56.827953"
       y1="-34.582161"
       x2="76.486145"
       y2="38.820595" />
    <linearGradient
       inkscape:collect="always"
       id="linearGradient4077">
      <stop
         style="stop-color:#000000;stop-opacity:1;"
         offset="0"
         id="stop4079" />
      <stop
         style="stop-color:#000000;stop-opacity:0;"
         offset="1"
         id="stop4081" />
    </linearGradient>
    <mask
       maskUnits="userSpaceOnUse"
       id="mask4131">
      <rect
         style="fill:url(#linearGradient4135);fill-opacity:1;stroke:none"
         id="rect4133"
         width="65.186401"
         height="28.561073"
         x="-101.64659"
         y="10.285005"
         transform="matrix(-1,0,-0.3481553,0.9374369,0,0)" />
    </mask>
    <linearGradient
       inkscape:collect="always"
       xlink:href="#linearGradient3235"
       id="linearGradient4135"
       gradientUnits="userSpaceOnUse"
       gradientTransform="matrix(1,0,0,1.1489125,-138.10679,0)"
       x1="56.623783"
       y1="21.105345"
       x2="101.6466"
       y2="21.381557" />
    <linearGradient
       id="linearGradient3235"
       inkscape:collect="always">
      <stop
         id="stop3237"
         offset="0"
         style="stop-color:#ffffff;stop-opacity:1;" />
      <stop
         id="stop3239"
         offset="1"
         style="stop-color:#ffffff;stop-opacity:0;" />
    </linearGradient>
    <filter
       color-interpolation-filters="sRGB"
       inkscape:collect="always"
       x="-0.040822662"
       width="1.0816453"
       y="-0.11777063"
       height="1.2355413"
       id="filter3346">
      <feGaussianBlur
         inkscape:collect="always"
         stdDeviation="0.90509031"
         id="feGaussianBlur3348" />
    </filter>
    <filter
       color-interpolation-filters="sRGB"
       inkscape:collect="always"
       id="filter3396">
      <feGaussianBlur
         inkscape:collect="always"
         stdDeviation="0.19500234"
         id="feGaussianBlur3398" />
    </filter>
    <linearGradient
       inkscape:collect="always"
       xlink:href="#linearGradient2575"
       id="linearGradient4194"
       gradientUnits="userSpaceOnUse"
       gradientTransform="matrix(-0.2,0,0,0.2,35.799301,16.2)"
       x1="79.587105"
       y1="-25.960203"
       x2="110.8327"
       y2="90.649948" />
    <linearGradient
       id="linearGradient6034"
       gradientUnits="userSpaceOnUse"
       x1="28"
       y1="57.5"
       x2="28"
       y2="0">
      <stop
         offset="0"
         style="stop-color:#474747;stop-opacity:1;"
         id="stop6036" />
      <stop
         offset="1"
         style="stop-color:#000000;stop-opacity:1;"
         id="stop6038" />
    </linearGradient>
    <linearGradient
       gradientTransform="matrix(0.2,0,0,0.2,11.799999,16.2)"
       inkscape:collect="always"
       xlink:href="#linearGradient3400"
       id="linearGradient3406"
       x1="88.966972"
       y1="5.7464399"
       x2="-36.418835"
       y2="5.7464399"
       gradientUnits="userSpaceOnUse" />
    <linearGradient
       inkscape:collect="always"
       id="linearGradient3400">
      <stop
         style="stop-color:#ffffff;stop-opacity:1;"
         offset="0"
         id="stop3402" />
      <stop
         style="stop-color:#ffffff;stop-opacity:0;"
         offset="1"
         id="stop3404" />
    </linearGradient>
    <linearGradient
       inkscape:collect="always"
       xlink:href="#linearGradient3149"
       id="linearGradient3884"
       gradientUnits="userSpaceOnUse"
       gradientTransform="matrix(0.22222234,0,0,0.32,9.222219,16.036826)"
       spreadMethod="reflect"
       x1="58.073513"
       y1="5.5073318"
       x2="58.073513"
       y2="12.044647" />
    <linearGradient
       id="linearGradient6045">
      <stop
         id="stop6047"
         offset="0"
         style="stop-color:#454545;stop-opacity:1;" />
      <stop
         style="stop-color:#cacaca;stop-opacity:1;"
         offset="0.48275861"
         id="stop6049" />
      <stop
         id="stop6051"
         offset="1"
         style="stop-color:#f8f8f8;stop-opacity:1;" />
    </linearGradient>
    <linearGradient
       inkscape:collect="always"
       xlink:href="#linearGradient3235"
       id="linearGradient3931"
       x1="48.61359"
       y1="10.752187"
       x2="84"
       y2="10.752187"
       gradientUnits="userSpaceOnUse"
       gradientTransform="matrix(1.1303775,0,0,1,-91.951707,-47.5)" />
    <filter
       color-interpolation-filters="sRGB"
       inkscape:collect="always"
       x="-0.018968364"
       width="1.0379367"
       y="-0.34415793"
       height="1.6883157"
       id="filter3999">
      <feGaussianBlur
         inkscape:collect="always"
         stdDeviation="0.31613941"
         id="feGaussianBlur4001" />
    </filter>
    <linearGradient
       inkscape:collect="always"
       xlink:href="#linearGradient3235"
       id="linearGradient4147"
       x1="48.461166"
       y1="1.3560734"
       x2="75.130096"
       y2="1.3560734"
       gradientUnits="userSpaceOnUse"
       gradientTransform="translate(-80.8,-45.7)" />
    <filter
       color-interpolation-filters="sRGB"
       inkscape:collect="always"
       x="-0.014460673"
       width="1.0289212"
       y="-0.19945781"
       height="1.3989156"
       id="filter4177">
      <feGaussianBlur
         inkscape:collect="always"
         stdDeviation="0.16068779"
         id="feGaussianBlur4179" />
    </filter>
    <radialGradient
       inkscape:collect="always"
       xlink:href="#XMLID_7_"
       id="radialGradient4855"
       gradientUnits="userSpaceOnUse"
       gradientTransform="matrix(0.2,0,0,0.2,13.4,17)"
       cx="102"
       cy="112.3047"
       r="139.5585" />
    <radialGradient
       id="XMLID_7_"
       cx="102"
       cy="112.3047"
       r="139.5585"
       gradientUnits="userSpaceOnUse">
      <stop
         offset="0"
         style="stop-color:#3e3e3e;stop-opacity:1;"
         id="stop16" />
      <stop
         offset="0.1737"
         style="stop-color:#dfdfdf;stop-opacity:1;"
         id="stop26" />
      <stop
         offset="0.2099"
         style="stop-color:#ECF2F5"
         id="stop28" />
      <stop
         offset="0.2435"
         style="stop-color:#FAFCFD"
         id="stop30" />
      <stop
         offset="0.2722"
         style="stop-color:#FFFFFF"
         id="stop32" />
    </radialGradient>
    <radialGradient
       inkscape:collect="always"
       xlink:href="#XMLID_8_"
       id="radialGradient4852"
       gradientUnits="userSpaceOnUse"
       gradientTransform="matrix(0.2,0,0,0.2,13.4,17)"
       cx="102"
       cy="112.3047"
       r="139.55859" />
    <radialGradient
       id="XMLID_8_"
       cx="102"
       cy="112.3047"
       r="139.55859"
       gradientUnits="userSpaceOnUse">
      <stop
         offset="0"
         style="stop-color:#535557"
         id="stop37" />
      <stop
         offset="0.11366145"
         style="stop-color:#898A8C"
         id="stop41" />
      <stop
         offset="0.20296688"
         style="stop-color:#ECECEC"
         id="stop47" />
      <stop
         offset="0.2363"
         style="stop-color:#FAFAFA"
         id="stop49" />
      <stop
         offset="0.2722"
         style="stop-color:#FFFFFF"
         id="stop51" />
      <stop
         offset="0.5313"
         style="stop-color:#FAFAFA"
         id="stop53" />
      <stop
         offset="0.8449"
         style="stop-color:#EBECEC"
         id="stop55" />
      <stop
         offset="1"
         style="stop-color:#E1E2E3"
         id="stop57" />
    </radialGradient>
    <linearGradient
       inkscape:collect="always"
       xlink:href="#XMLID_9_"
       id="linearGradient4849"
       gradientUnits="userSpaceOnUse"
       gradientTransform="matrix(0.2,0,0,0.2,13.4,17)"
       x1="94.343803"
       y1="102.3447"
       x2="86.535599"
       y2="94.536598" />
    <linearGradient
       id="XMLID_9_"
       gradientUnits="userSpaceOnUse"
       x1="94.343803"
       y1="102.3447"
       x2="86.535599"
       y2="94.536598">
      <stop
         offset="0"
         style="stop-color:#FFFFFF"
         id="stop62" />
      <stop
         offset="1"
         style="stop-color:#555753"
         id="stop64" />
    </linearGradient>
    <linearGradient
       inkscape:collect="always"
       xlink:href="#XMLID_10_"
       id="linearGradient4846"
       gradientUnits="userSpaceOnUse"
       gradientTransform="matrix(0.2,0,0,0.2,13.4,17)"
       x1="95"
       y1="103"
       x2="86.586502"
       y2="94.586502" />
    <linearGradient
       id="XMLID_10_"
       gradientUnits="userSpaceOnUse"
       x1="95"
       y1="103"
       x2="86.586502"
       y2="94.586502">
      <stop
         offset="0"
         style="stop-color:#FFFFFF"
         id="stop69" />
      <stop
         offset="1"
         style="stop-color:#555753"
         id="stop71" />
    </linearGradient>
    <linearGradient
       inkscape:collect="always"
       xlink:href="#XMLID_11_"
       id="linearGradient4843"
       gradientUnits="userSpaceOnUse"
       gradientTransform="matrix(0.2,0,0,0.2,13.4,17)"
       x1="95"
       y1="103"
       x2="87.292999"
       y2="95.292999" />
    <linearGradient
       id="XMLID_11_"
       gradientUnits="userSpaceOnUse"
       x1="95"
       y1="103"
       x2="87.292999"
       y2="95.292999">
      <stop
         offset="0"
         style="stop-color:#FFFFFF"
         id="stop76" />
      <stop
         offset="1"
         style="stop-color:#393B38"
         id="stop78" />
    </linearGradient>
    <linearGradient
       inkscape:collect="always"
       xlink:href="#XMLID_12_"
       id="linearGradient4840"
       gradientUnits="userSpaceOnUse"
       gradientTransform="matrix(0.2,0,0,0.2,13.4,17)"
       x1="96"
       y1="104"
       x2="88.000198"
       y2="96.000198" />
    <linearGradient
       id="XMLID_12_"
       gradientUnits="userSpaceOnUse"
       x1="96"
       y1="104"
       x2="88.000198"
       y2="96.000198">
      <stop
         offset="0"
         style="stop-color:#888A85"
         id="stop83" />
      <stop
         offset="0.0072"
         style="stop-color:#8C8E89"
         id="stop85" />
      <stop
         offset="0.0673"
         style="stop-color:#ABACA9"
         id="stop87" />
      <stop
         offset="0.1347"
         style="stop-color:#C5C6C4"
         id="stop89" />
      <stop
         offset="0.2115"
         style="stop-color:#DBDBDA"
         id="stop91" />
      <stop
         offset="0.3012"
         style="stop-color:#EBEBEB"
         id="stop93" />
      <stop
         offset="0.4122"
         style="stop-color:#F7F7F6"
         id="stop95" />
      <stop
         offset="0.5679"
         style="stop-color:#FDFDFD"
         id="stop97" />
      <stop
         offset="1"
         style="stop-color:#FFFFFF"
         id="stop99" />
    </linearGradient>
    <linearGradient
       gradientTransform="matrix(0.2,0,0,0.2,11.799999,16.2)"
       inkscape:collect="always"
       xlink:href="#linearGradient4811"
       id="linearGradient4817"
       x1="50.759903"
       y1="-2.1362097"
       x2="50.759903"
       y2="1.3951097"
       gradientUnits="userSpaceOnUse" />
    <linearGradient
       inkscape:collect="always"
       id="linearGradient4811">
      <stop
         style="stop-color:#000000;stop-opacity:1;"
         offset="0"
         id="stop4813" />
      <stop
         style="stop-color:#000000;stop-opacity:0;"
         offset="1"
         id="stop4815" />
    </linearGradient>
  </defs>
  <sodipodi:namedview
     id="base"
     pagecolor="#ffffff"
     bordercolor="#666666"
     borderopacity="1.0"
     inkscape:pageopacity="0.0"
     inkscape:pageshadow="2"
     inkscape:zoom="4.1"
     inkscape:cx="1.2869574"
     inkscape:cy="23.998145"
     inkscape:document-units="px"
     inkscape:current-layer="layer4"
     showgrid="true"
     showguides="false"
     inkscape:window-width="1680"
     inkscape:window-height="995"
     inkscape:window-x="-2"
     inkscape:window-y="-3"
     inkscape:window-maximized="1">
    <inkscape:grid
       type="xygrid"
       id="grid2985"
       empspacing="5"
       visible="true"
       enabled="true"
       snapvisiblegridlinesonly="true" />
  </sodipodi:namedview>
  <metadata
     id="metadata7">
    <rdf:RDF>
      <cc:Work
         rdf:about="">
        <dc:format>image/svg+xml</dc:format>
        <dc:type
           rdf:resource="http://purl.org/dc/dcmitype/StillImage" />
        <dc:title></dc:title>
      </cc:Work>
    </rdf:RDF>
  </metadata>
  <g
     inkscape:groupmode="layer"
     id="layer2"
     inkscape:label="Action"
     sodipodi:insensitive="true">
    <rect
       style="fill:#00ff00;stroke:#666666;stroke-width:1;stroke-linecap:round;stroke-linejoin:bevel;stroke-miterlimit:1;stroke-opacity:1;stroke-dasharray:none"
       id="rect3012"
       width="17"
       height="42"
       x="7"
       y="3" />
  </g>
  <g
     inkscape:label="Grid"
     inkscape:groupmode="layer"
     id="layer1"
     transform="translate(0,-1004.3622)"
     sodipodi:insensitive="true">
    <path
       style="fill:none;stroke:#666666;stroke-width:1px;stroke-linecap:butt;stroke-linejoin:miter;stroke-opacity:1"
       d="m 1,3 46,0 0,0 0,0 0,0"
       id="path2987"
       inkscape:connector-curvature="0"
       transform="translate(0,1004.3622)" />
    <use
       x="0"
       y="0"
       xlink:href="#path2987"
       id="use2989"
       style="stroke:#666666"
       width="48"
       height="48" />
    <use
       x="0"
       y="0"
       xlink:href="#use2989"
       id="use2991"
       width="48"
       height="48"
       transform="translate(0,6)"
       style="stroke:#666666" />
    <use
       height="48"
       width="48"
       id="use2993"
       xlink:href="#use2989"
       y="0"
       x="0"
       transform="translate(0,12)"
       style="stroke:#666666" />
    <use
       transform="translate(0,18)"
       x="0"
       y="0"
       xlink:href="#use2989"
       id="use2995"
       width="48"
       height="48"
       style="stroke:#666666" />
    <use
       height="48"
       width="48"
       id="use2997"
       xlink:href="#use2989"
       y="0"
       x="0"
       transform="translate(0,24)"
       style="stroke:#666666" />
    <use
       transform="translate(0,30)"
       x="0"
       y="0"
       xlink:href="#use2989"
       id="use2999"
       width="48"
       height="48"
       style="stroke:#666666" />
    <use
       height="48"
       width="48"
       id="use3001"
       xlink:href="#use2989"
       y="0"
       x="0"
       transform="translate(0,36)"
       style="stroke:#666666" />
    <use
       transform="translate(0,42)"
       x="0"
       y="0"
       xlink:href="#use2989"
       id="use3003"
       width="48"
       height="48"
       style="stroke:#666666" />
    <path
       style="fill:none;stroke:#666666;stroke-width:1px;stroke-linecap:butt;stroke-linejoin:miter;stroke-opacity:1"
       d="M 7,3 7,45"
       id="path3005"
       inkscape:connector-curvature="0"
       transform="translate(0,1004.3622)" />
    <path
       inkscape:connector-curvature="0"
       id="path3007"
       d="m 24,1007.3622 0,42"
       style="fill:none;stroke:#666666;stroke-width:1px;stroke-linecap:butt;stroke-linejoin:miter;stroke-opacity:1" />
    <path
       style="fill:none;stroke:#666666;stroke-width:1px;stroke-linecap:butt;stroke-linejoin:miter;stroke-opacity:1"
       d="m 41,1007.3622 0,42"
       id="path3009"
       inkscape:connector-curvature="0" />
  </g>
  <g
     inkscape:groupmode="layer"
     id="layer4"
     inkscape:label="Paste">
    <path
       inkscape:connector-curvature="0"
       style="opacity:0.7715356;fill:none;stroke:#000000;stroke-width:1;stroke-linejoin:round;stroke-miterlimit:4;stroke-opacity:1;stroke-dasharray:none;filter:url(#filter4787)"
       d="m -31.999997,-15 0,90 c 0,1.104 0.896,2 2,2 l 42.1875,0 c 0.53,0 1.03125,-0.21875 1.40625,-0.59375 0,0 11.90625,-9.90625 17.406247,-15.40625 5.499998,-5.5 15.406248,-17.40625 15.406248,-17.40625 0.375,-0.374999 0.59375,-0.87625 0.59375,-1.40625 l 0,-57.1875 -78.999995,0 z"
       id="path4749"
       sodipodi:nodetypes="cccccscccc"
       transform="matrix(0.2,0,0,0.2,26.399999,25.6)" />
    <path
       inkscape:connector-curvature="0"
       id="path4213"
       d="m -65,67.15625 0,1 C -65,70.28318 -63.28319,72 -61.15625,72 l 88.3125,0 C 29.28318,72 31,70.28318 31,68.15625 l 0,-1 C 31,69.28318 29.28318,71 27.15625,71 l -88.3125,0 C -63.28319,71 -65,69.28318 -65,67.15625 z"
       style="fill:url(#linearGradient4215);fill-opacity:1;stroke:none;filter:url(#filter4253)"
       transform="matrix(0.2,0,0,0.2,26.399999,25.6)" />
    <rect
       style="opacity:0.57786889;fill:#ffffff;fill-opacity:1;fill-rule:nonzero;stroke:none"
       id="rect1327"
       width="0.2"
       height="0"
       x="23.800003"
       y="-0.39999998" />
    <path
       inkscape:connector-curvature="0"
       style="fill:url(#linearGradient3816);fill-opacity:1;stroke:none"
       d="m 15.106249,18.6 c -0.945664,0 -1.70625,0.760587 -1.70625,1.70625 l 0,19.125 c 0,0.425386 0.343362,0.76875 0.76875,0.76875 l 17.6625,0 c 0.425386,0 0.76875,-0.343364 0.76875,-0.76875 l 0,-19.125 c 0,-0.945663 -0.760588,-1.70625 -1.70625,-1.70625 l -15.7875,0 z"
       id="rect2834"
       sodipodi:nodetypes="ccccccccc" />
    <path
       inkscape:connector-curvature="0"
       style="fill:url(#linearGradient3891);fill-opacity:1;fill-rule:nonzero;stroke:none"
       d="m 19.799999,16.2 0.752039,3.2 1.21247,0 2.470983,0 1.21247,0 0.752038,-3.2 -2.716547,0 -0.966906,0 -2.716547,0 z"
       id="rect3276" />
    <path
       inkscape:connector-curvature="0"
       style="fill:url(#linearGradient4190);fill-opacity:1;stroke:none"
       d="m 30.694223,18.6 c 0.945662,0 1.706252,0.760587 1.70625,1.70625 l 0,19.125 c 0,0.425386 -0.343362,0.76875 -0.76875,0.76875 l 0.2,0 c 0.425388,0 0.76875,-0.343364 0.76875,-0.76875 l 0,-19.125 C 32.600475,19.360587 31.839885,18.6 30.894223,18.6 l -0.2,0 z"
       id="path4181" />
    <rect
       style="opacity:0.47191013;fill:url(#linearGradient4648);fill-opacity:1;stroke:none;filter:url(#filter4033)"
       id="rect4003"
       width="42.382812"
       height="6.0546875"
       x="-38.03125"
       y="-27.462494"
       rx="1.5625"
       ry="1.5625"
       transform="matrix(0.2,0,0,0.2,26.399999,25.6)" />
    <path
       inkscape:connector-curvature="0"
       transform="matrix(0.2,0,0.07427814,0.18569534,10.199999,16.2)"
       style="opacity:0.54681648;fill:url(#linearGradient4590);fill-opacity:1;stroke:none;filter:url(#filter3346)"
       mask="url(#mask4131)"
       d="m 36.111931,14.503877 46.901066,-0.594982 c 0.714581,1.847579 1.54353,5.059787 -3.811747,16.957014 l -43.089319,1.487455 0,-17.849487 z"
       id="rect4075"
       sodipodi:nodetypes="ccccc" />
    <path
       inkscape:connector-curvature="0"
       sodipodi:nodetypes="ccccccccc"
       style="opacity:0.5955056;fill:#000000;fill-opacity:1;stroke:none;filter:url(#filter3396)"
       d="m -56.343747,-34.9 c -4.72833,0 -8.5625,3.802937 -8.5625,8.53125 l 0,1 c 0,-4.728313 3.83417,-8.53125 8.5625,-8.53125 l 78.706247,0 c 4.72831,0 8.53125,3.802937 8.53125,8.53125 l 0,-1 c 0,-4.728313 -3.80294,-8.53125 -8.53125,-8.53125 l -78.706247,0 z"
       id="path3374"
       transform="matrix(0.2,0,0,0.2,26.399999,25.6)" />
    <path
       inkscape:connector-curvature="0"
       id="path4192"
       d="m 15.305552,18.6 c -0.945662,0 -1.706252,0.760587 -1.70625,1.70625 l 0,19.125 c 0,0.425386 0.343362,0.76875 0.76875,0.76875 l -0.2,0 c -0.425388,0 -0.76875,-0.343364 -0.76875,-0.76875 l 0,-19.125 C 13.3993,19.360587 14.15989,18.6 15.105552,18.6 l 0.2,0 z"
       style="fill:url(#linearGradient4194);fill-opacity:1;stroke:none" />
    <path
       inkscape:connector-curvature="0"
       id="path4819"
       d="m 15.25125,18.82 c -0.945666,0 -1.7125,0.760587 -1.7125,1.70625 l 0,0.2 c 0,-0.945663 0.766834,-1.70625 1.7125,-1.70625 l 15.501249,0 c 0.945662,0 1.70625,0.760587 1.70625,1.70625 l 0,-0.2 c 0,-0.945663 -0.760588,-1.70625 -1.70625,-1.70625 l -15.501249,0 z"
       style="opacity:0.78277151;fill:url(#linearGradient3406);fill-opacity:1;stroke:none"
       sodipodi:nodetypes="ccccccccc" />
    <rect
       style="fill:url(#linearGradient3884);fill-opacity:1;fill-rule:nonzero;stroke:none"
       id="rect3259"
       width="8"
       height="3.2"
       x="18.999998"
       y="17.799999" />
    <rect
       style="fill:url(#linearGradient3931);fill-opacity:1;stroke:none;filter:url(#filter3999)"
       id="rect3922"
       width="40"
       height="2.2046118"
       x="-37"
       y="-37.704613"
       rx="0"
       ry="0"
       transform="matrix(0.2,0,0,0.2,26.399999,25.6)" />
    <path
       inkscape:connector-curvature="0"
       style="opacity:0.77902623;fill:url(#linearGradient4147);fill-opacity:1;stroke:none;filter:url(#filter4177)"
       d="m -32.338835,-45.310674 26.6689314,0 0,1.933495 -26.1318224,0 -0.537109,-1.933495 z"
       id="rect4138"
       sodipodi:nodetypes="ccccc"
       transform="matrix(0.2,0,0,0.2,26.399999,25.6)" />
    <path
       inkscape:connector-curvature="0"
       style="fill:#000000;fill-opacity:1;stroke:none"
       d="m 13.399999,39.23125 0,0.2 c 0,0.425386 0.343362,0.76875 0.76875,0.76875 l 17.6625,0 c 0.425386,0 0.76875,-0.343364 0.76875,-0.76875 l 0,-0.2 c 0,0.425386 -0.343364,0.76875 -0.76875,0.76875 l -17.6625,0 c -0.425388,0 -0.76875,-0.343364 -0.76875,-0.76875 z"
       id="path4196" />
    <path
       inkscape:connector-curvature="0"
       sodipodi:nodetypes="cccccscccc"
       id="path2260"
       d="m 19.84,22.66 0,17.94 c 0,0.2208 0.1792,0.4 0.4,0.4 l 8.5975,0 c 0.106,0 0.20625,-0.04375 0.28125,-0.11875 0,0 2.38125,-1.98125 3.481249,-3.08125 1.1,-1.1 3.08125,-3.48125 3.08125,-3.48125 0.075,-0.075 0.11875,-0.17525 0.11875,-0.28125 l 0,-11.3775 -15.959999,0 z"
       style="opacity:0.55805209;fill:none;stroke:#000000;stroke-width:0.2;stroke-linejoin:round;stroke-miterlimit:4;stroke-opacity:1;stroke-dasharray:none" />
    <path
       inkscape:connector-curvature="0"
       sodipodi:nodetypes="ccccccccc"
       id="path2262"
       d="m 19.8,22.6 0,18 c 0,0.2208 0.1792,0.4 0.4,0.4 l 8.6344,0 c 0.106,0 0.2078,-0.0422 0.2828,-0.1172 l 6.565599,-6.5656 c 0.075,-0.075 0.1172,-0.1768 0.1172,-0.2828 l 0,-11.4344 L 19.8,22.6 z"
       style="fill:url(#radialGradient4855)" />
    <path
       inkscape:connector-curvature="0"
       sodipodi:nodetypes="ccccccccccc"
       id="path2264"
       d="M 20.2,22.8 C 20.0898,22.8 20,22.8898 20,23 l 0,17.6 c 0,0.1104 0.0898,0.2 0.2,0.2 l 8.8344,0 c 0.0526,0 0.1042,-0.0212 0.1414,-0.0586 l 6.365599,-6.3656 c 0.0374,-0.0374 0.0586,-0.0888 0.0586,-0.1414 l 0,-11.2344 c 0,-0.1102 -0.0896,-0.2 -0.2,-0.2 L 20.2,22.8 z"
       style="fill:url(#radialGradient4852);fill-opacity:1" />
    <path
       inkscape:connector-curvature="0"
       style="opacity:0.15;fill:url(#linearGradient4849)"
       id="path2266"
       d="m 35.682799,34.3172 c 0.05,-0.05 -3.6758,1.2828 -4.682799,1.2828 -0.3308,0 -0.6,0.2692 -0.6,0.6 0,1.007 -1.3328,4.7328 -1.2828,4.6828 l 6.565599,-6.5656 z" />
    <path
       inkscape:connector-curvature="0"
       style="opacity:0.2;fill:url(#linearGradient4846)"
       id="path2268"
       d="M 35.682799,34.3172 C 35.757799,34.2422 32.888799,35.8 31,35.8 c -0.2206,0 -0.4,0.1794 -0.4,0.4 0,1.8888 -1.5578,4.7578 -1.4828,4.6828 l 6.565599,-6.5656 z" />
    <path
       inkscape:connector-curvature="0"
       style="opacity:0.25;fill:url(#linearGradient4843)"
       id="path2270"
       d="M 35.682799,34.3172 C 35.730599,34.2694 32.961399,36 31,36 c -0.1106,0 -0.2,0.0894 -0.2,0.2 0,1.9614 -1.7306,4.7306 -1.6828,4.6828 l 6.565599,-6.5656 z" />
    <path
       inkscape:connector-curvature="0"
       sodipodi:nodetypes="csccc"
       style="fill:url(#linearGradient4840)"
       id="path2272"
       d="m 29.1172,40.8828 c 0,0 2.3828,-1.9828 3.482799,-3.0828 1.1,-1.1 3.0828,-3.4828 3.0828,-3.4828 0,0 -2.6328,1.873424 -4.682799,1.873424 0,2.050002 -1.8828,4.692176 -1.8828,4.692176 z" />
    <path
       inkscape:connector-curvature="0"
       id="path4809"
       d="m 19.799999,16.2 0.752039,3.2 1.21247,0 2.470983,0 1.21247,0 0.752038,-3.2 -2.716547,0 -0.966906,0 -2.716547,0 z"
       style="fill:url(#linearGradient4817);fill-opacity:1;fill-rule:nonzero;stroke:none" />
  </g>
</svg>
