<?xml version="1.0" encoding="UTF-8" standalone="no"?>
<svg
   xmlns:dc="http://purl.org/dc/elements/1.1/"
   xmlns:cc="http://creativecommons.org/ns#"
   xmlns:rdf="http://www.w3.org/1999/02/22-rdf-syntax-ns#"
   xmlns:svg="http://www.w3.org/2000/svg"
   xmlns="http://www.w3.org/2000/svg"
   xmlns:sodipodi="http://sodipodi.sourceforge.net/DTD/sodipodi-0.dtd"
   xmlns:inkscape="http://www.inkscape.org/namespaces/inkscape"
   width="105"
   viewBox="0 0 105 128"
   height="128"
   id="svg2"
   version="1.1"
   inkscape:version="1.0.2 (e86c870879, 2021-01-15, custom)"
   sodipodi:docname="pdf.svg"
   inkscape:export-filename="/home/spyros/texstudio-3.0.1/images-ng/pdf.png"
   inkscape:export-xdpi="102"
   inkscape:export-ydpi="102">
  <metadata
     id="metadata24">
    <rdf:RDF>
      <cc:Work
         rdf:about="">
        <dc:format>image/svg+xml</dc:format>
        <dc:type
           rdf:resource="http://purl.org/dc/dcmitype/StillImage" />
        <dc:title></dc:title>
      </cc:Work>
    </rdf:RDF>
  </metadata>
  <defs
     id="defs22">
    <rect
       x="-19.409721"
       y="-10.299691"
       width="51.062214"
       height="40.68856"
       id="rect849" />
    <clipPath
       id="clipPath4157"
       clipPathUnits="userSpaceOnUse">
      <path
         style="fill:#f9f8f2;fill-opacity:1;stroke-width:1.00658"
         inkscape:connector-curvature="0"
         id="path4159"
         d="M 27.642964,3.2951379 40.728548,16.380722 H 29.65613 c -0.977824,0 -2.013166,-1.035372 -2.013166,-2.013167 z" />
    </clipPath>
  </defs>
  <sodipodi:namedview
     pagecolor="#ffffff"
     bordercolor="#666666"
     borderopacity="1"
     objecttolerance="10"
     gridtolerance="10"
     guidetolerance="10"
     inkscape:pageopacity="0"
     inkscape:pageshadow="2"
     inkscape:window-width="1366"
     inkscape:window-height="699"
     id="namedview20"
     showgrid="false"
     inkscape:zoom="3.1256605"
     inkscape:cx="76.999001"
     inkscape:cy="64.26543"
     inkscape:window-x="0"
     inkscape:window-y="0"
     inkscape:window-maximized="1"
     inkscape:current-layer="svg2"
     inkscape:document-rotation="0" />
  <g
     id="g850"
     transform="matrix(1.2888122,0,0,1.2888122,-30.534347,-18.401515)">
    <path
       style="fill:none;stroke:#000000;stroke-width:3.5;stroke-linecap:butt;stroke-linejoin:round;stroke-miterlimit:4;stroke-dasharray:none;stroke-opacity:1"
       d="M 101.96153,32.823387 85.909542,16.771707 h -59.87107 v 94.593653 l 75.923058,-0.0755 z"
       id="path843"
       sodipodi:nodetypes="cccccc" />
    <g
       id="g853"
       style="fill:#000000"
       transform="translate(-0.89092468,-1.1231906)">
      <g
         id="g26"
         transform="matrix(0.74982127,0,0,0.74982127,16.903579,1.3701363)"
         style="fill:#000000;fill-opacity:1">
        <g
           id="g24"
           style="fill:#000000;fill-opacity:1">
          <path
             d="m 95.21,80.32 c -0.07,-0.51 -0.48,-1.15 -0.92,-1.58 -1.26,-1.24 -4.03,-1.89 -8.25,-1.95 -2.86,-0.03 -6.3,0.22 -9.92,0.73 -1.62,-0.93 -3.29,-1.95 -4.6,-3.18 -3.53,-3.29 -6.47,-7.86 -8.31,-12.89 0.12,-0.47 0.22,-0.88 0.32,-1.3 0,0 1.98,-11.28 1.46,-15.1 -0.07,-0.52 -0.12,-0.67 -0.26,-1.08 l -0.17,-0.44 c -0.54,-1.25 -1.6,-2.57 -3.26,-2.5 L 60.32,41 H 60.3 c -1.86,0 -3.36,0.95 -3.76,2.36 -1.2,4.44 0.04,11.09 2.29,19.69 l -0.58,1.4 c -1.61,3.94 -3.63,7.9 -5.41,11.39 l -0.23,0.45 c -1.88,3.67 -3.58,6.79 -5.13,9.43 l -1.59,0.84 c -0.12,0.06 -2.85,1.51 -3.49,1.89 -5.43,3.25 -9.03,6.93 -9.63,9.85 -0.19,0.94 -0.05,2.13 0.92,2.68 l 1.54,0.78 c 0.67,0.33 1.38,0.5 2.1,0.5 3.87,0 8.36,-4.82 14.55,-15.62 7.14,-2.32 15.28,-4.26 22.41,-5.32 5.43,3.05 12.11,5.18 16.33,5.18 0.75,0 1.4,-0.07 1.92,-0.21 0.81,-0.22 1.49,-0.68 1.91,-1.3 0.82,-1.23 0.98,-2.93 0.76,-4.67 z M 36.49,99.33 c 0.7,-1.93 3.5,-5.75 7.63,-9.13 0.26,-0.21 0.9,-0.81 1.48,-1.37 -4.32,6.89 -7.21,9.63 -9.11,10.5 z M 60.95,43 c 1.24,0 1.95,3.13 2.01,6.07 0.06,2.94 -0.63,5 -1.48,6.53 -0.71,-2.26 -1.05,-5.82 -1.05,-8.15 0,0 -0.05,-4.45 0.52,-4.45 z m -7.3,40.14 c 0.87,-1.55 1.77,-3.19 2.69,-4.92 2.25,-4.25 3.67,-7.57 4.72,-10.3 2.1,3.82 4.72,7.07 7.79,9.67 0.39,0.32 0.8,0.65 1.22,0.98 -6.25,1.23 -11.66,2.74 -16.42,4.57 z m 39.43,-0.35 c -0.38,0.23 -1.47,0.37 -2.17,0.37 -2.26,0 -5.07,-1.03 -9,-2.72 1.51,-0.11 2.9,-0.17 4.14,-0.17 2.27,0 2.94,-0.01 5.17,0.56 2.22,0.57 2.25,1.72 1.86,1.96 z"
             style="fill:#000000;fill-opacity:1"
             id="path22" />
        </g>
      </g>
      <g
         aria-label="PDF"
         transform="matrix(1.3186128,0,0,1.3186128,69.028963,93.696214)"
         id="text847"
         style="font-style:normal;font-weight:normal;font-size:16px;line-height:1.25;font-family:sans-serif;white-space:pre;shape-inside:url(#rect849);fill:#000000;fill-opacity:1;stroke:none">
        <path
           d="m -15.794156,-0.79482813 h 2.992 c 2.144,0 3.5199997,-1.51999997 3.5199997,-3.88799997 0,-2.336 -1.3279997,-3.616 -3.7599997,-3.616 h -5.152 v 11.664 h 2.4 z m 0,-1.99999997 v -3.504 h 2.24 c 1.28,0 1.872,0.56 1.872,1.744 0,1.2 -0.592,1.76 -1.872,1.76 z"
           style="font-style:normal;font-variant:normal;font-weight:bold;font-stretch:normal;font-size:16px;font-family:sans-serif;-inkscape-font-specification:'sans-serif Bold';fill:#000000;fill-opacity:1"
           id="path853" />
        <path
           d="m -7.7781624,3.3651719 h 4.56 c 1.776,0 2.89600005,-0.416 3.69600005,-1.36 0.91199995,-1.08800003 1.40799995,-2.65600003 1.40799995,-4.48 0,-1.808 -0.496,-3.376 -1.40799995,-4.48 -0.8,-0.944 -1.90400005,-1.344 -3.69600005,-1.344 h -4.56 z m 2.4,-2 v -7.664 h 2.16 c 1.808,0 2.70400005,1.264 2.70400005,3.84 0,2.55999997 -0.89600005,3.824 -2.70400005,3.824 z"
           style="font-style:normal;font-variant:normal;font-weight:bold;font-stretch:normal;font-size:16px;font-family:sans-serif;-inkscape-font-specification:'sans-serif Bold';fill:#000000;fill-opacity:1"
           id="path855" />
        <path
           d="m 6.1258091,-1.6588281 h 5.1039999 v -2 H 6.1258091 v -2.64 h 5.7919999 v -2 H 3.7258091 v 11.664 h 2.4 z"
           style="font-style:normal;font-variant:normal;font-weight:bold;font-stretch:normal;font-size:16px;font-family:sans-serif;-inkscape-font-specification:'sans-serif Bold';fill:#000000;fill-opacity:1"
           id="path857" />
      </g>
    </g>
  </g>
</svg>
