<svg width="16px" height="16px" enable-background="new" version="1.1" xmlns="http://www.w3.org/2000/svg" xmlns:xlink="http://www.w3.org/1999/xlink">
 <defs>
  <linearGradient id="linearGradient3814" x1="8.8297" x2="3.1985" y1="9.8282" y2="2.7104" gradientTransform="translate(.012624 .0043937)" gradientUnits="userSpaceOnUse">
   <stop stop-color="#fff" stop-opacity="0" offset="0"/>
   <stop stop-color="#e3e3e3" stop-opacity=".39665" offset=".5"/>
   <stop stop-color="#fff" stop-opacity="0" offset="1"/>
  </linearGradient>
 </defs>
 <g>
  <path transform="matrix(.9353 0 0 .9353 .5 .53519)" d="m16.038 7.9812a8.0188 8.0188 0 1 1-16.038 0 8.0188 8.0188 0 1 1 16.038 0z" color="#000000" enable-background="accumulate" fill="#4d4d4d"/>
  <path d="m8 0.5c-4.1421 0-7.5 3.3579-7.5 7.5 0 4.1421 3.3579 7.5 7.5 7.5 4.1421 0 7.5-3.3579 7.5-7.5 0-4.1421-3.3579-7.5-7.5-7.5z" color="#000000" enable-background="accumulate" fill="url(#linearGradient3814)"/>
  <g fill="#ececec">
   <path d="m11.672 2.7611v2.3633c-0.61327-0.27421-1.2116-0.48113-1.7949-0.62074-0.58335-0.13959-1.1343-0.2094-1.6528-0.20941-0.68805 9.3e-6 -1.1966 0.09474-1.5257 0.28419-0.32907 0.18947-0.4936 0.48364-0.4936 0.8825-3.7e-6 0.29916 0.10969 0.53349 0.32907 0.70301 0.22436 0.16454 0.62821 0.30664 1.2116 0.42629l1.2265 0.2468c1.2415 0.2493 2.124 0.62822 2.6475 1.1368 0.52351 0.50856 0.78526 1.2315 0.78527 2.1688-1e-5 1.2315-0.36647 2.1489-1.0994 2.7522-0.72794 0.5983-1.8423 0.89745-3.343 0.89745-0.708 0-1.4185-0.06731-2.1315-0.20193-0.71298-0.13462-1.426-0.33405-2.1389-0.5983v-2.4306c0.71298 0.37893 1.401 0.66562 2.0641 0.86006 0.6681 0.18946 1.3113 0.2842 1.9295 0.28419 0.62821 2e-6 1.1093-0.1047 1.4434-0.31411 0.33405-0.2094 0.50107-0.50856 0.50108-0.89746-7.1e-6 -0.34901-0.11468-0.61824-0.34402-0.80771-0.22437-0.18946-0.67559-0.35898-1.3537-0.50856l-1.1143-0.2468c-1.1168-0.23932-1.9345-0.62073-2.453-1.1443-0.51354-0.52351-0.77032-1.229-0.77032-2.1165-1.1e-6 -1.1118 0.35898-1.9669 1.0769-2.5652 0.71796-0.59829 1.75-0.89744 3.0962-0.89745 0.61325 1.14e-5 1.244 0.047377 1.8921 0.1421 0.64815 0.089757 1.3188 0.22687 2.0118 0.41133" style=""/>
  </g>
 </g>
</svg>
