<?xml version="1.0" encoding="UTF-8" standalone="no"?>
<!-- Created with Inkscape (http://www.inkscape.org/) -->

<svg
   xmlns:osb="http://www.openswatchbook.org/uri/2009/osb"
   xmlns:dc="http://purl.org/dc/elements/1.1/"
   xmlns:cc="http://creativecommons.org/ns#"
   xmlns:rdf="http://www.w3.org/1999/02/22-rdf-syntax-ns#"
   xmlns:svg="http://www.w3.org/2000/svg"
   xmlns="http://www.w3.org/2000/svg"
   xmlns:sodipodi="http://sodipodi.sourceforge.net/DTD/sodipodi-0.dtd"
   xmlns:inkscape="http://www.inkscape.org/namespaces/inkscape"
   width="32"
   height="32"
   id="svg2"
   version="1.1"
   inkscape:version="0.48.3.1 r9886"
   sodipodi:docname="waveUnderline.svg">
  <defs
     id="defs4">
    <linearGradient
       id="linearGradient3757"
       osb:paint="solid">
      <stop
         style="stop-color:#000000;stop-opacity:1;"
         offset="0"
         id="stop3759" />
    </linearGradient>
  </defs>
  <sodipodi:namedview
     id="base"
     pagecolor="#ffffff"
     bordercolor="#666666"
     borderopacity="1.0"
     inkscape:pageopacity="0.0"
     inkscape:pageshadow="2"
     inkscape:zoom="16.4375"
     inkscape:cx="16.760456"
     inkscape:cy="24"
     inkscape:document-units="px"
     inkscape:current-layer="layer1"
     showgrid="true"
     inkscape:window-width="1680"
     inkscape:window-height="995"
     inkscape:window-x="-2"
     inkscape:window-y="-3"
     inkscape:window-maximized="1">
    <inkscape:grid
       type="xygrid"
       id="grid5942"
       empspacing="5"
       visible="true"
       enabled="true"
       snapvisiblegridlinesonly="true" />
  </sodipodi:namedview>
  <metadata
     id="metadata7">
    <rdf:RDF>
      <cc:Work
         rdf:about="">
        <dc:format>image/svg+xml</dc:format>
        <dc:type
           rdf:resource="http://purl.org/dc/dcmitype/StillImage" />
        <dc:title />
      </cc:Work>
    </rdf:RDF>
  </metadata>
  <g
     inkscape:label="Layer 1"
     inkscape:groupmode="layer"
     id="layer1"
     transform="translate(0,-1020.3622)">
    <g
       style="font-size:40px;font-style:normal;font-variant:normal;font-weight:normal;font-stretch:normal;text-align:start;line-height:125%;letter-spacing:0px;word-spacing:0px;writing-mode:lr-tb;text-anchor:start;fill:#ffffff;fill-opacity:1;stroke:#808080;stroke-opacity:1;font-family:FreeSerif;-inkscape-font-specification:FreeSerif"
       id="text2985"
       transform="translate(-8,10.7681)">
      <path
         d="m 23.74,1018.4341 c -0.720014,-2.1333 -1.280013,-3.4666 -1.68,-4 -0.373346,-0.56 -1.000012,-0.8933 -1.88,-1 l 0,-0.6 8.12,0 0,0.6 c -0.933351,0.1334 -1.560017,0.2934 -1.88,0.48 -0.29335,0.1867 -0.440016,0.5067 -0.44,0.96 -1.6e-5,0.3467 0.22665,1.1334 0.68,2.36 l 3.36,8.96 3.6,-8.88 c 0.453309,-1.12 0.679975,-2 0.68,-2.64 -2.5e-5,-0.3466 -0.120025,-0.6 -0.36,-0.76 -0.240024,-0.1866 -0.70669,-0.3466 -1.4,-0.48 l 0,-0.6 4.92,0 0,0.6 c -0.400028,0.1334 -0.693361,0.32 -0.88,0.56 -0.160027,0.24 -0.41336,0.7734 -0.76,1.6 l -5.52,13.84 c -0.533354,1.3067 -0.906687,1.96 -1.12,1.96 -0.213353,0 -0.533352,-0.5733 -0.96,-1.72 l -3.64,-9.44 -4.48,9.6 c -0.48001,1.04 -0.813343,1.56 -1,1.56 -0.213343,0 -0.560009,-0.5867 -1.04,-1.76 l -5.4,-13.68 c -0.400003,-1.0133 -0.733336,-1.6666 -1,-1.96 -0.266669,-0.32 -0.640002,-0.5066 -1.12,-0.56 l 0,-0.6 7.2,0 0,0.6 c -0.693341,0.08 -1.17334,0.2134 -1.44,0.4 -0.266673,0.1867 -0.400006,0.4934 -0.4,0.92 -6e-6,0.4 0.07999,0.8 0.24,1.2 l 3.96,10.44 3.64,-7.96"
         id="path3757"
         inkscape:connector-curvature="0" />
    </g>
    <path
       style="fill:none;stroke:#000000;stroke-width:1px;stroke-linecap:butt;stroke-linejoin:miter;stroke-opacity:0.50196078"
       d="m 1,1050.3622 5,-5 5,5 5,-5 5,5 5,-5 5,5 0,-3 -5,-5 -5,5 -5,-5 -5,5 -5,-5 -5,5 z"
       id="path5967"
       inkscape:connector-curvature="0" />
  </g>
</svg>
